<?xml version="1.0" encoding="UTF-8" standalone="no"?>
<!DOCTYPE svg PUBLIC "-//W3C//DTD SVG 1.1//EN"
 "http://www.w3.org/Graphics/SVG/1.1/DTD/svg11.dtd">
<!-- Generated by graphviz version 2.40.1 (20161225.0304)
 -->
<!-- Title: G Pages: 1 -->
<svg width="1666pt" height="260pt"
 viewBox="0.00 0.00 1666.49 260.00" xmlns="http://www.w3.org/2000/svg" xmlns:xlink="http://www.w3.org/1999/xlink">
<g id="graph0" class="graph" transform="scale(1 1) rotate(0) translate(4 256)">
<title>G</title>
<polygon fill="#ffffff" stroke="transparent" points="-4,4 -4,-256 1662.4879,-256 1662.4879,4 -4,4"/>
<!-- ContinuousVector -->
<g id="node1" class="node">
<title>ContinuousVector</title>
<ellipse fill="none" stroke="#000000" cx="94.2416" cy="-90" rx="94.4839" ry="18"/>
<text text-anchor="middle" x="94.2416" y="-86.3" font-family="Times,serif" font-size="14.00" fill="#000000">ContinuousVector</text>
</g>
<!-- Tuple -->
<g id="node2" class="node">
<title>Tuple</title>
<ellipse fill="none" stroke="#000000" cx="277.2416" cy="-162" rx="37.0935" ry="18"/>
<text text-anchor="middle" x="277.2416" y="-158.3" font-family="Times,serif" font-size="14.00" fill="#000000">Tuple</text>
</g>
<!-- DenseMatrix -->
<g id="node3" class="node">
<title>DenseMatrix</title>
<ellipse fill="none" stroke="#000000" cx="1073.2416" cy="-90" rx="70.6878" ry="18"/>
<text text-anchor="middle" x="1073.2416" y="-86.3" font-family="Times,serif" font-size="14.00" fill="#000000">DenseMatrix</text>
</g>
<!-- MatrixContinuousDense -->
<g id="node7" class="node">
<title>MatrixContinuousDense</title>
<ellipse fill="none" stroke="#000000" cx="1098.2416" cy="-18" rx="124.2781" ry="18"/>
<text text-anchor="middle" x="1098.2416" y="-14.3" font-family="Times,serif" font-size="14.00" fill="#000000">MatrixContinuousDense</text>
</g>
<!-- DenseMatrix&#45;&gt;MatrixContinuousDense -->
<g id="edge8" class="edge">
<title>DenseMatrix&#45;&gt;MatrixContinuousDense</title>
<path fill="none" stroke="#000000" d="M1079.5502,-71.8314C1082.2533,-64.0463 1085.4733,-54.7729 1088.4726,-46.1347"/>
<polygon fill="#000000" stroke="#000000" points="1091.8743,-47.0081 1091.8481,-36.4133 1085.2616,-44.7119 1091.8743,-47.0081"/>
</g>
<!-- Flags -->
<g id="node4" class="node">
<title>Flags</title>
<ellipse fill="none" stroke="#000000" cx="368.2416" cy="-162" rx="36.2938" ry="18"/>
<text text-anchor="middle" x="368.2416" y="-158.3" font-family="Times,serif" font-size="14.00" fill="#000000">Flags</text>
</g>
<!-- Vector -->
<g id="node5" class="node">
<title>Vector</title>
<ellipse fill="none" stroke="#000000" cx="463.2416" cy="-162" rx="40.8928" ry="18"/>
<text text-anchor="middle" x="463.2416" y="-158.3" font-family="Times,serif" font-size="14.00" fill="#000000">Vector</text>
</g>
<!-- Vector&#45;&gt;ContinuousVector -->
<g id="edge1" class="edge">
<title>Vector&#45;&gt;ContinuousVector</title>
<path fill="none" stroke="#000000" d="M432.576,-149.9778C426.248,-147.7759 419.5796,-145.6545 413.2416,-144 319.0732,-119.4173 293.178,-124.3772 197.2416,-108 189.6297,-106.7006 181.7034,-105.336 173.7775,-103.9637"/>
<polygon fill="#000000" stroke="#000000" points="174.213,-100.4871 163.7618,-102.2258 173.0162,-107.384 174.213,-100.4871"/>
</g>
<!-- DiscreteVector -->
<g id="node15" class="node">
<title>DiscreteVector</title>
<ellipse fill="none" stroke="#000000" cx="287.2416" cy="-90" rx="80.6858" ry="18"/>
<text text-anchor="middle" x="287.2416" y="-86.3" font-family="Times,serif" font-size="14.00" fill="#000000">DiscreteVector</text>
</g>
<!-- Vector&#45;&gt;DiscreteVector -->
<g id="edge16" class="edge">
<title>Vector&#45;&gt;DiscreteVector</title>
<path fill="none" stroke="#000000" d="M432.9862,-149.6228C406.1763,-138.6551 366.5642,-122.4501 335.4012,-109.7016"/>
<polygon fill="#000000" stroke="#000000" points="336.6054,-106.4128 326.0247,-105.8658 333.9549,-112.8916 336.6054,-106.4128"/>
</g>
<!-- CategoricalVector -->
<g id="node25" class="node">
<title>CategoricalVector</title>
<ellipse fill="none" stroke="#000000" cx="480.2416" cy="-90" rx="94.7833" ry="18"/>
<text text-anchor="middle" x="480.2416" y="-86.3" font-family="Times,serif" font-size="14.00" fill="#000000">CategoricalVector</text>
</g>
<!-- Vector&#45;&gt;CategoricalVector -->
<g id="edge26" class="edge">
<title>Vector&#45;&gt;CategoricalVector</title>
<path fill="none" stroke="#000000" d="M467.5315,-143.8314C469.3496,-136.131 471.5116,-126.9743 473.5322,-118.4166"/>
<polygon fill="#000000" stroke="#000000" points="477.0024,-118.95 475.8941,-108.4133 470.1897,-117.3414 477.0024,-118.95"/>
</g>
<!-- Tensor3 -->
<g id="node6" class="node">
<title>Tensor3</title>
<ellipse fill="none" stroke="#000000" cx="570.2416" cy="-162" rx="48.1917" ry="18"/>
<text text-anchor="middle" x="570.2416" y="-158.3" font-family="Times,serif" font-size="14.00" fill="#000000">Tensor3</text>
</g>
<!-- Text -->
<g id="node8" class="node">
<title>Text</title>
<ellipse fill="none" stroke="#000000" cx="667.2416" cy="-162" rx="31.3957" ry="18"/>
<text text-anchor="middle" x="667.2416" y="-158.3" font-family="Times,serif" font-size="14.00" fill="#000000">Text</text>
</g>
<!-- Document -->
<g id="node9" class="node">
<title>Document</title>
<ellipse fill="none" stroke="#000000" cx="651.2416" cy="-90" rx="58.4896" ry="18"/>
<text text-anchor="middle" x="651.2416" y="-86.3" font-family="Times,serif" font-size="14.00" fill="#000000">Document</text>
</g>
<!-- Text&#45;&gt;Document -->
<g id="edge10" class="edge">
<title>Text&#45;&gt;Document</title>
<path fill="none" stroke="#000000" d="M663.2042,-143.8314C661.493,-136.131 659.4582,-126.9743 657.5564,-118.4166"/>
<polygon fill="#000000" stroke="#000000" points="660.9195,-117.4159 655.3335,-108.4133 654.0862,-118.9344 660.9195,-117.4159"/>
</g>
<!-- Sentence -->
<g id="node21" class="node">
<title>Sentence</title>
<ellipse fill="none" stroke="#000000" cx="781.2416" cy="-90" rx="53.8905" ry="18"/>
<text text-anchor="middle" x="781.2416" y="-86.3" font-family="Times,serif" font-size="14.00" fill="#000000">Sentence</text>
</g>
<!-- Text&#45;&gt;Sentence -->
<g id="edge22" class="edge">
<title>Text&#45;&gt;Sentence</title>
<path fill="none" stroke="#000000" d="M688.417,-148.6261C704.8708,-138.2342 728.0222,-123.6123 747.0874,-111.5711"/>
<polygon fill="#000000" stroke="#000000" points="749.2094,-114.3706 755.7953,-106.0714 745.4714,-108.4521 749.2094,-114.3706"/>
</g>
<!-- Word -->
<g id="node23" class="node">
<title>Word</title>
<ellipse fill="none" stroke="#000000" cx="889.2416" cy="-90" rx="35.9954" ry="18"/>
<text text-anchor="middle" x="889.2416" y="-86.3" font-family="Times,serif" font-size="14.00" fill="#000000">Word</text>
</g>
<!-- Text&#45;&gt;Word -->
<g id="edge24" class="edge">
<title>Text&#45;&gt;Word</title>
<path fill="none" stroke="#000000" d="M691.518,-150.3036C696.6468,-148.0516 702.0724,-145.828 707.2416,-144 766.5956,-123.0104 784.4566,-127.7283 844.2416,-108 846.9384,-107.1101 849.7063,-106.142 852.4796,-105.1317"/>
<polygon fill="#000000" stroke="#000000" points="853.7233,-108.4034 861.8344,-101.5872 851.243,-101.8575 853.7233,-108.4034"/>
</g>
<!-- Summary -->
<g id="node24" class="node">
<title>Summary</title>
<ellipse fill="none" stroke="#000000" cx="651.2416" cy="-18" rx="55.7903" ry="18"/>
<text text-anchor="middle" x="651.2416" y="-14.3" font-family="Times,serif" font-size="14.00" fill="#000000">Summary</text>
</g>
<!-- Document&#45;&gt;Summary -->
<g id="edge25" class="edge">
<title>Document&#45;&gt;Summary</title>
<path fill="none" stroke="#000000" d="M651.2416,-71.8314C651.2416,-64.131 651.2416,-54.9743 651.2416,-46.4166"/>
<polygon fill="#000000" stroke="#000000" points="654.7417,-46.4132 651.2416,-36.4133 647.7417,-46.4133 654.7417,-46.4132"/>
</g>
<!-- Postag -->
<g id="node10" class="node">
<title>Postag</title>
<ellipse fill="none" stroke="#000000" cx="758.2416" cy="-162" rx="42.4939" ry="18"/>
<text text-anchor="middle" x="758.2416" y="-158.3" font-family="Times,serif" font-size="14.00" fill="#000000">Postag</text>
</g>
<!-- Stem -->
<g id="node11" class="node">
<title>Stem</title>
<ellipse fill="none" stroke="#000000" cx="853.2416" cy="-162" rx="35.194" ry="18"/>
<text text-anchor="middle" x="853.2416" y="-158.3" font-family="Times,serif" font-size="14.00" fill="#000000">Stem</text>
</g>
<!-- Sentiment -->
<g id="node12" class="node">
<title>Sentiment</title>
<ellipse fill="none" stroke="#000000" cx="965.2416" cy="-162" rx="59.2899" ry="18"/>
<text text-anchor="middle" x="965.2416" y="-158.3" font-family="Times,serif" font-size="14.00" fill="#000000">Sentiment</text>
</g>
<!-- MatrixContinuous -->
<g id="node13" class="node">
<title>MatrixContinuous</title>
<ellipse fill="none" stroke="#000000" cx="1257.2416" cy="-90" rx="94.7833" ry="18"/>
<text text-anchor="middle" x="1257.2416" y="-86.3" font-family="Times,serif" font-size="14.00" fill="#000000">MatrixContinuous</text>
</g>
<!-- MatrixContinuous&#45;&gt;MatrixContinuousDense -->
<g id="edge7" class="edge">
<title>MatrixContinuous&#45;&gt;MatrixContinuousDense</title>
<path fill="none" stroke="#000000" d="M1220.3642,-73.3008C1198.0925,-63.2155 1169.4844,-50.2609 1145.5565,-39.4256"/>
<polygon fill="#000000" stroke="#000000" points="1146.8542,-36.1711 1136.3008,-35.2344 1143.9666,-42.5478 1146.8542,-36.1711"/>
</g>
<!-- MatrixContinuousSparse -->
<g id="node26" class="node">
<title>MatrixContinuousSparse</title>
<ellipse fill="none" stroke="#000000" cx="1418.2416" cy="-18" rx="127.2775" ry="18"/>
<text text-anchor="middle" x="1418.2416" y="-14.3" font-family="Times,serif" font-size="14.00" fill="#000000">MatrixContinuousSparse</text>
</g>
<!-- MatrixContinuous&#45;&gt;MatrixContinuousSparse -->
<g id="edge27" class="edge">
<title>MatrixContinuous&#45;&gt;MatrixContinuousSparse</title>
<path fill="none" stroke="#000000" d="M1294.5829,-73.3008C1317.1348,-63.2155 1346.1027,-50.2609 1370.3316,-39.4256"/>
<polygon fill="#000000" stroke="#000000" points="1372.0038,-42.5119 1379.7037,-35.2344 1369.1461,-36.1218 1372.0038,-42.5119"/>
</g>
<!-- Entity -->
<g id="node14" class="node">
<title>Entity</title>
<ellipse fill="none" stroke="#000000" cx="1082.2416" cy="-162" rx="39.7935" ry="18"/>
<text text-anchor="middle" x="1082.2416" y="-158.3" font-family="Times,serif" font-size="14.00" fill="#000000">Entity</text>
</g>
<!-- SparseMatrix -->
<g id="node16" class="node">
<title>SparseMatrix</title>
<ellipse fill="none" stroke="#000000" cx="1444.2416" cy="-90" rx="74.187" ry="18"/>
<text text-anchor="middle" x="1444.2416" y="-86.3" font-family="Times,serif" font-size="14.00" fill="#000000">SparseMatrix</text>
</g>
<!-- SparseMatrix&#45;&gt;MatrixContinuousSparse -->
<g id="edge28" class="edge">
<title>SparseMatrix&#45;&gt;MatrixContinuousSparse</title>
<path fill="none" stroke="#000000" d="M1437.6807,-71.8314C1434.8389,-63.9617 1431.4479,-54.5712 1428.2998,-45.8533"/>
<polygon fill="#000000" stroke="#000000" points="1431.5793,-44.63 1424.8909,-36.4133 1424.9954,-47.0076 1431.5793,-44.63"/>
</g>
<!-- List -->
<g id="node17" class="node">
<title>List</title>
<ellipse fill="none" stroke="#000000" cx="1168.2416" cy="-162" rx="28.6953" ry="18"/>
<text text-anchor="middle" x="1168.2416" y="-158.3" font-family="Times,serif" font-size="14.00" fill="#000000">List</text>
</g>
<!-- Matrix -->
<g id="node18" class="node">
<title>Matrix</title>
<ellipse fill="none" stroke="#000000" cx="1257.2416" cy="-162" rx="42.4939" ry="18"/>
<text text-anchor="middle" x="1257.2416" y="-158.3" font-family="Times,serif" font-size="14.00" fill="#000000">Matrix</text>
</g>
<!-- Matrix&#45;&gt;DenseMatrix -->
<g id="edge3" class="edge">
<title>Matrix&#45;&gt;DenseMatrix</title>
<path fill="none" stroke="#000000" d="M1226.0285,-149.7862C1197.3795,-138.5757 1154.4956,-121.795 1121.4465,-108.8628"/>
<polygon fill="#000000" stroke="#000000" points="1122.5579,-105.5393 1111.9701,-105.1546 1120.0071,-112.058 1122.5579,-105.5393"/>
</g>
<!-- Matrix&#45;&gt;MatrixContinuous -->
<g id="edge14" class="edge">
<title>Matrix&#45;&gt;MatrixContinuous</title>
<path fill="none" stroke="#000000" d="M1257.2416,-143.8314C1257.2416,-136.131 1257.2416,-126.9743 1257.2416,-118.4166"/>
<polygon fill="#000000" stroke="#000000" points="1260.7417,-118.4132 1257.2416,-108.4133 1253.7417,-118.4133 1260.7417,-118.4132"/>
</g>
<!-- Matrix&#45;&gt;SparseMatrix -->
<g id="edge17" class="edge">
<title>Matrix&#45;&gt;SparseMatrix</title>
<path fill="none" stroke="#000000" d="M1288.9636,-149.7862C1317.985,-138.6122 1361.3791,-121.9043 1394.9223,-108.9893"/>
<polygon fill="#000000" stroke="#000000" points="1396.4699,-112.1439 1404.5444,-105.2845 1393.9546,-105.6114 1396.4699,-112.1439"/>
</g>
<!-- Category -->
<g id="node19" class="node">
<title>Category</title>
<ellipse fill="none" stroke="#000000" cx="1371.2416" cy="-162" rx="53.8905" ry="18"/>
<text text-anchor="middle" x="1371.2416" y="-158.3" font-family="Times,serif" font-size="14.00" fill="#000000">Category</text>
</g>
<!-- Chunktag -->
<g id="node20" class="node">
<title>Chunktag</title>
<ellipse fill="none" stroke="#000000" cx="1499.2416" cy="-162" rx="56.59" ry="18"/>
<text text-anchor="middle" x="1499.2416" y="-158.3" font-family="Times,serif" font-size="14.00" fill="#000000">Chunktag</text>
</g>
<!-- Synset -->
<g id="node22" class="node">
<title>Synset</title>
<ellipse fill="none" stroke="#000000" cx="1616.2416" cy="-162" rx="42.4939" ry="18"/>
<text text-anchor="middle" x="1616.2416" y="-158.3" font-family="Times,serif" font-size="14.00" fill="#000000">Synset</text>
</g>
<!-- DataType -->
<g id="node27" class="node">
<title>DataType</title>
<ellipse fill="none" stroke="#000000" cx="909.2416" cy="-234" rx="55.7903" ry="18"/>
<text text-anchor="middle" x="909.2416" y="-230.3" font-family="Times,serif" font-size="14.00" fill="#000000">DataType</text>
</g>
<!-- DataType&#45;&gt;Tuple -->
<g id="edge2" class="edge">
<title>DataType&#45;&gt;Tuple</title>
<path fill="none" stroke="#000000" d="M854.0242,-230.8962C728.1834,-223.5016 423.2826,-203.6815 323.2416,-180 320.4252,-179.3333 317.5518,-178.5295 314.6855,-177.6364"/>
<polygon fill="#000000" stroke="#000000" points="315.6551,-174.2687 305.0604,-174.3251 313.3778,-180.8879 315.6551,-174.2687"/>
</g>
<!-- DataType&#45;&gt;Flags -->
<g id="edge4" class="edge">
<title>DataType&#45;&gt;Flags</title>
<path fill="none" stroke="#000000" d="M853.3313,-232.8427C760.5654,-229.8327 569.5639,-218.997 413.2416,-180 410.5781,-179.3355 407.8626,-178.5481 405.1516,-177.6798"/>
<polygon fill="#000000" stroke="#000000" points="406.05,-174.2853 395.4552,-174.2568 403.7197,-180.8861 406.05,-174.2853"/>
</g>
<!-- DataType&#45;&gt;Vector -->
<g id="edge5" class="edge">
<title>DataType&#45;&gt;Vector</title>
<path fill="none" stroke="#000000" d="M854.4386,-230.184C777.381,-223.9954 633.0248,-209.3817 513.2416,-180 510.0607,-179.2198 506.8005,-178.3098 503.5442,-177.321"/>
<polygon fill="#000000" stroke="#000000" points="504.4623,-173.9391 493.87,-174.1695 502.2941,-180.5949 504.4623,-173.9391"/>
</g>
<!-- DataType&#45;&gt;Tensor3 -->
<g id="edge6" class="edge">
<title>DataType&#45;&gt;Tensor3</title>
<path fill="none" stroke="#000000" d="M858.6762,-226.1461C801.9375,-216.9108 707.346,-200.2441 627.2416,-180 623.607,-179.0815 619.8632,-178.0637 616.1133,-176.9931"/>
<polygon fill="#000000" stroke="#000000" points="616.8262,-173.5539 606.2438,-174.0672 614.8365,-180.2652 616.8262,-173.5539"/>
</g>
<!-- DataType&#45;&gt;Text -->
<g id="edge9" class="edge">
<title>DataType&#45;&gt;Text</title>
<path fill="none" stroke="#000000" d="M862.8655,-223.8564C821.4984,-214.2786 759.5648,-198.6286 707.2416,-180 705.1432,-179.2529 703.0021,-178.4415 700.8555,-177.5904"/>
<polygon fill="#000000" stroke="#000000" points="702.0996,-174.3169 691.524,-173.6793 699.3938,-180.7728 702.0996,-174.3169"/>
</g>
<!-- DataType&#45;&gt;Postag -->
<g id="edge11" class="edge">
<title>DataType&#45;&gt;Postag</title>
<path fill="none" stroke="#000000" d="M877.9543,-219.0816C854.0555,-207.6861 821.0312,-191.9394 795.7209,-179.8709"/>
<polygon fill="#000000" stroke="#000000" points="796.9661,-176.5872 786.4333,-175.4424 793.9533,-182.9056 796.9661,-176.5872"/>
</g>
<!-- DataType&#45;&gt;Stem -->
<g id="edge12" class="edge">
<title>DataType&#45;&gt;Stem</title>
<path fill="none" stroke="#000000" d="M895.3989,-216.2022C888.5851,-207.4416 880.2533,-196.7293 872.8014,-187.1482"/>
<polygon fill="#000000" stroke="#000000" points="875.4417,-184.842 866.5395,-179.0972 869.9162,-189.1396 875.4417,-184.842"/>
</g>
<!-- DataType&#45;&gt;Sentiment -->
<g id="edge13" class="edge">
<title>DataType&#45;&gt;Sentiment</title>
<path fill="none" stroke="#000000" d="M923.0843,-216.2022C929.798,-207.5704 937.9852,-197.0439 945.3526,-187.5717"/>
<polygon fill="#000000" stroke="#000000" points="948.1815,-189.6354 951.5582,-179.593 942.656,-185.3378 948.1815,-189.6354"/>
</g>
<!-- DataType&#45;&gt;Entity -->
<g id="edge15" class="edge">
<title>DataType&#45;&gt;Entity</title>
<path fill="none" stroke="#000000" d="M943.835,-219.6028C972.6631,-207.6049 1013.6972,-190.5272 1043.5981,-178.0829"/>
<polygon fill="#000000" stroke="#000000" points="1044.9979,-181.2914 1052.8854,-174.2176 1042.3082,-174.8287 1044.9979,-181.2914"/>
</g>
<!-- DataType&#45;&gt;List -->
<g id="edge18" class="edge">
<title>DataType&#45;&gt;List</title>
<path fill="none" stroke="#000000" d="M958.1898,-225.2306C1003.7689,-216.3338 1073.2108,-200.9002 1131.2416,-180 1133.1067,-179.3283 1135.0021,-178.5907 1136.8995,-177.8094"/>
<polygon fill="#000000" stroke="#000000" points="1138.5557,-180.9034 1146.2703,-173.6414 1135.7109,-174.5075 1138.5557,-180.9034"/>
</g>
<!-- DataType&#45;&gt;Matrix -->
<g id="edge19" class="edge">
<title>DataType&#45;&gt;Matrix</title>
<path fill="none" stroke="#000000" d="M961.0331,-227.1414C1020.7354,-218.6475 1121.5259,-202.4975 1206.2416,-180 1209.4179,-179.1565 1212.6789,-178.2072 1215.9421,-177.1968"/>
<polygon fill="#000000" stroke="#000000" points="1217.2352,-180.4565 1225.656,-174.0269 1215.0636,-173.8019 1217.2352,-180.4565"/>
</g>
<!-- DataType&#45;&gt;Category -->
<g id="edge20" class="edge">
<title>DataType&#45;&gt;Category</title>
<path fill="none" stroke="#000000" d="M963.2257,-229.1805C1040.3119,-221.737 1186.1146,-205.5725 1308.2416,-180 1312.6186,-179.0835 1317.1369,-178.024 1321.65,-176.8871"/>
<polygon fill="#000000" stroke="#000000" points="1322.6871,-180.2333 1331.4645,-174.2998 1320.9027,-173.4645 1322.6871,-180.2333"/>
</g>
<!-- DataType&#45;&gt;Chunktag -->
<g id="edge21" class="edge">
<title>DataType&#45;&gt;Chunktag</title>
<path fill="none" stroke="#000000" d="M964.8589,-231.3484C1061.1774,-226.0751 1264.9649,-211.9106 1434.2416,-180 1438.8875,-179.1242 1443.6847,-178.0769 1448.47,-176.934"/>
<polygon fill="#000000" stroke="#000000" points="1449.3807,-180.3141 1458.2233,-174.4782 1447.6714,-173.526 1449.3807,-180.3141"/>
</g>
<!-- DataType&#45;&gt;Synset -->
<g id="edge23" class="edge">
<title>DataType&#45;&gt;Synset</title>
<path fill="none" stroke="#000000" d="M964.583,-231.2774C1101.0868,-224.2674 1451.0506,-204.424 1565.2416,-180 1568.6504,-179.2709 1572.143,-178.3747 1575.6235,-177.3753"/>
<polygon fill="#000000" stroke="#000000" points="1576.8238,-180.6671 1585.3205,-174.338 1574.7315,-173.9871 1576.8238,-180.6671"/>
</g>
</g>
</svg>
