<?xml version="1.0" encoding="UTF-8" standalone="no"?>
<!DOCTYPE svg PUBLIC "-//W3C//DTD SVG 1.1//EN"
 "http://www.w3.org/Graphics/SVG/1.1/DTD/svg11.dtd">
<!-- Generated by graphviz version 2.40.1 (20161225.0304)
 -->
<!-- Title: G Pages: 1 -->
<svg width="1890pt" height="260pt"
 viewBox="0.00 0.00 1889.64 260.00" xmlns="http://www.w3.org/2000/svg" xmlns:xlink="http://www.w3.org/1999/xlink">
<g id="graph0" class="graph" transform="scale(1 1) rotate(0) translate(4 256)">
<title>G</title>
<polygon fill="#ffffff" stroke="transparent" points="-4,4 -4,-256 1885.6396,-256 1885.6396,4 -4,4"/>
<!-- Vector -->
<g id="node1" class="node">
<title>Vector</title>
<ellipse fill="none" stroke="#000000" cx="416.5928" cy="-162" rx="40.8928" ry="18"/>
<text text-anchor="middle" x="416.5928" y="-158.3" font-family="Times,serif" font-size="14.00" fill="#000000">Vector</text>
</g>
<!-- DiscreteVector -->
<g id="node11" class="node">
<title>DiscreteVector</title>
<ellipse fill="none" stroke="#000000" cx="80.5928" cy="-90" rx="80.6858" ry="18"/>
<text text-anchor="middle" x="80.5928" y="-86.3" font-family="Times,serif" font-size="14.00" fill="#000000">DiscreteVector</text>
</g>
<!-- Vector&#45;&gt;DiscreteVector -->
<g id="edge12" class="edge">
<title>Vector&#45;&gt;DiscreteVector</title>
<path fill="none" stroke="#000000" d="M379.6738,-154.0888C324.2665,-142.2158 218.6844,-119.591 148.9563,-104.6493"/>
<polygon fill="#000000" stroke="#000000" points="149.4503,-101.1758 138.9389,-102.5027 147.9836,-108.0204 149.4503,-101.1758"/>
</g>
<!-- CategoricalVector -->
<g id="node22" class="node">
<title>CategoricalVector</title>
<ellipse fill="none" stroke="#000000" cx="273.5928" cy="-90" rx="94.7833" ry="18"/>
<text text-anchor="middle" x="273.5928" y="-86.3" font-family="Times,serif" font-size="14.00" fill="#000000">CategoricalVector</text>
</g>
<!-- Vector&#45;&gt;CategoricalVector -->
<g id="edge23" class="edge">
<title>Vector&#45;&gt;CategoricalVector</title>
<path fill="none" stroke="#000000" d="M389.359,-148.2879C368.7558,-137.9142 340.0677,-123.4699 316.405,-111.5558"/>
<polygon fill="#000000" stroke="#000000" points="317.7839,-108.3315 307.2782,-106.9604 314.6359,-114.5837 317.7839,-108.3315"/>
</g>
<!-- ContinuousVector -->
<g id="node24" class="node">
<title>ContinuousVector</title>
<ellipse fill="none" stroke="#000000" cx="480.5928" cy="-90" rx="94.4839" ry="18"/>
<text text-anchor="middle" x="480.5928" y="-86.3" font-family="Times,serif" font-size="14.00" fill="#000000">ContinuousVector</text>
</g>
<!-- Vector&#45;&gt;ContinuousVector -->
<g id="edge26" class="edge">
<title>Vector&#45;&gt;ContinuousVector</title>
<path fill="none" stroke="#000000" d="M431.76,-144.937C439.5767,-136.1431 449.2668,-125.2418 457.9494,-115.4739"/>
<polygon fill="#000000" stroke="#000000" points="460.6138,-117.7447 464.6415,-107.9453 455.3819,-113.0941 460.6138,-117.7447"/>
</g>
<!-- Tensor3 -->
<g id="node2" class="node">
<title>Tensor3</title>
<ellipse fill="none" stroke="#000000" cx="610.5928" cy="-162" rx="48.1917" ry="18"/>
<text text-anchor="middle" x="610.5928" y="-158.3" font-family="Times,serif" font-size="14.00" fill="#000000">Tensor3</text>
</g>
<!-- Text -->
<g id="node3" class="node">
<title>Text</title>
<ellipse fill="none" stroke="#000000" cx="707.5928" cy="-162" rx="31.3957" ry="18"/>
<text text-anchor="middle" x="707.5928" y="-158.3" font-family="Times,serif" font-size="14.00" fill="#000000">Text</text>
</g>
<!-- Document -->
<g id="node4" class="node">
<title>Document</title>
<ellipse fill="none" stroke="#000000" cx="651.5928" cy="-90" rx="58.4896" ry="18"/>
<text text-anchor="middle" x="651.5928" y="-86.3" font-family="Times,serif" font-size="14.00" fill="#000000">Document</text>
</g>
<!-- Text&#45;&gt;Document -->
<g id="edge4" class="edge">
<title>Text&#45;&gt;Document</title>
<path fill="none" stroke="#000000" d="M694.6046,-145.3008C687.7386,-136.4731 679.1628,-125.4471 671.4792,-115.5682"/>
<polygon fill="#000000" stroke="#000000" points="674.1942,-113.3579 665.292,-107.6132 668.6687,-117.6555 674.1942,-113.3579"/>
</g>
<!-- Word -->
<g id="node15" class="node">
<title>Word</title>
<ellipse fill="none" stroke="#000000" cx="763.5928" cy="-90" rx="35.9954" ry="18"/>
<text text-anchor="middle" x="763.5928" y="-86.3" font-family="Times,serif" font-size="14.00" fill="#000000">Word</text>
</g>
<!-- Text&#45;&gt;Word -->
<g id="edge16" class="edge">
<title>Text&#45;&gt;Word</title>
<path fill="none" stroke="#000000" d="M720.5811,-145.3008C727.5481,-136.3433 736.2755,-125.1223 744.0449,-115.1331"/>
<polygon fill="#000000" stroke="#000000" points="746.9094,-117.151 750.2861,-107.1086 741.3839,-112.8534 746.9094,-117.151"/>
</g>
<!-- Sentence -->
<g id="node18" class="node">
<title>Sentence</title>
<ellipse fill="none" stroke="#000000" cx="871.5928" cy="-90" rx="53.8905" ry="18"/>
<text text-anchor="middle" x="871.5928" y="-86.3" font-family="Times,serif" font-size="14.00" fill="#000000">Sentence</text>
</g>
<!-- Text&#45;&gt;Sentence -->
<g id="edge19" class="edge">
<title>Text&#45;&gt;Sentence</title>
<path fill="none" stroke="#000000" d="M732.5369,-150.719C737.5192,-148.4816 742.7186,-146.158 747.5928,-144 774.6977,-132.0001 805.2243,-118.7035 829.2066,-108.3073"/>
<polygon fill="#000000" stroke="#000000" points="830.6028,-111.5168 838.3878,-104.3304 827.8204,-105.0935 830.6028,-111.5168"/>
</g>
<!-- Summary -->
<g id="node21" class="node">
<title>Summary</title>
<ellipse fill="none" stroke="#000000" cx="651.5928" cy="-18" rx="55.7903" ry="18"/>
<text text-anchor="middle" x="651.5928" y="-14.3" font-family="Times,serif" font-size="14.00" fill="#000000">Summary</text>
</g>
<!-- Document&#45;&gt;Summary -->
<g id="edge22" class="edge">
<title>Document&#45;&gt;Summary</title>
<path fill="none" stroke="#000000" d="M651.5928,-71.8314C651.5928,-64.131 651.5928,-54.9743 651.5928,-46.4166"/>
<polygon fill="#000000" stroke="#000000" points="655.0929,-46.4132 651.5928,-36.4133 648.0929,-46.4133 655.0929,-46.4132"/>
</g>
<!-- Postag -->
<g id="node5" class="node">
<title>Postag</title>
<ellipse fill="none" stroke="#000000" cx="798.5928" cy="-162" rx="42.4939" ry="18"/>
<text text-anchor="middle" x="798.5928" y="-158.3" font-family="Times,serif" font-size="14.00" fill="#000000">Postag</text>
</g>
<!-- Stem -->
<g id="node6" class="node">
<title>Stem</title>
<ellipse fill="none" stroke="#000000" cx="893.5928" cy="-162" rx="35.194" ry="18"/>
<text text-anchor="middle" x="893.5928" y="-158.3" font-family="Times,serif" font-size="14.00" fill="#000000">Stem</text>
</g>
<!-- Sentiment -->
<g id="node7" class="node">
<title>Sentiment</title>
<ellipse fill="none" stroke="#000000" cx="1005.5928" cy="-162" rx="59.2899" ry="18"/>
<text text-anchor="middle" x="1005.5928" y="-158.3" font-family="Times,serif" font-size="14.00" fill="#000000">Sentiment</text>
</g>
<!-- MatrixContinuous -->
<g id="node8" class="node">
<title>MatrixContinuous</title>
<ellipse fill="none" stroke="#000000" cx="1297.5928" cy="-90" rx="94.7833" ry="18"/>
<text text-anchor="middle" x="1297.5928" y="-86.3" font-family="Times,serif" font-size="14.00" fill="#000000">MatrixContinuous</text>
</g>
<!-- MatrixContinuousDense -->
<g id="node10" class="node">
<title>MatrixContinuousDense</title>
<ellipse fill="none" stroke="#000000" cx="1138.5928" cy="-18" rx="124.2781" ry="18"/>
<text text-anchor="middle" x="1138.5928" y="-14.3" font-family="Times,serif" font-size="14.00" fill="#000000">MatrixContinuousDense</text>
</g>
<!-- MatrixContinuous&#45;&gt;MatrixContinuousDense -->
<g id="edge10" class="edge">
<title>MatrixContinuous&#45;&gt;MatrixContinuousDense</title>
<path fill="none" stroke="#000000" d="M1260.7154,-73.3008C1238.4437,-63.2155 1209.8357,-50.2609 1185.9077,-39.4256"/>
<polygon fill="#000000" stroke="#000000" points="1187.2054,-36.1711 1176.652,-35.2344 1184.3178,-42.5478 1187.2054,-36.1711"/>
</g>
<!-- MatrixContinuousSparse -->
<g id="node23" class="node">
<title>MatrixContinuousSparse</title>
<ellipse fill="none" stroke="#000000" cx="1458.5928" cy="-18" rx="127.2775" ry="18"/>
<text text-anchor="middle" x="1458.5928" y="-14.3" font-family="Times,serif" font-size="14.00" fill="#000000">MatrixContinuousSparse</text>
</g>
<!-- MatrixContinuous&#45;&gt;MatrixContinuousSparse -->
<g id="edge24" class="edge">
<title>MatrixContinuous&#45;&gt;MatrixContinuousSparse</title>
<path fill="none" stroke="#000000" d="M1334.9342,-73.3008C1357.486,-63.2155 1386.4539,-50.2609 1410.6828,-39.4256"/>
<polygon fill="#000000" stroke="#000000" points="1412.355,-42.5119 1420.0549,-35.2344 1409.4973,-36.1218 1412.355,-42.5119"/>
</g>
<!-- Entity -->
<g id="node9" class="node">
<title>Entity</title>
<ellipse fill="none" stroke="#000000" cx="1122.5928" cy="-162" rx="39.7935" ry="18"/>
<text text-anchor="middle" x="1122.5928" y="-158.3" font-family="Times,serif" font-size="14.00" fill="#000000">Entity</text>
</g>
<!-- SparseMatrix -->
<g id="node12" class="node">
<title>SparseMatrix</title>
<ellipse fill="none" stroke="#000000" cx="1484.5928" cy="-90" rx="74.187" ry="18"/>
<text text-anchor="middle" x="1484.5928" y="-86.3" font-family="Times,serif" font-size="14.00" fill="#000000">SparseMatrix</text>
</g>
<!-- SparseMatrix&#45;&gt;MatrixContinuousSparse -->
<g id="edge25" class="edge">
<title>SparseMatrix&#45;&gt;MatrixContinuousSparse</title>
<path fill="none" stroke="#000000" d="M1478.032,-71.8314C1475.1901,-63.9617 1471.7991,-54.5712 1468.651,-45.8533"/>
<polygon fill="#000000" stroke="#000000" points="1471.9305,-44.63 1465.2421,-36.4133 1465.3467,-47.0076 1471.9305,-44.63"/>
</g>
<!-- List -->
<g id="node13" class="node">
<title>List</title>
<ellipse fill="none" stroke="#000000" cx="1208.5928" cy="-162" rx="28.6953" ry="18"/>
<text text-anchor="middle" x="1208.5928" y="-158.3" font-family="Times,serif" font-size="14.00" fill="#000000">List</text>
</g>
<!-- Matrix -->
<g id="node14" class="node">
<title>Matrix</title>
<ellipse fill="none" stroke="#000000" cx="1297.5928" cy="-162" rx="42.4939" ry="18"/>
<text text-anchor="middle" x="1297.5928" y="-158.3" font-family="Times,serif" font-size="14.00" fill="#000000">Matrix</text>
</g>
<!-- Matrix&#45;&gt;MatrixContinuous -->
<g id="edge8" class="edge">
<title>Matrix&#45;&gt;MatrixContinuous</title>
<path fill="none" stroke="#000000" d="M1297.5928,-143.8314C1297.5928,-136.131 1297.5928,-126.9743 1297.5928,-118.4166"/>
<polygon fill="#000000" stroke="#000000" points="1301.0929,-118.4132 1297.5928,-108.4133 1294.0929,-118.4133 1301.0929,-118.4132"/>
</g>
<!-- Matrix&#45;&gt;SparseMatrix -->
<g id="edge13" class="edge">
<title>Matrix&#45;&gt;SparseMatrix</title>
<path fill="none" stroke="#000000" d="M1329.3148,-149.7862C1358.3362,-138.6122 1401.7303,-121.9043 1435.2735,-108.9893"/>
<polygon fill="#000000" stroke="#000000" points="1436.8211,-112.1439 1444.8956,-105.2845 1434.3058,-105.6114 1436.8211,-112.1439"/>
</g>
<!-- DenseMatrix -->
<g id="node26" class="node">
<title>DenseMatrix</title>
<ellipse fill="none" stroke="#000000" cx="1113.5928" cy="-90" rx="70.6878" ry="18"/>
<text text-anchor="middle" x="1113.5928" y="-86.3" font-family="Times,serif" font-size="14.00" fill="#000000">DenseMatrix</text>
</g>
<!-- Matrix&#45;&gt;DenseMatrix -->
<g id="edge28" class="edge">
<title>Matrix&#45;&gt;DenseMatrix</title>
<path fill="none" stroke="#000000" d="M1266.3798,-149.7862C1237.7307,-138.5757 1194.8468,-121.795 1161.7977,-108.8628"/>
<polygon fill="#000000" stroke="#000000" points="1162.9091,-105.5393 1152.3213,-105.1546 1160.3583,-112.058 1162.9091,-105.5393"/>
</g>
<!-- Category -->
<g id="node16" class="node">
<title>Category</title>
<ellipse fill="none" stroke="#000000" cx="1411.5928" cy="-162" rx="53.8905" ry="18"/>
<text text-anchor="middle" x="1411.5928" y="-158.3" font-family="Times,serif" font-size="14.00" fill="#000000">Category</text>
</g>
<!-- Chunktag -->
<g id="node17" class="node">
<title>Chunktag</title>
<ellipse fill="none" stroke="#000000" cx="1539.5928" cy="-162" rx="56.59" ry="18"/>
<text text-anchor="middle" x="1539.5928" y="-158.3" font-family="Times,serif" font-size="14.00" fill="#000000">Chunktag</text>
</g>
<!-- Synset -->
<g id="node19" class="node">
<title>Synset</title>
<ellipse fill="none" stroke="#000000" cx="1656.5928" cy="-162" rx="42.4939" ry="18"/>
<text text-anchor="middle" x="1656.5928" y="-158.3" font-family="Times,serif" font-size="14.00" fill="#000000">Synset</text>
</g>
<!-- Flags -->
<g id="node20" class="node">
<title>Flags</title>
<ellipse fill="none" stroke="#000000" cx="1753.5928" cy="-162" rx="36.2938" ry="18"/>
<text text-anchor="middle" x="1753.5928" y="-158.3" font-family="Times,serif" font-size="14.00" fill="#000000">Flags</text>
</g>
<!-- Tuple -->
<g id="node25" class="node">
<title>Tuple</title>
<ellipse fill="none" stroke="#000000" cx="1844.5928" cy="-162" rx="37.0935" ry="18"/>
<text text-anchor="middle" x="1844.5928" y="-158.3" font-family="Times,serif" font-size="14.00" fill="#000000">Tuple</text>
</g>
<!-- DenseMatrix&#45;&gt;MatrixContinuousDense -->
<g id="edge11" class="edge">
<title>DenseMatrix&#45;&gt;MatrixContinuousDense</title>
<path fill="none" stroke="#000000" d="M1119.9014,-71.8314C1122.6045,-64.0463 1125.8245,-54.7729 1128.8238,-46.1347"/>
<polygon fill="#000000" stroke="#000000" points="1132.2255,-47.0081 1132.1994,-36.4133 1125.6128,-44.7119 1132.2255,-47.0081"/>
</g>
<!-- DataType -->
<g id="node27" class="node">
<title>DataType</title>
<ellipse fill="none" stroke="#000000" cx="1165.5928" cy="-234" rx="55.7903" ry="18"/>
<text text-anchor="middle" x="1165.5928" y="-230.3" font-family="Times,serif" font-size="14.00" fill="#000000">DataType</text>
</g>
<!-- DataType&#45;&gt;Vector -->
<g id="edge1" class="edge">
<title>DataType&#45;&gt;Vector</title>
<path fill="none" stroke="#000000" d="M1111.0708,-229.9736C1004.051,-221.8968 759.0183,-202.5476 553.5928,-180 524.4365,-176.7998 491.8793,-172.5504 465.8208,-168.9841"/>
<polygon fill="#000000" stroke="#000000" points="466.1946,-165.5026 455.8102,-167.604 465.2385,-172.437 466.1946,-165.5026"/>
</g>
<!-- DataType&#45;&gt;Tensor3 -->
<g id="edge2" class="edge">
<title>DataType&#45;&gt;Tensor3</title>
<path fill="none" stroke="#000000" d="M1110.1335,-231.5701C1017.5699,-226.7183 826.1094,-213.2807 667.5928,-180 663.705,-179.1837 659.7053,-178.2091 655.7141,-177.1417"/>
<polygon fill="#000000" stroke="#000000" points="656.456,-173.7137 645.8794,-174.3347 654.5348,-180.4449 656.456,-173.7137"/>
</g>
<!-- DataType&#45;&gt;Text -->
<g id="edge3" class="edge">
<title>DataType&#45;&gt;Text</title>
<path fill="none" stroke="#000000" d="M1109.7794,-231.9929C1028.6344,-227.915 873.9785,-215.7502 747.5928,-180 745.3052,-179.3529 742.9807,-178.596 740.6623,-177.7656"/>
<polygon fill="#000000" stroke="#000000" points="741.8617,-174.476 731.2762,-174.0317 739.2742,-180.9802 741.8617,-174.476"/>
</g>
<!-- DataType&#45;&gt;Postag -->
<g id="edge5" class="edge">
<title>DataType&#45;&gt;Postag</title>
<path fill="none" stroke="#000000" d="M1113.0129,-227.7984C1049.8254,-219.7091 940.8971,-203.7297 849.5928,-180 846.4122,-179.1734 843.148,-178.2363 839.8825,-177.2345"/>
<polygon fill="#000000" stroke="#000000" points="840.7565,-173.8385 830.1644,-174.0803 838.5954,-180.4965 840.7565,-173.8385"/>
</g>
<!-- DataType&#45;&gt;Stem -->
<g id="edge6" class="edge">
<title>DataType&#45;&gt;Stem</title>
<path fill="none" stroke="#000000" d="M1117.4001,-224.861C1070.8399,-215.5005 998.5988,-199.5713 937.5928,-180 935.0289,-179.1775 932.4038,-178.2722 929.7749,-177.3187"/>
<polygon fill="#000000" stroke="#000000" points="930.9305,-174.0136 920.3398,-173.7161 928.4334,-180.5531 930.9305,-174.0136"/>
</g>
<!-- DataType&#45;&gt;Sentiment -->
<g id="edge7" class="edge">
<title>DataType&#45;&gt;Sentiment</title>
<path fill="none" stroke="#000000" d="M1132.8284,-219.256C1108.4005,-208.2634 1074.8182,-193.1514 1048.2884,-181.213"/>
<polygon fill="#000000" stroke="#000000" points="1049.4189,-177.8837 1038.8634,-176.9717 1046.5463,-184.2672 1049.4189,-177.8837"/>
</g>
<!-- DataType&#45;&gt;Entity -->
<g id="edge9" class="edge">
<title>DataType&#45;&gt;Entity</title>
<path fill="none" stroke="#000000" d="M1154.9636,-216.2022C1149.9647,-207.832 1143.9018,-197.6802 1138.3808,-188.4356"/>
<polygon fill="#000000" stroke="#000000" points="1141.2322,-186.3839 1133.0998,-179.593 1135.2223,-189.9731 1141.2322,-186.3839"/>
</g>
<!-- DataType&#45;&gt;List -->
<g id="edge14" class="edge">
<title>DataType&#45;&gt;List</title>
<path fill="none" stroke="#000000" d="M1176.2221,-216.2022C1181.3484,-207.6186 1187.5937,-197.1613 1193.2262,-187.7303"/>
<polygon fill="#000000" stroke="#000000" points="1196.2595,-189.4773 1198.382,-179.0972 1190.2496,-185.8881 1196.2595,-189.4773"/>
</g>
<!-- DataType&#45;&gt;Matrix -->
<g id="edge15" class="edge">
<title>DataType&#45;&gt;Matrix</title>
<path fill="none" stroke="#000000" d="M1194.2349,-218.3771C1214.1821,-207.4968 1240.9177,-192.9137 1262.1997,-181.3053"/>
<polygon fill="#000000" stroke="#000000" points="1264.1469,-184.2301 1271.2499,-176.3689 1260.7949,-178.0848 1264.1469,-184.2301"/>
</g>
<!-- DataType&#45;&gt;Category -->
<g id="edge17" class="edge">
<title>DataType&#45;&gt;Category</title>
<path fill="none" stroke="#000000" d="M1207.0452,-221.8676C1249.5258,-209.4342 1315.6259,-190.0879 1361.125,-176.7711"/>
<polygon fill="#000000" stroke="#000000" points="1362.1761,-180.1103 1370.7903,-173.9422 1360.2098,-173.3922 1362.1761,-180.1103"/>
</g>
<!-- DataType&#45;&gt;Chunktag -->
<g id="edge18" class="edge">
<title>DataType&#45;&gt;Chunktag</title>
<path fill="none" stroke="#000000" d="M1216.7446,-226.6192C1278.276,-217.3824 1384.5419,-200.2867 1474.5928,-180 1478.9515,-179.0181 1483.4548,-177.929 1487.9629,-176.7865"/>
<polygon fill="#000000" stroke="#000000" points="1488.9943,-180.1346 1497.7851,-174.2209 1487.2252,-173.3618 1488.9943,-180.1346"/>
</g>
<!-- DataType&#45;&gt;Synset -->
<g id="edge20" class="edge">
<title>DataType&#45;&gt;Synset</title>
<path fill="none" stroke="#000000" d="M1220.7982,-231.0792C1304.8226,-225.7723 1469.4204,-211.9851 1605.5928,-180 1608.9392,-179.214 1612.3714,-178.2847 1615.7966,-177.2691"/>
<polygon fill="#000000" stroke="#000000" points="1616.8866,-180.5953 1625.3532,-174.2261 1614.7627,-173.9252 1616.8866,-180.5953"/>
</g>
<!-- DataType&#45;&gt;Flags -->
<g id="edge21" class="edge">
<title>DataType&#45;&gt;Flags</title>
<path fill="none" stroke="#000000" d="M1220.6321,-230.4348C1339.3454,-222.4329 1616.1139,-202.0131 1707.5928,-180 1710.5814,-179.2808 1713.6349,-178.4102 1716.6765,-177.4446"/>
<polygon fill="#000000" stroke="#000000" points="1717.9657,-180.7018 1726.2571,-174.1062 1715.6623,-174.0917 1717.9657,-180.7018"/>
</g>
<!-- DataType&#45;&gt;Tuple -->
<g id="edge27" class="edge">
<title>DataType&#45;&gt;Tuple</title>
<path fill="none" stroke="#000000" d="M1221.2413,-231.3082C1354.596,-224.5267 1689.4329,-205.4491 1798.5928,-180 1801.5864,-179.3021 1804.6435,-178.4467 1807.6876,-177.4917"/>
<polygon fill="#000000" stroke="#000000" points="1808.9686,-180.7521 1817.2728,-174.1727 1806.6781,-174.1375 1808.9686,-180.7521"/>
</g>
</g>
</svg>
