<?xml version="1.0" encoding="UTF-8" standalone="no"?>
<!DOCTYPE svg PUBLIC "-//W3C//DTD SVG 1.1//EN"
 "http://www.w3.org/Graphics/SVG/1.1/DTD/svg11.dtd">
<!-- Generated by graphviz version 2.38.0 (20140413.2041)
 -->
<!-- Title: G Pages: 1 -->
<svg width="1524pt" height="260pt"
 viewBox="0.00 0.00 1523.99 260.00" xmlns="http://www.w3.org/2000/svg" xmlns:xlink="http://www.w3.org/1999/xlink">
<g id="graph0" class="graph" transform="scale(1 1) rotate(0) translate(4 256)">
<title>G</title>
<polygon fill="white" stroke="none" points="-4,4 -4,-256 1519.99,-256 1519.99,4 -4,4"/>
<!-- SparseMatrix -->
<g id="node1" class="node"><title>SparseMatrix</title>
<ellipse fill="none" stroke="black" cx="127.495" cy="-90" rx="74.187" ry="18"/>
<text text-anchor="middle" x="127.495" y="-86.3" font-family="Times,serif" font-size="14.00">SparseMatrix</text>
</g>
<!-- MatrixContinuousSparse -->
<g id="node20" class="node"><title>MatrixContinuousSparse</title>
<ellipse fill="none" stroke="black" cx="153.495" cy="-18" rx="127.277" ry="18"/>
<text text-anchor="middle" x="153.495" y="-14.3" font-family="Times,serif" font-size="14.00">MatrixContinuousSparse</text>
</g>
<!-- SparseMatrix&#45;&gt;MatrixContinuousSparse -->
<g id="edge22" class="edge"><title>SparseMatrix&#45;&gt;MatrixContinuousSparse</title>
<path fill="none" stroke="black" d="M133.789,-72.055C136.715,-64.1762 140.266,-54.6165 143.543,-45.794"/>
<polygon fill="black" stroke="black" points="146.877,-46.8682 147.078,-36.2753 140.315,-44.4309 146.877,-46.8682"/>
</g>
<!-- Sentiment -->
<g id="node2" class="node"><title>Sentiment</title>
<ellipse fill="none" stroke="black" cx="58.4948" cy="-162" rx="58.4896" ry="18"/>
<text text-anchor="middle" x="58.4948" y="-158.3" font-family="Times,serif" font-size="14.00">Sentiment</text>
</g>
<!-- Postag -->
<g id="node3" class="node"><title>Postag</title>
<ellipse fill="none" stroke="black" cx="177.495" cy="-162" rx="42.4939" ry="18"/>
<text text-anchor="middle" x="177.495" y="-158.3" font-family="Times,serif" font-size="14.00">Postag</text>
</g>
<!-- Tuple -->
<g id="node4" class="node"><title>Tuple</title>
<ellipse fill="none" stroke="black" cx="274.495" cy="-162" rx="36.2938" ry="18"/>
<text text-anchor="middle" x="274.495" y="-158.3" font-family="Times,serif" font-size="14.00">Tuple</text>
</g>
<!-- Matrix -->
<g id="node5" class="node"><title>Matrix</title>
<ellipse fill="none" stroke="black" cx="371.495" cy="-162" rx="42.4939" ry="18"/>
<text text-anchor="middle" x="371.495" y="-158.3" font-family="Times,serif" font-size="14.00">Matrix</text>
</g>
<!-- Matrix&#45;&gt;SparseMatrix -->
<g id="edge1" class="edge"><title>Matrix&#45;&gt;SparseMatrix</title>
<path fill="none" stroke="black" d="M339.392,-150.246C332.827,-148.119 325.952,-145.945 319.495,-144 274.816,-130.538 223.892,-116.542 185.72,-106.315"/>
<polygon fill="black" stroke="black" points="186.371,-102.867 175.806,-103.667 184.564,-109.629 186.371,-102.867"/>
</g>
<!-- DenseMatrix -->
<g id="node16" class="node"><title>DenseMatrix</title>
<ellipse fill="none" stroke="black" cx="500.495" cy="-90" rx="71.4873" ry="18"/>
<text text-anchor="middle" x="500.495" y="-86.3" font-family="Times,serif" font-size="14.00">DenseMatrix</text>
</g>
<!-- Matrix&#45;&gt;DenseMatrix -->
<g id="edge17" class="edge"><title>Matrix&#45;&gt;DenseMatrix</title>
<path fill="none" stroke="black" d="M396.674,-147.337C415.536,-137.102 441.653,-122.93 462.973,-111.361"/>
<polygon fill="black" stroke="black" points="464.662,-114.427 471.782,-106.581 461.323,-108.274 464.662,-114.427"/>
</g>
<!-- MatrixContinuous -->
<g id="node23" class="node"><title>MatrixContinuous</title>
<ellipse fill="none" stroke="black" cx="315.495" cy="-90" rx="95.5831" ry="18"/>
<text text-anchor="middle" x="315.495" y="-86.3" font-family="Times,serif" font-size="14.00">MatrixContinuous</text>
</g>
<!-- Matrix&#45;&gt;MatrixContinuous -->
<g id="edge24" class="edge"><title>Matrix&#45;&gt;MatrixContinuous</title>
<path fill="none" stroke="black" d="M358.507,-144.765C351.709,-136.268 343.236,-125.677 335.612,-116.146"/>
<polygon fill="black" stroke="black" points="338.174,-113.746 329.194,-108.124 332.708,-118.119 338.174,-113.746"/>
</g>
<!-- Category -->
<g id="node6" class="node"><title>Category</title>
<ellipse fill="none" stroke="black" cx="485.495" cy="-162" rx="53.8905" ry="18"/>
<text text-anchor="middle" x="485.495" y="-158.3" font-family="Times,serif" font-size="14.00">Category</text>
</g>
<!-- Sentence -->
<g id="node7" class="node"><title>Sentence</title>
<ellipse fill="none" stroke="black" cx="1237.49" cy="-90" rx="53.8905" ry="18"/>
<text text-anchor="middle" x="1237.49" y="-86.3" font-family="Times,serif" font-size="14.00">Sentence</text>
</g>
<!-- MatrixContinuousDense -->
<g id="node8" class="node"><title>MatrixContinuousDense</title>
<ellipse fill="none" stroke="black" cx="474.495" cy="-18" rx="124.278" ry="18"/>
<text text-anchor="middle" x="474.495" y="-14.3" font-family="Times,serif" font-size="14.00">MatrixContinuousDense</text>
</g>
<!-- Word -->
<g id="node9" class="node"><title>Word</title>
<ellipse fill="none" stroke="black" cx="1345.49" cy="-90" rx="35.9954" ry="18"/>
<text text-anchor="middle" x="1345.49" y="-86.3" font-family="Times,serif" font-size="14.00">Word</text>
</g>
<!-- Summary -->
<g id="node10" class="node"><title>Summary</title>
<ellipse fill="none" stroke="black" cx="1457.49" cy="-18" rx="55.4913" ry="18"/>
<text text-anchor="middle" x="1457.49" y="-14.3" font-family="Times,serif" font-size="14.00">Summary</text>
</g>
<!-- CategoricalVector -->
<g id="node11" class="node"><title>CategoricalVector</title>
<ellipse fill="none" stroke="black" cx="684.495" cy="-90" rx="94.7833" ry="18"/>
<text text-anchor="middle" x="684.495" y="-86.3" font-family="Times,serif" font-size="14.00">CategoricalVector</text>
</g>
<!-- Chunktag -->
<g id="node12" class="node"><title>Chunktag</title>
<ellipse fill="none" stroke="black" cx="613.495" cy="-162" rx="56.59" ry="18"/>
<text text-anchor="middle" x="613.495" y="-158.3" font-family="Times,serif" font-size="14.00">Chunktag</text>
</g>
<!-- Entity -->
<g id="node13" class="node"><title>Entity</title>
<ellipse fill="none" stroke="black" cx="727.495" cy="-162" rx="39.7935" ry="18"/>
<text text-anchor="middle" x="727.495" y="-158.3" font-family="Times,serif" font-size="14.00">Entity</text>
</g>
<!-- ContinuousVector -->
<g id="node14" class="node"><title>ContinuousVector</title>
<ellipse fill="none" stroke="black" cx="891.495" cy="-90" rx="94.4839" ry="18"/>
<text text-anchor="middle" x="891.495" y="-86.3" font-family="Times,serif" font-size="14.00">ContinuousVector</text>
</g>
<!-- Synset -->
<g id="node15" class="node"><title>Synset</title>
<ellipse fill="none" stroke="black" cx="827.495" cy="-162" rx="42.4939" ry="18"/>
<text text-anchor="middle" x="827.495" y="-158.3" font-family="Times,serif" font-size="14.00">Synset</text>
</g>
<!-- DenseMatrix&#45;&gt;MatrixContinuousDense -->
<g id="edge9" class="edge"><title>DenseMatrix&#45;&gt;MatrixContinuousDense</title>
<path fill="none" stroke="black" d="M494.201,-72.055C491.275,-64.1762 487.724,-54.6165 484.447,-45.794"/>
<polygon fill="black" stroke="black" points="487.674,-44.4309 480.911,-36.2753 481.112,-46.8682 487.674,-44.4309"/>
</g>
<!-- List -->
<g id="node17" class="node"><title>List</title>
<ellipse fill="none" stroke="black" cx="916.495" cy="-162" rx="28.6953" ry="18"/>
<text text-anchor="middle" x="916.495" y="-158.3" font-family="Times,serif" font-size="14.00">List</text>
</g>
<!-- Vector -->
<g id="node18" class="node"><title>Vector</title>
<ellipse fill="none" stroke="black" cx="1004.49" cy="-162" rx="40.8928" ry="18"/>
<text text-anchor="middle" x="1004.49" y="-158.3" font-family="Times,serif" font-size="14.00">Vector</text>
</g>
<!-- Vector&#45;&gt;CategoricalVector -->
<g id="edge12" class="edge"><title>Vector&#45;&gt;CategoricalVector</title>
<path fill="none" stroke="black" d="M974.02,-149.916C967.619,-147.791 960.873,-145.702 954.495,-144 891.384,-127.158 818.661,-113.187 764.6,-103.825"/>
<polygon fill="black" stroke="black" points="765.177,-100.373 754.729,-102.131 763.993,-107.272 765.177,-100.373"/>
</g>
<!-- Vector&#45;&gt;ContinuousVector -->
<g id="edge15" class="edge"><title>Vector&#45;&gt;ContinuousVector</title>
<path fill="none" stroke="black" d="M981.628,-146.834C965.777,-137.016 944.374,-123.757 926.402,-112.624"/>
<polygon fill="black" stroke="black" points="928.239,-109.645 917.895,-107.354 924.553,-115.595 928.239,-109.645"/>
</g>
<!-- DiscreteVector -->
<g id="node26" class="node"><title>DiscreteVector</title>
<ellipse fill="none" stroke="black" cx="1084.49" cy="-90" rx="80.6858" ry="18"/>
<text text-anchor="middle" x="1084.49" y="-86.3" font-family="Times,serif" font-size="14.00">DiscreteVector</text>
</g>
<!-- Vector&#45;&gt;DiscreteVector -->
<g id="edge27" class="edge"><title>Vector&#45;&gt;DiscreteVector</title>
<path fill="none" stroke="black" d="M1022.25,-145.465C1032.65,-136.367 1045.98,-124.696 1057.65,-114.493"/>
<polygon fill="black" stroke="black" points="1060.17,-116.933 1065.39,-107.714 1055.56,-111.665 1060.17,-116.933"/>
</g>
<!-- Document -->
<g id="node19" class="node"><title>Document</title>
<ellipse fill="none" stroke="black" cx="1457.49" cy="-90" rx="58.4896" ry="18"/>
<text text-anchor="middle" x="1457.49" y="-86.3" font-family="Times,serif" font-size="14.00">Document</text>
</g>
<!-- Document&#45;&gt;Summary -->
<g id="edge11" class="edge"><title>Document&#45;&gt;Summary</title>
<path fill="none" stroke="black" d="M1457.49,-71.6966C1457.49,-63.9827 1457.49,-54.7125 1457.49,-46.1124"/>
<polygon fill="black" stroke="black" points="1460.99,-46.1043 1457.49,-36.1043 1453.99,-46.1044 1460.99,-46.1043"/>
</g>
<!-- Stem -->
<g id="node21" class="node"><title>Stem</title>
<ellipse fill="none" stroke="black" cx="1097.49" cy="-162" rx="34.394" ry="18"/>
<text text-anchor="middle" x="1097.49" y="-158.3" font-family="Times,serif" font-size="14.00">Stem</text>
</g>
<!-- DataType -->
<g id="node22" class="node"><title>DataType</title>
<ellipse fill="none" stroke="black" cx="727.495" cy="-234" rx="55.4913" ry="18"/>
<text text-anchor="middle" x="727.495" y="-230.3" font-family="Times,serif" font-size="14.00">DataType</text>
</g>
<!-- DataType&#45;&gt;Sentiment -->
<g id="edge2" class="edge"><title>DataType&#45;&gt;Sentiment</title>
<path fill="none" stroke="black" d="M672.85,-231.054C566.835,-226.645 326.117,-213.541 126.495,-180 121.376,-179.14 116.075,-178.094 110.794,-176.949"/>
<polygon fill="black" stroke="black" points="111.247,-173.463 100.719,-174.647 109.688,-180.287 111.247,-173.463"/>
</g>
<!-- DataType&#45;&gt;Postag -->
<g id="edge3" class="edge"><title>DataType&#45;&gt;Postag</title>
<path fill="none" stroke="black" d="M672.741,-230.929C580.408,-226.603 388.267,-214.007 229.495,-180 225.844,-179.218 222.088,-178.275 218.345,-177.24"/>
<polygon fill="black" stroke="black" points="219.134,-173.823 208.551,-174.328 217.139,-180.532 219.134,-173.823"/>
</g>
<!-- DataType&#45;&gt;Tuple -->
<g id="edge4" class="edge"><title>DataType&#45;&gt;Tuple</title>
<path fill="none" stroke="black" d="M673.452,-229.833C594.814,-224.357 444.681,-210.62 320.495,-180 317.532,-179.269 314.497,-178.41 311.468,-177.473"/>
<polygon fill="black" stroke="black" points="312.504,-174.129 301.911,-174.273 310.282,-180.767 312.504,-174.129"/>
</g>
<!-- DataType&#45;&gt;Matrix -->
<g id="edge5" class="edge"><title>DataType&#45;&gt;Matrix</title>
<path fill="none" stroke="black" d="M677.086,-226.598C616.209,-218.328 510.96,-202.297 422.495,-180 419.282,-179.19 415.98,-178.278 412.674,-177.308"/>
<polygon fill="black" stroke="black" points="413.423,-173.876 402.835,-174.265 411.355,-180.563 413.423,-173.876"/>
</g>
<!-- DataType&#45;&gt;Category -->
<g id="edge6" class="edge"><title>DataType&#45;&gt;Category</title>
<path fill="none" stroke="black" d="M687.533,-221.441C645.723,-209.347 580.02,-190.342 534.963,-177.309"/>
<polygon fill="black" stroke="black" points="535.692,-173.876 525.113,-174.46 533.747,-180.601 535.692,-173.876"/>
</g>
<!-- DataType&#45;&gt;Chunktag -->
<g id="edge13" class="edge"><title>DataType&#45;&gt;Chunktag</title>
<path fill="none" stroke="black" d="M702.759,-217.811C686.587,-207.881 665.249,-194.779 647.49,-183.874"/>
<polygon fill="black" stroke="black" points="648.93,-180.651 638.577,-178.401 645.267,-186.616 648.93,-180.651"/>
</g>
<!-- DataType&#45;&gt;Entity -->
<g id="edge14" class="edge"><title>DataType&#45;&gt;Entity</title>
<path fill="none" stroke="black" d="M727.495,-215.697C727.495,-207.983 727.495,-198.712 727.495,-190.112"/>
<polygon fill="black" stroke="black" points="730.995,-190.104 727.495,-180.104 723.995,-190.104 730.995,-190.104"/>
</g>
<!-- DataType&#45;&gt;Synset -->
<g id="edge16" class="edge"><title>DataType&#45;&gt;Synset</title>
<path fill="none" stroke="black" d="M749.688,-217.465C763.962,-207.473 782.668,-194.378 798.162,-183.533"/>
<polygon fill="black" stroke="black" points="800.205,-186.375 806.39,-177.773 796.191,-180.64 800.205,-186.375"/>
</g>
<!-- DataType&#45;&gt;List -->
<g id="edge18" class="edge"><title>DataType&#45;&gt;List</title>
<path fill="none" stroke="black" d="M765.047,-220.786C795.796,-210.554 840.295,-195.218 878.495,-180 880.568,-179.174 882.693,-178.3 884.829,-177.402"/>
<polygon fill="black" stroke="black" points="886.335,-180.564 894.122,-173.38 883.554,-174.14 886.335,-180.564"/>
</g>
<!-- DataType&#45;&gt;Vector -->
<g id="edge19" class="edge"><title>DataType&#45;&gt;Vector</title>
<path fill="none" stroke="black" d="M773.055,-223.742C819.131,-214.056 892.239,-197.804 954.495,-180 957.624,-179.105 960.847,-178.131 964.078,-177.118"/>
<polygon fill="black" stroke="black" points="965.271,-180.411 973.705,-173.998 963.113,-173.751 965.271,-180.411"/>
</g>
<!-- DataType&#45;&gt;Stem -->
<g id="edge23" class="edge"><title>DataType&#45;&gt;Stem</title>
<path fill="none" stroke="black" d="M779.774,-228.044C844.96,-221.065 959.399,-206.174 1054.49,-180 1057.09,-179.286 1059.74,-178.467 1062.39,-177.583"/>
<polygon fill="black" stroke="black" points="1063.66,-180.849 1071.88,-174.17 1061.29,-174.262 1063.66,-180.849"/>
</g>
<!-- Text -->
<g id="node24" class="node"><title>Text</title>
<ellipse fill="none" stroke="black" cx="1237.49" cy="-162" rx="30.5947" ry="18"/>
<text text-anchor="middle" x="1237.49" y="-158.3" font-family="Times,serif" font-size="14.00">Text</text>
</g>
<!-- DataType&#45;&gt;Text -->
<g id="edge25" class="edge"><title>DataType&#45;&gt;Text</title>
<path fill="none" stroke="black" d="M778.787,-227.184C856.973,-218.146 1010.6,-199.707 1140.49,-180 1159.71,-177.085 1180.99,-173.406 1198.71,-170.217"/>
<polygon fill="black" stroke="black" points="1199.48,-173.635 1208.69,-168.405 1198.23,-166.748 1199.48,-173.635"/>
</g>
<!-- Tensor3 -->
<g id="node25" class="node"><title>Tensor3</title>
<ellipse fill="none" stroke="black" cx="1334.49" cy="-162" rx="48.1917" ry="18"/>
<text text-anchor="middle" x="1334.49" y="-158.3" font-family="Times,serif" font-size="14.00">Tensor3</text>
</g>
<!-- DataType&#45;&gt;Tensor3 -->
<g id="edge26" class="edge"><title>DataType&#45;&gt;Tensor3</title>
<path fill="none" stroke="black" d="M782.254,-231.233C881.726,-227.249 1098.38,-214.997 1277.49,-180 1281.6,-179.198 1285.83,-178.224 1290.05,-177.153"/>
<polygon fill="black" stroke="black" points="1291.06,-180.506 1299.79,-174.513 1289.23,-173.75 1291.06,-180.506"/>
</g>
<!-- MatrixContinuous&#45;&gt;MatrixContinuousDense -->
<g id="edge8" class="edge"><title>MatrixContinuous&#45;&gt;MatrixContinuousDense</title>
<path fill="none" stroke="black" d="M351.178,-73.2906C373.891,-63.2911 403.543,-50.2365 428.079,-39.4347"/>
<polygon fill="black" stroke="black" points="429.809,-42.4973 437.551,-35.2646 426.988,-36.0907 429.809,-42.4973"/>
</g>
<!-- MatrixContinuous&#45;&gt;MatrixContinuousSparse -->
<g id="edge21" class="edge"><title>MatrixContinuous&#45;&gt;MatrixContinuousSparse</title>
<path fill="none" stroke="black" d="M279.139,-73.2906C255.895,-63.2469 225.518,-50.1209 200.455,-39.2915"/>
<polygon fill="black" stroke="black" points="201.704,-36.0183 191.136,-35.2646 198.927,-42.4441 201.704,-36.0183"/>
</g>
<!-- Text&#45;&gt;Sentence -->
<g id="edge7" class="edge"><title>Text&#45;&gt;Sentence</title>
<path fill="none" stroke="black" d="M1237.49,-143.697C1237.49,-135.983 1237.49,-126.712 1237.49,-118.112"/>
<polygon fill="black" stroke="black" points="1240.99,-118.104 1237.49,-108.104 1233.99,-118.104 1240.99,-118.104"/>
</g>
<!-- Text&#45;&gt;Word -->
<g id="edge10" class="edge"><title>Text&#45;&gt;Word</title>
<path fill="none" stroke="black" d="M1257.3,-148.161C1273.71,-137.53 1297.26,-122.265 1315.9,-110.184"/>
<polygon fill="black" stroke="black" points="1317.85,-113.091 1324.33,-104.715 1314.04,-107.217 1317.85,-113.091"/>
</g>
<!-- Text&#45;&gt;Document -->
<g id="edge20" class="edge"><title>Text&#45;&gt;Document</title>
<path fill="none" stroke="black" d="M1261.01,-150.475C1266.38,-148.219 1272.1,-145.935 1277.49,-144 1319.54,-128.932 1368.18,-114.801 1404.29,-104.926"/>
<polygon fill="black" stroke="black" points="1405.4,-108.253 1414.13,-102.256 1403.56,-101.498 1405.4,-108.253"/>
</g>
</g>
</svg>
