<?xml version="1.0" encoding="UTF-8" standalone="no"?>
<!DOCTYPE svg PUBLIC "-//W3C//DTD SVG 1.1//EN"
 "http://www.w3.org/Graphics/SVG/1.1/DTD/svg11.dtd">
<!-- Generated by graphviz version 2.40.1 (20161225.0304)
 -->
<!-- Title: G Pages: 1 -->
<svg width="1541pt" height="260pt"
 viewBox="0.00 0.00 1541.33 260.00" xmlns="http://www.w3.org/2000/svg" xmlns:xlink="http://www.w3.org/1999/xlink">
<g id="graph0" class="graph" transform="scale(1 1) rotate(0) translate(4 256)">
<title>G</title>
<polygon fill="#ffffff" stroke="transparent" points="-4,4 -4,-256 1537.3339,-256 1537.3339,4 -4,4"/>
<!-- Category -->
<g id="node1" class="node">
<title>Category</title>
<ellipse fill="none" stroke="#000000" cx="53.9452" cy="-162" rx="53.8905" ry="18"/>
<text text-anchor="middle" x="53.9452" y="-158.3" font-family="Times,serif" font-size="14.00" fill="#000000">Category</text>
</g>
<!-- MatrixContinuousDense -->
<g id="node2" class="node">
<title>MatrixContinuousDense</title>
<ellipse fill="none" stroke="#000000" cx="1123.9452" cy="-18" rx="124.2781" ry="18"/>
<text text-anchor="middle" x="1123.9452" y="-14.3" font-family="Times,serif" font-size="14.00" fill="#000000">MatrixContinuousDense</text>
</g>
<!-- Sentence -->
<g id="node3" class="node">
<title>Sentence</title>
<ellipse fill="none" stroke="#000000" cx="680.9452" cy="-90" rx="53.8905" ry="18"/>
<text text-anchor="middle" x="680.9452" y="-86.3" font-family="Times,serif" font-size="14.00" fill="#000000">Sentence</text>
</g>
<!-- Word -->
<g id="node4" class="node">
<title>Word</title>
<ellipse fill="none" stroke="#000000" cx="788.9452" cy="-90" rx="35.9954" ry="18"/>
<text text-anchor="middle" x="788.9452" y="-86.3" font-family="Times,serif" font-size="14.00" fill="#000000">Word</text>
</g>
<!-- CategoricalVector -->
<g id="node5" class="node">
<title>CategoricalVector</title>
<ellipse fill="none" stroke="#000000" cx="127.9452" cy="-90" rx="94.7833" ry="18"/>
<text text-anchor="middle" x="127.9452" y="-86.3" font-family="Times,serif" font-size="14.00" fill="#000000">CategoricalVector</text>
</g>
<!-- Summary -->
<g id="node6" class="node">
<title>Summary</title>
<ellipse fill="none" stroke="#000000" cx="900.9452" cy="-18" rx="55.7903" ry="18"/>
<text text-anchor="middle" x="900.9452" y="-14.3" font-family="Times,serif" font-size="14.00" fill="#000000">Summary</text>
</g>
<!-- DataType -->
<g id="node7" class="node">
<title>DataType</title>
<ellipse fill="none" stroke="#000000" cx="704.9452" cy="-234" rx="55.7903" ry="18"/>
<text text-anchor="middle" x="704.9452" y="-230.3" font-family="Times,serif" font-size="14.00" fill="#000000">DataType</text>
</g>
<!-- DataType&#45;&gt;Category -->
<g id="edge1" class="edge">
<title>DataType&#45;&gt;Category</title>
<path fill="none" stroke="#000000" d="M648.9351,-232.3336C543.8201,-228.4398 310.1617,-216.1465 116.9452,-180 112.485,-179.1656 107.885,-178.1542 103.2973,-177.0412"/>
<polygon fill="#000000" stroke="#000000" points="103.8894,-173.5794 93.3322,-174.4716 102.1415,-180.3577 103.8894,-173.5794"/>
</g>
<!-- Tuple -->
<g id="node8" class="node">
<title>Tuple</title>
<ellipse fill="none" stroke="#000000" cx="162.9452" cy="-162" rx="37.0935" ry="18"/>
<text text-anchor="middle" x="162.9452" y="-158.3" font-family="Times,serif" font-size="14.00" fill="#000000">Tuple</text>
</g>
<!-- DataType&#45;&gt;Tuple -->
<g id="edge8" class="edge">
<title>DataType&#45;&gt;Tuple</title>
<path fill="none" stroke="#000000" d="M649.0676,-232.7109C556.3485,-229.5112 365.413,-218.409 208.9452,-180 206.1343,-179.31 203.2651,-178.4891 200.4018,-177.5838"/>
<polygon fill="#000000" stroke="#000000" points="201.3773,-174.2176 190.7825,-174.2481 199.0839,-180.8313 201.3773,-174.2176"/>
</g>
<!-- Tensor3 -->
<g id="node10" class="node">
<title>Tensor3</title>
<ellipse fill="none" stroke="#000000" cx="265.9452" cy="-162" rx="48.1917" ry="18"/>
<text text-anchor="middle" x="265.9452" y="-158.3" font-family="Times,serif" font-size="14.00" fill="#000000">Tensor3</text>
</g>
<!-- DataType&#45;&gt;Tensor3 -->
<g id="edge10" class="edge">
<title>DataType&#45;&gt;Tensor3</title>
<path fill="none" stroke="#000000" d="M650.9774,-229.2114C576.5215,-221.9626 438.3948,-206.1995 322.9452,-180 319.1264,-179.1334 315.195,-178.1312 311.2671,-177.0521"/>
<polygon fill="#000000" stroke="#000000" points="312.1558,-173.6658 301.5768,-174.2453 310.2082,-180.3894 312.1558,-173.6658"/>
</g>
<!-- Postag -->
<g id="node12" class="node">
<title>Postag</title>
<ellipse fill="none" stroke="#000000" cx="373.9452" cy="-162" rx="42.4939" ry="18"/>
<text text-anchor="middle" x="373.9452" y="-158.3" font-family="Times,serif" font-size="14.00" fill="#000000">Postag</text>
</g>
<!-- DataType&#45;&gt;Postag -->
<g id="edge12" class="edge">
<title>DataType&#45;&gt;Postag</title>
<path fill="none" stroke="#000000" d="M653.8426,-226.4882C597.3111,-217.6375 503.7821,-201.3869 424.9452,-180 421.7735,-179.1396 418.5158,-178.178 415.2549,-177.1589"/>
<polygon fill="#000000" stroke="#000000" points="416.138,-173.7652 405.5452,-173.9733 413.9558,-180.4164 416.138,-173.7652"/>
</g>
<!-- Vector -->
<g id="node14" class="node">
<title>Vector</title>
<ellipse fill="none" stroke="#000000" cx="474.9452" cy="-162" rx="40.8928" ry="18"/>
<text text-anchor="middle" x="474.9452" y="-158.3" font-family="Times,serif" font-size="14.00" fill="#000000">Vector</text>
</g>
<!-- DataType&#45;&gt;Vector -->
<g id="edge15" class="edge">
<title>DataType&#45;&gt;Vector</title>
<path fill="none" stroke="#000000" d="M662.9178,-222.0895C626.3094,-211.5487 571.8875,-195.4784 524.9452,-180 522.0168,-179.0344 519.0008,-178.0142 515.97,-176.9699"/>
<polygon fill="#000000" stroke="#000000" points="516.9234,-173.5954 506.3285,-173.5909 514.6081,-180.2014 516.9234,-173.5954"/>
</g>
<!-- Sentiment -->
<g id="node15" class="node">
<title>Sentiment</title>
<ellipse fill="none" stroke="#000000" cx="592.9452" cy="-162" rx="59.2899" ry="18"/>
<text text-anchor="middle" x="592.9452" y="-158.3" font-family="Times,serif" font-size="14.00" fill="#000000">Sentiment</text>
</g>
<!-- DataType&#45;&gt;Sentiment -->
<g id="edge16" class="edge">
<title>DataType&#45;&gt;Sentiment</title>
<path fill="none" stroke="#000000" d="M679.8102,-217.8418C664.2126,-207.8147 643.9691,-194.8011 626.9488,-183.8595"/>
<polygon fill="#000000" stroke="#000000" points="628.6883,-180.8169 618.3838,-178.3534 624.9029,-186.7051 628.6883,-180.8169"/>
</g>
<!-- Stem -->
<g id="node17" class="node">
<title>Stem</title>
<ellipse fill="none" stroke="#000000" cx="704.9452" cy="-162" rx="35.194" ry="18"/>
<text text-anchor="middle" x="704.9452" y="-158.3" font-family="Times,serif" font-size="14.00" fill="#000000">Stem</text>
</g>
<!-- DataType&#45;&gt;Stem -->
<g id="edge18" class="edge">
<title>DataType&#45;&gt;Stem</title>
<path fill="none" stroke="#000000" d="M704.9452,-215.8314C704.9452,-208.131 704.9452,-198.9743 704.9452,-190.4166"/>
<polygon fill="#000000" stroke="#000000" points="708.4453,-190.4132 704.9452,-180.4133 701.4453,-190.4133 708.4453,-190.4132"/>
</g>
<!-- Text -->
<g id="node19" class="node">
<title>Text</title>
<ellipse fill="none" stroke="#000000" cx="788.9452" cy="-162" rx="31.3957" ry="18"/>
<text text-anchor="middle" x="788.9452" y="-158.3" font-family="Times,serif" font-size="14.00" fill="#000000">Text</text>
</g>
<!-- DataType&#45;&gt;Text -->
<g id="edge20" class="edge">
<title>DataType&#45;&gt;Text</title>
<path fill="none" stroke="#000000" d="M724.852,-216.937C736.473,-206.9762 751.2486,-194.3114 763.6837,-183.6527"/>
<polygon fill="#000000" stroke="#000000" points="766.1458,-186.1521 771.4606,-176.9868 761.5903,-180.8373 766.1458,-186.1521"/>
</g>
<!-- List -->
<g id="node21" class="node">
<title>List</title>
<ellipse fill="none" stroke="#000000" cx="866.9452" cy="-162" rx="28.6953" ry="18"/>
<text text-anchor="middle" x="866.9452" y="-158.3" font-family="Times,serif" font-size="14.00" fill="#000000">List</text>
</g>
<!-- DataType&#45;&gt;List -->
<g id="edge22" class="edge">
<title>DataType&#45;&gt;List</title>
<path fill="none" stroke="#000000" d="M738.7555,-219.6186C763.7583,-208.9005 798.5903,-193.7947 828.9452,-180 830.7894,-179.1619 832.6804,-178.294 834.5862,-177.4126"/>
<polygon fill="#000000" stroke="#000000" points="836.5154,-180.3743 844.0921,-172.9686 833.5509,-174.033 836.5154,-180.3743"/>
</g>
<!-- Chunktag -->
<g id="node23" class="node">
<title>Chunktag</title>
<ellipse fill="none" stroke="#000000" cx="969.9452" cy="-162" rx="56.59" ry="18"/>
<text text-anchor="middle" x="969.9452" y="-158.3" font-family="Times,serif" font-size="14.00" fill="#000000">Chunktag</text>
</g>
<!-- DataType&#45;&gt;Chunktag -->
<g id="edge24" class="edge">
<title>DataType&#45;&gt;Chunktag</title>
<path fill="none" stroke="#000000" d="M748.2725,-222.3879C788.797,-211.5065 850.9994,-194.7519 904.9452,-180 909.0113,-178.8881 913.2192,-177.7329 917.4487,-176.5687"/>
<polygon fill="#000000" stroke="#000000" points="918.5903,-179.8846 927.2998,-173.8518 916.7291,-173.1366 918.5903,-179.8846"/>
</g>
<!-- Matrix -->
<g id="node24" class="node">
<title>Matrix</title>
<ellipse fill="none" stroke="#000000" cx="1086.9452" cy="-162" rx="42.4939" ry="18"/>
<text text-anchor="middle" x="1086.9452" y="-158.3" font-family="Times,serif" font-size="14.00" fill="#000000">Matrix</text>
</g>
<!-- DataType&#45;&gt;Matrix -->
<g id="edge25" class="edge">
<title>DataType&#45;&gt;Matrix</title>
<path fill="none" stroke="#000000" d="M757.9955,-228.2907C823.8683,-220.53 939.3471,-204.7175 1035.9452,-180 1039.1289,-179.1853 1042.3954,-178.257 1045.6625,-177.2613"/>
<polygon fill="#000000" stroke="#000000" points="1046.9452,-180.525 1055.3834,-174.1182 1044.7916,-173.8645 1046.9452,-180.525"/>
</g>
<!-- Entity -->
<g id="node25" class="node">
<title>Entity</title>
<ellipse fill="none" stroke="#000000" cx="1186.9452" cy="-162" rx="39.7935" ry="18"/>
<text text-anchor="middle" x="1186.9452" y="-158.3" font-family="Times,serif" font-size="14.00" fill="#000000">Entity</text>
</g>
<!-- DataType&#45;&gt;Entity -->
<g id="edge26" class="edge">
<title>DataType&#45;&gt;Entity</title>
<path fill="none" stroke="#000000" d="M760.352,-231.1371C843.4146,-225.9403 1004.694,-212.3346 1137.9452,-180 1141.1598,-179.2199 1144.4539,-178.2964 1147.7394,-177.2862"/>
<polygon fill="#000000" stroke="#000000" points="1149.094,-180.5244 1157.4821,-174.0521 1146.8886,-173.8808 1149.094,-180.5244"/>
</g>
<!-- Synset -->
<g id="node26" class="node">
<title>Synset</title>
<ellipse fill="none" stroke="#000000" cx="1286.9452" cy="-162" rx="42.4939" ry="18"/>
<text text-anchor="middle" x="1286.9452" y="-158.3" font-family="Times,serif" font-size="14.00" fill="#000000">Synset</text>
</g>
<!-- DataType&#45;&gt;Synset -->
<g id="edge27" class="edge">
<title>DataType&#45;&gt;Synset</title>
<path fill="none" stroke="#000000" d="M761.0658,-232.6656C858.7136,-229.3779 1065.7237,-218.1219 1235.9452,-180 1239.2995,-179.2488 1242.7375,-178.3443 1246.1665,-177.3458"/>
<polygon fill="#000000" stroke="#000000" points="1247.2444,-180.6759 1255.7299,-174.3318 1245.1402,-173.9996 1247.2444,-180.6759"/>
</g>
<!-- ContinuousVector -->
<g id="node9" class="node">
<title>ContinuousVector</title>
<ellipse fill="none" stroke="#000000" cx="334.9452" cy="-90" rx="94.4839" ry="18"/>
<text text-anchor="middle" x="334.9452" y="-86.3" font-family="Times,serif" font-size="14.00" fill="#000000">ContinuousVector</text>
</g>
<!-- DenseMatrix -->
<g id="node11" class="node">
<title>DenseMatrix</title>
<ellipse fill="none" stroke="#000000" cx="1047.9452" cy="-90" rx="70.6878" ry="18"/>
<text text-anchor="middle" x="1047.9452" y="-86.3" font-family="Times,serif" font-size="14.00" fill="#000000">DenseMatrix</text>
</g>
<!-- DenseMatrix&#45;&gt;MatrixContinuousDense -->
<g id="edge3" class="edge">
<title>DenseMatrix&#45;&gt;MatrixContinuousDense</title>
<path fill="none" stroke="#000000" d="M1066.3427,-72.5708C1075.6546,-63.749 1087.1291,-52.8784 1097.3796,-43.1674"/>
<polygon fill="#000000" stroke="#000000" points="1100.071,-45.4389 1104.9235,-36.0206 1095.2568,-40.3572 1100.071,-45.4389"/>
</g>
<!-- MatrixContinuousSparse -->
<g id="node13" class="node">
<title>MatrixContinuousSparse</title>
<ellipse fill="none" stroke="#000000" cx="1405.9452" cy="-18" rx="127.2775" ry="18"/>
<text text-anchor="middle" x="1405.9452" y="-14.3" font-family="Times,serif" font-size="14.00" fill="#000000">MatrixContinuousSparse</text>
</g>
<!-- Vector&#45;&gt;CategoricalVector -->
<g id="edge6" class="edge">
<title>Vector&#45;&gt;CategoricalVector</title>
<path fill="none" stroke="#000000" d="M444.2602,-150.0508C437.9338,-147.8432 431.2709,-145.7011 424.9452,-144 404.2879,-138.4449 289.1776,-118.0114 208.4935,-103.9369"/>
<polygon fill="#000000" stroke="#000000" points="208.7924,-100.4363 198.34,-102.1675 207.5906,-107.3324 208.7924,-100.4363"/>
</g>
<!-- Vector&#45;&gt;ContinuousVector -->
<g id="edge9" class="edge">
<title>Vector&#45;&gt;ContinuousVector</title>
<path fill="none" stroke="#000000" d="M448.2828,-148.2879C428.1117,-137.9142 400.0255,-123.4699 376.8592,-111.5558"/>
<polygon fill="#000000" stroke="#000000" points="378.4175,-108.4215 367.9238,-106.9604 375.216,-114.6465 378.4175,-108.4215"/>
</g>
<!-- DiscreteVector -->
<g id="node20" class="node">
<title>DiscreteVector</title>
<ellipse fill="none" stroke="#000000" cx="527.9452" cy="-90" rx="80.6858" ry="18"/>
<text text-anchor="middle" x="527.9452" y="-86.3" font-family="Times,serif" font-size="14.00" fill="#000000">DiscreteVector</text>
</g>
<!-- Vector&#45;&gt;DiscreteVector -->
<g id="edge21" class="edge">
<title>Vector&#45;&gt;DiscreteVector</title>
<path fill="none" stroke="#000000" d="M487.775,-144.5708C494.0611,-136.0312 501.7604,-125.5719 508.7306,-116.1029"/>
<polygon fill="#000000" stroke="#000000" points="511.7558,-117.8971 514.8653,-107.7689 506.1184,-113.7474 511.7558,-117.8971"/>
</g>
<!-- Document -->
<g id="node16" class="node">
<title>Document</title>
<ellipse fill="none" stroke="#000000" cx="900.9452" cy="-90" rx="58.4896" ry="18"/>
<text text-anchor="middle" x="900.9452" y="-86.3" font-family="Times,serif" font-size="14.00" fill="#000000">Document</text>
</g>
<!-- Document&#45;&gt;Summary -->
<g id="edge7" class="edge">
<title>Document&#45;&gt;Summary</title>
<path fill="none" stroke="#000000" d="M900.9452,-71.8314C900.9452,-64.131 900.9452,-54.9743 900.9452,-46.4166"/>
<polygon fill="#000000" stroke="#000000" points="904.4453,-46.4132 900.9452,-36.4133 897.4453,-46.4133 904.4453,-46.4132"/>
</g>
<!-- MatrixContinuous -->
<g id="node18" class="node">
<title>MatrixContinuous</title>
<ellipse fill="none" stroke="#000000" cx="1231.9452" cy="-90" rx="94.7833" ry="18"/>
<text text-anchor="middle" x="1231.9452" y="-86.3" font-family="Times,serif" font-size="14.00" fill="#000000">MatrixContinuous</text>
</g>
<!-- MatrixContinuous&#45;&gt;MatrixContinuousDense -->
<g id="edge2" class="edge">
<title>MatrixContinuous&#45;&gt;MatrixContinuousDense</title>
<path fill="none" stroke="#000000" d="M1205.8014,-72.5708C1191.8157,-63.247 1174.397,-51.6345 1159.2274,-41.5214"/>
<polygon fill="#000000" stroke="#000000" points="1160.8605,-38.4037 1150.5985,-35.7689 1156.9776,-44.2281 1160.8605,-38.4037"/>
</g>
<!-- MatrixContinuous&#45;&gt;MatrixContinuousSparse -->
<g id="edge13" class="edge">
<title>MatrixContinuous&#45;&gt;MatrixContinuousSparse</title>
<path fill="none" stroke="#000000" d="M1271.8643,-73.4817C1296.6169,-63.2393 1328.6456,-49.986 1355.1917,-39.0014"/>
<polygon fill="#000000" stroke="#000000" points="1356.7982,-42.1246 1364.7002,-35.0669 1354.1217,-35.6564 1356.7982,-42.1246"/>
</g>
<!-- Text&#45;&gt;Sentence -->
<g id="edge4" class="edge">
<title>Text&#45;&gt;Sentence</title>
<path fill="none" stroke="#000000" d="M768.377,-148.2879C752.9141,-137.9792 731.4214,-123.6508 713.6154,-111.7801"/>
<polygon fill="#000000" stroke="#000000" points="715.475,-108.8134 705.213,-106.1785 711.5921,-114.6378 715.475,-108.8134"/>
</g>
<!-- Text&#45;&gt;Word -->
<g id="edge5" class="edge">
<title>Text&#45;&gt;Word</title>
<path fill="none" stroke="#000000" d="M788.9452,-143.8314C788.9452,-136.131 788.9452,-126.9743 788.9452,-118.4166"/>
<polygon fill="#000000" stroke="#000000" points="792.4453,-118.4132 788.9452,-108.4133 785.4453,-118.4133 792.4453,-118.4132"/>
</g>
<!-- Text&#45;&gt;Document -->
<g id="edge17" class="edge">
<title>Text&#45;&gt;Document</title>
<path fill="none" stroke="#000000" d="M810.0116,-148.4574C826.0943,-138.1185 848.5774,-123.665 867.1634,-111.7169"/>
<polygon fill="#000000" stroke="#000000" points="869.1405,-114.6068 875.6597,-106.255 865.3552,-108.7185 869.1405,-114.6068"/>
</g>
<!-- SparseMatrix -->
<g id="node22" class="node">
<title>SparseMatrix</title>
<ellipse fill="none" stroke="#000000" cx="1418.9452" cy="-90" rx="74.187" ry="18"/>
<text text-anchor="middle" x="1418.9452" y="-86.3" font-family="Times,serif" font-size="14.00" fill="#000000">SparseMatrix</text>
</g>
<!-- SparseMatrix&#45;&gt;MatrixContinuousSparse -->
<g id="edge14" class="edge">
<title>SparseMatrix&#45;&gt;MatrixContinuousSparse</title>
<path fill="none" stroke="#000000" d="M1415.6648,-71.8314C1414.2744,-64.131 1412.6211,-54.9743 1411.076,-46.4166"/>
<polygon fill="#000000" stroke="#000000" points="1414.491,-45.6322 1409.2698,-36.4133 1407.6024,-46.8761 1414.491,-45.6322"/>
</g>
<!-- Matrix&#45;&gt;DenseMatrix -->
<g id="edge11" class="edge">
<title>Matrix&#45;&gt;DenseMatrix</title>
<path fill="none" stroke="#000000" d="M1077.3048,-144.2022C1072.8047,-135.8944 1067.354,-125.8316 1062.3767,-116.6427"/>
<polygon fill="#000000" stroke="#000000" points="1065.4503,-114.9685 1057.6099,-107.8425 1059.2953,-118.3025 1065.4503,-114.9685"/>
</g>
<!-- Matrix&#45;&gt;MatrixContinuous -->
<g id="edge19" class="edge">
<title>Matrix&#45;&gt;MatrixContinuous</title>
<path fill="none" stroke="#000000" d="M1114.5599,-148.2879C1135.5239,-137.8782 1164.7427,-123.3695 1188.784,-111.4318"/>
<polygon fill="#000000" stroke="#000000" points="1190.6529,-114.4116 1198.0528,-106.8293 1187.5396,-108.142 1190.6529,-114.4116"/>
</g>
<!-- Matrix&#45;&gt;SparseMatrix -->
<g id="edge23" class="edge">
<title>Matrix&#45;&gt;SparseMatrix</title>
<path fill="none" stroke="#000000" d="M1118.5308,-149.9731C1124.9012,-147.7972 1131.5928,-145.687 1137.9452,-144 1224.3916,-121.0429 1248.2274,-125.4808 1335.9452,-108 1341.7813,-106.837 1347.8402,-105.5932 1353.9065,-104.3232"/>
<polygon fill="#000000" stroke="#000000" points="1355.0255,-107.6641 1364.0848,-102.1706 1353.577,-100.8156 1355.0255,-107.6641"/>
</g>
</g>
</svg>
