<?xml version="1.0" encoding="UTF-8" standalone="no"?>
<!DOCTYPE svg PUBLIC "-//W3C//DTD SVG 1.1//EN"
 "http://www.w3.org/Graphics/SVG/1.1/DTD/svg11.dtd">
<!-- Generated by graphviz version 2.40.1 (20161225.0304)
 -->
<!-- Title: G Pages: 1 -->
<svg width="1621pt" height="260pt"
 viewBox="0.00 0.00 1620.59 260.00" xmlns="http://www.w3.org/2000/svg" xmlns:xlink="http://www.w3.org/1999/xlink">
<g id="graph0" class="graph" transform="scale(1 1) rotate(0) translate(4 256)">
<title>G</title>
<polygon fill="#ffffff" stroke="transparent" points="-4,4 -4,-256 1616.5917,-256 1616.5917,4 -4,4"/>
<!-- Stem -->
<g id="node1" class="node">
<title>Stem</title>
<ellipse fill="none" stroke="#000000" cx="35.0969" cy="-162" rx="35.194" ry="18"/>
<text text-anchor="middle" x="35.0969" y="-158.3" font-family="Times,serif" font-size="14.00" fill="#000000">Stem</text>
</g>
<!-- Sentiment -->
<g id="node2" class="node">
<title>Sentiment</title>
<ellipse fill="none" stroke="#000000" cx="147.0969" cy="-162" rx="59.2899" ry="18"/>
<text text-anchor="middle" x="147.0969" y="-158.3" font-family="Times,serif" font-size="14.00" fill="#000000">Sentiment</text>
</g>
<!-- MatrixContinuous -->
<g id="node3" class="node">
<title>MatrixContinuous</title>
<ellipse fill="none" stroke="#000000" cx="408.0969" cy="-90" rx="94.7833" ry="18"/>
<text text-anchor="middle" x="408.0969" y="-86.3" font-family="Times,serif" font-size="14.00" fill="#000000">MatrixContinuous</text>
</g>
<!-- MatrixContinuousDense -->
<g id="node5" class="node">
<title>MatrixContinuousDense</title>
<ellipse fill="none" stroke="#000000" cx="250.0969" cy="-18" rx="124.2781" ry="18"/>
<text text-anchor="middle" x="250.0969" y="-14.3" font-family="Times,serif" font-size="14.00" fill="#000000">MatrixContinuousDense</text>
</g>
<!-- MatrixContinuous&#45;&gt;MatrixContinuousDense -->
<g id="edge5" class="edge">
<title>MatrixContinuous&#45;&gt;MatrixContinuousDense</title>
<path fill="none" stroke="#000000" d="M371.4514,-73.3008C349.3197,-63.2155 320.8916,-50.2609 297.1142,-39.4256"/>
<polygon fill="#000000" stroke="#000000" points="298.4678,-36.1962 287.9167,-35.2344 295.5651,-42.566 298.4678,-36.1962"/>
</g>
<!-- MatrixContinuousSparse -->
<g id="node18" class="node">
<title>MatrixContinuousSparse</title>
<ellipse fill="none" stroke="#000000" cx="545.0969" cy="-18" rx="127.2775" ry="18"/>
<text text-anchor="middle" x="545.0969" y="-14.3" font-family="Times,serif" font-size="14.00" fill="#000000">MatrixContinuousSparse</text>
</g>
<!-- MatrixContinuous&#45;&gt;MatrixContinuousSparse -->
<g id="edge19" class="edge">
<title>MatrixContinuous&#45;&gt;MatrixContinuousSparse</title>
<path fill="none" stroke="#000000" d="M440.564,-72.937C459.2279,-63.1282 482.8811,-50.6974 502.9652,-40.1422"/>
<polygon fill="#000000" stroke="#000000" points="504.6874,-43.1911 511.9112,-35.4407 501.4309,-36.9947 504.6874,-43.1911"/>
</g>
<!-- Entity -->
<g id="node4" class="node">
<title>Entity</title>
<ellipse fill="none" stroke="#000000" cx="264.0969" cy="-162" rx="39.7935" ry="18"/>
<text text-anchor="middle" x="264.0969" y="-158.3" font-family="Times,serif" font-size="14.00" fill="#000000">Entity</text>
</g>
<!-- DiscreteVector -->
<g id="node6" class="node">
<title>DiscreteVector</title>
<ellipse fill="none" stroke="#000000" cx="768.0969" cy="-90" rx="80.6858" ry="18"/>
<text text-anchor="middle" x="768.0969" y="-86.3" font-family="Times,serif" font-size="14.00" fill="#000000">DiscreteVector</text>
</g>
<!-- SparseMatrix -->
<g id="node7" class="node">
<title>SparseMatrix</title>
<ellipse fill="none" stroke="#000000" cx="595.0969" cy="-90" rx="74.187" ry="18"/>
<text text-anchor="middle" x="595.0969" y="-86.3" font-family="Times,serif" font-size="14.00" fill="#000000">SparseMatrix</text>
</g>
<!-- SparseMatrix&#45;&gt;MatrixContinuousSparse -->
<g id="edge20" class="edge">
<title>SparseMatrix&#45;&gt;MatrixContinuousSparse</title>
<path fill="none" stroke="#000000" d="M582.7373,-72.2022C576.9518,-63.871 569.9405,-53.7748 563.5448,-44.565"/>
<polygon fill="#000000" stroke="#000000" points="566.2404,-42.3104 557.6616,-36.0931 560.4908,-46.3032 566.2404,-42.3104"/>
</g>
<!-- List -->
<g id="node8" class="node">
<title>List</title>
<ellipse fill="none" stroke="#000000" cx="350.0969" cy="-162" rx="28.6953" ry="18"/>
<text text-anchor="middle" x="350.0969" y="-158.3" font-family="Times,serif" font-size="14.00" fill="#000000">List</text>
</g>
<!-- Matrix -->
<g id="node9" class="node">
<title>Matrix</title>
<ellipse fill="none" stroke="#000000" cx="439.0969" cy="-162" rx="42.4939" ry="18"/>
<text text-anchor="middle" x="439.0969" y="-158.3" font-family="Times,serif" font-size="14.00" fill="#000000">Matrix</text>
</g>
<!-- Matrix&#45;&gt;MatrixContinuous -->
<g id="edge3" class="edge">
<title>Matrix&#45;&gt;MatrixContinuous</title>
<path fill="none" stroke="#000000" d="M431.434,-144.2022C427.9578,-136.1287 423.7681,-126.3976 419.9036,-117.422"/>
<polygon fill="#000000" stroke="#000000" points="423.0563,-115.8938 415.887,-108.0931 416.6269,-118.6621 423.0563,-115.8938"/>
</g>
<!-- Matrix&#45;&gt;SparseMatrix -->
<g id="edge8" class="edge">
<title>Matrix&#45;&gt;SparseMatrix</title>
<path fill="none" stroke="#000000" d="M468.0737,-148.6261C491.4833,-137.8217 524.8001,-122.4447 551.4394,-110.1496"/>
<polygon fill="#000000" stroke="#000000" points="552.9435,-113.3103 560.5563,-105.9418 550.01,-106.9546 552.9435,-113.3103"/>
</g>
<!-- DenseMatrix -->
<g id="node21" class="node">
<title>DenseMatrix</title>
<ellipse fill="none" stroke="#000000" cx="224.0969" cy="-90" rx="70.6878" ry="18"/>
<text text-anchor="middle" x="224.0969" y="-86.3" font-family="Times,serif" font-size="14.00" fill="#000000">DenseMatrix</text>
</g>
<!-- Matrix&#45;&gt;DenseMatrix -->
<g id="edge23" class="edge">
<title>Matrix&#45;&gt;DenseMatrix</title>
<path fill="none" stroke="#000000" d="M406.4844,-150.3741C400.3819,-148.2314 394.051,-146.0307 388.0969,-144 351.3296,-131.4601 309.76,-117.7779 277.6724,-107.3235"/>
<polygon fill="#000000" stroke="#000000" points="278.6266,-103.9535 268.0344,-104.1875 276.4607,-110.61 278.6266,-103.9535"/>
</g>
<!-- Word -->
<g id="node10" class="node">
<title>Word</title>
<ellipse fill="none" stroke="#000000" cx="1316.0969" cy="-90" rx="35.9954" ry="18"/>
<text text-anchor="middle" x="1316.0969" y="-86.3" font-family="Times,serif" font-size="14.00" fill="#000000">Word</text>
</g>
<!-- Category -->
<g id="node11" class="node">
<title>Category</title>
<ellipse fill="none" stroke="#000000" cx="553.0969" cy="-162" rx="53.8905" ry="18"/>
<text text-anchor="middle" x="553.0969" y="-158.3" font-family="Times,serif" font-size="14.00" fill="#000000">Category</text>
</g>
<!-- Chunktag -->
<g id="node12" class="node">
<title>Chunktag</title>
<ellipse fill="none" stroke="#000000" cx="681.0969" cy="-162" rx="56.59" ry="18"/>
<text text-anchor="middle" x="681.0969" y="-158.3" font-family="Times,serif" font-size="14.00" fill="#000000">Chunktag</text>
</g>
<!-- Synset -->
<g id="node13" class="node">
<title>Synset</title>
<ellipse fill="none" stroke="#000000" cx="798.0969" cy="-162" rx="42.4939" ry="18"/>
<text text-anchor="middle" x="798.0969" y="-158.3" font-family="Times,serif" font-size="14.00" fill="#000000">Synset</text>
</g>
<!-- Sentence -->
<g id="node14" class="node">
<title>Sentence</title>
<ellipse fill="none" stroke="#000000" cx="1424.0969" cy="-90" rx="53.8905" ry="18"/>
<text text-anchor="middle" x="1424.0969" y="-86.3" font-family="Times,serif" font-size="14.00" fill="#000000">Sentence</text>
</g>
<!-- Summary -->
<g id="node15" class="node">
<title>Summary</title>
<ellipse fill="none" stroke="#000000" cx="1554.0969" cy="-18" rx="55.7903" ry="18"/>
<text text-anchor="middle" x="1554.0969" y="-14.3" font-family="Times,serif" font-size="14.00" fill="#000000">Summary</text>
</g>
<!-- Document -->
<g id="node16" class="node">
<title>Document</title>
<ellipse fill="none" stroke="#000000" cx="1554.0969" cy="-90" rx="58.4896" ry="18"/>
<text text-anchor="middle" x="1554.0969" y="-86.3" font-family="Times,serif" font-size="14.00" fill="#000000">Document</text>
</g>
<!-- Document&#45;&gt;Summary -->
<g id="edge16" class="edge">
<title>Document&#45;&gt;Summary</title>
<path fill="none" stroke="#000000" d="M1554.0969,-71.8314C1554.0969,-64.131 1554.0969,-54.9743 1554.0969,-46.4166"/>
<polygon fill="#000000" stroke="#000000" points="1557.597,-46.4132 1554.0969,-36.4133 1550.597,-46.4133 1557.597,-46.4132"/>
</g>
<!-- CategoricalVector -->
<g id="node17" class="node">
<title>CategoricalVector</title>
<ellipse fill="none" stroke="#000000" cx="961.0969" cy="-90" rx="94.7833" ry="18"/>
<text text-anchor="middle" x="961.0969" y="-86.3" font-family="Times,serif" font-size="14.00" fill="#000000">CategoricalVector</text>
</g>
<!-- ContinuousVector -->
<g id="node19" class="node">
<title>ContinuousVector</title>
<ellipse fill="none" stroke="#000000" cx="1168.0969" cy="-90" rx="94.4839" ry="18"/>
<text text-anchor="middle" x="1168.0969" y="-86.3" font-family="Times,serif" font-size="14.00" fill="#000000">ContinuousVector</text>
</g>
<!-- Tuple -->
<g id="node20" class="node">
<title>Tuple</title>
<ellipse fill="none" stroke="#000000" cx="895.0969" cy="-162" rx="37.0935" ry="18"/>
<text text-anchor="middle" x="895.0969" y="-158.3" font-family="Times,serif" font-size="14.00" fill="#000000">Tuple</text>
</g>
<!-- DenseMatrix&#45;&gt;MatrixContinuousDense -->
<g id="edge6" class="edge">
<title>DenseMatrix&#45;&gt;MatrixContinuousDense</title>
<path fill="none" stroke="#000000" d="M230.6578,-71.8314C233.4996,-63.9617 236.8906,-54.5712 240.0388,-45.8533"/>
<polygon fill="#000000" stroke="#000000" points="243.3431,-47.0076 243.4477,-36.4133 236.7592,-44.63 243.3431,-47.0076"/>
</g>
<!-- Flags -->
<g id="node22" class="node">
<title>Flags</title>
<ellipse fill="none" stroke="#000000" cx="986.0969" cy="-162" rx="36.2938" ry="18"/>
<text text-anchor="middle" x="986.0969" y="-158.3" font-family="Times,serif" font-size="14.00" fill="#000000">Flags</text>
</g>
<!-- Vector -->
<g id="node23" class="node">
<title>Vector</title>
<ellipse fill="none" stroke="#000000" cx="1081.0969" cy="-162" rx="40.8928" ry="18"/>
<text text-anchor="middle" x="1081.0969" y="-158.3" font-family="Times,serif" font-size="14.00" fill="#000000">Vector</text>
</g>
<!-- Vector&#45;&gt;DiscreteVector -->
<g id="edge7" class="edge">
<title>Vector&#45;&gt;DiscreteVector</title>
<path fill="none" stroke="#000000" d="M1050.1137,-150.0692C1043.8696,-147.8854 1037.3141,-145.7477 1031.0969,-144 1026.3797,-142.674 914.329,-119.7796 838.0226,-104.2312"/>
<polygon fill="#000000" stroke="#000000" points="838.4711,-100.7508 827.9737,-102.184 837.0737,-107.6099 838.4711,-100.7508"/>
</g>
<!-- Vector&#45;&gt;CategoricalVector -->
<g id="edge18" class="edge">
<title>Vector&#45;&gt;CategoricalVector</title>
<path fill="none" stroke="#000000" d="M1056.8131,-147.4297C1040.1407,-137.4263 1017.6835,-123.952 998.7119,-112.569"/>
<polygon fill="#000000" stroke="#000000" points="1000.3731,-109.4841 989.9974,-107.3403 996.7716,-115.4865 1000.3731,-109.4841"/>
</g>
<!-- Vector&#45;&gt;ContinuousVector -->
<g id="edge21" class="edge">
<title>Vector&#45;&gt;ContinuousVector</title>
<path fill="none" stroke="#000000" d="M1100.405,-146.0209C1111.6569,-136.709 1126.0751,-124.7767 1138.7112,-114.3192"/>
<polygon fill="#000000" stroke="#000000" points="1141.2339,-116.7746 1146.7063,-107.7025 1136.7709,-111.3818 1141.2339,-116.7746"/>
</g>
<!-- Tensor3 -->
<g id="node24" class="node">
<title>Tensor3</title>
<ellipse fill="none" stroke="#000000" cx="1188.0969" cy="-162" rx="48.1917" ry="18"/>
<text text-anchor="middle" x="1188.0969" y="-158.3" font-family="Times,serif" font-size="14.00" fill="#000000">Tensor3</text>
</g>
<!-- Text -->
<g id="node25" class="node">
<title>Text</title>
<ellipse fill="none" stroke="#000000" cx="1316.0969" cy="-162" rx="31.3957" ry="18"/>
<text text-anchor="middle" x="1316.0969" y="-158.3" font-family="Times,serif" font-size="14.00" fill="#000000">Text</text>
</g>
<!-- Text&#45;&gt;Word -->
<g id="edge11" class="edge">
<title>Text&#45;&gt;Word</title>
<path fill="none" stroke="#000000" d="M1316.0969,-143.8314C1316.0969,-136.131 1316.0969,-126.9743 1316.0969,-118.4166"/>
<polygon fill="#000000" stroke="#000000" points="1319.597,-118.4132 1316.0969,-108.4133 1312.597,-118.4133 1319.597,-118.4132"/>
</g>
<!-- Text&#45;&gt;Sentence -->
<g id="edge15" class="edge">
<title>Text&#45;&gt;Sentence</title>
<path fill="none" stroke="#000000" d="M1336.6651,-148.2879C1352.128,-137.9792 1373.6207,-123.6508 1391.4267,-111.7801"/>
<polygon fill="#000000" stroke="#000000" points="1393.45,-114.6378 1399.8291,-106.1785 1389.5671,-108.8134 1393.45,-114.6378"/>
</g>
<!-- Text&#45;&gt;Document -->
<g id="edge17" class="edge">
<title>Text&#45;&gt;Document</title>
<path fill="none" stroke="#000000" d="M1340.3864,-150.3408C1345.5143,-148.0861 1350.9362,-145.852 1356.0969,-144 1363.0372,-141.5093 1443.8128,-119.6551 1500.0198,-104.5244"/>
<polygon fill="#000000" stroke="#000000" points="1501.11,-107.8557 1509.8571,-101.8774 1499.2911,-101.0961 1501.11,-107.8557"/>
</g>
<!-- Postag -->
<g id="node26" class="node">
<title>Postag</title>
<ellipse fill="none" stroke="#000000" cx="1407.0969" cy="-162" rx="42.4939" ry="18"/>
<text text-anchor="middle" x="1407.0969" y="-158.3" font-family="Times,serif" font-size="14.00" fill="#000000">Postag</text>
</g>
<!-- DataType -->
<g id="node27" class="node">
<title>DataType</title>
<ellipse fill="none" stroke="#000000" cx="739.0969" cy="-234" rx="55.7903" ry="18"/>
<text text-anchor="middle" x="739.0969" y="-230.3" font-family="Times,serif" font-size="14.00" fill="#000000">DataType</text>
</g>
<!-- DataType&#45;&gt;Stem -->
<g id="edge1" class="edge">
<title>DataType&#45;&gt;Stem</title>
<path fill="none" stroke="#000000" d="M683.5927,-231.646C546.2573,-225.4705 193.4194,-207.3688 79.0969,-180 76.3127,-179.3335 73.4751,-178.5171 70.6499,-177.6037"/>
<polygon fill="#000000" stroke="#000000" points="71.781,-174.2911 61.1865,-174.2013 69.4126,-180.8783 71.781,-174.2911"/>
</g>
<!-- DataType&#45;&gt;Sentiment -->
<g id="edge2" class="edge">
<title>DataType&#45;&gt;Sentiment</title>
<path fill="none" stroke="#000000" d="M683.6235,-231.1355C587.5456,-225.5407 384.2301,-210.9048 215.0969,-180 210.1189,-179.0904 204.9708,-178.0037 199.8381,-176.8209"/>
<polygon fill="#000000" stroke="#000000" points="200.578,-173.399 190.0354,-174.4496 198.9321,-180.2028 200.578,-173.399"/>
</g>
<!-- DataType&#45;&gt;Entity -->
<g id="edge4" class="edge">
<title>DataType&#45;&gt;Entity</title>
<path fill="none" stroke="#000000" d="M683.7493,-231.1235C601.6046,-225.932 443.0315,-212.3589 312.0969,-180 309.1255,-179.2657 306.0862,-178.4038 303.0509,-177.4619"/>
<polygon fill="#000000" stroke="#000000" points="304.0516,-174.1059 293.4576,-174.2391 301.8225,-180.7415 304.0516,-174.1059"/>
</g>
<!-- DataType&#45;&gt;List -->
<g id="edge9" class="edge">
<title>DataType&#45;&gt;List</title>
<path fill="none" stroke="#000000" d="M684.1877,-230.4877C614.1574,-224.896 489.9259,-211.222 388.0969,-180 385.942,-179.3393 383.7542,-178.5761 381.5728,-177.7449"/>
<polygon fill="#000000" stroke="#000000" points="382.7447,-174.4405 372.1711,-173.7706 380.0191,-180.888 382.7447,-174.4405"/>
</g>
<!-- DataType&#45;&gt;Matrix -->
<g id="edge10" class="edge">
<title>DataType&#45;&gt;Matrix</title>
<path fill="none" stroke="#000000" d="M689.9816,-225.2399C639.4318,-215.7837 558.6101,-199.4365 490.0969,-180 486.9805,-179.1159 483.7778,-178.1432 480.5687,-177.1218"/>
<polygon fill="#000000" stroke="#000000" points="481.5953,-173.7749 471.002,-173.9516 479.3934,-180.4196 481.5953,-173.7749"/>
</g>
<!-- DataType&#45;&gt;Category -->
<g id="edge12" class="edge">
<title>DataType&#45;&gt;Category</title>
<path fill="none" stroke="#000000" d="M703.2342,-220.1177C673.29,-208.5263 630.4427,-191.9403 598.1802,-179.4516"/>
<polygon fill="#000000" stroke="#000000" points="599.1228,-176.0634 588.5336,-175.7174 596.5958,-182.5914 599.1228,-176.0634"/>
</g>
<!-- DataType&#45;&gt;Chunktag -->
<g id="edge13" class="edge">
<title>DataType&#45;&gt;Chunktag</title>
<path fill="none" stroke="#000000" d="M725.0567,-216.5708C717.9848,-207.7919 709.2785,-196.9841 701.4849,-187.3093"/>
<polygon fill="#000000" stroke="#000000" points="704.2078,-185.1101 695.2088,-179.5182 698.7565,-189.5015 704.2078,-185.1101"/>
</g>
<!-- DataType&#45;&gt;Synset -->
<g id="edge14" class="edge">
<title>DataType&#45;&gt;Synset</title>
<path fill="none" stroke="#000000" d="M753.3791,-216.5708C760.6262,-207.7269 769.5606,-196.8239 777.5334,-187.0945"/>
<polygon fill="#000000" stroke="#000000" points="780.3151,-189.2219 783.9462,-179.2687 774.9007,-184.7851 780.3151,-189.2219"/>
</g>
<!-- DataType&#45;&gt;Tuple -->
<g id="edge22" class="edge">
<title>DataType&#45;&gt;Tuple</title>
<path fill="none" stroke="#000000" d="M771.4202,-219.0816C796.855,-207.3424 832.2948,-190.9856 858.7202,-178.7892"/>
<polygon fill="#000000" stroke="#000000" points="860.4,-181.8688 868.0129,-174.5003 857.4665,-175.5131 860.4,-181.8688"/>
</g>
<!-- DataType&#45;&gt;Flags -->
<g id="edge24" class="edge">
<title>DataType&#45;&gt;Flags</title>
<path fill="none" stroke="#000000" d="M784.8835,-223.4136C826.1278,-213.4875 888.2188,-197.5739 941.0969,-180 943.6296,-179.1583 946.2255,-178.2488 948.8301,-177.3013"/>
<polygon fill="#000000" stroke="#000000" points="950.0871,-180.5679 958.2024,-173.7566 947.6109,-174.0205 950.0871,-180.5679"/>
</g>
<!-- DataType&#45;&gt;Vector -->
<g id="edge25" class="edge">
<title>DataType&#45;&gt;Vector</title>
<path fill="none" stroke="#000000" d="M790.8296,-227.0339C849.6421,-218.5163 948.2381,-202.4162 1031.0969,-180 1034.2584,-179.1447 1037.5046,-178.1805 1040.7512,-177.154"/>
<polygon fill="#000000" stroke="#000000" points="1042.0283,-180.4176 1050.4079,-173.9343 1039.8142,-173.777 1042.0283,-180.4176"/>
</g>
<!-- DataType&#45;&gt;Tensor3 -->
<g id="edge26" class="edge">
<title>DataType&#45;&gt;Tensor3</title>
<path fill="none" stroke="#000000" d="M793.19,-229.4641C869.2847,-222.4253 1011.966,-206.8134 1131.0969,-180 1134.9172,-179.1401 1138.8497,-178.1427 1142.7784,-177.0669"/>
<polygon fill="#000000" stroke="#000000" points="1143.8353,-180.4047 1152.4698,-174.2651 1141.8911,-173.6801 1143.8353,-180.4047"/>
</g>
<!-- DataType&#45;&gt;Text -->
<g id="edge27" class="edge">
<title>DataType&#45;&gt;Text</title>
<path fill="none" stroke="#000000" d="M794.1186,-230.6964C887.4423,-224.5211 1082.4797,-209.1386 1245.0969,-180 1255.9104,-178.0624 1267.5112,-175.3826 1278.1364,-172.6823"/>
<polygon fill="#000000" stroke="#000000" points="1279.1784,-176.0276 1287.967,-170.1106 1277.4067,-169.2555 1279.1784,-176.0276"/>
</g>
<!-- DataType&#45;&gt;Postag -->
<g id="edge28" class="edge">
<title>DataType&#45;&gt;Postag</title>
<path fill="none" stroke="#000000" d="M794.2501,-230.9578C924.7621,-223.471 1249.5611,-203.0746 1356.0969,-180 1359.5037,-179.2621 1362.995,-178.3597 1366.4746,-177.356"/>
<polygon fill="#000000" stroke="#000000" points="1367.6779,-180.6467 1376.1701,-174.3116 1365.5808,-173.9682 1367.6779,-180.6467"/>
</g>
</g>
</svg>
