<?xml version="1.0" encoding="UTF-8" standalone="no"?>
<!DOCTYPE svg PUBLIC "-//W3C//DTD SVG 1.1//EN"
 "http://www.w3.org/Graphics/SVG/1.1/DTD/svg11.dtd">
<!-- Generated by graphviz version 2.40.1 (20161225.0304)
 -->
<!-- Title: G Pages: 1 -->
<svg width="1598pt" height="260pt"
 viewBox="0.00 0.00 1598.04 260.00" xmlns="http://www.w3.org/2000/svg" xmlns:xlink="http://www.w3.org/1999/xlink">
<g id="graph0" class="graph" transform="scale(1 1) rotate(0) translate(4 256)">
<title>G</title>
<polygon fill="#ffffff" stroke="transparent" points="-4,4 -4,-256 1594.0352,-256 1594.0352,4 -4,4"/>
<!-- SparseMatrix -->
<g id="node1" class="node">
<title>SparseMatrix</title>
<ellipse fill="none" stroke="#000000" cx="101.3887" cy="-90" rx="74.187" ry="18"/>
<text text-anchor="middle" x="101.3887" y="-86.3" font-family="Times,serif" font-size="14.00" fill="#000000">SparseMatrix</text>
</g>
<!-- MatrixContinuousSparse -->
<g id="node11" class="node">
<title>MatrixContinuousSparse</title>
<ellipse fill="none" stroke="#000000" cx="127.3887" cy="-18" rx="127.2775" ry="18"/>
<text text-anchor="middle" x="127.3887" y="-14.3" font-family="Times,serif" font-size="14.00" fill="#000000">MatrixContinuousSparse</text>
</g>
<!-- SparseMatrix&#45;&gt;MatrixContinuousSparse -->
<g id="edge12" class="edge">
<title>SparseMatrix&#45;&gt;MatrixContinuousSparse</title>
<path fill="none" stroke="#000000" d="M107.9496,-71.8314C110.7914,-63.9617 114.1824,-54.5712 117.3306,-45.8533"/>
<polygon fill="#000000" stroke="#000000" points="120.6349,-47.0076 120.7395,-36.4133 114.051,-44.63 120.6349,-47.0076"/>
</g>
<!-- List -->
<g id="node2" class="node">
<title>List</title>
<ellipse fill="none" stroke="#000000" cx="199.3887" cy="-162" rx="28.6953" ry="18"/>
<text text-anchor="middle" x="199.3887" y="-158.3" font-family="Times,serif" font-size="14.00" fill="#000000">List</text>
</g>
<!-- Matrix -->
<g id="node3" class="node">
<title>Matrix</title>
<ellipse fill="none" stroke="#000000" cx="288.3887" cy="-162" rx="42.4939" ry="18"/>
<text text-anchor="middle" x="288.3887" y="-158.3" font-family="Times,serif" font-size="14.00" fill="#000000">Matrix</text>
</g>
<!-- Matrix&#45;&gt;SparseMatrix -->
<g id="edge1" class="edge">
<title>Matrix&#45;&gt;SparseMatrix</title>
<path fill="none" stroke="#000000" d="M256.6667,-149.7862C227.6454,-138.6122 184.2513,-121.9043 150.708,-108.9893"/>
<polygon fill="#000000" stroke="#000000" points="151.6757,-105.6114 141.0859,-105.2845 149.1605,-112.1439 151.6757,-105.6114"/>
</g>
<!-- DenseMatrix -->
<g id="node14" class="node">
<title>DenseMatrix</title>
<ellipse fill="none" stroke="#000000" cx="472.3887" cy="-90" rx="70.6878" ry="18"/>
<text text-anchor="middle" x="472.3887" y="-86.3" font-family="Times,serif" font-size="14.00" fill="#000000">DenseMatrix</text>
</g>
<!-- Matrix&#45;&gt;DenseMatrix -->
<g id="edge15" class="edge">
<title>Matrix&#45;&gt;DenseMatrix</title>
<path fill="none" stroke="#000000" d="M319.6018,-149.7862C348.2509,-138.5757 391.1347,-121.795 424.1838,-108.8628"/>
<polygon fill="#000000" stroke="#000000" points="425.6233,-112.058 433.6603,-105.1546 423.0724,-105.5393 425.6233,-112.058"/>
</g>
<!-- MatrixContinuous -->
<g id="node24" class="node">
<title>MatrixContinuous</title>
<ellipse fill="none" stroke="#000000" cx="288.3887" cy="-90" rx="94.7833" ry="18"/>
<text text-anchor="middle" x="288.3887" y="-86.3" font-family="Times,serif" font-size="14.00" fill="#000000">MatrixContinuous</text>
</g>
<!-- Matrix&#45;&gt;MatrixContinuous -->
<g id="edge26" class="edge">
<title>Matrix&#45;&gt;MatrixContinuous</title>
<path fill="none" stroke="#000000" d="M288.3887,-143.8314C288.3887,-136.131 288.3887,-126.9743 288.3887,-118.4166"/>
<polygon fill="#000000" stroke="#000000" points="291.8888,-118.4132 288.3887,-108.4133 284.8888,-118.4133 291.8888,-118.4132"/>
</g>
<!-- Category -->
<g id="node4" class="node">
<title>Category</title>
<ellipse fill="none" stroke="#000000" cx="402.3887" cy="-162" rx="53.8905" ry="18"/>
<text text-anchor="middle" x="402.3887" y="-158.3" font-family="Times,serif" font-size="14.00" fill="#000000">Category</text>
</g>
<!-- Chunktag -->
<g id="node5" class="node">
<title>Chunktag</title>
<ellipse fill="none" stroke="#000000" cx="530.3887" cy="-162" rx="56.59" ry="18"/>
<text text-anchor="middle" x="530.3887" y="-158.3" font-family="Times,serif" font-size="14.00" fill="#000000">Chunktag</text>
</g>
<!-- Sentence -->
<g id="node6" class="node">
<title>Sentence</title>
<ellipse fill="none" stroke="#000000" cx="618.3887" cy="-90" rx="53.8905" ry="18"/>
<text text-anchor="middle" x="618.3887" y="-86.3" font-family="Times,serif" font-size="14.00" fill="#000000">Sentence</text>
</g>
<!-- Synset -->
<g id="node7" class="node">
<title>Synset</title>
<ellipse fill="none" stroke="#000000" cx="647.3887" cy="-162" rx="42.4939" ry="18"/>
<text text-anchor="middle" x="647.3887" y="-158.3" font-family="Times,serif" font-size="14.00" fill="#000000">Synset</text>
</g>
<!-- Word -->
<g id="node8" class="node">
<title>Word</title>
<ellipse fill="none" stroke="#000000" cx="726.3887" cy="-90" rx="35.9954" ry="18"/>
<text text-anchor="middle" x="726.3887" y="-86.3" font-family="Times,serif" font-size="14.00" fill="#000000">Word</text>
</g>
<!-- Summary -->
<g id="node9" class="node">
<title>Summary</title>
<ellipse fill="none" stroke="#000000" cx="838.3887" cy="-18" rx="55.7903" ry="18"/>
<text text-anchor="middle" x="838.3887" y="-14.3" font-family="Times,serif" font-size="14.00" fill="#000000">Summary</text>
</g>
<!-- CategoricalVector -->
<g id="node10" class="node">
<title>CategoricalVector</title>
<ellipse fill="none" stroke="#000000" cx="1009.3887" cy="-90" rx="94.7833" ry="18"/>
<text text-anchor="middle" x="1009.3887" y="-86.3" font-family="Times,serif" font-size="14.00" fill="#000000">CategoricalVector</text>
</g>
<!-- ContinuousVector -->
<g id="node12" class="node">
<title>ContinuousVector</title>
<ellipse fill="none" stroke="#000000" cx="1216.3887" cy="-90" rx="94.4839" ry="18"/>
<text text-anchor="middle" x="1216.3887" y="-86.3" font-family="Times,serif" font-size="14.00" fill="#000000">ContinuousVector</text>
</g>
<!-- Tuple -->
<g id="node13" class="node">
<title>Tuple</title>
<ellipse fill="none" stroke="#000000" cx="744.3887" cy="-162" rx="37.0935" ry="18"/>
<text text-anchor="middle" x="744.3887" y="-158.3" font-family="Times,serif" font-size="14.00" fill="#000000">Tuple</text>
</g>
<!-- MatrixContinuousDense -->
<g id="node23" class="node">
<title>MatrixContinuousDense</title>
<ellipse fill="none" stroke="#000000" cx="422.3887" cy="-18" rx="124.2781" ry="18"/>
<text text-anchor="middle" x="422.3887" y="-14.3" font-family="Times,serif" font-size="14.00" fill="#000000">MatrixContinuousDense</text>
</g>
<!-- DenseMatrix&#45;&gt;MatrixContinuousDense -->
<g id="edge25" class="edge">
<title>DenseMatrix&#45;&gt;MatrixContinuousDense</title>
<path fill="none" stroke="#000000" d="M460.0291,-72.2022C454.2436,-63.871 447.2323,-53.7748 440.8366,-44.565"/>
<polygon fill="#000000" stroke="#000000" points="443.5322,-42.3104 434.9534,-36.0931 437.7826,-46.3032 443.5322,-42.3104"/>
</g>
<!-- Text -->
<g id="node15" class="node">
<title>Text</title>
<ellipse fill="none" stroke="#000000" cx="830.3887" cy="-162" rx="31.3957" ry="18"/>
<text text-anchor="middle" x="830.3887" y="-158.3" font-family="Times,serif" font-size="14.00" fill="#000000">Text</text>
</g>
<!-- Text&#45;&gt;Sentence -->
<g id="edge6" class="edge">
<title>Text&#45;&gt;Sentence</title>
<path fill="none" stroke="#000000" d="M806.0432,-150.4921C800.9194,-148.2264 795.5133,-145.9496 790.3887,-144 767.9313,-135.4563 710.5406,-117.7362 668.1986,-104.9205"/>
<polygon fill="#000000" stroke="#000000" points="669.1863,-101.5627 658.6014,-102.0215 667.1622,-108.2637 669.1863,-101.5627"/>
</g>
<!-- Text&#45;&gt;Word -->
<g id="edge8" class="edge">
<title>Text&#45;&gt;Word</title>
<path fill="none" stroke="#000000" d="M810.3365,-148.1177C794.9556,-137.4694 773.4864,-122.6061 756.11,-110.5763"/>
<polygon fill="#000000" stroke="#000000" points="757.6645,-107.3956 747.4503,-104.5811 753.68,-113.1509 757.6645,-107.3956"/>
</g>
<!-- Document -->
<g id="node19" class="node">
<title>Document</title>
<ellipse fill="none" stroke="#000000" cx="838.3887" cy="-90" rx="58.4896" ry="18"/>
<text text-anchor="middle" x="838.3887" y="-86.3" font-family="Times,serif" font-size="14.00" fill="#000000">Document</text>
</g>
<!-- Text&#45;&gt;Document -->
<g id="edge20" class="edge">
<title>Text&#45;&gt;Document</title>
<path fill="none" stroke="#000000" d="M832.4074,-143.8314C833.263,-136.131 834.2804,-126.9743 835.2313,-118.4166"/>
<polygon fill="#000000" stroke="#000000" points="838.717,-118.7386 836.3428,-108.4133 831.7598,-117.9656 838.717,-118.7386"/>
</g>
<!-- Flags -->
<g id="node16" class="node">
<title>Flags</title>
<ellipse fill="none" stroke="#000000" cx="916.3887" cy="-162" rx="36.2938" ry="18"/>
<text text-anchor="middle" x="916.3887" y="-158.3" font-family="Times,serif" font-size="14.00" fill="#000000">Flags</text>
</g>
<!-- Vector -->
<g id="node17" class="node">
<title>Vector</title>
<ellipse fill="none" stroke="#000000" cx="1011.3887" cy="-162" rx="40.8928" ry="18"/>
<text text-anchor="middle" x="1011.3887" y="-158.3" font-family="Times,serif" font-size="14.00" fill="#000000">Vector</text>
</g>
<!-- Vector&#45;&gt;CategoricalVector -->
<g id="edge10" class="edge">
<title>Vector&#45;&gt;CategoricalVector</title>
<path fill="none" stroke="#000000" d="M1010.884,-143.8314C1010.6701,-136.131 1010.4158,-126.9743 1010.178,-118.4166"/>
<polygon fill="#000000" stroke="#000000" points="1013.6766,-118.3122 1009.9002,-108.4133 1006.6793,-118.5066 1013.6766,-118.3122"/>
</g>
<!-- Vector&#45;&gt;ContinuousVector -->
<g id="edge13" class="edge">
<title>Vector&#45;&gt;ContinuousVector</title>
<path fill="none" stroke="#000000" d="M1043.1115,-150.5241C1049.1752,-148.3463 1055.475,-146.0945 1061.3887,-144 1094.3301,-132.3327 1131.2811,-119.4515 1160.8405,-109.1968"/>
<polygon fill="#000000" stroke="#000000" points="1162.2633,-112.408 1170.5651,-105.8254 1159.9703,-105.7942 1162.2633,-112.408"/>
</g>
<!-- DiscreteVector -->
<g id="node26" class="node">
<title>DiscreteVector</title>
<ellipse fill="none" stroke="#000000" cx="1409.3887" cy="-90" rx="80.6858" ry="18"/>
<text text-anchor="middle" x="1409.3887" y="-86.3" font-family="Times,serif" font-size="14.00" fill="#000000">DiscreteVector</text>
</g>
<!-- Vector&#45;&gt;DiscreteVector -->
<g id="edge28" class="edge">
<title>Vector&#45;&gt;DiscreteVector</title>
<path fill="none" stroke="#000000" d="M1042.0209,-149.846C1048.3514,-147.6543 1055.0293,-145.5704 1061.3887,-144 1173.7899,-116.2435 1205.2415,-127.3613 1319.3887,-108 1326.144,-106.8542 1333.1692,-105.5854 1340.183,-104.2674"/>
<polygon fill="#000000" stroke="#000000" points="1341.2537,-107.6261 1350.4181,-102.3096 1339.9385,-100.7508 1341.2537,-107.6261"/>
</g>
<!-- Tensor3 -->
<g id="node18" class="node">
<title>Tensor3</title>
<ellipse fill="none" stroke="#000000" cx="1118.3887" cy="-162" rx="48.1917" ry="18"/>
<text text-anchor="middle" x="1118.3887" y="-158.3" font-family="Times,serif" font-size="14.00" fill="#000000">Tensor3</text>
</g>
<!-- Document&#45;&gt;Summary -->
<g id="edge9" class="edge">
<title>Document&#45;&gt;Summary</title>
<path fill="none" stroke="#000000" d="M838.3887,-71.8314C838.3887,-64.131 838.3887,-54.9743 838.3887,-46.4166"/>
<polygon fill="#000000" stroke="#000000" points="841.8888,-46.4132 838.3887,-36.4133 834.8888,-46.4133 841.8888,-46.4132"/>
</g>
<!-- Postag -->
<g id="node20" class="node">
<title>Postag</title>
<ellipse fill="none" stroke="#000000" cx="1226.3887" cy="-162" rx="42.4939" ry="18"/>
<text text-anchor="middle" x="1226.3887" y="-158.3" font-family="Times,serif" font-size="14.00" fill="#000000">Postag</text>
</g>
<!-- Stem -->
<g id="node21" class="node">
<title>Stem</title>
<ellipse fill="none" stroke="#000000" cx="1321.3887" cy="-162" rx="35.194" ry="18"/>
<text text-anchor="middle" x="1321.3887" y="-158.3" font-family="Times,serif" font-size="14.00" fill="#000000">Stem</text>
</g>
<!-- Sentiment -->
<g id="node22" class="node">
<title>Sentiment</title>
<ellipse fill="none" stroke="#000000" cx="1433.3887" cy="-162" rx="59.2899" ry="18"/>
<text text-anchor="middle" x="1433.3887" y="-158.3" font-family="Times,serif" font-size="14.00" fill="#000000">Sentiment</text>
</g>
<!-- MatrixContinuous&#45;&gt;MatrixContinuousSparse -->
<g id="edge11" class="edge">
<title>MatrixContinuous&#45;&gt;MatrixContinuousSparse</title>
<path fill="none" stroke="#000000" d="M251.0474,-73.3008C228.4955,-63.2155 199.5276,-50.2609 175.2987,-39.4256"/>
<polygon fill="#000000" stroke="#000000" points="176.4842,-36.1218 165.9266,-35.2344 173.6265,-42.5119 176.4842,-36.1218"/>
</g>
<!-- MatrixContinuous&#45;&gt;MatrixContinuousDense -->
<g id="edge24" class="edge">
<title>MatrixContinuous&#45;&gt;MatrixContinuousDense</title>
<path fill="none" stroke="#000000" d="M320.1448,-72.937C338.3179,-63.1724 361.3269,-50.8093 380.9139,-40.285"/>
<polygon fill="#000000" stroke="#000000" points="382.7773,-43.257 389.9297,-35.4407 379.4641,-37.0908 382.7773,-43.257"/>
</g>
<!-- Entity -->
<g id="node25" class="node">
<title>Entity</title>
<ellipse fill="none" stroke="#000000" cx="1550.3887" cy="-162" rx="39.7935" ry="18"/>
<text text-anchor="middle" x="1550.3887" y="-158.3" font-family="Times,serif" font-size="14.00" fill="#000000">Entity</text>
</g>
<!-- DataType -->
<g id="node27" class="node">
<title>DataType</title>
<ellipse fill="none" stroke="#000000" cx="873.3887" cy="-234" rx="55.7903" ry="18"/>
<text text-anchor="middle" x="873.3887" y="-230.3" font-family="Times,serif" font-size="14.00" fill="#000000">DataType</text>
</g>
<!-- DataType&#45;&gt;List -->
<g id="edge2" class="edge">
<title>DataType&#45;&gt;List</title>
<path fill="none" stroke="#000000" d="M817.8499,-231.8242C683.9273,-226.1698 346.249,-209.372 237.3887,-180 235.0695,-179.3742 232.7187,-178.612 230.3826,-177.7586"/>
<polygon fill="#000000" stroke="#000000" points="231.5596,-174.4576 220.982,-173.8539 228.8745,-180.9221 231.5596,-174.4576"/>
</g>
<!-- DataType&#45;&gt;Matrix -->
<g id="edge3" class="edge">
<title>DataType&#45;&gt;Matrix</title>
<path fill="none" stroke="#000000" d="M817.3419,-232.7131C719.3051,-229.4947 510.8002,-218.3376 339.3887,-180 336.0342,-179.2497 332.5961,-178.3459 329.1669,-177.3479"/>
<polygon fill="#000000" stroke="#000000" points="330.193,-174.0016 319.6034,-174.3347 328.0894,-180.6781 330.193,-174.0016"/>
</g>
<!-- DataType&#45;&gt;Category -->
<g id="edge4" class="edge">
<title>DataType&#45;&gt;Category</title>
<path fill="none" stroke="#000000" d="M819.0256,-229.4613C740.2491,-222.2896 590.0347,-206.3752 464.3887,-180 460.2547,-179.1322 455.9941,-178.1298 451.7339,-177.0512"/>
<polygon fill="#000000" stroke="#000000" points="452.4173,-173.6114 441.8537,-174.4239 450.6183,-180.3763 452.4173,-173.6114"/>
</g>
<!-- DataType&#45;&gt;Chunktag -->
<g id="edge5" class="edge">
<title>DataType&#45;&gt;Chunktag</title>
<path fill="none" stroke="#000000" d="M823.8685,-225.4831C768.2682,-215.6571 675.4715,-198.466 596.3887,-180 591.9757,-178.9695 587.4119,-177.8464 582.8404,-176.6811"/>
<polygon fill="#000000" stroke="#000000" points="583.4354,-173.2192 572.8758,-174.0822 581.6688,-179.9926 583.4354,-173.2192"/>
</g>
<!-- DataType&#45;&gt;Synset -->
<g id="edge7" class="edge">
<title>DataType&#45;&gt;Synset</title>
<path fill="none" stroke="#000000" d="M832.2247,-221.805C796.6675,-211.1501 743.9732,-195.0707 698.3887,-180 695.4524,-179.0292 692.4274,-178.0103 689.3851,-176.9716"/>
<polygon fill="#000000" stroke="#000000" points="690.2919,-173.5819 679.6972,-173.622 688.0045,-180.1976 690.2919,-173.5819"/>
</g>
<!-- DataType&#45;&gt;Tuple -->
<g id="edge14" class="edge">
<title>DataType&#45;&gt;Tuple</title>
<path fill="none" stroke="#000000" d="M845.3976,-218.3771C825.5164,-207.2806 798.735,-192.3328 777.7442,-180.617"/>
<polygon fill="#000000" stroke="#000000" points="779.2848,-177.4686 768.847,-175.6511 775.8732,-183.581 779.2848,-177.4686"/>
</g>
<!-- DataType&#45;&gt;Text -->
<g id="edge16" class="edge">
<title>DataType&#45;&gt;Text</title>
<path fill="none" stroke="#000000" d="M862.7595,-216.2022C857.6331,-207.6186 851.3878,-197.1613 845.7554,-187.7303"/>
<polygon fill="#000000" stroke="#000000" points="848.7319,-185.8881 840.5995,-179.0972 842.7221,-189.4773 848.7319,-185.8881"/>
</g>
<!-- DataType&#45;&gt;Flags -->
<g id="edge17" class="edge">
<title>DataType&#45;&gt;Flags</title>
<path fill="none" stroke="#000000" d="M884.0179,-216.2022C889.1066,-207.6817 895.2978,-197.315 900.8977,-187.9385"/>
<polygon fill="#000000" stroke="#000000" points="903.9076,-189.7246 906.0301,-179.3446 897.8978,-186.1354 903.9076,-189.7246"/>
</g>
<!-- DataType&#45;&gt;Vector -->
<g id="edge18" class="edge">
<title>DataType&#45;&gt;Vector</title>
<path fill="none" stroke="#000000" d="M902.9932,-218.5542C924.2929,-207.4413 953.1246,-192.3986 975.6984,-180.621"/>
<polygon fill="#000000" stroke="#000000" points="977.3896,-183.6864 984.6365,-175.9577 974.1516,-177.4803 977.3896,-183.6864"/>
</g>
<!-- DataType&#45;&gt;Tensor3 -->
<g id="edge19" class="edge">
<title>DataType&#45;&gt;Tensor3</title>
<path fill="none" stroke="#000000" d="M915.6678,-222.1974C953.8313,-211.4625 1011.4806,-195.0451 1061.3887,-180 1064.8725,-178.9498 1068.4712,-177.8496 1072.088,-176.7328"/>
<polygon fill="#000000" stroke="#000000" points="1073.1296,-180.0744 1081.6378,-173.7609 1071.0495,-173.3905 1073.1296,-180.0744"/>
</g>
<!-- DataType&#45;&gt;Postag -->
<g id="edge21" class="edge">
<title>DataType&#45;&gt;Postag</title>
<path fill="none" stroke="#000000" d="M925.5131,-227.3036C986.1549,-218.9108 1089.0013,-202.8067 1175.3887,-180 1178.5661,-179.1611 1181.828,-178.2152 1185.0919,-177.2071"/>
<polygon fill="#000000" stroke="#000000" points="1186.3834,-180.4675 1194.807,-174.0416 1184.2146,-173.8119 1186.3834,-180.4675"/>
</g>
<!-- DataType&#45;&gt;Stem -->
<g id="edge22" class="edge">
<title>DataType&#45;&gt;Stem</title>
<path fill="none" stroke="#000000" d="M928.8228,-231.0759C1007.4921,-225.9211 1155.513,-212.4995 1277.3887,-180 1279.9904,-179.3062 1282.6437,-178.4969 1285.293,-177.6128"/>
<polygon fill="#000000" stroke="#000000" points="1286.5753,-180.8707 1294.771,-174.1565 1284.1771,-174.2944 1286.5753,-180.8707"/>
</g>
<!-- DataType&#45;&gt;Sentiment -->
<g id="edge23" class="edge">
<title>DataType&#45;&gt;Sentiment</title>
<path fill="none" stroke="#000000" d="M928.3842,-230.6564C1019.7349,-224.5023 1208.2589,-209.2499 1365.3887,-180 1370.3636,-179.0739 1375.5097,-177.976 1380.6411,-176.7862"/>
<polygon fill="#000000" stroke="#000000" points="1381.5507,-180.1671 1390.4421,-174.4058 1379.8986,-173.3649 1381.5507,-180.1671"/>
</g>
<!-- DataType&#45;&gt;Entity -->
<g id="edge27" class="edge">
<title>DataType&#45;&gt;Entity</title>
<path fill="none" stroke="#000000" d="M929.0538,-231.1163C1061.6097,-223.9428 1392.9679,-204.121 1501.3887,-180 1504.6177,-179.2816 1507.922,-178.4022 1511.2145,-177.4222"/>
<polygon fill="#000000" stroke="#000000" points="1512.5473,-180.6691 1520.9696,-174.2413 1510.3772,-174.0139 1512.5473,-180.6691"/>
</g>
</g>
</svg>
