<?xml version="1.0" encoding="UTF-8" standalone="no"?>
<!DOCTYPE svg PUBLIC "-//W3C//DTD SVG 1.1//EN"
 "http://www.w3.org/Graphics/SVG/1.1/DTD/svg11.dtd">
<!-- Generated by graphviz version 2.40.1 (20161225.0304)
 -->
<!-- Title: G Pages: 1 -->
<svg width="1639pt" height="260pt"
 viewBox="0.00 0.00 1638.88 260.00" xmlns="http://www.w3.org/2000/svg" xmlns:xlink="http://www.w3.org/1999/xlink">
<g id="graph0" class="graph" transform="scale(1 1) rotate(0) translate(4 256)">
<title>G</title>
<polygon fill="#ffffff" stroke="transparent" points="-4,4 -4,-256 1634.8835,-256 1634.8835,4 -4,4"/>
<!-- SparseMatrix -->
<g id="node1" class="node">
<title>SparseMatrix</title>
<ellipse fill="none" stroke="#000000" cx="101.3887" cy="-90" rx="74.187" ry="18"/>
<text text-anchor="middle" x="101.3887" y="-86.3" font-family="Times,serif" font-size="14.00" fill="#000000">SparseMatrix</text>
</g>
<!-- MatrixContinuousSparse -->
<g id="node11" class="node">
<title>MatrixContinuousSparse</title>
<ellipse fill="none" stroke="#000000" cx="127.3887" cy="-18" rx="127.2775" ry="18"/>
<text text-anchor="middle" x="127.3887" y="-14.3" font-family="Times,serif" font-size="14.00" fill="#000000">MatrixContinuousSparse</text>
</g>
<!-- SparseMatrix&#45;&gt;MatrixContinuousSparse -->
<g id="edge12" class="edge">
<title>SparseMatrix&#45;&gt;MatrixContinuousSparse</title>
<path fill="none" stroke="#000000" d="M107.9496,-71.8314C110.7914,-63.9617 114.1824,-54.5712 117.3306,-45.8533"/>
<polygon fill="#000000" stroke="#000000" points="120.6349,-47.0076 120.7395,-36.4133 114.051,-44.63 120.6349,-47.0076"/>
</g>
<!-- List -->
<g id="node2" class="node">
<title>List</title>
<ellipse fill="none" stroke="#000000" cx="199.3887" cy="-162" rx="28.6953" ry="18"/>
<text text-anchor="middle" x="199.3887" y="-158.3" font-family="Times,serif" font-size="14.00" fill="#000000">List</text>
</g>
<!-- Matrix -->
<g id="node3" class="node">
<title>Matrix</title>
<ellipse fill="none" stroke="#000000" cx="288.3887" cy="-162" rx="42.4939" ry="18"/>
<text text-anchor="middle" x="288.3887" y="-158.3" font-family="Times,serif" font-size="14.00" fill="#000000">Matrix</text>
</g>
<!-- Matrix&#45;&gt;SparseMatrix -->
<g id="edge1" class="edge">
<title>Matrix&#45;&gt;SparseMatrix</title>
<path fill="none" stroke="#000000" d="M256.6667,-149.7862C227.6454,-138.6122 184.2513,-121.9043 150.708,-108.9893"/>
<polygon fill="#000000" stroke="#000000" points="151.6757,-105.6114 141.0859,-105.2845 149.1605,-112.1439 151.6757,-105.6114"/>
</g>
<!-- DenseMatrix -->
<g id="node14" class="node">
<title>DenseMatrix</title>
<ellipse fill="none" stroke="#000000" cx="472.3887" cy="-90" rx="70.6878" ry="18"/>
<text text-anchor="middle" x="472.3887" y="-86.3" font-family="Times,serif" font-size="14.00" fill="#000000">DenseMatrix</text>
</g>
<!-- Matrix&#45;&gt;DenseMatrix -->
<g id="edge15" class="edge">
<title>Matrix&#45;&gt;DenseMatrix</title>
<path fill="none" stroke="#000000" d="M319.6018,-149.7862C348.2509,-138.5757 391.1347,-121.795 424.1838,-108.8628"/>
<polygon fill="#000000" stroke="#000000" points="425.6233,-112.058 433.6603,-105.1546 423.0724,-105.5393 425.6233,-112.058"/>
</g>
<!-- MatrixContinuous -->
<g id="node24" class="node">
<title>MatrixContinuous</title>
<ellipse fill="none" stroke="#000000" cx="288.3887" cy="-90" rx="94.7833" ry="18"/>
<text text-anchor="middle" x="288.3887" y="-86.3" font-family="Times,serif" font-size="14.00" fill="#000000">MatrixContinuous</text>
</g>
<!-- Matrix&#45;&gt;MatrixContinuous -->
<g id="edge26" class="edge">
<title>Matrix&#45;&gt;MatrixContinuous</title>
<path fill="none" stroke="#000000" d="M288.3887,-143.8314C288.3887,-136.131 288.3887,-126.9743 288.3887,-118.4166"/>
<polygon fill="#000000" stroke="#000000" points="291.8888,-118.4132 288.3887,-108.4133 284.8888,-118.4133 291.8888,-118.4132"/>
</g>
<!-- Category -->
<g id="node4" class="node">
<title>Category</title>
<ellipse fill="none" stroke="#000000" cx="402.3887" cy="-162" rx="53.8905" ry="18"/>
<text text-anchor="middle" x="402.3887" y="-158.3" font-family="Times,serif" font-size="14.00" fill="#000000">Category</text>
</g>
<!-- Chunktag -->
<g id="node5" class="node">
<title>Chunktag</title>
<ellipse fill="none" stroke="#000000" cx="530.3887" cy="-162" rx="56.59" ry="18"/>
<text text-anchor="middle" x="530.3887" y="-158.3" font-family="Times,serif" font-size="14.00" fill="#000000">Chunktag</text>
</g>
<!-- Sentence -->
<g id="node6" class="node">
<title>Sentence</title>
<ellipse fill="none" stroke="#000000" cx="1352.3887" cy="-90" rx="53.8905" ry="18"/>
<text text-anchor="middle" x="1352.3887" y="-86.3" font-family="Times,serif" font-size="14.00" fill="#000000">Sentence</text>
</g>
<!-- Synset -->
<g id="node7" class="node">
<title>Synset</title>
<ellipse fill="none" stroke="#000000" cx="647.3887" cy="-162" rx="42.4939" ry="18"/>
<text text-anchor="middle" x="647.3887" y="-158.3" font-family="Times,serif" font-size="14.00" fill="#000000">Synset</text>
</g>
<!-- Word -->
<g id="node8" class="node">
<title>Word</title>
<ellipse fill="none" stroke="#000000" cx="1460.3887" cy="-90" rx="35.9954" ry="18"/>
<text text-anchor="middle" x="1460.3887" y="-86.3" font-family="Times,serif" font-size="14.00" fill="#000000">Word</text>
</g>
<!-- Summary -->
<g id="node9" class="node">
<title>Summary</title>
<ellipse fill="none" stroke="#000000" cx="1572.3887" cy="-18" rx="55.7903" ry="18"/>
<text text-anchor="middle" x="1572.3887" y="-14.3" font-family="Times,serif" font-size="14.00" fill="#000000">Summary</text>
</g>
<!-- CategoricalVector -->
<g id="node10" class="node">
<title>CategoricalVector</title>
<ellipse fill="none" stroke="#000000" cx="723.3887" cy="-90" rx="94.7833" ry="18"/>
<text text-anchor="middle" x="723.3887" y="-86.3" font-family="Times,serif" font-size="14.00" fill="#000000">CategoricalVector</text>
</g>
<!-- ContinuousVector -->
<g id="node12" class="node">
<title>ContinuousVector</title>
<ellipse fill="none" stroke="#000000" cx="930.3887" cy="-90" rx="94.4839" ry="18"/>
<text text-anchor="middle" x="930.3887" y="-86.3" font-family="Times,serif" font-size="14.00" fill="#000000">ContinuousVector</text>
</g>
<!-- Tuple -->
<g id="node13" class="node">
<title>Tuple</title>
<ellipse fill="none" stroke="#000000" cx="744.3887" cy="-162" rx="37.0935" ry="18"/>
<text text-anchor="middle" x="744.3887" y="-158.3" font-family="Times,serif" font-size="14.00" fill="#000000">Tuple</text>
</g>
<!-- MatrixContinuousDense -->
<g id="node21" class="node">
<title>MatrixContinuousDense</title>
<ellipse fill="none" stroke="#000000" cx="422.3887" cy="-18" rx="124.2781" ry="18"/>
<text text-anchor="middle" x="422.3887" y="-14.3" font-family="Times,serif" font-size="14.00" fill="#000000">MatrixContinuousDense</text>
</g>
<!-- DenseMatrix&#45;&gt;MatrixContinuousDense -->
<g id="edge23" class="edge">
<title>DenseMatrix&#45;&gt;MatrixContinuousDense</title>
<path fill="none" stroke="#000000" d="M460.0291,-72.2022C454.2436,-63.871 447.2323,-53.7748 440.8366,-44.565"/>
<polygon fill="#000000" stroke="#000000" points="443.5322,-42.3104 434.9534,-36.0931 437.7826,-46.3032 443.5322,-42.3104"/>
</g>
<!-- Flags -->
<g id="node15" class="node">
<title>Flags</title>
<ellipse fill="none" stroke="#000000" cx="835.3887" cy="-162" rx="36.2938" ry="18"/>
<text text-anchor="middle" x="835.3887" y="-158.3" font-family="Times,serif" font-size="14.00" fill="#000000">Flags</text>
</g>
<!-- Vector -->
<g id="node16" class="node">
<title>Vector</title>
<ellipse fill="none" stroke="#000000" cx="930.3887" cy="-162" rx="40.8928" ry="18"/>
<text text-anchor="middle" x="930.3887" y="-158.3" font-family="Times,serif" font-size="14.00" fill="#000000">Vector</text>
</g>
<!-- Vector&#45;&gt;CategoricalVector -->
<g id="edge10" class="edge">
<title>Vector&#45;&gt;CategoricalVector</title>
<path fill="none" stroke="#000000" d="M898.6726,-150.5052C892.6083,-148.3291 886.3065,-146.0828 880.3887,-144 847.0446,-132.2644 809.6178,-119.3803 779.6719,-109.1412"/>
<polygon fill="#000000" stroke="#000000" points="780.4144,-105.6964 769.8199,-105.7758 778.1516,-112.3205 780.4144,-105.6964"/>
</g>
<!-- Vector&#45;&gt;ContinuousVector -->
<g id="edge13" class="edge">
<title>Vector&#45;&gt;ContinuousVector</title>
<path fill="none" stroke="#000000" d="M930.3887,-143.8314C930.3887,-136.131 930.3887,-126.9743 930.3887,-118.4166"/>
<polygon fill="#000000" stroke="#000000" points="933.8888,-118.4132 930.3887,-108.4133 926.8888,-118.4133 933.8888,-118.4132"/>
</g>
<!-- DiscreteVector -->
<g id="node26" class="node">
<title>DiscreteVector</title>
<ellipse fill="none" stroke="#000000" cx="1123.3887" cy="-90" rx="80.6858" ry="18"/>
<text text-anchor="middle" x="1123.3887" y="-86.3" font-family="Times,serif" font-size="14.00" fill="#000000">DiscreteVector</text>
</g>
<!-- Vector&#45;&gt;DiscreteVector -->
<g id="edge28" class="edge">
<title>Vector&#45;&gt;DiscreteVector</title>
<path fill="none" stroke="#000000" d="M961.827,-150.2717C991.7033,-139.1262 1037.1532,-122.1707 1072.245,-109.0795"/>
<polygon fill="#000000" stroke="#000000" points="1073.7005,-112.2722 1081.8464,-105.4976 1071.2538,-105.7137 1073.7005,-112.2722"/>
</g>
<!-- Tensor3 -->
<g id="node17" class="node">
<title>Tensor3</title>
<ellipse fill="none" stroke="#000000" cx="1037.3887" cy="-162" rx="48.1917" ry="18"/>
<text text-anchor="middle" x="1037.3887" y="-158.3" font-family="Times,serif" font-size="14.00" fill="#000000">Tensor3</text>
</g>
<!-- Postag -->
<g id="node18" class="node">
<title>Postag</title>
<ellipse fill="none" stroke="#000000" cx="1145.3887" cy="-162" rx="42.4939" ry="18"/>
<text text-anchor="middle" x="1145.3887" y="-158.3" font-family="Times,serif" font-size="14.00" fill="#000000">Postag</text>
</g>
<!-- Document -->
<g id="node19" class="node">
<title>Document</title>
<ellipse fill="none" stroke="#000000" cx="1572.3887" cy="-90" rx="58.4896" ry="18"/>
<text text-anchor="middle" x="1572.3887" y="-86.3" font-family="Times,serif" font-size="14.00" fill="#000000">Document</text>
</g>
<!-- Document&#45;&gt;Summary -->
<g id="edge9" class="edge">
<title>Document&#45;&gt;Summary</title>
<path fill="none" stroke="#000000" d="M1572.3887,-71.8314C1572.3887,-64.131 1572.3887,-54.9743 1572.3887,-46.4166"/>
<polygon fill="#000000" stroke="#000000" points="1575.8888,-46.4132 1572.3887,-36.4133 1568.8888,-46.4133 1575.8888,-46.4132"/>
</g>
<!-- Stem -->
<g id="node20" class="node">
<title>Stem</title>
<ellipse fill="none" stroke="#000000" cx="1240.3887" cy="-162" rx="35.194" ry="18"/>
<text text-anchor="middle" x="1240.3887" y="-158.3" font-family="Times,serif" font-size="14.00" fill="#000000">Stem</text>
</g>
<!-- Sentiment -->
<g id="node22" class="node">
<title>Sentiment</title>
<ellipse fill="none" stroke="#000000" cx="1352.3887" cy="-162" rx="59.2899" ry="18"/>
<text text-anchor="middle" x="1352.3887" y="-158.3" font-family="Times,serif" font-size="14.00" fill="#000000">Sentiment</text>
</g>
<!-- Text -->
<g id="node23" class="node">
<title>Text</title>
<ellipse fill="none" stroke="#000000" cx="1460.3887" cy="-162" rx="31.3957" ry="18"/>
<text text-anchor="middle" x="1460.3887" y="-158.3" font-family="Times,serif" font-size="14.00" fill="#000000">Text</text>
</g>
<!-- Text&#45;&gt;Sentence -->
<g id="edge6" class="edge">
<title>Text&#45;&gt;Sentence</title>
<path fill="none" stroke="#000000" d="M1439.8205,-148.2879C1424.3575,-137.9792 1402.8649,-123.6508 1385.0589,-111.7801"/>
<polygon fill="#000000" stroke="#000000" points="1386.9185,-108.8134 1376.6565,-106.1785 1383.0355,-114.6378 1386.9185,-108.8134"/>
</g>
<!-- Text&#45;&gt;Word -->
<g id="edge8" class="edge">
<title>Text&#45;&gt;Word</title>
<path fill="none" stroke="#000000" d="M1460.3887,-143.8314C1460.3887,-136.131 1460.3887,-126.9743 1460.3887,-118.4166"/>
<polygon fill="#000000" stroke="#000000" points="1463.8888,-118.4132 1460.3887,-108.4133 1456.8888,-118.4133 1463.8888,-118.4132"/>
</g>
<!-- Text&#45;&gt;Document -->
<g id="edge20" class="edge">
<title>Text&#45;&gt;Document</title>
<path fill="none" stroke="#000000" d="M1481.455,-148.4574C1497.5378,-138.1185 1520.0209,-123.665 1538.6068,-111.7169"/>
<polygon fill="#000000" stroke="#000000" points="1540.584,-114.6068 1547.1031,-106.255 1536.7987,-108.7185 1540.584,-114.6068"/>
</g>
<!-- MatrixContinuous&#45;&gt;MatrixContinuousSparse -->
<g id="edge11" class="edge">
<title>MatrixContinuous&#45;&gt;MatrixContinuousSparse</title>
<path fill="none" stroke="#000000" d="M251.0474,-73.3008C228.4955,-63.2155 199.5276,-50.2609 175.2987,-39.4256"/>
<polygon fill="#000000" stroke="#000000" points="176.4842,-36.1218 165.9266,-35.2344 173.6265,-42.5119 176.4842,-36.1218"/>
</g>
<!-- MatrixContinuous&#45;&gt;MatrixContinuousDense -->
<g id="edge22" class="edge">
<title>MatrixContinuous&#45;&gt;MatrixContinuousDense</title>
<path fill="none" stroke="#000000" d="M320.1448,-72.937C338.3179,-63.1724 361.3269,-50.8093 380.9139,-40.285"/>
<polygon fill="#000000" stroke="#000000" points="382.7773,-43.257 389.9297,-35.4407 379.4641,-37.0908 382.7773,-43.257"/>
</g>
<!-- Entity -->
<g id="node25" class="node">
<title>Entity</title>
<ellipse fill="none" stroke="#000000" cx="1549.3887" cy="-162" rx="39.7935" ry="18"/>
<text text-anchor="middle" x="1549.3887" y="-158.3" font-family="Times,serif" font-size="14.00" fill="#000000">Entity</text>
</g>
<!-- DataType -->
<g id="node27" class="node">
<title>DataType</title>
<ellipse fill="none" stroke="#000000" cx="882.3887" cy="-234" rx="55.7903" ry="18"/>
<text text-anchor="middle" x="882.3887" y="-230.3" font-family="Times,serif" font-size="14.00" fill="#000000">DataType</text>
</g>
<!-- DataType&#45;&gt;List -->
<g id="edge2" class="edge">
<title>DataType&#45;&gt;List</title>
<path fill="none" stroke="#000000" d="M826.5644,-231.8885C691.0907,-226.3531 347.9317,-209.7563 237.3887,-180 235.0691,-179.3756 232.718,-178.6143 230.3818,-177.7617"/>
<polygon fill="#000000" stroke="#000000" points="231.5585,-174.4606 220.9808,-173.8586 228.8744,-180.9256 231.5585,-174.4606"/>
</g>
<!-- DataType&#45;&gt;Matrix -->
<g id="edge3" class="edge">
<title>DataType&#45;&gt;Matrix</title>
<path fill="none" stroke="#000000" d="M826.5825,-232.8525C727.3977,-229.8423 514.386,-218.9871 339.3887,-180 336.0335,-179.2525 332.595,-178.3507 329.1656,-177.354"/>
<polygon fill="#000000" stroke="#000000" points="330.191,-174.0076 319.6015,-174.3431 328.089,-180.6845 330.191,-174.0076"/>
</g>
<!-- DataType&#45;&gt;Category -->
<g id="edge4" class="edge">
<title>DataType&#45;&gt;Category</title>
<path fill="none" stroke="#000000" d="M827.8336,-229.6547C747.5989,-222.6558 593.3275,-206.8783 464.3887,-180 460.2534,-179.138 455.992,-178.1396 451.7312,-177.0638"/>
<polygon fill="#000000" stroke="#000000" points="452.4134,-173.6238 441.8501,-174.4406 450.6173,-180.3894 452.4134,-173.6238"/>
</g>
<!-- DataType&#45;&gt;Chunktag -->
<g id="edge5" class="edge">
<title>DataType&#45;&gt;Chunktag</title>
<path fill="none" stroke="#000000" d="M832.5383,-225.8273C775.273,-216.1524 678.6199,-198.9448 596.3887,-180 591.7846,-178.9393 587.0176,-177.7736 582.2496,-176.5611"/>
<polygon fill="#000000" stroke="#000000" points="583.0723,-173.1587 572.513,-174.0253 581.308,-179.9327 583.0723,-173.1587"/>
</g>
<!-- DataType&#45;&gt;Synset -->
<g id="edge7" class="edge">
<title>DataType&#45;&gt;Synset</title>
<path fill="none" stroke="#000000" d="M839.8026,-222.2046C802.3814,-211.6727 746.5432,-195.5515 698.3887,-180 695.4457,-179.0496 692.4158,-178.0457 689.37,-177.018"/>
<polygon fill="#000000" stroke="#000000" points="690.2696,-173.6264 679.675,-173.69 687.9968,-180.2471 690.2696,-173.6264"/>
</g>
<!-- DataType&#45;&gt;Tuple -->
<g id="edge14" class="edge">
<title>DataType&#45;&gt;Tuple</title>
<path fill="none" stroke="#000000" d="M852.7842,-218.5542C831.0669,-207.2234 801.5192,-191.8072 778.7584,-179.932"/>
<polygon fill="#000000" stroke="#000000" points="780.2602,-176.7679 769.7754,-175.2452 777.0222,-182.974 780.2602,-176.7679"/>
</g>
<!-- DataType&#45;&gt;Flags -->
<g id="edge16" class="edge">
<title>DataType&#45;&gt;Flags</title>
<path fill="none" stroke="#000000" d="M870.7707,-216.2022C865.2087,-207.6817 858.4415,-197.315 852.3208,-187.9385"/>
<polygon fill="#000000" stroke="#000000" points="855.108,-185.8052 846.7109,-179.3446 849.2463,-189.6316 855.108,-185.8052"/>
</g>
<!-- DataType&#45;&gt;Vector -->
<g id="edge17" class="edge">
<title>DataType&#45;&gt;Vector</title>
<path fill="none" stroke="#000000" d="M894.2539,-216.2022C899.9342,-207.6817 906.8454,-197.315 913.0964,-187.9385"/>
<polygon fill="#000000" stroke="#000000" points="916.1908,-189.6066 918.8256,-179.3446 910.3664,-185.7236 916.1908,-189.6066"/>
</g>
<!-- DataType&#45;&gt;Tensor3 -->
<g id="edge18" class="edge">
<title>DataType&#45;&gt;Tensor3</title>
<path fill="none" stroke="#000000" d="M914.5048,-219.0816C938.7499,-207.8193 972.1445,-192.307 998.0022,-180.2957"/>
<polygon fill="#000000" stroke="#000000" points="999.562,-183.4304 1007.1568,-176.0432 996.613,-177.0818 999.562,-183.4304"/>
</g>
<!-- DataType&#45;&gt;Postag -->
<g id="edge19" class="edge">
<title>DataType&#45;&gt;Postag</title>
<path fill="none" stroke="#000000" d="M928.2063,-223.5869C971.3669,-213.4817 1037.687,-197.1897 1094.3887,-180 1097.4887,-179.0602 1100.6795,-178.0468 1103.8801,-176.9967"/>
<polygon fill="#000000" stroke="#000000" points="1105.0756,-180.2872 1113.4313,-173.7732 1102.8371,-173.6548 1105.0756,-180.2872"/>
</g>
<!-- DataType&#45;&gt;Stem -->
<g id="edge21" class="edge">
<title>DataType&#45;&gt;Stem</title>
<path fill="none" stroke="#000000" d="M935.681,-228.4257C998.7898,-221.0054 1106.6636,-205.7342 1196.3887,-180 1198.977,-179.2576 1201.6202,-178.4122 1204.2623,-177.5019"/>
<polygon fill="#000000" stroke="#000000" points="1205.5674,-180.7509 1213.725,-173.9904 1203.132,-174.1881 1205.5674,-180.7509"/>
</g>
<!-- DataType&#45;&gt;Sentiment -->
<g id="edge24" class="edge">
<title>DataType&#45;&gt;Sentiment</title>
<path fill="none" stroke="#000000" d="M936.062,-228.9503C1013.4757,-221.1791 1160.7566,-204.5663 1284.3887,-180 1289.1537,-179.0532 1294.0798,-177.966 1299.0019,-176.8048"/>
<polygon fill="#000000" stroke="#000000" points="1300.1695,-180.1222 1309.0467,-174.339 1298.5006,-173.3241 1300.1695,-180.1222"/>
</g>
<!-- DataType&#45;&gt;Text -->
<g id="edge25" class="edge">
<title>DataType&#45;&gt;Text</title>
<path fill="none" stroke="#000000" d="M937.5528,-230.7237C1055.8059,-223.3328 1330.2734,-204.1121 1420.3887,-180 1422.6853,-179.3855 1425.0166,-178.6532 1427.34,-177.841"/>
<polygon fill="#000000" stroke="#000000" points="1428.71,-181.0632 1436.7376,-174.1488 1426.1503,-174.548 1428.71,-181.0632"/>
</g>
<!-- DataType&#45;&gt;Entity -->
<g id="edge27" class="edge">
<title>DataType&#45;&gt;Entity</title>
<path fill="none" stroke="#000000" d="M937.6507,-231.0499C1068.4169,-223.7661 1393.8294,-203.7841 1500.3887,-180 1503.6172,-179.2794 1506.9211,-178.3984 1510.2134,-177.4173"/>
<polygon fill="#000000" stroke="#000000" points="1511.547,-180.6638 1519.968,-174.2344 1509.3756,-174.0091 1511.547,-180.6638"/>
</g>
</g>
</svg>
