<?xml version="1.0" encoding="UTF-8" standalone="no"?>
<!DOCTYPE svg PUBLIC "-//W3C//DTD SVG 1.1//EN"
 "http://www.w3.org/Graphics/SVG/1.1/DTD/svg11.dtd">
<!-- Generated by graphviz version 2.40.1 (20161225.0304)
 -->
<!-- Title: G Pages: 1 -->
<svg width="1653pt" height="260pt"
 viewBox="0.00 0.00 1653.04 260.00" xmlns="http://www.w3.org/2000/svg" xmlns:xlink="http://www.w3.org/1999/xlink">
<g id="graph0" class="graph" transform="scale(1 1) rotate(0) translate(4 256)">
<title>G</title>
<polygon fill="#ffffff" stroke="transparent" points="-4,4 -4,-256 1649.0352,-256 1649.0352,4 -4,4"/>
<!-- SparseMatrix -->
<g id="node1" class="node">
<title>SparseMatrix</title>
<ellipse fill="none" stroke="#000000" cx="101.3887" cy="-90" rx="74.187" ry="18"/>
<text text-anchor="middle" x="101.3887" y="-86.3" font-family="Times,serif" font-size="14.00" fill="#000000">SparseMatrix</text>
</g>
<!-- MatrixContinuousSparse -->
<g id="node11" class="node">
<title>MatrixContinuousSparse</title>
<ellipse fill="none" stroke="#000000" cx="127.3887" cy="-18" rx="127.2775" ry="18"/>
<text text-anchor="middle" x="127.3887" y="-14.3" font-family="Times,serif" font-size="14.00" fill="#000000">MatrixContinuousSparse</text>
</g>
<!-- SparseMatrix&#45;&gt;MatrixContinuousSparse -->
<g id="edge12" class="edge">
<title>SparseMatrix&#45;&gt;MatrixContinuousSparse</title>
<path fill="none" stroke="#000000" d="M107.9496,-71.8314C110.7914,-63.9617 114.1824,-54.5712 117.3306,-45.8533"/>
<polygon fill="#000000" stroke="#000000" points="120.6349,-47.0076 120.7395,-36.4133 114.051,-44.63 120.6349,-47.0076"/>
</g>
<!-- List -->
<g id="node2" class="node">
<title>List</title>
<ellipse fill="none" stroke="#000000" cx="255.3887" cy="-162" rx="28.6953" ry="18"/>
<text text-anchor="middle" x="255.3887" y="-158.3" font-family="Times,serif" font-size="14.00" fill="#000000">List</text>
</g>
<!-- Matrix -->
<g id="node3" class="node">
<title>Matrix</title>
<ellipse fill="none" stroke="#000000" cx="344.3887" cy="-162" rx="42.4939" ry="18"/>
<text text-anchor="middle" x="344.3887" y="-158.3" font-family="Times,serif" font-size="14.00" fill="#000000">Matrix</text>
</g>
<!-- Matrix&#45;&gt;SparseMatrix -->
<g id="edge1" class="edge">
<title>Matrix&#45;&gt;SparseMatrix</title>
<path fill="none" stroke="#000000" d="M312.1202,-150.2545C305.9271,-148.1016 299.4755,-145.9279 293.3887,-144 249.6015,-130.1315 199.6429,-116.137 161.6643,-105.8705"/>
<polygon fill="#000000" stroke="#000000" points="162.3488,-102.4303 151.7827,-103.2103 160.5291,-109.1896 162.3488,-102.4303"/>
</g>
<!-- DenseMatrix -->
<g id="node14" class="node">
<title>DenseMatrix</title>
<ellipse fill="none" stroke="#000000" cx="472.3887" cy="-90" rx="70.6878" ry="18"/>
<text text-anchor="middle" x="472.3887" y="-86.3" font-family="Times,serif" font-size="14.00" fill="#000000">DenseMatrix</text>
</g>
<!-- Matrix&#45;&gt;DenseMatrix -->
<g id="edge15" class="edge">
<title>Matrix&#45;&gt;DenseMatrix</title>
<path fill="none" stroke="#000000" d="M369.9838,-147.6028C388.2867,-137.3074 413.2396,-123.2714 433.9312,-111.6323"/>
<polygon fill="#000000" stroke="#000000" points="435.802,-114.5958 442.8019,-106.6426 432.3702,-108.4947 435.802,-114.5958"/>
</g>
<!-- MatrixContinuous -->
<g id="node23" class="node">
<title>MatrixContinuous</title>
<ellipse fill="none" stroke="#000000" cx="288.3887" cy="-90" rx="94.7833" ry="18"/>
<text text-anchor="middle" x="288.3887" y="-86.3" font-family="Times,serif" font-size="14.00" fill="#000000">MatrixContinuous</text>
</g>
<!-- Matrix&#45;&gt;MatrixContinuous -->
<g id="edge24" class="edge">
<title>Matrix&#45;&gt;MatrixContinuous</title>
<path fill="none" stroke="#000000" d="M330.8327,-144.5708C324.1731,-136.0085 316.0123,-125.5161 308.6321,-116.0272"/>
<polygon fill="#000000" stroke="#000000" points="311.3069,-113.7653 302.4047,-108.0206 305.7814,-118.0629 311.3069,-113.7653"/>
</g>
<!-- Word -->
<g id="node4" class="node">
<title>Word</title>
<ellipse fill="none" stroke="#000000" cx="1190.3887" cy="-90" rx="35.9954" ry="18"/>
<text text-anchor="middle" x="1190.3887" y="-86.3" font-family="Times,serif" font-size="14.00" fill="#000000">Word</text>
</g>
<!-- Category -->
<g id="node5" class="node">
<title>Category</title>
<ellipse fill="none" stroke="#000000" cx="458.3887" cy="-162" rx="53.8905" ry="18"/>
<text text-anchor="middle" x="458.3887" y="-158.3" font-family="Times,serif" font-size="14.00" fill="#000000">Category</text>
</g>
<!-- Chunktag -->
<g id="node6" class="node">
<title>Chunktag</title>
<ellipse fill="none" stroke="#000000" cx="586.3887" cy="-162" rx="56.59" ry="18"/>
<text text-anchor="middle" x="586.3887" y="-158.3" font-family="Times,serif" font-size="14.00" fill="#000000">Chunktag</text>
</g>
<!-- Sentence -->
<g id="node7" class="node">
<title>Sentence</title>
<ellipse fill="none" stroke="#000000" cx="1298.3887" cy="-90" rx="53.8905" ry="18"/>
<text text-anchor="middle" x="1298.3887" y="-86.3" font-family="Times,serif" font-size="14.00" fill="#000000">Sentence</text>
</g>
<!-- Synset -->
<g id="node8" class="node">
<title>Synset</title>
<ellipse fill="none" stroke="#000000" cx="703.3887" cy="-162" rx="42.4939" ry="18"/>
<text text-anchor="middle" x="703.3887" y="-158.3" font-family="Times,serif" font-size="14.00" fill="#000000">Synset</text>
</g>
<!-- Summary -->
<g id="node9" class="node">
<title>Summary</title>
<ellipse fill="none" stroke="#000000" cx="1428.3887" cy="-18" rx="55.7903" ry="18"/>
<text text-anchor="middle" x="1428.3887" y="-14.3" font-family="Times,serif" font-size="14.00" fill="#000000">Summary</text>
</g>
<!-- CategoricalVector -->
<g id="node10" class="node">
<title>CategoricalVector</title>
<ellipse fill="none" stroke="#000000" cx="656.3887" cy="-90" rx="94.7833" ry="18"/>
<text text-anchor="middle" x="656.3887" y="-86.3" font-family="Times,serif" font-size="14.00" fill="#000000">CategoricalVector</text>
</g>
<!-- ContinuousVector -->
<g id="node12" class="node">
<title>ContinuousVector</title>
<ellipse fill="none" stroke="#000000" cx="863.3887" cy="-90" rx="94.4839" ry="18"/>
<text text-anchor="middle" x="863.3887" y="-86.3" font-family="Times,serif" font-size="14.00" fill="#000000">ContinuousVector</text>
</g>
<!-- Tuple -->
<g id="node13" class="node">
<title>Tuple</title>
<ellipse fill="none" stroke="#000000" cx="800.3887" cy="-162" rx="37.0935" ry="18"/>
<text text-anchor="middle" x="800.3887" y="-158.3" font-family="Times,serif" font-size="14.00" fill="#000000">Tuple</text>
</g>
<!-- MatrixContinuousDense -->
<g id="node25" class="node">
<title>MatrixContinuousDense</title>
<ellipse fill="none" stroke="#000000" cx="422.3887" cy="-18" rx="124.2781" ry="18"/>
<text text-anchor="middle" x="422.3887" y="-14.3" font-family="Times,serif" font-size="14.00" fill="#000000">MatrixContinuousDense</text>
</g>
<!-- DenseMatrix&#45;&gt;MatrixContinuousDense -->
<g id="edge27" class="edge">
<title>DenseMatrix&#45;&gt;MatrixContinuousDense</title>
<path fill="none" stroke="#000000" d="M460.0291,-72.2022C454.2436,-63.871 447.2323,-53.7748 440.8366,-44.565"/>
<polygon fill="#000000" stroke="#000000" points="443.5322,-42.3104 434.9534,-36.0931 437.7826,-46.3032 443.5322,-42.3104"/>
</g>
<!-- Flags -->
<g id="node15" class="node">
<title>Flags</title>
<ellipse fill="none" stroke="#000000" cx="891.3887" cy="-162" rx="36.2938" ry="18"/>
<text text-anchor="middle" x="891.3887" y="-158.3" font-family="Times,serif" font-size="14.00" fill="#000000">Flags</text>
</g>
<!-- Vector -->
<g id="node16" class="node">
<title>Vector</title>
<ellipse fill="none" stroke="#000000" cx="986.3887" cy="-162" rx="40.8928" ry="18"/>
<text text-anchor="middle" x="986.3887" y="-158.3" font-family="Times,serif" font-size="14.00" fill="#000000">Vector</text>
</g>
<!-- Vector&#45;&gt;CategoricalVector -->
<g id="edge10" class="edge">
<title>Vector&#45;&gt;CategoricalVector</title>
<path fill="none" stroke="#000000" d="M955.4219,-150.0102C949.1765,-147.8312 942.6162,-145.7104 936.3887,-144 899.5326,-133.8776 805.275,-116.3212 736.2671,-103.9809"/>
<polygon fill="#000000" stroke="#000000" points="736.7378,-100.5097 726.2787,-102.1995 735.5088,-107.401 736.7378,-100.5097"/>
</g>
<!-- Vector&#45;&gt;ContinuousVector -->
<g id="edge13" class="edge">
<title>Vector&#45;&gt;ContinuousVector</title>
<path fill="none" stroke="#000000" d="M961.7934,-147.6028C944.5275,-137.4959 921.1033,-123.7842 901.4403,-112.2741"/>
<polygon fill="#000000" stroke="#000000" points="903.1045,-109.1927 892.7062,-107.1615 899.5682,-115.2339 903.1045,-109.1927"/>
</g>
<!-- DiscreteVector -->
<g id="node26" class="node">
<title>DiscreteVector</title>
<ellipse fill="none" stroke="#000000" cx="1056.3887" cy="-90" rx="80.6858" ry="18"/>
<text text-anchor="middle" x="1056.3887" y="-86.3" font-family="Times,serif" font-size="14.00" fill="#000000">DiscreteVector</text>
</g>
<!-- Vector&#45;&gt;DiscreteVector -->
<g id="edge28" class="edge">
<title>Vector&#45;&gt;DiscreteVector</title>
<path fill="none" stroke="#000000" d="M1002.624,-145.3008C1011.3782,-136.2965 1022.3559,-125.0052 1032.1056,-114.9769"/>
<polygon fill="#000000" stroke="#000000" points="1034.8034,-117.2229 1039.2648,-107.6132 1029.7845,-112.3434 1034.8034,-117.2229"/>
</g>
<!-- Tensor3 -->
<g id="node17" class="node">
<title>Tensor3</title>
<ellipse fill="none" stroke="#000000" cx="1093.3887" cy="-162" rx="48.1917" ry="18"/>
<text text-anchor="middle" x="1093.3887" y="-158.3" font-family="Times,serif" font-size="14.00" fill="#000000">Tensor3</text>
</g>
<!-- Text -->
<g id="node18" class="node">
<title>Text</title>
<ellipse fill="none" stroke="#000000" cx="1190.3887" cy="-162" rx="31.3957" ry="18"/>
<text text-anchor="middle" x="1190.3887" y="-158.3" font-family="Times,serif" font-size="14.00" fill="#000000">Text</text>
</g>
<!-- Text&#45;&gt;Word -->
<g id="edge4" class="edge">
<title>Text&#45;&gt;Word</title>
<path fill="none" stroke="#000000" d="M1190.3887,-143.8314C1190.3887,-136.131 1190.3887,-126.9743 1190.3887,-118.4166"/>
<polygon fill="#000000" stroke="#000000" points="1193.8888,-118.4132 1190.3887,-108.4133 1186.8888,-118.4133 1193.8888,-118.4132"/>
</g>
<!-- Text&#45;&gt;Sentence -->
<g id="edge7" class="edge">
<title>Text&#45;&gt;Sentence</title>
<path fill="none" stroke="#000000" d="M1210.9569,-148.2879C1226.4198,-137.9792 1247.9125,-123.6508 1265.7185,-111.7801"/>
<polygon fill="#000000" stroke="#000000" points="1267.7418,-114.6378 1274.1209,-106.1785 1263.8589,-108.8134 1267.7418,-114.6378"/>
</g>
<!-- Document -->
<g id="node20" class="node">
<title>Document</title>
<ellipse fill="none" stroke="#000000" cx="1428.3887" cy="-90" rx="58.4896" ry="18"/>
<text text-anchor="middle" x="1428.3887" y="-86.3" font-family="Times,serif" font-size="14.00" fill="#000000">Document</text>
</g>
<!-- Text&#45;&gt;Document -->
<g id="edge21" class="edge">
<title>Text&#45;&gt;Document</title>
<path fill="none" stroke="#000000" d="M1214.6783,-150.3408C1219.8062,-148.0861 1225.228,-145.852 1230.3887,-144 1237.329,-141.5093 1318.1046,-119.6551 1374.3117,-104.5244"/>
<polygon fill="#000000" stroke="#000000" points="1375.4018,-107.8557 1384.1489,-101.8774 1373.5829,-101.0961 1375.4018,-107.8557"/>
</g>
<!-- Postag -->
<g id="node19" class="node">
<title>Postag</title>
<ellipse fill="none" stroke="#000000" cx="1281.3887" cy="-162" rx="42.4939" ry="18"/>
<text text-anchor="middle" x="1281.3887" y="-158.3" font-family="Times,serif" font-size="14.00" fill="#000000">Postag</text>
</g>
<!-- Document&#45;&gt;Summary -->
<g id="edge9" class="edge">
<title>Document&#45;&gt;Summary</title>
<path fill="none" stroke="#000000" d="M1428.3887,-71.8314C1428.3887,-64.131 1428.3887,-54.9743 1428.3887,-46.4166"/>
<polygon fill="#000000" stroke="#000000" points="1431.8888,-46.4132 1428.3887,-36.4133 1424.8888,-46.4133 1431.8888,-46.4132"/>
</g>
<!-- Stem -->
<g id="node21" class="node">
<title>Stem</title>
<ellipse fill="none" stroke="#000000" cx="1376.3887" cy="-162" rx="35.194" ry="18"/>
<text text-anchor="middle" x="1376.3887" y="-158.3" font-family="Times,serif" font-size="14.00" fill="#000000">Stem</text>
</g>
<!-- Sentiment -->
<g id="node22" class="node">
<title>Sentiment</title>
<ellipse fill="none" stroke="#000000" cx="1488.3887" cy="-162" rx="59.2899" ry="18"/>
<text text-anchor="middle" x="1488.3887" y="-158.3" font-family="Times,serif" font-size="14.00" fill="#000000">Sentiment</text>
</g>
<!-- MatrixContinuous&#45;&gt;MatrixContinuousSparse -->
<g id="edge11" class="edge">
<title>MatrixContinuous&#45;&gt;MatrixContinuousSparse</title>
<path fill="none" stroke="#000000" d="M251.0474,-73.3008C228.4955,-63.2155 199.5276,-50.2609 175.2987,-39.4256"/>
<polygon fill="#000000" stroke="#000000" points="176.4842,-36.1218 165.9266,-35.2344 173.6265,-42.5119 176.4842,-36.1218"/>
</g>
<!-- MatrixContinuous&#45;&gt;MatrixContinuousDense -->
<g id="edge26" class="edge">
<title>MatrixContinuous&#45;&gt;MatrixContinuousDense</title>
<path fill="none" stroke="#000000" d="M320.1448,-72.937C338.3179,-63.1724 361.3269,-50.8093 380.9139,-40.285"/>
<polygon fill="#000000" stroke="#000000" points="382.7773,-43.257 389.9297,-35.4407 379.4641,-37.0908 382.7773,-43.257"/>
</g>
<!-- Entity -->
<g id="node24" class="node">
<title>Entity</title>
<ellipse fill="none" stroke="#000000" cx="1605.3887" cy="-162" rx="39.7935" ry="18"/>
<text text-anchor="middle" x="1605.3887" y="-158.3" font-family="Times,serif" font-size="14.00" fill="#000000">Entity</text>
</g>
<!-- DataType -->
<g id="node27" class="node">
<title>DataType</title>
<ellipse fill="none" stroke="#000000" cx="938.3887" cy="-234" rx="55.7903" ry="18"/>
<text text-anchor="middle" x="938.3887" y="-230.3" font-family="Times,serif" font-size="14.00" fill="#000000">DataType</text>
</g>
<!-- DataType&#45;&gt;List -->
<g id="edge2" class="edge">
<title>DataType&#45;&gt;List</title>
<path fill="none" stroke="#000000" d="M882.5644,-231.8885C747.0907,-226.3531 403.9317,-209.7563 293.3887,-180 291.0691,-179.3756 288.718,-178.6143 286.3818,-177.7617"/>
<polygon fill="#000000" stroke="#000000" points="287.5585,-174.4606 276.9808,-173.8586 284.8744,-180.9256 287.5585,-174.4606"/>
</g>
<!-- DataType&#45;&gt;Matrix -->
<g id="edge3" class="edge">
<title>DataType&#45;&gt;Matrix</title>
<path fill="none" stroke="#000000" d="M882.5825,-232.8525C783.3977,-229.8423 570.386,-218.9871 395.3887,-180 392.0335,-179.2525 388.595,-178.3507 385.1656,-177.354"/>
<polygon fill="#000000" stroke="#000000" points="386.191,-174.0076 375.6015,-174.3431 384.089,-180.6845 386.191,-174.0076"/>
</g>
<!-- DataType&#45;&gt;Category -->
<g id="edge5" class="edge">
<title>DataType&#45;&gt;Category</title>
<path fill="none" stroke="#000000" d="M883.8336,-229.6547C803.5989,-222.6558 649.3275,-206.8783 520.3887,-180 516.2534,-179.138 511.992,-178.1396 507.7312,-177.0638"/>
<polygon fill="#000000" stroke="#000000" points="508.4134,-173.6238 497.8501,-174.4406 506.6173,-180.3894 508.4134,-173.6238"/>
</g>
<!-- DataType&#45;&gt;Chunktag -->
<g id="edge6" class="edge">
<title>DataType&#45;&gt;Chunktag</title>
<path fill="none" stroke="#000000" d="M888.5383,-225.8273C831.273,-216.1524 734.6199,-198.9448 652.3887,-180 647.7846,-178.9393 643.0176,-177.7736 638.2496,-176.5611"/>
<polygon fill="#000000" stroke="#000000" points="639.0723,-173.1587 628.513,-174.0253 637.308,-179.9327 639.0723,-173.1587"/>
</g>
<!-- DataType&#45;&gt;Synset -->
<g id="edge8" class="edge">
<title>DataType&#45;&gt;Synset</title>
<path fill="none" stroke="#000000" d="M895.8026,-222.2046C858.3814,-211.6727 802.5432,-195.5515 754.3887,-180 751.4457,-179.0496 748.4158,-178.0457 745.37,-177.018"/>
<polygon fill="#000000" stroke="#000000" points="746.2696,-173.6264 735.675,-173.69 743.9968,-180.2471 746.2696,-173.6264"/>
</g>
<!-- DataType&#45;&gt;Tuple -->
<g id="edge14" class="edge">
<title>DataType&#45;&gt;Tuple</title>
<path fill="none" stroke="#000000" d="M908.7842,-218.5542C887.0669,-207.2234 857.5192,-191.8072 834.7584,-179.932"/>
<polygon fill="#000000" stroke="#000000" points="836.2602,-176.7679 825.7754,-175.2452 833.0222,-182.974 836.2602,-176.7679"/>
</g>
<!-- DataType&#45;&gt;Flags -->
<g id="edge16" class="edge">
<title>DataType&#45;&gt;Flags</title>
<path fill="none" stroke="#000000" d="M926.7707,-216.2022C921.2087,-207.6817 914.4415,-197.315 908.3208,-187.9385"/>
<polygon fill="#000000" stroke="#000000" points="911.108,-185.8052 902.7109,-179.3446 905.2463,-189.6316 911.108,-185.8052"/>
</g>
<!-- DataType&#45;&gt;Vector -->
<g id="edge17" class="edge">
<title>DataType&#45;&gt;Vector</title>
<path fill="none" stroke="#000000" d="M950.2539,-216.2022C955.9342,-207.6817 962.8454,-197.315 969.0964,-187.9385"/>
<polygon fill="#000000" stroke="#000000" points="972.1908,-189.6066 974.8256,-179.3446 966.3664,-185.7236 972.1908,-189.6066"/>
</g>
<!-- DataType&#45;&gt;Tensor3 -->
<g id="edge18" class="edge">
<title>DataType&#45;&gt;Tensor3</title>
<path fill="none" stroke="#000000" d="M970.5048,-219.0816C994.7499,-207.8193 1028.1445,-192.307 1054.0022,-180.2957"/>
<polygon fill="#000000" stroke="#000000" points="1055.562,-183.4304 1063.1568,-176.0432 1052.613,-177.0818 1055.562,-183.4304"/>
</g>
<!-- DataType&#45;&gt;Text -->
<g id="edge19" class="edge">
<title>DataType&#45;&gt;Text</title>
<path fill="none" stroke="#000000" d="M985.8161,-224.3928C1029.2441,-215.0165 1094.9923,-199.3551 1150.3887,-180 1152.4915,-179.2653 1154.6359,-178.4635 1156.7851,-177.6195"/>
<polygon fill="#000000" stroke="#000000" points="1158.2398,-180.8051 1166.123,-173.7266 1155.5462,-174.3441 1158.2398,-180.8051"/>
</g>
<!-- DataType&#45;&gt;Postag -->
<g id="edge20" class="edge">
<title>DataType&#45;&gt;Postag</title>
<path fill="none" stroke="#000000" d="M990.0958,-226.9387C1048.8851,-218.3348 1147.4601,-202.1566 1230.3887,-180 1233.5636,-179.1517 1236.8237,-178.1989 1240.0863,-177.1861"/>
<polygon fill="#000000" stroke="#000000" points="1241.3811,-180.4452 1249.7991,-174.0117 1239.2065,-173.7915 1241.3811,-180.4452"/>
</g>
<!-- DataType&#45;&gt;Stem -->
<g id="edge22" class="edge">
<title>DataType&#45;&gt;Stem</title>
<path fill="none" stroke="#000000" d="M993.4225,-230.8441C1070.3866,-225.4462 1214.0292,-211.7731 1332.3887,-180 1334.9893,-179.3019 1337.6417,-178.4894 1340.2904,-177.6029"/>
<polygon fill="#000000" stroke="#000000" points="1341.5747,-180.86 1349.767,-174.1417 1339.1732,-174.2849 1341.5747,-180.86"/>
</g>
<!-- DataType&#45;&gt;Sentiment -->
<g id="edge23" class="edge">
<title>DataType&#45;&gt;Sentiment</title>
<path fill="none" stroke="#000000" d="M993.3522,-230.487C1083.246,-224.151 1267.0673,-208.7194 1420.3887,-180 1425.3626,-179.0683 1430.5079,-177.9666 1435.6389,-176.7744"/>
<polygon fill="#000000" stroke="#000000" points="1436.5497,-180.155 1445.4393,-174.391 1434.8955,-173.3532 1436.5497,-180.155"/>
</g>
<!-- DataType&#45;&gt;Entity -->
<g id="edge25" class="edge">
<title>DataType&#45;&gt;Entity</title>
<path fill="none" stroke="#000000" d="M993.6507,-231.0499C1124.4169,-223.7661 1449.8294,-203.7841 1556.3887,-180 1559.6172,-179.2794 1562.9211,-178.3984 1566.2134,-177.4173"/>
<polygon fill="#000000" stroke="#000000" points="1567.547,-180.6638 1575.968,-174.2344 1565.3756,-174.0091 1567.547,-180.6638"/>
</g>
</g>
</svg>
