<?xml version="1.0" encoding="UTF-8" standalone="no"?>
<!DOCTYPE svg PUBLIC "-//W3C//DTD SVG 1.1//EN"
 "http://www.w3.org/Graphics/SVG/1.1/DTD/svg11.dtd">
<!-- Generated by graphviz version 2.40.1 (20161225.0304)
 -->
<!-- Title: G Pages: 1 -->
<svg width="1686pt" height="260pt"
 viewBox="0.00 0.00 1686.49 260.00" xmlns="http://www.w3.org/2000/svg" xmlns:xlink="http://www.w3.org/1999/xlink">
<g id="graph0" class="graph" transform="scale(1 1) rotate(0) translate(4 256)">
<title>G</title>
<polygon fill="#ffffff" stroke="transparent" points="-4,4 -4,-256 1682.4879,-256 1682.4879,4 -4,4"/>
<!-- Document -->
<g id="node1" class="node">
<title>Document</title>
<ellipse fill="none" stroke="#000000" cx="662.2463" cy="-90" rx="58.4896" ry="18"/>
<text text-anchor="middle" x="662.2463" y="-86.3" font-family="Times,serif" font-size="14.00" fill="#000000">Document</text>
</g>
<!-- Summary -->
<g id="node17" class="node">
<title>Summary</title>
<ellipse fill="none" stroke="#000000" cx="662.2463" cy="-18" rx="55.7903" ry="18"/>
<text text-anchor="middle" x="662.2463" y="-14.3" font-family="Times,serif" font-size="14.00" fill="#000000">Summary</text>
</g>
<!-- Document&#45;&gt;Summary -->
<g id="edge17" class="edge">
<title>Document&#45;&gt;Summary</title>
<path fill="none" stroke="#000000" d="M662.2463,-71.8314C662.2463,-64.131 662.2463,-54.9743 662.2463,-46.4166"/>
<polygon fill="#000000" stroke="#000000" points="665.7464,-46.4132 662.2463,-36.4133 658.7464,-46.4133 665.7464,-46.4132"/>
</g>
<!-- Postag -->
<g id="node2" class="node">
<title>Postag</title>
<ellipse fill="none" stroke="#000000" cx="42.2463" cy="-162" rx="42.4939" ry="18"/>
<text text-anchor="middle" x="42.2463" y="-158.3" font-family="Times,serif" font-size="14.00" fill="#000000">Postag</text>
</g>
<!-- Stem -->
<g id="node3" class="node">
<title>Stem</title>
<ellipse fill="none" stroke="#000000" cx="137.2463" cy="-162" rx="35.194" ry="18"/>
<text text-anchor="middle" x="137.2463" y="-158.3" font-family="Times,serif" font-size="14.00" fill="#000000">Stem</text>
</g>
<!-- Sentiment -->
<g id="node4" class="node">
<title>Sentiment</title>
<ellipse fill="none" stroke="#000000" cx="249.2463" cy="-162" rx="59.2899" ry="18"/>
<text text-anchor="middle" x="249.2463" y="-158.3" font-family="Times,serif" font-size="14.00" fill="#000000">Sentiment</text>
</g>
<!-- MatrixContinuous -->
<g id="node5" class="node">
<title>MatrixContinuous</title>
<ellipse fill="none" stroke="#000000" cx="324.2463" cy="-90" rx="94.7833" ry="18"/>
<text text-anchor="middle" x="324.2463" y="-86.3" font-family="Times,serif" font-size="14.00" fill="#000000">MatrixContinuous</text>
</g>
<!-- MatrixContinuousDense -->
<g id="node18" class="node">
<title>MatrixContinuousDense</title>
<ellipse fill="none" stroke="#000000" cx="153.2463" cy="-18" rx="124.2781" ry="18"/>
<text text-anchor="middle" x="153.2463" y="-14.3" font-family="Times,serif" font-size="14.00" fill="#000000">MatrixContinuousDense</text>
</g>
<!-- MatrixContinuous&#45;&gt;MatrixContinuousDense -->
<g id="edge18" class="edge">
<title>MatrixContinuous&#45;&gt;MatrixContinuousDense</title>
<path fill="none" stroke="#000000" d="M285.0154,-73.4817C260.6896,-63.2393 229.2131,-49.986 203.1247,-39.0014"/>
<polygon fill="#000000" stroke="#000000" points="204.3548,-35.7218 193.7802,-35.0669 201.6383,-42.1733 204.3548,-35.7218"/>
</g>
<!-- MatrixContinuousSparse -->
<g id="node20" class="node">
<title>MatrixContinuousSparse</title>
<ellipse fill="none" stroke="#000000" cx="448.2463" cy="-18" rx="127.2775" ry="18"/>
<text text-anchor="middle" x="448.2463" y="-14.3" font-family="Times,serif" font-size="14.00" fill="#000000">MatrixContinuousSparse</text>
</g>
<!-- MatrixContinuous&#45;&gt;MatrixContinuousSparse -->
<g id="edge21" class="edge">
<title>MatrixContinuous&#45;&gt;MatrixContinuousSparse</title>
<path fill="none" stroke="#000000" d="M353.9473,-72.7542C370.421,-63.1888 391.1155,-51.1727 408.9179,-40.8358"/>
<polygon fill="#000000" stroke="#000000" points="411.0357,-43.6534 417.9261,-35.6053 407.5207,-37.5999 411.0357,-43.6534"/>
</g>
<!-- Entity -->
<g id="node6" class="node">
<title>Entity</title>
<ellipse fill="none" stroke="#000000" cx="366.2463" cy="-162" rx="39.7935" ry="18"/>
<text text-anchor="middle" x="366.2463" y="-158.3" font-family="Times,serif" font-size="14.00" fill="#000000">Entity</text>
</g>
<!-- DiscreteVector -->
<g id="node7" class="node">
<title>DiscreteVector</title>
<ellipse fill="none" stroke="#000000" cx="1184.2463" cy="-90" rx="80.6858" ry="18"/>
<text text-anchor="middle" x="1184.2463" y="-86.3" font-family="Times,serif" font-size="14.00" fill="#000000">DiscreteVector</text>
</g>
<!-- SparseMatrix -->
<g id="node8" class="node">
<title>SparseMatrix</title>
<ellipse fill="none" stroke="#000000" cx="511.2463" cy="-90" rx="74.187" ry="18"/>
<text text-anchor="middle" x="511.2463" y="-86.3" font-family="Times,serif" font-size="14.00" fill="#000000">SparseMatrix</text>
</g>
<!-- SparseMatrix&#45;&gt;MatrixContinuousSparse -->
<g id="edge22" class="edge">
<title>SparseMatrix&#45;&gt;MatrixContinuousSparse</title>
<path fill="none" stroke="#000000" d="M495.6732,-72.2022C488.1579,-63.6134 479.0013,-53.1486 470.7452,-43.7131"/>
<polygon fill="#000000" stroke="#000000" points="473.2968,-41.3141 464.0777,-36.0931 468.0288,-45.9237 473.2968,-41.3141"/>
</g>
<!-- List -->
<g id="node9" class="node">
<title>List</title>
<ellipse fill="none" stroke="#000000" cx="452.2463" cy="-162" rx="28.6953" ry="18"/>
<text text-anchor="middle" x="452.2463" y="-158.3" font-family="Times,serif" font-size="14.00" fill="#000000">List</text>
</g>
<!-- Matrix -->
<g id="node10" class="node">
<title>Matrix</title>
<ellipse fill="none" stroke="#000000" cx="541.2463" cy="-162" rx="42.4939" ry="18"/>
<text text-anchor="middle" x="541.2463" y="-158.3" font-family="Times,serif" font-size="14.00" fill="#000000">Matrix</text>
</g>
<!-- Matrix&#45;&gt;MatrixContinuous -->
<g id="edge5" class="edge">
<title>Matrix&#45;&gt;MatrixContinuous</title>
<path fill="none" stroke="#000000" d="M508.6397,-150.3566C502.5366,-148.2157 496.204,-146.0201 490.2463,-144 454.6121,-131.9178 414.4971,-118.8536 382.629,-108.6018"/>
<polygon fill="#000000" stroke="#000000" points="383.609,-105.2405 373.0177,-105.5146 381.4683,-111.9051 383.609,-105.2405"/>
</g>
<!-- Matrix&#45;&gt;SparseMatrix -->
<g id="edge8" class="edge">
<title>Matrix&#45;&gt;SparseMatrix</title>
<path fill="none" stroke="#000000" d="M533.8305,-144.2022C530.4665,-136.1287 526.4119,-126.3976 522.6721,-117.422"/>
<polygon fill="#000000" stroke="#000000" points="525.862,-115.9777 518.7851,-108.0931 519.4005,-118.6701 525.862,-115.9777"/>
</g>
<!-- DenseMatrix -->
<g id="node23" class="node">
<title>DenseMatrix</title>
<ellipse fill="none" stroke="#000000" cx="140.2463" cy="-90" rx="70.6878" ry="18"/>
<text text-anchor="middle" x="140.2463" y="-86.3" font-family="Times,serif" font-size="14.00" fill="#000000">DenseMatrix</text>
</g>
<!-- Matrix&#45;&gt;DenseMatrix -->
<g id="edge25" class="edge">
<title>Matrix&#45;&gt;DenseMatrix</title>
<path fill="none" stroke="#000000" d="M509.994,-149.8269C503.5374,-147.6367 496.7281,-145.5582 490.2463,-144 372.5378,-115.703 339.4182,-129.3083 220.2463,-108 214.4108,-106.9566 208.3571,-105.7764 202.3105,-104.5315"/>
<polygon fill="#000000" stroke="#000000" points="202.6891,-101.0342 192.1811,-102.3881 201.2399,-107.8825 202.6891,-101.0342"/>
</g>
<!-- Text -->
<g id="node11" class="node">
<title>Text</title>
<ellipse fill="none" stroke="#000000" cx="632.2463" cy="-162" rx="31.3957" ry="18"/>
<text text-anchor="middle" x="632.2463" y="-158.3" font-family="Times,serif" font-size="14.00" fill="#000000">Text</text>
</g>
<!-- Text&#45;&gt;Document -->
<g id="edge1" class="edge">
<title>Text&#45;&gt;Document</title>
<path fill="none" stroke="#000000" d="M639.662,-144.2022C643.026,-136.1287 647.0806,-126.3976 650.8204,-117.422"/>
<polygon fill="#000000" stroke="#000000" points="654.092,-118.6701 654.7075,-108.0931 647.6305,-115.9777 654.092,-118.6701"/>
</g>
<!-- Sentence -->
<g id="node14" class="node">
<title>Sentence</title>
<ellipse fill="none" stroke="#000000" cx="792.2463" cy="-90" rx="53.8905" ry="18"/>
<text text-anchor="middle" x="792.2463" y="-86.3" font-family="Times,serif" font-size="14.00" fill="#000000">Sentence</text>
</g>
<!-- Text&#45;&gt;Sentence -->
<g id="edge14" class="edge">
<title>Text&#45;&gt;Sentence</title>
<path fill="none" stroke="#000000" d="M656.8956,-150.9078C681.8907,-139.66 721.0251,-122.0495 750.7977,-108.6518"/>
<polygon fill="#000000" stroke="#000000" points="752.4225,-111.7588 760.1054,-104.4634 749.5499,-105.3754 752.4225,-111.7588"/>
</g>
<!-- Word -->
<g id="node16" class="node">
<title>Word</title>
<ellipse fill="none" stroke="#000000" cx="900.2463" cy="-90" rx="35.9954" ry="18"/>
<text text-anchor="middle" x="900.2463" y="-86.3" font-family="Times,serif" font-size="14.00" fill="#000000">Word</text>
</g>
<!-- Text&#45;&gt;Word -->
<g id="edge16" class="edge">
<title>Text&#45;&gt;Word</title>
<path fill="none" stroke="#000000" d="M656.0105,-150.2374C661.2698,-147.9373 666.8771,-145.7113 672.2463,-144 751.2239,-118.8277 775.7534,-131.4945 855.2463,-108 857.8788,-107.2219 860.5713,-106.3498 863.2656,-105.4203"/>
<polygon fill="#000000" stroke="#000000" points="864.7489,-108.6041 872.9269,-101.8682 862.3333,-102.034 864.7489,-108.6041"/>
</g>
<!-- Category -->
<g id="node12" class="node">
<title>Category</title>
<ellipse fill="none" stroke="#000000" cx="735.2463" cy="-162" rx="53.8905" ry="18"/>
<text text-anchor="middle" x="735.2463" y="-158.3" font-family="Times,serif" font-size="14.00" fill="#000000">Category</text>
</g>
<!-- Chunktag -->
<g id="node13" class="node">
<title>Chunktag</title>
<ellipse fill="none" stroke="#000000" cx="863.2463" cy="-162" rx="56.59" ry="18"/>
<text text-anchor="middle" x="863.2463" y="-158.3" font-family="Times,serif" font-size="14.00" fill="#000000">Chunktag</text>
</g>
<!-- Synset -->
<g id="node15" class="node">
<title>Synset</title>
<ellipse fill="none" stroke="#000000" cx="980.2463" cy="-162" rx="42.4939" ry="18"/>
<text text-anchor="middle" x="980.2463" y="-158.3" font-family="Times,serif" font-size="14.00" fill="#000000">Synset</text>
</g>
<!-- CategoricalVector -->
<g id="node19" class="node">
<title>CategoricalVector</title>
<ellipse fill="none" stroke="#000000" cx="1377.2463" cy="-90" rx="94.7833" ry="18"/>
<text text-anchor="middle" x="1377.2463" y="-86.3" font-family="Times,serif" font-size="14.00" fill="#000000">CategoricalVector</text>
</g>
<!-- ContinuousVector -->
<g id="node21" class="node">
<title>ContinuousVector</title>
<ellipse fill="none" stroke="#000000" cx="1584.2463" cy="-90" rx="94.4839" ry="18"/>
<text text-anchor="middle" x="1584.2463" y="-86.3" font-family="Times,serif" font-size="14.00" fill="#000000">ContinuousVector</text>
</g>
<!-- Tuple -->
<g id="node22" class="node">
<title>Tuple</title>
<ellipse fill="none" stroke="#000000" cx="1077.2463" cy="-162" rx="37.0935" ry="18"/>
<text text-anchor="middle" x="1077.2463" y="-158.3" font-family="Times,serif" font-size="14.00" fill="#000000">Tuple</text>
</g>
<!-- DenseMatrix&#45;&gt;MatrixContinuousDense -->
<g id="edge19" class="edge">
<title>DenseMatrix&#45;&gt;MatrixContinuousDense</title>
<path fill="none" stroke="#000000" d="M143.5267,-71.8314C144.9171,-64.131 146.5703,-54.9743 148.1155,-46.4166"/>
<polygon fill="#000000" stroke="#000000" points="151.589,-46.8761 149.9216,-36.4133 144.7004,-45.6322 151.589,-46.8761"/>
</g>
<!-- Flags -->
<g id="node24" class="node">
<title>Flags</title>
<ellipse fill="none" stroke="#000000" cx="1168.2463" cy="-162" rx="36.2938" ry="18"/>
<text text-anchor="middle" x="1168.2463" y="-158.3" font-family="Times,serif" font-size="14.00" fill="#000000">Flags</text>
</g>
<!-- Tensor3 -->
<g id="node25" class="node">
<title>Tensor3</title>
<ellipse fill="none" stroke="#000000" cx="1270.2463" cy="-162" rx="48.1917" ry="18"/>
<text text-anchor="middle" x="1270.2463" y="-158.3" font-family="Times,serif" font-size="14.00" fill="#000000">Tensor3</text>
</g>
<!-- Vector -->
<g id="node26" class="node">
<title>Vector</title>
<ellipse fill="none" stroke="#000000" cx="1377.2463" cy="-162" rx="40.8928" ry="18"/>
<text text-anchor="middle" x="1377.2463" y="-158.3" font-family="Times,serif" font-size="14.00" fill="#000000">Vector</text>
</g>
<!-- Vector&#45;&gt;DiscreteVector -->
<g id="edge7" class="edge">
<title>Vector&#45;&gt;DiscreteVector</title>
<path fill="none" stroke="#000000" d="M1345.8079,-150.2717C1315.9317,-139.1262 1270.4817,-122.1707 1235.39,-109.0795"/>
<polygon fill="#000000" stroke="#000000" points="1236.3811,-105.7137 1225.7885,-105.4976 1233.9344,-112.2722 1236.3811,-105.7137"/>
</g>
<!-- Vector&#45;&gt;CategoricalVector -->
<g id="edge20" class="edge">
<title>Vector&#45;&gt;CategoricalVector</title>
<path fill="none" stroke="#000000" d="M1377.2463,-143.8314C1377.2463,-136.131 1377.2463,-126.9743 1377.2463,-118.4166"/>
<polygon fill="#000000" stroke="#000000" points="1380.7464,-118.4132 1377.2463,-108.4133 1373.7464,-118.4133 1380.7464,-118.4132"/>
</g>
<!-- Vector&#45;&gt;ContinuousVector -->
<g id="edge23" class="edge">
<title>Vector&#45;&gt;ContinuousVector</title>
<path fill="none" stroke="#000000" d="M1409.59,-150.75C1441.4262,-139.6766 1490.6715,-122.5477 1528.7661,-109.2975"/>
<polygon fill="#000000" stroke="#000000" points="1530.396,-112.4363 1538.6912,-105.8453 1528.0963,-105.8248 1530.396,-112.4363"/>
</g>
<!-- DataType -->
<g id="node27" class="node">
<title>DataType</title>
<ellipse fill="none" stroke="#000000" cx="683.2463" cy="-234" rx="55.7903" ry="18"/>
<text text-anchor="middle" x="683.2463" y="-230.3" font-family="Times,serif" font-size="14.00" fill="#000000">DataType</text>
</g>
<!-- DataType&#45;&gt;Postag -->
<g id="edge2" class="edge">
<title>DataType&#45;&gt;Postag</title>
<path fill="none" stroke="#000000" d="M628.1761,-230.7098C501.8808,-222.8811 194.4842,-202.1378 93.2463,-180 89.8409,-179.2553 86.3506,-178.3481 82.8718,-177.3411"/>
<polygon fill="#000000" stroke="#000000" points="83.7669,-173.9537 73.1775,-174.2912 81.6661,-180.631 83.7669,-173.9537"/>
</g>
<!-- DataType&#45;&gt;Stem -->
<g id="edge3" class="edge">
<title>DataType&#45;&gt;Stem</title>
<path fill="none" stroke="#000000" d="M628.4562,-230.0591C516.4627,-221.6843 264.8447,-201.1449 181.2463,-180 178.4708,-179.298 175.6396,-178.4557 172.8188,-177.5242"/>
<polygon fill="#000000" stroke="#000000" points="173.9582,-174.2143 163.3642,-174.0866 171.5663,-180.793 173.9582,-174.2143"/>
</g>
<!-- DataType&#45;&gt;Sentiment -->
<g id="edge4" class="edge">
<title>DataType&#45;&gt;Sentiment</title>
<path fill="none" stroke="#000000" d="M630.1898,-228.0687C558.6987,-219.6452 427.6629,-202.6848 317.2463,-180 312.4875,-179.0223 307.5657,-177.9138 302.6464,-176.7388"/>
<polygon fill="#000000" stroke="#000000" points="303.1534,-173.2588 292.6054,-174.2541 301.4718,-180.0538 303.1534,-173.2588"/>
</g>
<!-- DataType&#45;&gt;Entity -->
<g id="edge6" class="edge">
<title>DataType&#45;&gt;Entity</title>
<path fill="none" stroke="#000000" d="M632.5945,-226.3285C578.0847,-217.4958 489.1268,-201.4059 414.2463,-180 411.4384,-179.1973 408.5618,-178.3047 405.6801,-177.3584"/>
<polygon fill="#000000" stroke="#000000" points="406.5508,-173.9559 395.956,-173.9867 404.2575,-180.5696 406.5508,-173.9559"/>
</g>
<!-- DataType&#45;&gt;List -->
<g id="edge9" class="edge">
<title>DataType&#45;&gt;List</title>
<path fill="none" stroke="#000000" d="M637.3142,-223.48C597.7657,-213.8727 539.4613,-198.3897 490.2463,-180 488.3487,-179.2909 486.416,-178.5241 484.4781,-177.7204"/>
<polygon fill="#000000" stroke="#000000" points="485.4457,-174.322 474.8836,-173.4904 482.6218,-180.7271 485.4457,-174.322"/>
</g>
<!-- DataType&#45;&gt;Matrix -->
<g id="edge10" class="edge">
<title>DataType&#45;&gt;Matrix</title>
<path fill="none" stroke="#000000" d="M653.1317,-218.7307C630.9953,-207.5066 600.8155,-192.2041 577.3785,-180.3206"/>
<polygon fill="#000000" stroke="#000000" points="578.9381,-177.1872 568.4363,-175.7865 575.7725,-183.4305 578.9381,-177.1872"/>
</g>
<!-- DataType&#45;&gt;Text -->
<g id="edge11" class="edge">
<title>DataType&#45;&gt;Text</title>
<path fill="none" stroke="#000000" d="M670.6395,-216.2022C664.4967,-207.5301 656.9993,-196.9455 650.2655,-187.4389"/>
<polygon fill="#000000" stroke="#000000" points="652.9931,-185.2344 644.3568,-179.0972 647.2809,-189.2806 652.9931,-185.2344"/>
</g>
<!-- DataType&#45;&gt;Category -->
<g id="edge12" class="edge">
<title>DataType&#45;&gt;Category</title>
<path fill="none" stroke="#000000" d="M696.1002,-216.2022C702.2713,-207.6576 709.7833,-197.2564 716.5703,-187.859"/>
<polygon fill="#000000" stroke="#000000" points="719.5226,-189.7491 722.5402,-179.593 713.8478,-185.6506 719.5226,-189.7491"/>
</g>
<!-- DataType&#45;&gt;Chunktag -->
<g id="edge13" class="edge">
<title>DataType&#45;&gt;Chunktag</title>
<path fill="none" stroke="#000000" d="M718.3794,-219.9468C746.9062,-208.536 787.3254,-192.3683 818.2242,-180.0088"/>
<polygon fill="#000000" stroke="#000000" points="819.9097,-183.1043 827.8946,-176.1407 817.31,-176.6049 819.9097,-183.1043"/>
</g>
<!-- DataType&#45;&gt;Synset -->
<g id="edge15" class="edge">
<title>DataType&#45;&gt;Synset</title>
<path fill="none" stroke="#000000" d="M732.2305,-225.0941C782.1967,-215.5795 861.7558,-199.2384 929.2463,-180 932.3615,-179.112 935.5634,-178.1364 938.7719,-177.113"/>
<polygon fill="#000000" stroke="#000000" points="939.9487,-180.4102 948.3376,-173.939 937.7441,-173.7664 939.9487,-180.4102"/>
</g>
<!-- DataType&#45;&gt;Tuple -->
<g id="edge24" class="edge">
<title>DataType&#45;&gt;Tuple</title>
<path fill="none" stroke="#000000" d="M737.3639,-229.3088C806.4574,-222.4793 929.272,-207.5062 1031.2463,-180 1034.0407,-179.2462 1036.8978,-178.3784 1039.7526,-177.4396"/>
<polygon fill="#000000" stroke="#000000" points="1041.0978,-180.6762 1049.3546,-174.0373 1038.7599,-174.0782 1041.0978,-180.6762"/>
</g>
<!-- DataType&#45;&gt;Flags -->
<g id="edge26" class="edge">
<title>DataType&#45;&gt;Flags</title>
<path fill="none" stroke="#000000" d="M738.9733,-231.7675C823.3286,-227.3612 987.9481,-214.7364 1123.2463,-180 1125.9052,-179.3173 1128.6173,-178.5163 1131.3258,-177.6382"/>
<polygon fill="#000000" stroke="#000000" points="1132.7661,-180.8409 1141.017,-174.1946 1130.4222,-174.245 1132.7661,-180.8409"/>
</g>
<!-- DataType&#45;&gt;Tensor3 -->
<g id="edge27" class="edge">
<title>DataType&#45;&gt;Tensor3</title>
<path fill="none" stroke="#000000" d="M739.1326,-232.0566C836.4011,-227.8437 1042.7334,-215.2233 1213.2463,-180 1217.1368,-179.1963 1221.1383,-178.2305 1225.1307,-177.169"/>
<polygon fill="#000000" stroke="#000000" points="1226.3064,-180.4735 1234.9673,-174.3712 1224.3913,-173.7406 1226.3064,-180.4735"/>
</g>
<!-- DataType&#45;&gt;Vector -->
<g id="edge28" class="edge">
<title>DataType&#45;&gt;Vector</title>
<path fill="none" stroke="#000000" d="M738.8206,-231.2118C873.7137,-224.143 1215.5666,-204.3419 1327.2463,-180 1330.6393,-179.2604 1334.1155,-178.3492 1337.577,-177.3328"/>
<polygon fill="#000000" stroke="#000000" points="1338.7576,-180.6299 1347.2125,-174.245 1336.6214,-173.9638 1338.7576,-180.6299"/>
</g>
</g>
</svg>
