<?xml version="1.0" encoding="UTF-8" standalone="no"?>
<!DOCTYPE svg PUBLIC "-//W3C//DTD SVG 1.1//EN"
 "http://www.w3.org/Graphics/SVG/1.1/DTD/svg11.dtd">
<!-- Generated by graphviz version 2.40.1 (20161225.0304)
 -->
<!-- Title: G Pages: 1 -->
<svg width="1831pt" height="260pt"
 viewBox="0.00 0.00 1831.44 260.00" xmlns="http://www.w3.org/2000/svg" xmlns:xlink="http://www.w3.org/1999/xlink">
<g id="graph0" class="graph" transform="scale(1 1) rotate(0) translate(4 256)">
<title>G</title>
<polygon fill="#ffffff" stroke="transparent" points="-4,4 -4,-256 1827.44,-256 1827.44,4 -4,4"/>
<!-- Category -->
<g id="node1" class="node">
<title>Category</title>
<ellipse fill="none" stroke="#000000" cx="53.9452" cy="-162" rx="53.8905" ry="18"/>
<text text-anchor="middle" x="53.9452" y="-158.3" font-family="Times,serif" font-size="14.00" fill="#000000">Category</text>
</g>
<!-- Chunktag -->
<g id="node2" class="node">
<title>Chunktag</title>
<ellipse fill="none" stroke="#000000" cx="181.9452" cy="-162" rx="56.59" ry="18"/>
<text text-anchor="middle" x="181.9452" y="-158.3" font-family="Times,serif" font-size="14.00" fill="#000000">Chunktag</text>
</g>
<!-- Sentence -->
<g id="node3" class="node">
<title>Sentence</title>
<ellipse fill="none" stroke="#000000" cx="1544.9452" cy="-90" rx="53.8905" ry="18"/>
<text text-anchor="middle" x="1544.9452" y="-86.3" font-family="Times,serif" font-size="14.00" fill="#000000">Sentence</text>
</g>
<!-- Synset -->
<g id="node4" class="node">
<title>Synset</title>
<ellipse fill="none" stroke="#000000" cx="298.9452" cy="-162" rx="42.4939" ry="18"/>
<text text-anchor="middle" x="298.9452" y="-158.3" font-family="Times,serif" font-size="14.00" fill="#000000">Synset</text>
</g>
<!-- Summary -->
<g id="node5" class="node">
<title>Summary</title>
<ellipse fill="none" stroke="#000000" cx="1764.9452" cy="-18" rx="55.7903" ry="18"/>
<text text-anchor="middle" x="1764.9452" y="-14.3" font-family="Times,serif" font-size="14.00" fill="#000000">Summary</text>
</g>
<!-- Word -->
<g id="node6" class="node">
<title>Word</title>
<ellipse fill="none" stroke="#000000" cx="1652.9452" cy="-90" rx="35.9954" ry="18"/>
<text text-anchor="middle" x="1652.9452" y="-86.3" font-family="Times,serif" font-size="14.00" fill="#000000">Word</text>
</g>
<!-- CategoricalVector -->
<g id="node7" class="node">
<title>CategoricalVector</title>
<ellipse fill="none" stroke="#000000" cx="374.9452" cy="-90" rx="94.7833" ry="18"/>
<text text-anchor="middle" x="374.9452" y="-86.3" font-family="Times,serif" font-size="14.00" fill="#000000">CategoricalVector</text>
</g>
<!-- MatrixContinuousSparse -->
<g id="node8" class="node">
<title>MatrixContinuousSparse</title>
<ellipse fill="none" stroke="#000000" cx="1348.9452" cy="-18" rx="127.2775" ry="18"/>
<text text-anchor="middle" x="1348.9452" y="-14.3" font-family="Times,serif" font-size="14.00" fill="#000000">MatrixContinuousSparse</text>
</g>
<!-- ContinuousVector -->
<g id="node9" class="node">
<title>ContinuousVector</title>
<ellipse fill="none" stroke="#000000" cx="581.9452" cy="-90" rx="94.4839" ry="18"/>
<text text-anchor="middle" x="581.9452" y="-86.3" font-family="Times,serif" font-size="14.00" fill="#000000">ContinuousVector</text>
</g>
<!-- Tuple -->
<g id="node10" class="node">
<title>Tuple</title>
<ellipse fill="none" stroke="#000000" cx="395.9452" cy="-162" rx="37.0935" ry="18"/>
<text text-anchor="middle" x="395.9452" y="-158.3" font-family="Times,serif" font-size="14.00" fill="#000000">Tuple</text>
</g>
<!-- DenseMatrix -->
<g id="node11" class="node">
<title>DenseMatrix</title>
<ellipse fill="none" stroke="#000000" cx="1027.9452" cy="-90" rx="70.6878" ry="18"/>
<text text-anchor="middle" x="1027.9452" y="-86.3" font-family="Times,serif" font-size="14.00" fill="#000000">DenseMatrix</text>
</g>
<!-- MatrixContinuousDense -->
<g id="node24" class="node">
<title>MatrixContinuousDense</title>
<ellipse fill="none" stroke="#000000" cx="1053.9452" cy="-18" rx="124.2781" ry="18"/>
<text text-anchor="middle" x="1053.9452" y="-14.3" font-family="Times,serif" font-size="14.00" fill="#000000">MatrixContinuousDense</text>
</g>
<!-- DenseMatrix&#45;&gt;MatrixContinuousDense -->
<g id="edge26" class="edge">
<title>DenseMatrix&#45;&gt;MatrixContinuousDense</title>
<path fill="none" stroke="#000000" d="M1034.5061,-71.8314C1037.3479,-63.9617 1040.739,-54.5712 1043.8871,-45.8533"/>
<polygon fill="#000000" stroke="#000000" points="1047.1914,-47.0076 1047.296,-36.4133 1040.6075,-44.63 1047.1914,-47.0076"/>
</g>
<!-- Flags -->
<g id="node12" class="node">
<title>Flags</title>
<ellipse fill="none" stroke="#000000" cx="486.9452" cy="-162" rx="36.2938" ry="18"/>
<text text-anchor="middle" x="486.9452" y="-158.3" font-family="Times,serif" font-size="14.00" fill="#000000">Flags</text>
</g>
<!-- Vector -->
<g id="node13" class="node">
<title>Vector</title>
<ellipse fill="none" stroke="#000000" cx="581.9452" cy="-162" rx="40.8928" ry="18"/>
<text text-anchor="middle" x="581.9452" y="-158.3" font-family="Times,serif" font-size="14.00" fill="#000000">Vector</text>
</g>
<!-- Vector&#45;&gt;CategoricalVector -->
<g id="edge7" class="edge">
<title>Vector&#45;&gt;CategoricalVector</title>
<path fill="none" stroke="#000000" d="M550.2291,-150.5052C544.1648,-148.3291 537.863,-146.0828 531.9452,-144 498.6011,-132.2644 461.1743,-119.3803 431.2285,-109.1412"/>
<polygon fill="#000000" stroke="#000000" points="431.971,-105.6964 421.3764,-105.7758 429.7081,-112.3205 431.971,-105.6964"/>
</g>
<!-- Vector&#45;&gt;ContinuousVector -->
<g id="edge10" class="edge">
<title>Vector&#45;&gt;ContinuousVector</title>
<path fill="none" stroke="#000000" d="M581.9452,-143.8314C581.9452,-136.131 581.9452,-126.9743 581.9452,-118.4166"/>
<polygon fill="#000000" stroke="#000000" points="585.4453,-118.4132 581.9452,-108.4133 578.4453,-118.4133 585.4453,-118.4132"/>
</g>
<!-- DiscreteVector -->
<g id="node21" class="node">
<title>DiscreteVector</title>
<ellipse fill="none" stroke="#000000" cx="774.9452" cy="-90" rx="80.6858" ry="18"/>
<text text-anchor="middle" x="774.9452" y="-86.3" font-family="Times,serif" font-size="14.00" fill="#000000">DiscreteVector</text>
</g>
<!-- Vector&#45;&gt;DiscreteVector -->
<g id="edge22" class="edge">
<title>Vector&#45;&gt;DiscreteVector</title>
<path fill="none" stroke="#000000" d="M613.3835,-150.2717C643.2598,-139.1262 688.7097,-122.1707 723.8015,-109.0795"/>
<polygon fill="#000000" stroke="#000000" points="725.2571,-112.2722 733.403,-105.4976 722.8103,-105.7137 725.2571,-112.2722"/>
</g>
<!-- Tensor3 -->
<g id="node14" class="node">
<title>Tensor3</title>
<ellipse fill="none" stroke="#000000" cx="688.9452" cy="-162" rx="48.1917" ry="18"/>
<text text-anchor="middle" x="688.9452" y="-158.3" font-family="Times,serif" font-size="14.00" fill="#000000">Tensor3</text>
</g>
<!-- Document -->
<g id="node15" class="node">
<title>Document</title>
<ellipse fill="none" stroke="#000000" cx="1764.9452" cy="-90" rx="58.4896" ry="18"/>
<text text-anchor="middle" x="1764.9452" y="-86.3" font-family="Times,serif" font-size="14.00" fill="#000000">Document</text>
</g>
<!-- Document&#45;&gt;Summary -->
<g id="edge5" class="edge">
<title>Document&#45;&gt;Summary</title>
<path fill="none" stroke="#000000" d="M1764.9452,-71.8314C1764.9452,-64.131 1764.9452,-54.9743 1764.9452,-46.4166"/>
<polygon fill="#000000" stroke="#000000" points="1768.4453,-46.4132 1764.9452,-36.4133 1761.4453,-46.4133 1768.4453,-46.4132"/>
</g>
<!-- Postag -->
<g id="node16" class="node">
<title>Postag</title>
<ellipse fill="none" stroke="#000000" cx="796.9452" cy="-162" rx="42.4939" ry="18"/>
<text text-anchor="middle" x="796.9452" y="-158.3" font-family="Times,serif" font-size="14.00" fill="#000000">Postag</text>
</g>
<!-- Stem -->
<g id="node17" class="node">
<title>Stem</title>
<ellipse fill="none" stroke="#000000" cx="891.9452" cy="-162" rx="35.194" ry="18"/>
<text text-anchor="middle" x="891.9452" y="-158.3" font-family="Times,serif" font-size="14.00" fill="#000000">Stem</text>
</g>
<!-- Sentiment -->
<g id="node18" class="node">
<title>Sentiment</title>
<ellipse fill="none" stroke="#000000" cx="1003.9452" cy="-162" rx="59.2899" ry="18"/>
<text text-anchor="middle" x="1003.9452" y="-158.3" font-family="Times,serif" font-size="14.00" fill="#000000">Sentiment</text>
</g>
<!-- MatrixContinuous -->
<g id="node19" class="node">
<title>MatrixContinuous</title>
<ellipse fill="none" stroke="#000000" cx="1211.9452" cy="-90" rx="94.7833" ry="18"/>
<text text-anchor="middle" x="1211.9452" y="-86.3" font-family="Times,serif" font-size="14.00" fill="#000000">MatrixContinuous</text>
</g>
<!-- MatrixContinuous&#45;&gt;MatrixContinuousSparse -->
<g id="edge8" class="edge">
<title>MatrixContinuous&#45;&gt;MatrixContinuousSparse</title>
<path fill="none" stroke="#000000" d="M1244.4123,-72.937C1263.0763,-63.1282 1286.7294,-50.6974 1306.8135,-40.1422"/>
<polygon fill="#000000" stroke="#000000" points="1308.5358,-43.1911 1315.7595,-35.4407 1305.2792,-36.9947 1308.5358,-43.1911"/>
</g>
<!-- MatrixContinuous&#45;&gt;MatrixContinuousDense -->
<g id="edge25" class="edge">
<title>MatrixContinuous&#45;&gt;MatrixContinuousDense</title>
<path fill="none" stroke="#000000" d="M1175.2997,-73.3008C1153.1681,-63.2155 1124.74,-50.2609 1100.9625,-39.4256"/>
<polygon fill="#000000" stroke="#000000" points="1102.3161,-36.1962 1091.765,-35.2344 1099.4134,-42.566 1102.3161,-36.1962"/>
</g>
<!-- Entity -->
<g id="node20" class="node">
<title>Entity</title>
<ellipse fill="none" stroke="#000000" cx="1120.9452" cy="-162" rx="39.7935" ry="18"/>
<text text-anchor="middle" x="1120.9452" y="-158.3" font-family="Times,serif" font-size="14.00" fill="#000000">Entity</text>
</g>
<!-- SparseMatrix -->
<g id="node22" class="node">
<title>SparseMatrix</title>
<ellipse fill="none" stroke="#000000" cx="1398.9452" cy="-90" rx="74.187" ry="18"/>
<text text-anchor="middle" x="1398.9452" y="-86.3" font-family="Times,serif" font-size="14.00" fill="#000000">SparseMatrix</text>
</g>
<!-- SparseMatrix&#45;&gt;MatrixContinuousSparse -->
<g id="edge9" class="edge">
<title>SparseMatrix&#45;&gt;MatrixContinuousSparse</title>
<path fill="none" stroke="#000000" d="M1386.5857,-72.2022C1380.8001,-63.871 1373.7888,-53.7748 1367.3931,-44.565"/>
<polygon fill="#000000" stroke="#000000" points="1370.0887,-42.3104 1361.5099,-36.0931 1364.3391,-46.3032 1370.0887,-42.3104"/>
</g>
<!-- List -->
<g id="node23" class="node">
<title>List</title>
<ellipse fill="none" stroke="#000000" cx="1206.9452" cy="-162" rx="28.6953" ry="18"/>
<text text-anchor="middle" x="1206.9452" y="-158.3" font-family="Times,serif" font-size="14.00" fill="#000000">List</text>
</g>
<!-- Matrix -->
<g id="node25" class="node">
<title>Matrix</title>
<ellipse fill="none" stroke="#000000" cx="1295.9452" cy="-162" rx="42.4939" ry="18"/>
<text text-anchor="middle" x="1295.9452" y="-158.3" font-family="Times,serif" font-size="14.00" fill="#000000">Matrix</text>
</g>
<!-- Matrix&#45;&gt;DenseMatrix -->
<g id="edge12" class="edge">
<title>Matrix&#45;&gt;DenseMatrix</title>
<path fill="none" stroke="#000000" d="M1263.9961,-150.1994C1257.7157,-148.0286 1251.1505,-145.8625 1244.9452,-144 1216.2411,-135.3845 1143.2329,-117.5202 1089.7994,-104.6963"/>
<polygon fill="#000000" stroke="#000000" points="1090.6054,-101.2904 1080.065,-102.3639 1088.9742,-108.0978 1090.6054,-101.2904"/>
</g>
<!-- Matrix&#45;&gt;MatrixContinuous -->
<g id="edge20" class="edge">
<title>Matrix&#45;&gt;MatrixContinuous</title>
<path fill="none" stroke="#000000" d="M1276.8843,-145.6621C1266.0839,-136.4046 1252.3641,-124.6447 1240.3205,-114.3217"/>
<polygon fill="#000000" stroke="#000000" points="1242.5662,-111.6367 1232.6958,-107.7862 1238.0106,-116.9516 1242.5662,-111.6367"/>
</g>
<!-- Matrix&#45;&gt;SparseMatrix -->
<g id="edge23" class="edge">
<title>Matrix&#45;&gt;SparseMatrix</title>
<path fill="none" stroke="#000000" d="M1318.0413,-146.5542C1332.0063,-136.7923 1350.3092,-123.998 1365.9735,-113.0482"/>
<polygon fill="#000000" stroke="#000000" points="1368.1692,-115.7837 1374.36,-107.1857 1364.1587,-110.0464 1368.1692,-115.7837"/>
</g>
<!-- Text -->
<g id="node26" class="node">
<title>Text</title>
<ellipse fill="none" stroke="#000000" cx="1598.9452" cy="-162" rx="31.3957" ry="18"/>
<text text-anchor="middle" x="1598.9452" y="-158.3" font-family="Times,serif" font-size="14.00" fill="#000000">Text</text>
</g>
<!-- Text&#45;&gt;Sentence -->
<g id="edge3" class="edge">
<title>Text&#45;&gt;Sentence</title>
<path fill="none" stroke="#000000" d="M1586.4208,-145.3008C1579.8662,-136.5614 1571.6958,-125.6674 1564.3439,-115.8649"/>
<polygon fill="#000000" stroke="#000000" points="1566.9551,-113.5132 1558.1551,-107.6132 1561.3551,-117.7132 1566.9551,-113.5132"/>
</g>
<!-- Text&#45;&gt;Word -->
<g id="edge6" class="edge">
<title>Text&#45;&gt;Word</title>
<path fill="none" stroke="#000000" d="M1611.4696,-145.3008C1618.1878,-136.3433 1626.6035,-125.1223 1634.0954,-115.1331"/>
<polygon fill="#000000" stroke="#000000" points="1636.9137,-117.2087 1640.1137,-107.1086 1631.3137,-113.0086 1636.9137,-117.2087"/>
</g>
<!-- Text&#45;&gt;Document -->
<g id="edge16" class="edge">
<title>Text&#45;&gt;Document</title>
<path fill="none" stroke="#000000" d="M1624.157,-151.0647C1649.9666,-139.8702 1690.5762,-122.2564 1721.562,-108.8168"/>
<polygon fill="#000000" stroke="#000000" points="1723.0608,-111.9819 1730.8423,-104.7916 1720.2753,-105.5599 1723.0608,-111.9819"/>
</g>
<!-- DataType -->
<g id="node27" class="node">
<title>DataType</title>
<ellipse fill="none" stroke="#000000" cx="742.9452" cy="-234" rx="55.7903" ry="18"/>
<text text-anchor="middle" x="742.9452" y="-230.3" font-family="Times,serif" font-size="14.00" fill="#000000">DataType</text>
</g>
<!-- DataType&#45;&gt;Category -->
<g id="edge1" class="edge">
<title>DataType&#45;&gt;Category</title>
<path fill="none" stroke="#000000" d="M687.0952,-232.8647C576.9487,-229.8191 324.317,-218.8294 115.9452,-180 111.7306,-179.2146 107.3913,-178.2621 103.0586,-177.2099"/>
<polygon fill="#000000" stroke="#000000" points="103.5816,-173.7297 93.0231,-174.6056 101.8233,-180.5053 103.5816,-173.7297"/>
</g>
<!-- DataType&#45;&gt;Chunktag -->
<g id="edge2" class="edge">
<title>DataType&#45;&gt;Chunktag</title>
<path fill="none" stroke="#000000" d="M687.5891,-230.8169C595.645,-224.8935 405.9204,-209.9653 247.9452,-180 243.1647,-179.0932 238.2239,-178.0157 233.2966,-176.8452"/>
<polygon fill="#000000" stroke="#000000" points="233.8075,-173.3654 223.2574,-174.3372 232.1109,-180.1566 233.8075,-173.3654"/>
</g>
<!-- DataType&#45;&gt;Synset -->
<g id="edge4" class="edge">
<title>DataType&#45;&gt;Synset</title>
<path fill="none" stroke="#000000" d="M688.2604,-230.0085C611.7373,-223.6296 468.7463,-208.811 349.9452,-180 346.6046,-179.1899 343.1765,-178.2433 339.7542,-177.216"/>
<polygon fill="#000000" stroke="#000000" points="340.7935,-173.8737 330.2023,-174.1528 338.6558,-180.5394 340.7935,-173.8737"/>
</g>
<!-- DataType&#45;&gt;Tuple -->
<g id="edge11" class="edge">
<title>DataType&#45;&gt;Tuple</title>
<path fill="none" stroke="#000000" d="M690.3105,-227.7313C629.6696,-219.7818 527.3978,-204.1335 441.9452,-180 439.1598,-179.2134 436.3094,-178.3213 433.4594,-177.3652"/>
<polygon fill="#000000" stroke="#000000" points="434.4614,-174.0064 423.8668,-173.9286 432.1004,-180.5963 434.4614,-174.0064"/>
</g>
<!-- DataType&#45;&gt;Flags -->
<g id="edge13" class="edge">
<title>DataType&#45;&gt;Flags</title>
<path fill="none" stroke="#000000" d="M696.3484,-223.9092C653.2597,-214.1471 587.6613,-198.1875 531.9452,-180 529.4081,-179.1718 526.8088,-178.2725 524.2018,-177.3324"/>
<polygon fill="#000000" stroke="#000000" points="525.4161,-174.0498 514.8241,-173.8039 522.9509,-180.6014 525.4161,-174.0498"/>
</g>
<!-- DataType&#45;&gt;Vector -->
<g id="edge14" class="edge">
<title>DataType&#45;&gt;Vector</title>
<path fill="none" stroke="#000000" d="M709.976,-219.256C683.8886,-207.5896 647.4256,-191.2832 620.0819,-179.0549"/>
<polygon fill="#000000" stroke="#000000" points="621.38,-175.8014 610.8224,-174.914 618.5223,-182.1916 621.38,-175.8014"/>
</g>
<!-- DataType&#45;&gt;Tensor3 -->
<g id="edge15" class="edge">
<title>DataType&#45;&gt;Tensor3</title>
<path fill="none" stroke="#000000" d="M729.5969,-216.2022C723.0747,-207.506 715.1103,-196.8867 707.965,-187.3598"/>
<polygon fill="#000000" stroke="#000000" points="710.7537,-185.2446 701.9537,-179.3446 705.1537,-189.4446 710.7537,-185.2446"/>
</g>
<!-- DataType&#45;&gt;Postag -->
<g id="edge17" class="edge">
<title>DataType&#45;&gt;Postag</title>
<path fill="none" stroke="#000000" d="M756.2935,-216.2022C762.8157,-207.506 770.7802,-196.8867 777.9254,-187.3598"/>
<polygon fill="#000000" stroke="#000000" points="780.7367,-189.4446 783.9368,-179.3446 775.1367,-185.2446 780.7367,-189.4446"/>
</g>
<!-- DataType&#45;&gt;Stem -->
<g id="edge18" class="edge">
<title>DataType&#45;&gt;Stem</title>
<path fill="none" stroke="#000000" d="M774.1805,-218.9064C798.3943,-207.2058 831.9395,-190.9961 857.0361,-178.8688"/>
<polygon fill="#000000" stroke="#000000" points="858.7229,-181.941 866.204,-174.4387 855.6772,-175.6383 858.7229,-181.941"/>
</g>
<!-- DataType&#45;&gt;Sentiment -->
<g id="edge19" class="edge">
<title>DataType&#45;&gt;Sentiment</title>
<path fill="none" stroke="#000000" d="M785.4603,-222.2717C830.3261,-209.8949 901.1628,-190.3538 949.949,-176.8955"/>
<polygon fill="#000000" stroke="#000000" points="950.9933,-180.2382 959.7024,-174.2049 949.1317,-173.4903 950.9933,-180.2382"/>
</g>
<!-- DataType&#45;&gt;Entity -->
<g id="edge21" class="edge">
<title>DataType&#45;&gt;Entity</title>
<path fill="none" stroke="#000000" d="M796.3013,-228.3925C861.9231,-220.778 976.3663,-205.1564 1071.9452,-180 1075.1004,-179.1696 1078.3371,-178.2167 1081.5701,-177.1923"/>
<polygon fill="#000000" stroke="#000000" points="1082.8146,-180.4664 1091.1726,-173.9554 1080.5785,-173.8332 1082.8146,-180.4664"/>
</g>
<!-- DataType&#45;&gt;List -->
<g id="edge24" class="edge">
<title>DataType&#45;&gt;List</title>
<path fill="none" stroke="#000000" d="M797.1586,-229.365C895.9171,-220.5542 1101.2819,-200.4367 1169.9452,-180 1171.8451,-179.4345 1173.7679,-178.7801 1175.6863,-178.0627"/>
<polygon fill="#000000" stroke="#000000" points="1177.2708,-181.1927 1185.115,-174.0709 1174.5417,-174.7466 1177.2708,-181.1927"/>
</g>
<!-- DataType&#45;&gt;Matrix -->
<g id="edge27" class="edge">
<title>DataType&#45;&gt;Matrix</title>
<path fill="none" stroke="#000000" d="M798.6037,-232.223C891.9553,-228.3097 1085.5237,-216.19 1244.9452,-180 1248.2973,-179.239 1251.7337,-178.3276 1255.1617,-177.3243"/>
<polygon fill="#000000" stroke="#000000" points="1256.243,-180.6533 1264.7232,-174.3022 1254.1333,-173.9787 1256.243,-180.6533"/>
</g>
<!-- DataType&#45;&gt;Text -->
<g id="edge28" class="edge">
<title>DataType&#45;&gt;Text</title>
<path fill="none" stroke="#000000" d="M797.1412,-229.4415C955.8154,-216.095 1417.0409,-177.3004 1557.7228,-165.4673"/>
<polygon fill="#000000" stroke="#000000" points="1558.3828,-168.9242 1568.0543,-164.5983 1557.7961,-161.9489 1558.3828,-168.9242"/>
</g>
</g>
</svg>
