<?xml version="1.0" encoding="UTF-8" standalone="no"?>
<!DOCTYPE svg PUBLIC "-//W3C//DTD SVG 1.1//EN"
 "http://www.w3.org/Graphics/SVG/1.1/DTD/svg11.dtd">
<!-- Generated by graphviz version 2.40.1 (20161225.0304)
 -->
<!-- Title: G Pages: 1 -->
<svg width="1568pt" height="260pt"
 viewBox="0.00 0.00 1567.99 260.00" xmlns="http://www.w3.org/2000/svg" xmlns:xlink="http://www.w3.org/1999/xlink">
<g id="graph0" class="graph" transform="scale(1 1) rotate(0) translate(4 256)">
<title>G</title>
<polygon fill="#ffffff" stroke="transparent" points="-4,4 -4,-256 1563.9931,-256 1563.9931,4 -4,4"/>
<!-- Word -->
<g id="node1" class="node">
<title>Word</title>
<ellipse fill="none" stroke="#000000" cx="35.7468" cy="-90" rx="35.9954" ry="18"/>
<text text-anchor="middle" x="35.7468" y="-86.3" font-family="Times,serif" font-size="14.00" fill="#000000">Word</text>
</g>
<!-- CategoricalVector -->
<g id="node2" class="node">
<title>CategoricalVector</title>
<ellipse fill="none" stroke="#000000" cx="444.7468" cy="-90" rx="94.7833" ry="18"/>
<text text-anchor="middle" x="444.7468" y="-86.3" font-family="Times,serif" font-size="14.00" fill="#000000">CategoricalVector</text>
</g>
<!-- MatrixContinuousSparse -->
<g id="node3" class="node">
<title>MatrixContinuousSparse</title>
<ellipse fill="none" stroke="#000000" cx="1358.7468" cy="-18" rx="127.2775" ry="18"/>
<text text-anchor="middle" x="1358.7468" y="-14.3" font-family="Times,serif" font-size="14.00" fill="#000000">MatrixContinuousSparse</text>
</g>
<!-- ContinuousVector -->
<g id="node4" class="node">
<title>ContinuousVector</title>
<ellipse fill="none" stroke="#000000" cx="651.7468" cy="-90" rx="94.4839" ry="18"/>
<text text-anchor="middle" x="651.7468" y="-86.3" font-family="Times,serif" font-size="14.00" fill="#000000">ContinuousVector</text>
</g>
<!-- Tuple -->
<g id="node5" class="node">
<title>Tuple</title>
<ellipse fill="none" stroke="#000000" cx="138.7468" cy="-162" rx="37.0935" ry="18"/>
<text text-anchor="middle" x="138.7468" y="-158.3" font-family="Times,serif" font-size="14.00" fill="#000000">Tuple</text>
</g>
<!-- DenseMatrix -->
<g id="node6" class="node">
<title>DenseMatrix</title>
<ellipse fill="none" stroke="#000000" cx="1013.7468" cy="-90" rx="70.6878" ry="18"/>
<text text-anchor="middle" x="1013.7468" y="-86.3" font-family="Times,serif" font-size="14.00" fill="#000000">DenseMatrix</text>
</g>
<!-- MatrixContinuousDense -->
<g id="node15" class="node">
<title>MatrixContinuousDense</title>
<ellipse fill="none" stroke="#000000" cx="1038.7468" cy="-18" rx="124.2781" ry="18"/>
<text text-anchor="middle" x="1038.7468" y="-14.3" font-family="Times,serif" font-size="14.00" fill="#000000">MatrixContinuousDense</text>
</g>
<!-- DenseMatrix&#45;&gt;MatrixContinuousDense -->
<g id="edge17" class="edge">
<title>DenseMatrix&#45;&gt;MatrixContinuousDense</title>
<path fill="none" stroke="#000000" d="M1020.0554,-71.8314C1022.7585,-64.0463 1025.9785,-54.7729 1028.9778,-46.1347"/>
<polygon fill="#000000" stroke="#000000" points="1032.3795,-47.0081 1032.3533,-36.4133 1025.7668,-44.7119 1032.3795,-47.0081"/>
</g>
<!-- Flags -->
<g id="node7" class="node">
<title>Flags</title>
<ellipse fill="none" stroke="#000000" cx="229.7468" cy="-162" rx="36.2938" ry="18"/>
<text text-anchor="middle" x="229.7468" y="-158.3" font-family="Times,serif" font-size="14.00" fill="#000000">Flags</text>
</g>
<!-- Text -->
<g id="node8" class="node">
<title>Text</title>
<ellipse fill="none" stroke="#000000" cx="315.7468" cy="-162" rx="31.3957" ry="18"/>
<text text-anchor="middle" x="315.7468" y="-158.3" font-family="Times,serif" font-size="14.00" fill="#000000">Text</text>
</g>
<!-- Text&#45;&gt;Word -->
<g id="edge1" class="edge">
<title>Text&#45;&gt;Word</title>
<path fill="none" stroke="#000000" d="M291.8168,-150.395C286.301,-148.0305 280.3935,-145.738 274.7468,-144 190.9328,-118.2032 164.9773,-132.4027 80.7468,-108 78.1101,-107.2361 75.4145,-106.3746 72.718,-105.4527"/>
<polygon fill="#000000" stroke="#000000" points="73.6458,-102.0653 63.052,-101.9167 71.2409,-108.6392 73.6458,-102.0653"/>
</g>
<!-- Document -->
<g id="node11" class="node">
<title>Document</title>
<ellipse fill="none" stroke="#000000" cx="147.7468" cy="-90" rx="58.4896" ry="18"/>
<text text-anchor="middle" x="147.7468" y="-86.3" font-family="Times,serif" font-size="14.00" fill="#000000">Document</text>
</g>
<!-- Text&#45;&gt;Document -->
<g id="edge12" class="edge">
<title>Text&#45;&gt;Document</title>
<path fill="none" stroke="#000000" d="M290.615,-150.9113C285.3759,-148.6152 279.8848,-146.2201 274.7468,-144 247.1758,-132.0867 216.1535,-118.8922 191.6713,-108.528"/>
<polygon fill="#000000" stroke="#000000" points="192.8643,-105.2324 182.2908,-104.5599 190.1371,-111.6793 192.8643,-105.2324"/>
</g>
<!-- Sentence -->
<g id="node25" class="node">
<title>Sentence</title>
<ellipse fill="none" stroke="#000000" cx="277.7468" cy="-90" rx="53.8905" ry="18"/>
<text text-anchor="middle" x="277.7468" y="-86.3" font-family="Times,serif" font-size="14.00" fill="#000000">Sentence</text>
</g>
<!-- Text&#45;&gt;Sentence -->
<g id="edge26" class="edge">
<title>Text&#45;&gt;Sentence</title>
<path fill="none" stroke="#000000" d="M306.5481,-144.5708C302.1331,-136.2055 296.7458,-125.998 291.83,-116.6839"/>
<polygon fill="#000000" stroke="#000000" points="294.8878,-114.9791 287.1248,-107.7689 288.6971,-118.2464 294.8878,-114.9791"/>
</g>
<!-- Vector -->
<g id="node9" class="node">
<title>Vector</title>
<ellipse fill="none" stroke="#000000" cx="444.7468" cy="-162" rx="40.8928" ry="18"/>
<text text-anchor="middle" x="444.7468" y="-158.3" font-family="Times,serif" font-size="14.00" fill="#000000">Vector</text>
</g>
<!-- Vector&#45;&gt;CategoricalVector -->
<g id="edge2" class="edge">
<title>Vector&#45;&gt;CategoricalVector</title>
<path fill="none" stroke="#000000" d="M444.7468,-143.8314C444.7468,-136.131 444.7468,-126.9743 444.7468,-118.4166"/>
<polygon fill="#000000" stroke="#000000" points="448.2469,-118.4132 444.7468,-108.4133 441.2469,-118.4133 448.2469,-118.4132"/>
</g>
<!-- Vector&#45;&gt;ContinuousVector -->
<g id="edge5" class="edge">
<title>Vector&#45;&gt;ContinuousVector</title>
<path fill="none" stroke="#000000" d="M476.463,-150.5052C482.5272,-148.3291 488.829,-146.0828 494.7468,-144 528.0909,-132.2644 565.5177,-119.3803 595.4636,-109.1412"/>
<polygon fill="#000000" stroke="#000000" points="596.984,-112.3205 605.3156,-105.7758 594.7211,-105.6964 596.984,-112.3205"/>
</g>
<!-- DiscreteVector -->
<g id="node18" class="node">
<title>DiscreteVector</title>
<ellipse fill="none" stroke="#000000" cx="844.7468" cy="-90" rx="80.6858" ry="18"/>
<text text-anchor="middle" x="844.7468" y="-86.3" font-family="Times,serif" font-size="14.00" fill="#000000">DiscreteVector</text>
</g>
<!-- Vector&#45;&gt;DiscreteVector -->
<g id="edge20" class="edge">
<title>Vector&#45;&gt;DiscreteVector</title>
<path fill="none" stroke="#000000" d="M475.3777,-149.8407C481.7084,-147.6494 488.3866,-145.567 494.7468,-144 608.0175,-116.0921 639.7213,-127.448 754.7468,-108 761.5028,-106.8577 768.5283,-105.5914 775.5423,-104.2748"/>
<polygon fill="#000000" stroke="#000000" points="776.6126,-107.6337 785.7777,-102.3186 775.2984,-100.7581 776.6126,-107.6337"/>
</g>
<!-- Tensor3 -->
<g id="node10" class="node">
<title>Tensor3</title>
<ellipse fill="none" stroke="#000000" cx="551.7468" cy="-162" rx="48.1917" ry="18"/>
<text text-anchor="middle" x="551.7468" y="-158.3" font-family="Times,serif" font-size="14.00" fill="#000000">Tensor3</text>
</g>
<!-- Summary -->
<g id="node27" class="node">
<title>Summary</title>
<ellipse fill="none" stroke="#000000" cx="147.7468" cy="-18" rx="55.7903" ry="18"/>
<text text-anchor="middle" x="147.7468" y="-14.3" font-family="Times,serif" font-size="14.00" fill="#000000">Summary</text>
</g>
<!-- Document&#45;&gt;Summary -->
<g id="edge28" class="edge">
<title>Document&#45;&gt;Summary</title>
<path fill="none" stroke="#000000" d="M147.7468,-71.8314C147.7468,-64.131 147.7468,-54.9743 147.7468,-46.4166"/>
<polygon fill="#000000" stroke="#000000" points="151.2469,-46.4132 147.7468,-36.4133 144.2469,-46.4133 151.2469,-46.4132"/>
</g>
<!-- Postag -->
<g id="node12" class="node">
<title>Postag</title>
<ellipse fill="none" stroke="#000000" cx="659.7468" cy="-162" rx="42.4939" ry="18"/>
<text text-anchor="middle" x="659.7468" y="-158.3" font-family="Times,serif" font-size="14.00" fill="#000000">Postag</text>
</g>
<!-- Sentiment -->
<g id="node13" class="node">
<title>Sentiment</title>
<ellipse fill="none" stroke="#000000" cx="778.7468" cy="-162" rx="59.2899" ry="18"/>
<text text-anchor="middle" x="778.7468" y="-158.3" font-family="Times,serif" font-size="14.00" fill="#000000">Sentiment</text>
</g>
<!-- Stem -->
<g id="node14" class="node">
<title>Stem</title>
<ellipse fill="none" stroke="#000000" cx="890.7468" cy="-162" rx="35.194" ry="18"/>
<text text-anchor="middle" x="890.7468" y="-158.3" font-family="Times,serif" font-size="14.00" fill="#000000">Stem</text>
</g>
<!-- MatrixContinuous -->
<g id="node16" class="node">
<title>MatrixContinuous</title>
<ellipse fill="none" stroke="#000000" cx="1197.7468" cy="-90" rx="94.7833" ry="18"/>
<text text-anchor="middle" x="1197.7468" y="-86.3" font-family="Times,serif" font-size="14.00" fill="#000000">MatrixContinuous</text>
</g>
<!-- MatrixContinuous&#45;&gt;MatrixContinuousSparse -->
<g id="edge3" class="edge">
<title>MatrixContinuous&#45;&gt;MatrixContinuousSparse</title>
<path fill="none" stroke="#000000" d="M1235.0881,-73.3008C1257.64,-63.2155 1286.6079,-50.2609 1310.8368,-39.4256"/>
<polygon fill="#000000" stroke="#000000" points="1312.509,-42.5119 1320.2089,-35.2344 1309.6513,-36.1218 1312.509,-42.5119"/>
</g>
<!-- MatrixContinuous&#45;&gt;MatrixContinuousDense -->
<g id="edge16" class="edge">
<title>MatrixContinuous&#45;&gt;MatrixContinuousDense</title>
<path fill="none" stroke="#000000" d="M1160.8694,-73.3008C1138.5977,-63.2155 1109.9896,-50.2609 1086.0617,-39.4256"/>
<polygon fill="#000000" stroke="#000000" points="1087.3594,-36.1711 1076.806,-35.2344 1084.4718,-42.5478 1087.3594,-36.1711"/>
</g>
<!-- Entity -->
<g id="node17" class="node">
<title>Entity</title>
<ellipse fill="none" stroke="#000000" cx="983.7468" cy="-162" rx="39.7935" ry="18"/>
<text text-anchor="middle" x="983.7468" y="-158.3" font-family="Times,serif" font-size="14.00" fill="#000000">Entity</text>
</g>
<!-- SparseMatrix -->
<g id="node19" class="node">
<title>SparseMatrix</title>
<ellipse fill="none" stroke="#000000" cx="1384.7468" cy="-90" rx="74.187" ry="18"/>
<text text-anchor="middle" x="1384.7468" y="-86.3" font-family="Times,serif" font-size="14.00" fill="#000000">SparseMatrix</text>
</g>
<!-- SparseMatrix&#45;&gt;MatrixContinuousSparse -->
<g id="edge4" class="edge">
<title>SparseMatrix&#45;&gt;MatrixContinuousSparse</title>
<path fill="none" stroke="#000000" d="M1378.1859,-71.8314C1375.3441,-63.9617 1371.9531,-54.5712 1368.805,-45.8533"/>
<polygon fill="#000000" stroke="#000000" points="1372.0845,-44.63 1365.3961,-36.4133 1365.5006,-47.0076 1372.0845,-44.63"/>
</g>
<!-- List -->
<g id="node20" class="node">
<title>List</title>
<ellipse fill="none" stroke="#000000" cx="1069.7468" cy="-162" rx="28.6953" ry="18"/>
<text text-anchor="middle" x="1069.7468" y="-158.3" font-family="Times,serif" font-size="14.00" fill="#000000">List</text>
</g>
<!-- Matrix -->
<g id="node21" class="node">
<title>Matrix</title>
<ellipse fill="none" stroke="#000000" cx="1158.7468" cy="-162" rx="42.4939" ry="18"/>
<text text-anchor="middle" x="1158.7468" y="-158.3" font-family="Times,serif" font-size="14.00" fill="#000000">Matrix</text>
</g>
<!-- Matrix&#45;&gt;DenseMatrix -->
<g id="edge7" class="edge">
<title>Matrix&#45;&gt;DenseMatrix</title>
<path fill="none" stroke="#000000" d="M1131.1321,-148.2879C1109.6383,-137.6151 1079.4669,-122.6334 1055.095,-110.5315"/>
<polygon fill="#000000" stroke="#000000" points="1056.5817,-107.362 1046.0684,-106.0494 1053.4684,-113.6316 1056.5817,-107.362"/>
</g>
<!-- Matrix&#45;&gt;MatrixContinuous -->
<g id="edge18" class="edge">
<title>Matrix&#45;&gt;MatrixContinuous</title>
<path fill="none" stroke="#000000" d="M1168.3873,-144.2022C1172.807,-136.0428 1178.1437,-126.1904 1183.0483,-117.1358"/>
<polygon fill="#000000" stroke="#000000" points="1186.261,-118.5531 1187.9464,-108.0931 1180.106,-115.219 1186.261,-118.5531"/>
</g>
<!-- Matrix&#45;&gt;SparseMatrix -->
<g id="edge21" class="edge">
<title>Matrix&#45;&gt;SparseMatrix</title>
<path fill="none" stroke="#000000" d="M1191.0553,-150.378C1197.2447,-148.2137 1203.6847,-146.0042 1209.7468,-144 1249.0378,-131.01 1293.6108,-117.2706 1327.9391,-106.9015"/>
<polygon fill="#000000" stroke="#000000" points="1329.2255,-110.1694 1337.7906,-103.9332 1327.206,-103.467 1329.2255,-110.1694"/>
</g>
<!-- DataType -->
<g id="node22" class="node">
<title>DataType</title>
<ellipse fill="none" stroke="#000000" cx="834.7468" cy="-234" rx="55.7903" ry="18"/>
<text text-anchor="middle" x="834.7468" y="-230.3" font-family="Times,serif" font-size="14.00" fill="#000000">DataType</text>
</g>
<!-- DataType&#45;&gt;Tuple -->
<g id="edge6" class="edge">
<title>DataType&#45;&gt;Tuple</title>
<path fill="none" stroke="#000000" d="M779.1122,-231.4516C643.2117,-224.8935 297.2601,-206.0995 184.7468,-180 181.7525,-179.3054 178.6948,-178.4524 175.6503,-177.4991"/>
<polygon fill="#000000" stroke="#000000" points="176.6592,-174.1446 166.0644,-174.183 174.3707,-180.76 176.6592,-174.1446"/>
</g>
<!-- DataType&#45;&gt;Flags -->
<g id="edge8" class="edge">
<title>DataType&#45;&gt;Flags</title>
<path fill="none" stroke="#000000" d="M779.8155,-230.6327C658.4209,-222.8765 370.5754,-202.6686 275.7468,-180 272.7572,-179.2853 269.7029,-178.4179 266.6608,-177.4545"/>
<polygon fill="#000000" stroke="#000000" points="267.674,-174.1013 257.0792,-174.1202 265.3734,-180.7125 267.674,-174.1013"/>
</g>
<!-- DataType&#45;&gt;Text -->
<g id="edge9" class="edge">
<title>DataType&#45;&gt;Text</title>
<path fill="none" stroke="#000000" d="M780.6367,-229.1512C697.3568,-221.2854 532.9147,-204.1544 394.7468,-180 381.517,-177.6872 367.1669,-174.5958 354.3723,-171.6283"/>
<polygon fill="#000000" stroke="#000000" points="355.0331,-168.1881 344.4959,-169.2922 353.4218,-175.0001 355.0331,-168.1881"/>
</g>
<!-- DataType&#45;&gt;Vector -->
<g id="edge10" class="edge">
<title>DataType&#45;&gt;Vector</title>
<path fill="none" stroke="#000000" d="M781.1099,-228.6377C713.5681,-221.1671 594.3123,-205.5857 494.7468,-180 491.5747,-179.1848 488.3208,-178.2496 485.0689,-177.2433"/>
<polygon fill="#000000" stroke="#000000" points="485.9957,-173.8637 475.4027,-174.0601 483.8061,-180.5124 485.9957,-173.8637"/>
</g>
<!-- DataType&#45;&gt;Tensor3 -->
<g id="edge11" class="edge">
<title>DataType&#45;&gt;Tensor3</title>
<path fill="none" stroke="#000000" d="M788.1857,-223.8949C742.3175,-213.7009 670.3666,-197.0677 608.7468,-180 605.1871,-179.014 601.5154,-177.9542 597.8315,-176.8603"/>
<polygon fill="#000000" stroke="#000000" points="598.7063,-173.4681 588.1208,-173.9117 596.6725,-180.1662 598.7063,-173.4681"/>
</g>
<!-- DataType&#45;&gt;Postag -->
<g id="edge13" class="edge">
<title>DataType&#45;&gt;Postag</title>
<path fill="none" stroke="#000000" d="M800.1725,-219.7751C771.2303,-207.8675 729.9136,-190.8686 699.5878,-178.3917"/>
<polygon fill="#000000" stroke="#000000" points="700.7372,-175.08 690.1576,-174.5119 698.0738,-181.5535 700.7372,-175.08"/>
</g>
<!-- DataType&#45;&gt;Sentiment -->
<g id="edge14" class="edge">
<title>DataType&#45;&gt;Sentiment</title>
<path fill="none" stroke="#000000" d="M820.9041,-216.2022C814.1905,-207.5704 806.0032,-197.0439 798.6359,-187.5717"/>
<polygon fill="#000000" stroke="#000000" points="801.3325,-185.3378 792.4303,-179.593 795.807,-189.6354 801.3325,-185.3378"/>
</g>
<!-- DataType&#45;&gt;Stem -->
<g id="edge15" class="edge">
<title>DataType&#45;&gt;Stem</title>
<path fill="none" stroke="#000000" d="M848.5895,-216.2022C855.4034,-207.4416 863.7352,-196.7293 871.1871,-187.1482"/>
<polygon fill="#000000" stroke="#000000" points="874.0723,-189.1396 877.449,-179.0972 868.5468,-184.842 874.0723,-189.1396"/>
</g>
<!-- DataType&#45;&gt;Entity -->
<g id="edge19" class="edge">
<title>DataType&#45;&gt;Entity</title>
<path fill="none" stroke="#000000" d="M865.9821,-218.9064C889.7419,-207.4252 922.4864,-191.6023 947.4173,-179.5552"/>
<polygon fill="#000000" stroke="#000000" points="949.0736,-182.6421 956.5547,-175.1398 946.028,-176.3394 949.0736,-182.6421"/>
</g>
<!-- DataType&#45;&gt;List -->
<g id="edge22" class="edge">
<title>DataType&#45;&gt;List</title>
<path fill="none" stroke="#000000" d="M881.129,-223.9387C921.7537,-214.5185 982.051,-199.054 1032.7468,-180 1034.6024,-179.3026 1036.4904,-178.5449 1038.3821,-177.7481"/>
<polygon fill="#000000" stroke="#000000" points="1040.0548,-180.8335 1047.7372,-173.5375 1037.1818,-174.4502 1040.0548,-180.8335"/>
</g>
<!-- DataType&#45;&gt;Matrix -->
<g id="edge23" class="edge">
<title>DataType&#45;&gt;Matrix</title>
<path fill="none" stroke="#000000" d="M885.3174,-226.2397C940.5034,-217.2527 1031.2087,-200.9592 1107.7468,-180 1110.9164,-179.132 1114.1727,-178.1649 1117.4326,-177.1421"/>
<polygon fill="#000000" stroke="#000000" points="1118.7344,-180.3984 1127.1403,-173.9494 1116.5474,-173.7488 1118.7344,-180.3984"/>
</g>
<!-- Category -->
<g id="node23" class="node">
<title>Category</title>
<ellipse fill="none" stroke="#000000" cx="1272.7468" cy="-162" rx="53.8905" ry="18"/>
<text text-anchor="middle" x="1272.7468" y="-158.3" font-family="Times,serif" font-size="14.00" fill="#000000">Category</text>
</g>
<!-- DataType&#45;&gt;Category -->
<g id="edge24" class="edge">
<title>DataType&#45;&gt;Category</title>
<path fill="none" stroke="#000000" d="M888.2446,-228.6011C961.364,-220.6995 1096.38,-204.2413 1209.7468,-180 1214.1198,-179.0649 1218.6354,-177.9925 1223.1467,-176.8471"/>
<polygon fill="#000000" stroke="#000000" points="1224.1885,-180.1919 1232.9587,-174.2477 1222.3959,-173.4253 1224.1885,-180.1919"/>
</g>
<!-- Chunktag -->
<g id="node24" class="node">
<title>Chunktag</title>
<ellipse fill="none" stroke="#000000" cx="1400.7468" cy="-162" rx="56.59" ry="18"/>
<text text-anchor="middle" x="1400.7468" y="-158.3" font-family="Times,serif" font-size="14.00" fill="#000000">Chunktag</text>
</g>
<!-- DataType&#45;&gt;Chunktag -->
<g id="edge25" class="edge">
<title>DataType&#45;&gt;Chunktag</title>
<path fill="none" stroke="#000000" d="M890.0394,-230.9903C982.8337,-225.2827 1175.4892,-210.615 1335.7468,-180 1340.3905,-179.1129 1345.1863,-178.0579 1349.9706,-176.91"/>
<polygon fill="#000000" stroke="#000000" points="1350.884,-180.2893 1359.7227,-174.4473 1349.1701,-173.5023 1350.884,-180.2893"/>
</g>
<!-- Synset -->
<g id="node26" class="node">
<title>Synset</title>
<ellipse fill="none" stroke="#000000" cx="1517.7468" cy="-162" rx="42.4939" ry="18"/>
<text text-anchor="middle" x="1517.7468" y="-158.3" font-family="Times,serif" font-size="14.00" fill="#000000">Synset</text>
</g>
<!-- DataType&#45;&gt;Synset -->
<g id="edge27" class="edge">
<title>DataType&#45;&gt;Synset</title>
<path fill="none" stroke="#000000" d="M890.2549,-231.0697C1023.2815,-223.7551 1357.347,-203.5768 1466.7468,-180 1470.1544,-179.2656 1473.6463,-178.3657 1477.1262,-177.3637"/>
<polygon fill="#000000" stroke="#000000" points="1478.3283,-180.6548 1486.8223,-174.3221 1476.2331,-173.9757 1478.3283,-180.6548"/>
</g>
</g>
</svg>
