<?xml version="1.0" encoding="UTF-8" standalone="no"?>
<!DOCTYPE svg PUBLIC "-//W3C//DTD SVG 1.1//EN"
 "http://www.w3.org/Graphics/SVG/1.1/DTD/svg11.dtd">
<!-- Generated by graphviz version 2.40.1 (20161225.0304)
 -->
<!-- Title: G Pages: 1 -->
<svg width="1565pt" height="260pt"
 viewBox="0.00 0.00 1565.28 260.00" xmlns="http://www.w3.org/2000/svg" xmlns:xlink="http://www.w3.org/1999/xlink">
<g id="graph0" class="graph" transform="scale(1 1) rotate(0) translate(4 256)">
<title>G</title>
<polygon fill="#ffffff" stroke="transparent" points="-4,4 -4,-256 1561.2803,-256 1561.2803,4 -4,4"/>
<!-- Summary -->
<g id="node1" class="node">
<title>Summary</title>
<ellipse fill="none" stroke="#000000" cx="811.8916" cy="-18" rx="55.7903" ry="18"/>
<text text-anchor="middle" x="811.8916" y="-14.3" font-family="Times,serif" font-size="14.00" fill="#000000">Summary</text>
</g>
<!-- CategoricalVector -->
<g id="node2" class="node">
<title>CategoricalVector</title>
<ellipse fill="none" stroke="#000000" cx="94.8916" cy="-90" rx="94.7833" ry="18"/>
<text text-anchor="middle" x="94.8916" y="-86.3" font-family="Times,serif" font-size="14.00" fill="#000000">CategoricalVector</text>
</g>
<!-- MatrixContinuousSparse -->
<g id="node3" class="node">
<title>MatrixContinuousSparse</title>
<ellipse fill="none" stroke="#000000" cx="1429.8916" cy="-18" rx="127.2775" ry="18"/>
<text text-anchor="middle" x="1429.8916" y="-14.3" font-family="Times,serif" font-size="14.00" fill="#000000">MatrixContinuousSparse</text>
</g>
<!-- ContinuousVector -->
<g id="node4" class="node">
<title>ContinuousVector</title>
<ellipse fill="none" stroke="#000000" cx="301.8916" cy="-90" rx="94.4839" ry="18"/>
<text text-anchor="middle" x="301.8916" y="-86.3" font-family="Times,serif" font-size="14.00" fill="#000000">ContinuousVector</text>
</g>
<!-- Word -->
<g id="node5" class="node">
<title>Word</title>
<ellipse fill="none" stroke="#000000" cx="699.8916" cy="-90" rx="35.9954" ry="18"/>
<text text-anchor="middle" x="699.8916" y="-86.3" font-family="Times,serif" font-size="14.00" fill="#000000">Word</text>
</g>
<!-- Tuple -->
<g id="node6" class="node">
<title>Tuple</title>
<ellipse fill="none" stroke="#000000" cx="115.8916" cy="-162" rx="37.0935" ry="18"/>
<text text-anchor="middle" x="115.8916" y="-158.3" font-family="Times,serif" font-size="14.00" fill="#000000">Tuple</text>
</g>
<!-- DenseMatrix -->
<g id="node7" class="node">
<title>DenseMatrix</title>
<ellipse fill="none" stroke="#000000" cx="1084.8916" cy="-90" rx="70.6878" ry="18"/>
<text text-anchor="middle" x="1084.8916" y="-86.3" font-family="Times,serif" font-size="14.00" fill="#000000">DenseMatrix</text>
</g>
<!-- MatrixContinuousDense -->
<g id="node26" class="node">
<title>MatrixContinuousDense</title>
<ellipse fill="none" stroke="#000000" cx="1109.8916" cy="-18" rx="124.2781" ry="18"/>
<text text-anchor="middle" x="1109.8916" y="-14.3" font-family="Times,serif" font-size="14.00" fill="#000000">MatrixContinuousDense</text>
</g>
<!-- DenseMatrix&#45;&gt;MatrixContinuousDense -->
<g id="edge28" class="edge">
<title>DenseMatrix&#45;&gt;MatrixContinuousDense</title>
<path fill="none" stroke="#000000" d="M1091.2001,-71.8314C1093.9033,-64.0463 1097.1232,-54.7729 1100.1226,-46.1347"/>
<polygon fill="#000000" stroke="#000000" points="1103.5243,-47.0081 1103.4981,-36.4133 1096.9115,-44.7119 1103.5243,-47.0081"/>
</g>
<!-- Flags -->
<g id="node8" class="node">
<title>Flags</title>
<ellipse fill="none" stroke="#000000" cx="206.8916" cy="-162" rx="36.2938" ry="18"/>
<text text-anchor="middle" x="206.8916" y="-158.3" font-family="Times,serif" font-size="14.00" fill="#000000">Flags</text>
</g>
<!-- Vector -->
<g id="node9" class="node">
<title>Vector</title>
<ellipse fill="none" stroke="#000000" cx="301.8916" cy="-162" rx="40.8928" ry="18"/>
<text text-anchor="middle" x="301.8916" y="-158.3" font-family="Times,serif" font-size="14.00" fill="#000000">Vector</text>
</g>
<!-- Vector&#45;&gt;CategoricalVector -->
<g id="edge2" class="edge">
<title>Vector&#45;&gt;CategoricalVector</title>
<path fill="none" stroke="#000000" d="M270.1754,-150.5052C264.1112,-148.3291 257.8094,-146.0828 251.8916,-144 218.5475,-132.2644 181.1207,-119.3803 151.1748,-109.1412"/>
<polygon fill="#000000" stroke="#000000" points="151.9173,-105.6964 141.3228,-105.7758 149.6544,-112.3205 151.9173,-105.6964"/>
</g>
<!-- Vector&#45;&gt;ContinuousVector -->
<g id="edge5" class="edge">
<title>Vector&#45;&gt;ContinuousVector</title>
<path fill="none" stroke="#000000" d="M301.8916,-143.8314C301.8916,-136.131 301.8916,-126.9743 301.8916,-118.4166"/>
<polygon fill="#000000" stroke="#000000" points="305.3917,-118.4132 301.8916,-108.4133 298.3917,-118.4133 305.3917,-118.4132"/>
</g>
<!-- DiscreteVector -->
<g id="node18" class="node">
<title>DiscreteVector</title>
<ellipse fill="none" stroke="#000000" cx="494.8916" cy="-90" rx="80.6858" ry="18"/>
<text text-anchor="middle" x="494.8916" y="-86.3" font-family="Times,serif" font-size="14.00" fill="#000000">DiscreteVector</text>
</g>
<!-- Vector&#45;&gt;DiscreteVector -->
<g id="edge19" class="edge">
<title>Vector&#45;&gt;DiscreteVector</title>
<path fill="none" stroke="#000000" d="M333.3299,-150.2717C363.2062,-139.1262 408.6561,-122.1707 443.7479,-109.0795"/>
<polygon fill="#000000" stroke="#000000" points="445.2034,-112.2722 453.3493,-105.4976 442.7567,-105.7137 445.2034,-112.2722"/>
</g>
<!-- Tensor3 -->
<g id="node10" class="node">
<title>Tensor3</title>
<ellipse fill="none" stroke="#000000" cx="408.8916" cy="-162" rx="48.1917" ry="18"/>
<text text-anchor="middle" x="408.8916" y="-158.3" font-family="Times,serif" font-size="14.00" fill="#000000">Tensor3</text>
</g>
<!-- Postag -->
<g id="node11" class="node">
<title>Postag</title>
<ellipse fill="none" stroke="#000000" cx="516.8916" cy="-162" rx="42.4939" ry="18"/>
<text text-anchor="middle" x="516.8916" y="-158.3" font-family="Times,serif" font-size="14.00" fill="#000000">Postag</text>
</g>
<!-- Document -->
<g id="node12" class="node">
<title>Document</title>
<ellipse fill="none" stroke="#000000" cx="811.8916" cy="-90" rx="58.4896" ry="18"/>
<text text-anchor="middle" x="811.8916" y="-86.3" font-family="Times,serif" font-size="14.00" fill="#000000">Document</text>
</g>
<!-- Document&#45;&gt;Summary -->
<g id="edge1" class="edge">
<title>Document&#45;&gt;Summary</title>
<path fill="none" stroke="#000000" d="M811.8916,-71.8314C811.8916,-64.131 811.8916,-54.9743 811.8916,-46.4166"/>
<polygon fill="#000000" stroke="#000000" points="815.3917,-46.4132 811.8916,-36.4133 808.3917,-46.4133 815.3917,-46.4132"/>
</g>
<!-- Stem -->
<g id="node13" class="node">
<title>Stem</title>
<ellipse fill="none" stroke="#000000" cx="611.8916" cy="-162" rx="35.194" ry="18"/>
<text text-anchor="middle" x="611.8916" y="-158.3" font-family="Times,serif" font-size="14.00" fill="#000000">Stem</text>
</g>
<!-- Sentiment -->
<g id="node14" class="node">
<title>Sentiment</title>
<ellipse fill="none" stroke="#000000" cx="723.8916" cy="-162" rx="59.2899" ry="18"/>
<text text-anchor="middle" x="723.8916" y="-158.3" font-family="Times,serif" font-size="14.00" fill="#000000">Sentiment</text>
</g>
<!-- MatrixContinuous -->
<g id="node15" class="node">
<title>MatrixContinuous</title>
<ellipse fill="none" stroke="#000000" cx="1268.8916" cy="-90" rx="94.7833" ry="18"/>
<text text-anchor="middle" x="1268.8916" y="-86.3" font-family="Times,serif" font-size="14.00" fill="#000000">MatrixContinuous</text>
</g>
<!-- MatrixContinuous&#45;&gt;MatrixContinuousSparse -->
<g id="edge3" class="edge">
<title>MatrixContinuous&#45;&gt;MatrixContinuousSparse</title>
<path fill="none" stroke="#000000" d="M1306.2329,-73.3008C1328.7848,-63.2155 1357.7526,-50.2609 1381.9816,-39.4256"/>
<polygon fill="#000000" stroke="#000000" points="1383.6538,-42.5119 1391.3537,-35.2344 1380.796,-36.1218 1383.6538,-42.5119"/>
</g>
<!-- MatrixContinuous&#45;&gt;MatrixContinuousDense -->
<g id="edge27" class="edge">
<title>MatrixContinuous&#45;&gt;MatrixContinuousDense</title>
<path fill="none" stroke="#000000" d="M1232.0141,-73.3008C1209.7424,-63.2155 1181.1344,-50.2609 1157.2064,-39.4256"/>
<polygon fill="#000000" stroke="#000000" points="1158.5041,-36.1711 1147.9508,-35.2344 1155.6165,-42.5478 1158.5041,-36.1711"/>
</g>
<!-- Entity -->
<g id="node16" class="node">
<title>Entity</title>
<ellipse fill="none" stroke="#000000" cx="840.8916" cy="-162" rx="39.7935" ry="18"/>
<text text-anchor="middle" x="840.8916" y="-158.3" font-family="Times,serif" font-size="14.00" fill="#000000">Entity</text>
</g>
<!-- Sentence -->
<g id="node17" class="node">
<title>Sentence</title>
<ellipse fill="none" stroke="#000000" cx="941.8916" cy="-90" rx="53.8905" ry="18"/>
<text text-anchor="middle" x="941.8916" y="-86.3" font-family="Times,serif" font-size="14.00" fill="#000000">Sentence</text>
</g>
<!-- SparseMatrix -->
<g id="node19" class="node">
<title>SparseMatrix</title>
<ellipse fill="none" stroke="#000000" cx="1455.8916" cy="-90" rx="74.187" ry="18"/>
<text text-anchor="middle" x="1455.8916" y="-86.3" font-family="Times,serif" font-size="14.00" fill="#000000">SparseMatrix</text>
</g>
<!-- SparseMatrix&#45;&gt;MatrixContinuousSparse -->
<g id="edge4" class="edge">
<title>SparseMatrix&#45;&gt;MatrixContinuousSparse</title>
<path fill="none" stroke="#000000" d="M1449.3307,-71.8314C1446.4889,-63.9617 1443.0978,-54.5712 1439.9497,-45.8533"/>
<polygon fill="#000000" stroke="#000000" points="1443.2293,-44.63 1436.5408,-36.4133 1436.6454,-47.0076 1443.2293,-44.63"/>
</g>
<!-- Text -->
<g id="node20" class="node">
<title>Text</title>
<ellipse fill="none" stroke="#000000" cx="929.8916" cy="-162" rx="31.3957" ry="18"/>
<text text-anchor="middle" x="929.8916" y="-158.3" font-family="Times,serif" font-size="14.00" fill="#000000">Text</text>
</g>
<!-- Text&#45;&gt;Word -->
<g id="edge6" class="edge">
<title>Text&#45;&gt;Word</title>
<path fill="none" stroke="#000000" d="M905.6344,-150.2491C900.5041,-148.001 895.0731,-145.7928 889.8916,-144 827.1406,-122.2883 808.0882,-128.3782 744.8916,-108 742.1888,-107.1285 739.4165,-106.1739 736.6401,-105.1733"/>
<polygon fill="#000000" stroke="#000000" points="737.8709,-101.8969 727.279,-101.6479 735.4038,-108.4478 737.8709,-101.8969"/>
</g>
<!-- Text&#45;&gt;Document -->
<g id="edge13" class="edge">
<title>Text&#45;&gt;Document</title>
<path fill="none" stroke="#000000" d="M908.2486,-148.7941C891.17,-138.3733 866.9971,-123.6237 847.1358,-111.5049"/>
<polygon fill="#000000" stroke="#000000" points="848.7142,-108.3679 838.3547,-106.147 845.0681,-114.3434 848.7142,-108.3679"/>
</g>
<!-- Text&#45;&gt;Sentence -->
<g id="edge18" class="edge">
<title>Text&#45;&gt;Sentence</title>
<path fill="none" stroke="#000000" d="M932.9197,-143.8314C934.2031,-136.131 935.7292,-126.9743 937.1555,-118.4166"/>
<polygon fill="#000000" stroke="#000000" points="940.631,-118.8526 938.8227,-108.4133 933.7263,-117.7018 940.631,-118.8526"/>
</g>
<!-- List -->
<g id="node21" class="node">
<title>List</title>
<ellipse fill="none" stroke="#000000" cx="1007.8916" cy="-162" rx="28.6953" ry="18"/>
<text text-anchor="middle" x="1007.8916" y="-158.3" font-family="Times,serif" font-size="14.00" fill="#000000">List</text>
</g>
<!-- Matrix -->
<g id="node22" class="node">
<title>Matrix</title>
<ellipse fill="none" stroke="#000000" cx="1096.8916" cy="-162" rx="42.4939" ry="18"/>
<text text-anchor="middle" x="1096.8916" y="-158.3" font-family="Times,serif" font-size="14.00" fill="#000000">Matrix</text>
</g>
<!-- Matrix&#45;&gt;DenseMatrix -->
<g id="edge8" class="edge">
<title>Matrix&#45;&gt;DenseMatrix</title>
<path fill="none" stroke="#000000" d="M1093.8635,-143.8314C1092.5801,-136.131 1091.054,-126.9743 1089.6277,-118.4166"/>
<polygon fill="#000000" stroke="#000000" points="1093.0569,-117.7018 1087.9605,-108.4133 1086.1522,-118.8526 1093.0569,-117.7018"/>
</g>
<!-- Matrix&#45;&gt;MatrixContinuous -->
<g id="edge16" class="edge">
<title>Matrix&#45;&gt;MatrixContinuous</title>
<path fill="none" stroke="#000000" d="M1127.2458,-149.2936C1152.9176,-138.5473 1190.1826,-122.9479 1220.047,-110.4466"/>
<polygon fill="#000000" stroke="#000000" points="1221.5862,-113.5966 1229.4591,-106.5066 1218.8832,-107.1395 1221.5862,-113.5966"/>
</g>
<!-- Matrix&#45;&gt;SparseMatrix -->
<g id="edge20" class="edge">
<title>Matrix&#45;&gt;SparseMatrix</title>
<path fill="none" stroke="#000000" d="M1128.4494,-149.8663C1134.8221,-147.6992 1141.5216,-145.6196 1147.8916,-144 1246.0408,-119.0456 1273.3684,-126.7389 1372.8916,-108 1378.9774,-106.8541 1385.3004,-105.5997 1391.6189,-104.3033"/>
<polygon fill="#000000" stroke="#000000" points="1392.4346,-107.7086 1401.5096,-102.2409 1391.0057,-100.8559 1392.4346,-107.7086"/>
</g>
<!-- Category -->
<g id="node23" class="node">
<title>Category</title>
<ellipse fill="none" stroke="#000000" cx="1210.8916" cy="-162" rx="53.8905" ry="18"/>
<text text-anchor="middle" x="1210.8916" y="-158.3" font-family="Times,serif" font-size="14.00" fill="#000000">Category</text>
</g>
<!-- Chunktag -->
<g id="node24" class="node">
<title>Chunktag</title>
<ellipse fill="none" stroke="#000000" cx="1338.8916" cy="-162" rx="56.59" ry="18"/>
<text text-anchor="middle" x="1338.8916" y="-158.3" font-family="Times,serif" font-size="14.00" fill="#000000">Chunktag</text>
</g>
<!-- Synset -->
<g id="node25" class="node">
<title>Synset</title>
<ellipse fill="none" stroke="#000000" cx="1455.8916" cy="-162" rx="42.4939" ry="18"/>
<text text-anchor="middle" x="1455.8916" y="-158.3" font-family="Times,serif" font-size="14.00" fill="#000000">Synset</text>
</g>
<!-- DataType -->
<g id="node27" class="node">
<title>DataType</title>
<ellipse fill="none" stroke="#000000" cx="781.8916" cy="-234" rx="55.7903" ry="18"/>
<text text-anchor="middle" x="781.8916" y="-230.3" font-family="Times,serif" font-size="14.00" fill="#000000">DataType</text>
</g>
<!-- DataType&#45;&gt;Tuple -->
<g id="edge7" class="edge">
<title>DataType&#45;&gt;Tuple</title>
<path fill="none" stroke="#000000" d="M726.4177,-231.203C595.1554,-224.2569 268.5409,-204.9637 161.8916,-180 158.8986,-179.2994 155.842,-178.4422 152.7982,-177.4858"/>
<polygon fill="#000000" stroke="#000000" points="153.8083,-174.1317 143.2135,-174.1643 151.5162,-180.7458 153.8083,-174.1317"/>
</g>
<!-- DataType&#45;&gt;Flags -->
<g id="edge9" class="edge">
<title>DataType&#45;&gt;Flags</title>
<path fill="none" stroke="#000000" d="M726.7388,-230.3367C609.9099,-222.2581 340.9225,-201.8838 251.8916,-180 249.2258,-179.3447 246.5085,-178.5642 243.7963,-177.7008"/>
<polygon fill="#000000" stroke="#000000" points="244.6922,-174.3057 234.0973,-174.2883 242.3688,-180.9089 244.6922,-174.3057"/>
</g>
<!-- DataType&#45;&gt;Vector -->
<g id="edge10" class="edge">
<title>DataType&#45;&gt;Vector</title>
<path fill="none" stroke="#000000" d="M726.5534,-230.9619C644.0003,-225.5543 484.1408,-211.6974 351.8916,-180 348.6617,-179.2259 345.3515,-178.3135 342.0474,-177.3171"/>
<polygon fill="#000000" stroke="#000000" points="342.8319,-173.8919 332.2398,-174.1299 340.6685,-180.5492 342.8319,-173.8919"/>
</g>
<!-- DataType&#45;&gt;Tensor3 -->
<g id="edge11" class="edge">
<title>DataType&#45;&gt;Tensor3</title>
<path fill="none" stroke="#000000" d="M729.7218,-227.3129C666.7045,-218.7247 557.7148,-202.2338 465.8916,-180 462.0857,-179.0784 458.1633,-178.0375 454.2415,-176.9323"/>
<polygon fill="#000000" stroke="#000000" points="455.1422,-173.549 444.5609,-174.0845 453.1666,-180.2645 455.1422,-173.549"/>
</g>
<!-- DataType&#45;&gt;Postag -->
<g id="edge12" class="edge">
<title>DataType&#45;&gt;Postag</title>
<path fill="none" stroke="#000000" d="M735.6358,-223.6273C692.0638,-213.5507 625.1151,-197.278 567.8916,-180 564.7905,-179.0637 561.599,-178.0528 558.3978,-177.0045"/>
<polygon fill="#000000" stroke="#000000" points="559.4398,-173.6623 548.8456,-173.7843 557.2036,-180.2955 559.4398,-173.6623"/>
</g>
<!-- DataType&#45;&gt;Stem -->
<g id="edge14" class="edge">
<title>DataType&#45;&gt;Stem</title>
<path fill="none" stroke="#000000" d="M747.8981,-219.6028C719.1702,-207.4357 678.1072,-190.0442 648.6279,-177.5589"/>
<polygon fill="#000000" stroke="#000000" points="649.6824,-174.2046 639.1093,-173.5275 646.9524,-180.6503 649.6824,-174.2046"/>
</g>
<!-- DataType&#45;&gt;Sentiment -->
<g id="edge15" class="edge">
<title>DataType&#45;&gt;Sentiment</title>
<path fill="none" stroke="#000000" d="M767.8514,-216.5708C760.7795,-207.7919 752.0732,-196.9841 744.2796,-187.3093"/>
<polygon fill="#000000" stroke="#000000" points="747.0025,-185.1101 738.0035,-179.5182 741.5512,-189.5015 747.0025,-185.1101"/>
</g>
<!-- DataType&#45;&gt;Entity -->
<g id="edge17" class="edge">
<title>DataType&#45;&gt;Entity</title>
<path fill="none" stroke="#000000" d="M796.1738,-216.5708C803.4209,-207.7269 812.3553,-196.8239 820.3281,-187.0945"/>
<polygon fill="#000000" stroke="#000000" points="823.1098,-189.2219 826.7409,-179.2687 817.6954,-184.7851 823.1098,-189.2219"/>
</g>
<!-- DataType&#45;&gt;Text -->
<g id="edge21" class="edge">
<title>DataType&#45;&gt;Text</title>
<path fill="none" stroke="#000000" d="M812.9172,-218.9064C837.4195,-206.9864 871.5413,-190.3866 896.61,-178.191"/>
<polygon fill="#000000" stroke="#000000" points="898.2745,-181.2736 905.7357,-173.7515 895.2122,-174.9789 898.2745,-181.2736"/>
</g>
<!-- DataType&#45;&gt;List -->
<g id="edge22" class="edge">
<title>DataType&#45;&gt;List</title>
<path fill="none" stroke="#000000" d="M827.001,-223.2442C865.5077,-213.5434 922.0788,-198.0536 969.8916,-180 971.7867,-179.2844 973.7175,-178.5125 975.6539,-177.7048"/>
<polygon fill="#000000" stroke="#000000" points="977.514,-180.7092 985.2443,-173.464 974.6831,-174.3072 977.514,-180.7092"/>
</g>
<!-- DataType&#45;&gt;Matrix -->
<g id="edge23" class="edge">
<title>DataType&#45;&gt;Matrix</title>
<path fill="none" stroke="#000000" d="M832.0074,-225.8664C885.474,-216.6984 972.4098,-200.3784 1045.8916,-180 1049.0131,-179.1343 1052.2196,-178.175 1055.4313,-177.1631"/>
<polygon fill="#000000" stroke="#000000" points="1056.5999,-180.4633 1065.003,-174.0105 1054.41,-173.8146 1056.5999,-180.4633"/>
</g>
<!-- DataType&#45;&gt;Category -->
<g id="edge24" class="edge">
<title>DataType&#45;&gt;Category</title>
<path fill="none" stroke="#000000" d="M835.0153,-228.3882C906.5818,-220.3226 1037.7017,-203.7618 1147.8916,-180 1152.263,-179.0573 1156.7774,-177.9797 1161.288,-176.8308"/>
<polygon fill="#000000" stroke="#000000" points="1162.3316,-180.1751 1171.0989,-174.2265 1160.5357,-173.4094 1162.3316,-180.1751"/>
</g>
<!-- DataType&#45;&gt;Chunktag -->
<g id="edge25" class="edge">
<title>DataType&#45;&gt;Chunktag</title>
<path fill="none" stroke="#000000" d="M837.2941,-230.8332C928.8372,-224.9511 1117.1418,-210.1032 1273.8916,-180 1278.5344,-179.1084 1283.3296,-178.0502 1288.1135,-176.9003"/>
<polygon fill="#000000" stroke="#000000" points="1289.028,-180.2793 1297.8651,-174.435 1287.3122,-173.4929 1289.028,-180.2793"/>
</g>
<!-- DataType&#45;&gt;Synset -->
<g id="edge26" class="edge">
<title>DataType&#45;&gt;Synset</title>
<path fill="none" stroke="#000000" d="M837.0943,-231.0083C968.5524,-223.5949 1297.1852,-203.2809 1404.8916,-180 1408.2987,-179.2635 1411.7902,-178.3621 1415.27,-177.3591"/>
<polygon fill="#000000" stroke="#000000" points="1416.4728,-180.65 1424.9657,-174.3158 1414.3765,-173.9712 1416.4728,-180.65"/>
</g>
</g>
</svg>
