<?xml version="1.0" encoding="UTF-8" standalone="no"?>
<!DOCTYPE svg PUBLIC "-//W3C//DTD SVG 1.1//EN"
 "http://www.w3.org/Graphics/SVG/1.1/DTD/svg11.dtd">
<!-- Generated by graphviz version 2.40.1 (20161225.0304)
 -->
<!-- Title: G Pages: 1 -->
<svg width="1981pt" height="260pt"
 viewBox="0.00 0.00 1981.33 260.00" xmlns="http://www.w3.org/2000/svg" xmlns:xlink="http://www.w3.org/1999/xlink">
<g id="graph0" class="graph" transform="scale(1 1) rotate(0) translate(4 256)">
<title>G</title>
<polygon fill="#ffffff" stroke="transparent" points="-4,4 -4,-256 1977.3339,-256 1977.3339,4 -4,4"/>
<!-- Category -->
<g id="node1" class="node">
<title>Category</title>
<ellipse fill="none" stroke="#000000" cx="53.9452" cy="-162" rx="53.8905" ry="18"/>
<text text-anchor="middle" x="53.9452" y="-158.3" font-family="Times,serif" font-size="14.00" fill="#000000">Category</text>
</g>
<!-- Chunktag -->
<g id="node2" class="node">
<title>Chunktag</title>
<ellipse fill="none" stroke="#000000" cx="181.9452" cy="-162" rx="56.59" ry="18"/>
<text text-anchor="middle" x="181.9452" y="-158.3" font-family="Times,serif" font-size="14.00" fill="#000000">Chunktag</text>
</g>
<!-- Sentence -->
<g id="node3" class="node">
<title>Sentence</title>
<ellipse fill="none" stroke="#000000" cx="1120.9452" cy="-90" rx="53.8905" ry="18"/>
<text text-anchor="middle" x="1120.9452" y="-86.3" font-family="Times,serif" font-size="14.00" fill="#000000">Sentence</text>
</g>
<!-- Synset -->
<g id="node4" class="node">
<title>Synset</title>
<ellipse fill="none" stroke="#000000" cx="298.9452" cy="-162" rx="42.4939" ry="18"/>
<text text-anchor="middle" x="298.9452" y="-158.3" font-family="Times,serif" font-size="14.00" fill="#000000">Synset</text>
</g>
<!-- Summary -->
<g id="node5" class="node">
<title>Summary</title>
<ellipse fill="none" stroke="#000000" cx="1340.9452" cy="-18" rx="55.7903" ry="18"/>
<text text-anchor="middle" x="1340.9452" y="-14.3" font-family="Times,serif" font-size="14.00" fill="#000000">Summary</text>
</g>
<!-- CategoricalVector -->
<g id="node6" class="node">
<title>CategoricalVector</title>
<ellipse fill="none" stroke="#000000" cx="374.9452" cy="-90" rx="94.7833" ry="18"/>
<text text-anchor="middle" x="374.9452" y="-86.3" font-family="Times,serif" font-size="14.00" fill="#000000">CategoricalVector</text>
</g>
<!-- MatrixContinuousSparse -->
<g id="node7" class="node">
<title>MatrixContinuousSparse</title>
<ellipse fill="none" stroke="#000000" cx="1845.9452" cy="-18" rx="127.2775" ry="18"/>
<text text-anchor="middle" x="1845.9452" y="-14.3" font-family="Times,serif" font-size="14.00" fill="#000000">MatrixContinuousSparse</text>
</g>
<!-- ContinuousVector -->
<g id="node8" class="node">
<title>ContinuousVector</title>
<ellipse fill="none" stroke="#000000" cx="581.9452" cy="-90" rx="94.4839" ry="18"/>
<text text-anchor="middle" x="581.9452" y="-86.3" font-family="Times,serif" font-size="14.00" fill="#000000">ContinuousVector</text>
</g>
<!-- Tuple -->
<g id="node9" class="node">
<title>Tuple</title>
<ellipse fill="none" stroke="#000000" cx="395.9452" cy="-162" rx="37.0935" ry="18"/>
<text text-anchor="middle" x="395.9452" y="-158.3" font-family="Times,serif" font-size="14.00" fill="#000000">Tuple</text>
</g>
<!-- Word -->
<g id="node10" class="node">
<title>Word</title>
<ellipse fill="none" stroke="#000000" cx="1228.9452" cy="-90" rx="35.9954" ry="18"/>
<text text-anchor="middle" x="1228.9452" y="-86.3" font-family="Times,serif" font-size="14.00" fill="#000000">Word</text>
</g>
<!-- DenseMatrix -->
<g id="node11" class="node">
<title>DenseMatrix</title>
<ellipse fill="none" stroke="#000000" cx="1487.9452" cy="-90" rx="70.6878" ry="18"/>
<text text-anchor="middle" x="1487.9452" y="-86.3" font-family="Times,serif" font-size="14.00" fill="#000000">DenseMatrix</text>
</g>
<!-- MatrixContinuousDense -->
<g id="node24" class="node">
<title>MatrixContinuousDense</title>
<ellipse fill="none" stroke="#000000" cx="1563.9452" cy="-18" rx="124.2781" ry="18"/>
<text text-anchor="middle" x="1563.9452" y="-14.3" font-family="Times,serif" font-size="14.00" fill="#000000">MatrixContinuousDense</text>
</g>
<!-- DenseMatrix&#45;&gt;MatrixContinuousDense -->
<g id="edge26" class="edge">
<title>DenseMatrix&#45;&gt;MatrixContinuousDense</title>
<path fill="none" stroke="#000000" d="M1506.3427,-72.5708C1515.6546,-63.749 1527.1291,-52.8784 1537.3796,-43.1674"/>
<polygon fill="#000000" stroke="#000000" points="1540.071,-45.4389 1544.9235,-36.0206 1535.2568,-40.3572 1540.071,-45.4389"/>
</g>
<!-- Flags -->
<g id="node12" class="node">
<title>Flags</title>
<ellipse fill="none" stroke="#000000" cx="486.9452" cy="-162" rx="36.2938" ry="18"/>
<text text-anchor="middle" x="486.9452" y="-158.3" font-family="Times,serif" font-size="14.00" fill="#000000">Flags</text>
</g>
<!-- Vector -->
<g id="node13" class="node">
<title>Vector</title>
<ellipse fill="none" stroke="#000000" cx="581.9452" cy="-162" rx="40.8928" ry="18"/>
<text text-anchor="middle" x="581.9452" y="-158.3" font-family="Times,serif" font-size="14.00" fill="#000000">Vector</text>
</g>
<!-- Vector&#45;&gt;CategoricalVector -->
<g id="edge6" class="edge">
<title>Vector&#45;&gt;CategoricalVector</title>
<path fill="none" stroke="#000000" d="M550.2291,-150.5052C544.1648,-148.3291 537.863,-146.0828 531.9452,-144 498.6011,-132.2644 461.1743,-119.3803 431.2285,-109.1412"/>
<polygon fill="#000000" stroke="#000000" points="431.971,-105.6964 421.3764,-105.7758 429.7081,-112.3205 431.971,-105.6964"/>
</g>
<!-- Vector&#45;&gt;ContinuousVector -->
<g id="edge9" class="edge">
<title>Vector&#45;&gt;ContinuousVector</title>
<path fill="none" stroke="#000000" d="M581.9452,-143.8314C581.9452,-136.131 581.9452,-126.9743 581.9452,-118.4166"/>
<polygon fill="#000000" stroke="#000000" points="585.4453,-118.4132 581.9452,-108.4133 578.4453,-118.4133 585.4453,-118.4132"/>
</g>
<!-- DiscreteVector -->
<g id="node21" class="node">
<title>DiscreteVector</title>
<ellipse fill="none" stroke="#000000" cx="774.9452" cy="-90" rx="80.6858" ry="18"/>
<text text-anchor="middle" x="774.9452" y="-86.3" font-family="Times,serif" font-size="14.00" fill="#000000">DiscreteVector</text>
</g>
<!-- Vector&#45;&gt;DiscreteVector -->
<g id="edge22" class="edge">
<title>Vector&#45;&gt;DiscreteVector</title>
<path fill="none" stroke="#000000" d="M613.3835,-150.2717C643.2598,-139.1262 688.7097,-122.1707 723.8015,-109.0795"/>
<polygon fill="#000000" stroke="#000000" points="725.2571,-112.2722 733.403,-105.4976 722.8103,-105.7137 725.2571,-112.2722"/>
</g>
<!-- Tensor3 -->
<g id="node14" class="node">
<title>Tensor3</title>
<ellipse fill="none" stroke="#000000" cx="688.9452" cy="-162" rx="48.1917" ry="18"/>
<text text-anchor="middle" x="688.9452" y="-158.3" font-family="Times,serif" font-size="14.00" fill="#000000">Tensor3</text>
</g>
<!-- Document -->
<g id="node15" class="node">
<title>Document</title>
<ellipse fill="none" stroke="#000000" cx="1340.9452" cy="-90" rx="58.4896" ry="18"/>
<text text-anchor="middle" x="1340.9452" y="-86.3" font-family="Times,serif" font-size="14.00" fill="#000000">Document</text>
</g>
<!-- Document&#45;&gt;Summary -->
<g id="edge5" class="edge">
<title>Document&#45;&gt;Summary</title>
<path fill="none" stroke="#000000" d="M1340.9452,-71.8314C1340.9452,-64.131 1340.9452,-54.9743 1340.9452,-46.4166"/>
<polygon fill="#000000" stroke="#000000" points="1344.4453,-46.4132 1340.9452,-36.4133 1337.4453,-46.4133 1344.4453,-46.4132"/>
</g>
<!-- Postag -->
<g id="node16" class="node">
<title>Postag</title>
<ellipse fill="none" stroke="#000000" cx="796.9452" cy="-162" rx="42.4939" ry="18"/>
<text text-anchor="middle" x="796.9452" y="-158.3" font-family="Times,serif" font-size="14.00" fill="#000000">Postag</text>
</g>
<!-- Sentiment -->
<g id="node17" class="node">
<title>Sentiment</title>
<ellipse fill="none" stroke="#000000" cx="915.9452" cy="-162" rx="59.2899" ry="18"/>
<text text-anchor="middle" x="915.9452" y="-158.3" font-family="Times,serif" font-size="14.00" fill="#000000">Sentiment</text>
</g>
<!-- Stem -->
<g id="node18" class="node">
<title>Stem</title>
<ellipse fill="none" stroke="#000000" cx="1027.9452" cy="-162" rx="35.194" ry="18"/>
<text text-anchor="middle" x="1027.9452" y="-158.3" font-family="Times,serif" font-size="14.00" fill="#000000">Stem</text>
</g>
<!-- MatrixContinuous -->
<g id="node19" class="node">
<title>MatrixContinuous</title>
<ellipse fill="none" stroke="#000000" cx="1671.9452" cy="-90" rx="94.7833" ry="18"/>
<text text-anchor="middle" x="1671.9452" y="-86.3" font-family="Times,serif" font-size="14.00" fill="#000000">MatrixContinuous</text>
</g>
<!-- MatrixContinuous&#45;&gt;MatrixContinuousSparse -->
<g id="edge7" class="edge">
<title>MatrixContinuous&#45;&gt;MatrixContinuousSparse</title>
<path fill="none" stroke="#000000" d="M1711.8643,-73.4817C1736.6169,-63.2393 1768.6456,-49.986 1795.1917,-39.0014"/>
<polygon fill="#000000" stroke="#000000" points="1796.7982,-42.1246 1804.7002,-35.0669 1794.1217,-35.6564 1796.7982,-42.1246"/>
</g>
<!-- MatrixContinuous&#45;&gt;MatrixContinuousDense -->
<g id="edge25" class="edge">
<title>MatrixContinuous&#45;&gt;MatrixContinuousDense</title>
<path fill="none" stroke="#000000" d="M1645.8014,-72.5708C1631.8157,-63.247 1614.397,-51.6345 1599.2274,-41.5214"/>
<polygon fill="#000000" stroke="#000000" points="1600.8605,-38.4037 1590.5985,-35.7689 1596.9776,-44.2281 1600.8605,-38.4037"/>
</g>
<!-- Entity -->
<g id="node20" class="node">
<title>Entity</title>
<ellipse fill="none" stroke="#000000" cx="1120.9452" cy="-162" rx="39.7935" ry="18"/>
<text text-anchor="middle" x="1120.9452" y="-158.3" font-family="Times,serif" font-size="14.00" fill="#000000">Entity</text>
</g>
<!-- SparseMatrix -->
<g id="node22" class="node">
<title>SparseMatrix</title>
<ellipse fill="none" stroke="#000000" cx="1858.9452" cy="-90" rx="74.187" ry="18"/>
<text text-anchor="middle" x="1858.9452" y="-86.3" font-family="Times,serif" font-size="14.00" fill="#000000">SparseMatrix</text>
</g>
<!-- SparseMatrix&#45;&gt;MatrixContinuousSparse -->
<g id="edge8" class="edge">
<title>SparseMatrix&#45;&gt;MatrixContinuousSparse</title>
<path fill="none" stroke="#000000" d="M1855.6648,-71.8314C1854.2744,-64.131 1852.6211,-54.9743 1851.076,-46.4166"/>
<polygon fill="#000000" stroke="#000000" points="1854.491,-45.6322 1849.2698,-36.4133 1847.6024,-46.8761 1854.491,-45.6322"/>
</g>
<!-- List -->
<g id="node23" class="node">
<title>List</title>
<ellipse fill="none" stroke="#000000" cx="1206.9452" cy="-162" rx="28.6953" ry="18"/>
<text text-anchor="middle" x="1206.9452" y="-158.3" font-family="Times,serif" font-size="14.00" fill="#000000">List</text>
</g>
<!-- Text -->
<g id="node25" class="node">
<title>Text</title>
<ellipse fill="none" stroke="#000000" cx="1284.9452" cy="-162" rx="31.3957" ry="18"/>
<text text-anchor="middle" x="1284.9452" y="-158.3" font-family="Times,serif" font-size="14.00" fill="#000000">Text</text>
</g>
<!-- Text&#45;&gt;Sentence -->
<g id="edge3" class="edge">
<title>Text&#45;&gt;Sentence</title>
<path fill="none" stroke="#000000" d="M1260.0012,-150.719C1255.0189,-148.4816 1249.8195,-146.158 1244.9452,-144 1217.8404,-132.0001 1187.3138,-118.7035 1163.3315,-108.3073"/>
<polygon fill="#000000" stroke="#000000" points="1164.7176,-105.0935 1154.1503,-104.3304 1161.9353,-111.5168 1164.7176,-105.0935"/>
</g>
<!-- Text&#45;&gt;Word -->
<g id="edge11" class="edge">
<title>Text&#45;&gt;Word</title>
<path fill="none" stroke="#000000" d="M1271.9569,-145.3008C1264.99,-136.3433 1256.2626,-125.1223 1248.4932,-115.1331"/>
<polygon fill="#000000" stroke="#000000" points="1251.1541,-112.8534 1242.2519,-107.1086 1245.6286,-117.151 1251.1541,-112.8534"/>
</g>
<!-- Text&#45;&gt;Document -->
<g id="edge16" class="edge">
<title>Text&#45;&gt;Document</title>
<path fill="none" stroke="#000000" d="M1297.9335,-145.3008C1304.7995,-136.4731 1313.3752,-125.4471 1321.0588,-115.5682"/>
<polygon fill="#000000" stroke="#000000" points="1323.8694,-117.6555 1327.2461,-107.6132 1318.3439,-113.3579 1323.8694,-117.6555"/>
</g>
<!-- Matrix -->
<g id="node26" class="node">
<title>Matrix</title>
<ellipse fill="none" stroke="#000000" cx="1579.9452" cy="-162" rx="42.4939" ry="18"/>
<text text-anchor="middle" x="1579.9452" y="-158.3" font-family="Times,serif" font-size="14.00" fill="#000000">Matrix</text>
</g>
<!-- Matrix&#45;&gt;DenseMatrix -->
<g id="edge12" class="edge">
<title>Matrix&#45;&gt;DenseMatrix</title>
<path fill="none" stroke="#000000" d="M1559.5274,-146.0209C1547.3403,-136.4831 1531.6403,-124.1962 1518.0506,-113.5607"/>
<polygon fill="#000000" stroke="#000000" points="1519.9442,-110.5983 1509.9121,-107.1915 1515.6301,-116.1109 1519.9442,-110.5983"/>
</g>
<!-- Matrix&#45;&gt;MatrixContinuous -->
<g id="edge20" class="edge">
<title>Matrix&#45;&gt;MatrixContinuous</title>
<path fill="none" stroke="#000000" d="M1600.363,-146.0209C1612.3748,-136.6203 1627.7991,-124.5492 1641.2519,-114.0208"/>
<polygon fill="#000000" stroke="#000000" points="1643.6074,-116.6219 1649.3253,-107.7025 1639.2932,-111.1094 1643.6074,-116.6219"/>
</g>
<!-- Matrix&#45;&gt;SparseMatrix -->
<g id="edge23" class="edge">
<title>Matrix&#45;&gt;SparseMatrix</title>
<path fill="none" stroke="#000000" d="M1616.1336,-152.6611C1662.2423,-140.762 1742.6096,-120.0221 1798.1845,-105.6802"/>
<polygon fill="#000000" stroke="#000000" points="1799.1058,-109.0572 1807.914,-103.1693 1797.3566,-102.2792 1799.1058,-109.0572"/>
</g>
<!-- DataType -->
<g id="node27" class="node">
<title>DataType</title>
<ellipse fill="none" stroke="#000000" cx="742.9452" cy="-234" rx="55.7903" ry="18"/>
<text text-anchor="middle" x="742.9452" y="-230.3" font-family="Times,serif" font-size="14.00" fill="#000000">DataType</text>
</g>
<!-- DataType&#45;&gt;Category -->
<g id="edge1" class="edge">
<title>DataType&#45;&gt;Category</title>
<path fill="none" stroke="#000000" d="M687.0952,-232.8647C576.9487,-229.8191 324.317,-218.8294 115.9452,-180 111.7306,-179.2146 107.3913,-178.2621 103.0586,-177.2099"/>
<polygon fill="#000000" stroke="#000000" points="103.5816,-173.7297 93.0231,-174.6056 101.8233,-180.5053 103.5816,-173.7297"/>
</g>
<!-- DataType&#45;&gt;Chunktag -->
<g id="edge2" class="edge">
<title>DataType&#45;&gt;Chunktag</title>
<path fill="none" stroke="#000000" d="M687.5891,-230.8169C595.645,-224.8935 405.9204,-209.9653 247.9452,-180 243.1647,-179.0932 238.2239,-178.0157 233.2966,-176.8452"/>
<polygon fill="#000000" stroke="#000000" points="233.8075,-173.3654 223.2574,-174.3372 232.1109,-180.1566 233.8075,-173.3654"/>
</g>
<!-- DataType&#45;&gt;Synset -->
<g id="edge4" class="edge">
<title>DataType&#45;&gt;Synset</title>
<path fill="none" stroke="#000000" d="M688.2604,-230.0085C611.7373,-223.6296 468.7463,-208.811 349.9452,-180 346.6046,-179.1899 343.1765,-178.2433 339.7542,-177.216"/>
<polygon fill="#000000" stroke="#000000" points="340.7935,-173.8737 330.2023,-174.1528 338.6558,-180.5394 340.7935,-173.8737"/>
</g>
<!-- DataType&#45;&gt;Tuple -->
<g id="edge10" class="edge">
<title>DataType&#45;&gt;Tuple</title>
<path fill="none" stroke="#000000" d="M690.3105,-227.7313C629.6696,-219.7818 527.3978,-204.1335 441.9452,-180 439.1598,-179.2134 436.3094,-178.3213 433.4594,-177.3652"/>
<polygon fill="#000000" stroke="#000000" points="434.4614,-174.0064 423.8668,-173.9286 432.1004,-180.5963 434.4614,-174.0064"/>
</g>
<!-- DataType&#45;&gt;Flags -->
<g id="edge13" class="edge">
<title>DataType&#45;&gt;Flags</title>
<path fill="none" stroke="#000000" d="M696.3484,-223.9092C653.2597,-214.1471 587.6613,-198.1875 531.9452,-180 529.4081,-179.1718 526.8088,-178.2725 524.2018,-177.3324"/>
<polygon fill="#000000" stroke="#000000" points="525.4161,-174.0498 514.8241,-173.8039 522.9509,-180.6014 525.4161,-174.0498"/>
</g>
<!-- DataType&#45;&gt;Vector -->
<g id="edge14" class="edge">
<title>DataType&#45;&gt;Vector</title>
<path fill="none" stroke="#000000" d="M709.976,-219.256C683.8886,-207.5896 647.4256,-191.2832 620.0819,-179.0549"/>
<polygon fill="#000000" stroke="#000000" points="621.38,-175.8014 610.8224,-174.914 618.5223,-182.1916 621.38,-175.8014"/>
</g>
<!-- DataType&#45;&gt;Tensor3 -->
<g id="edge15" class="edge">
<title>DataType&#45;&gt;Tensor3</title>
<path fill="none" stroke="#000000" d="M729.5969,-216.2022C723.0747,-207.506 715.1103,-196.8867 707.965,-187.3598"/>
<polygon fill="#000000" stroke="#000000" points="710.7537,-185.2446 701.9537,-179.3446 705.1537,-189.4446 710.7537,-185.2446"/>
</g>
<!-- DataType&#45;&gt;Postag -->
<g id="edge17" class="edge">
<title>DataType&#45;&gt;Postag</title>
<path fill="none" stroke="#000000" d="M756.2935,-216.2022C762.8157,-207.506 770.7802,-196.8867 777.9254,-187.3598"/>
<polygon fill="#000000" stroke="#000000" points="780.7367,-189.4446 783.9368,-179.3446 775.1367,-185.2446 780.7367,-189.4446"/>
</g>
<!-- DataType&#45;&gt;Sentiment -->
<g id="edge18" class="edge">
<title>DataType&#45;&gt;Sentiment</title>
<path fill="none" stroke="#000000" d="M777.5386,-219.6028C804.4701,-208.3943 842.0543,-192.7523 871.2622,-180.5964"/>
<polygon fill="#000000" stroke="#000000" points="872.9313,-183.6928 880.8188,-176.6191 870.2416,-177.2302 872.9313,-183.6928"/>
</g>
<!-- DataType&#45;&gt;Stem -->
<g id="edge19" class="edge">
<title>DataType&#45;&gt;Stem</title>
<path fill="none" stroke="#000000" d="M792.5115,-225.417C841.6881,-216.3144 918.9033,-200.4318 983.9452,-180 986.5141,-179.193 989.1429,-178.2994 991.7745,-177.3543"/>
<polygon fill="#000000" stroke="#000000" points="993.109,-180.5914 1001.2151,-173.7694 990.624,-174.0474 993.109,-180.5914"/>
</g>
<!-- DataType&#45;&gt;Entity -->
<g id="edge21" class="edge">
<title>DataType&#45;&gt;Entity</title>
<path fill="none" stroke="#000000" d="M796.3013,-228.3925C861.9231,-220.778 976.3663,-205.1564 1071.9452,-180 1075.1004,-179.1696 1078.3371,-178.2167 1081.5701,-177.1923"/>
<polygon fill="#000000" stroke="#000000" points="1082.8146,-180.4664 1091.1726,-173.9554 1080.5785,-173.8332 1082.8146,-180.4664"/>
</g>
<!-- DataType&#45;&gt;List -->
<g id="edge24" class="edge">
<title>DataType&#45;&gt;List</title>
<path fill="none" stroke="#000000" d="M797.1586,-229.365C895.9171,-220.5542 1101.2819,-200.4367 1169.9452,-180 1171.8451,-179.4345 1173.7679,-178.7801 1175.6863,-178.0627"/>
<polygon fill="#000000" stroke="#000000" points="1177.2708,-181.1927 1185.115,-174.0709 1174.5417,-174.7466 1177.2708,-181.1927"/>
</g>
<!-- DataType&#45;&gt;Text -->
<g id="edge27" class="edge">
<title>DataType&#45;&gt;Text</title>
<path fill="none" stroke="#000000" d="M797.7959,-230.2906C909.9035,-222.351 1161.7243,-202.5852 1244.9452,-180 1247.2396,-179.3773 1249.5692,-178.6388 1251.8914,-177.8221"/>
<polygon fill="#000000" stroke="#000000" points="1253.266,-181.0424 1261.2862,-174.1195 1250.6993,-174.5299 1253.266,-181.0424"/>
</g>
<!-- DataType&#45;&gt;Matrix -->
<g id="edge28" class="edge">
<title>DataType&#45;&gt;Matrix</title>
<path fill="none" stroke="#000000" d="M797.2182,-229.3314C949.3372,-216.2459 1378.4433,-179.3335 1527.8644,-166.4801"/>
<polygon fill="#000000" stroke="#000000" points="1528.4685,-169.9411 1538.1317,-165.5969 1527.8685,-162.9669 1528.4685,-169.9411"/>
</g>
</g>
</svg>
