<?xml version="1.0" encoding="UTF-8" standalone="no"?>
<!DOCTYPE svg PUBLIC "-//W3C//DTD SVG 1.1//EN"
 "http://www.w3.org/Graphics/SVG/1.1/DTD/svg11.dtd">
<!-- Generated by graphviz version 2.40.1 (20161225.0304)
 -->
<!-- Title: G Pages: 1 -->
<svg width="1572pt" height="260pt"
 viewBox="0.00 0.00 1572.49 260.00" xmlns="http://www.w3.org/2000/svg" xmlns:xlink="http://www.w3.org/1999/xlink">
<g id="graph0" class="graph" transform="scale(1 1) rotate(0) translate(4 256)">
<title>G</title>
<polygon fill="#ffffff" stroke="transparent" points="-4,4 -4,-256 1568.4879,-256 1568.4879,4 -4,4"/>
<!-- Postag -->
<g id="node1" class="node">
<title>Postag</title>
<ellipse fill="none" stroke="#000000" cx="42.2463" cy="-162" rx="42.4939" ry="18"/>
<text text-anchor="middle" x="42.2463" y="-158.3" font-family="Times,serif" font-size="14.00" fill="#000000">Postag</text>
</g>
<!-- Stem -->
<g id="node2" class="node">
<title>Stem</title>
<ellipse fill="none" stroke="#000000" cx="137.2463" cy="-162" rx="35.194" ry="18"/>
<text text-anchor="middle" x="137.2463" y="-158.3" font-family="Times,serif" font-size="14.00" fill="#000000">Stem</text>
</g>
<!-- Sentiment -->
<g id="node3" class="node">
<title>Sentiment</title>
<ellipse fill="none" stroke="#000000" cx="249.2463" cy="-162" rx="59.2899" ry="18"/>
<text text-anchor="middle" x="249.2463" y="-158.3" font-family="Times,serif" font-size="14.00" fill="#000000">Sentiment</text>
</g>
<!-- Text -->
<g id="node4" class="node">
<title>Text</title>
<ellipse fill="none" stroke="#000000" cx="357.2463" cy="-162" rx="31.3957" ry="18"/>
<text text-anchor="middle" x="357.2463" y="-158.3" font-family="Times,serif" font-size="14.00" fill="#000000">Text</text>
</g>
<!-- Sentence -->
<g id="node13" class="node">
<title>Sentence</title>
<ellipse fill="none" stroke="#000000" cx="148.2463" cy="-90" rx="53.8905" ry="18"/>
<text text-anchor="middle" x="148.2463" y="-86.3" font-family="Times,serif" font-size="14.00" fill="#000000">Sentence</text>
</g>
<!-- Text&#45;&gt;Sentence -->
<g id="edge13" class="edge">
<title>Text&#45;&gt;Sentence</title>
<path fill="none" stroke="#000000" d="M332.8931,-150.5122C327.7698,-148.245 322.3659,-145.9626 317.2463,-144 278.1118,-128.9981 232.8344,-114.6882 199,-104.5728"/>
<polygon fill="#000000" stroke="#000000" points="199.9144,-101.1934 189.3318,-101.7033 197.9226,-107.9041 199.9144,-101.1934"/>
</g>
<!-- Word -->
<g id="node15" class="node">
<title>Word</title>
<ellipse fill="none" stroke="#000000" cx="256.2463" cy="-90" rx="35.9954" ry="18"/>
<text text-anchor="middle" x="256.2463" y="-86.3" font-family="Times,serif" font-size="14.00" fill="#000000">Word</text>
</g>
<!-- Text&#45;&gt;Word -->
<g id="edge15" class="edge">
<title>Text&#45;&gt;Word</title>
<path fill="none" stroke="#000000" d="M337.2919,-147.7751C322.5073,-137.2356 302.1276,-122.7075 285.5037,-110.8568"/>
<polygon fill="#000000" stroke="#000000" points="287.3767,-107.8937 277.2023,-104.9389 283.3134,-113.5937 287.3767,-107.8937"/>
</g>
<!-- Document -->
<g id="node26" class="node">
<title>Document</title>
<ellipse fill="none" stroke="#000000" cx="368.2463" cy="-90" rx="58.4896" ry="18"/>
<text text-anchor="middle" x="368.2463" y="-86.3" font-family="Times,serif" font-size="14.00" fill="#000000">Document</text>
</g>
<!-- Text&#45;&gt;Document -->
<g id="edge28" class="edge">
<title>Text&#45;&gt;Document</title>
<path fill="none" stroke="#000000" d="M360.022,-143.8314C361.1985,-136.131 362.5974,-126.9743 363.9048,-118.4166"/>
<polygon fill="#000000" stroke="#000000" points="367.3826,-118.8272 365.4331,-108.4133 360.4629,-117.7699 367.3826,-118.8272"/>
</g>
<!-- MatrixContinuous -->
<g id="node5" class="node">
<title>MatrixContinuous</title>
<ellipse fill="none" stroke="#000000" cx="706.2463" cy="-90" rx="94.7833" ry="18"/>
<text text-anchor="middle" x="706.2463" y="-86.3" font-family="Times,serif" font-size="14.00" fill="#000000">MatrixContinuous</text>
</g>
<!-- MatrixContinuousSparse -->
<g id="node19" class="node">
<title>MatrixContinuousSparse</title>
<ellipse fill="none" stroke="#000000" cx="594.2463" cy="-18" rx="127.2775" ry="18"/>
<text text-anchor="middle" x="594.2463" y="-14.3" font-family="Times,serif" font-size="14.00" fill="#000000">MatrixContinuousSparse</text>
</g>
<!-- MatrixContinuous&#45;&gt;MatrixContinuousSparse -->
<g id="edge19" class="edge">
<title>MatrixContinuous&#45;&gt;MatrixContinuousSparse</title>
<path fill="none" stroke="#000000" d="M679.1342,-72.5708C664.4949,-63.1599 646.2287,-51.4173 630.3947,-41.2383"/>
<polygon fill="#000000" stroke="#000000" points="632.1912,-38.2324 621.8867,-35.7689 628.4059,-44.1206 632.1912,-38.2324"/>
</g>
<!-- MatrixContinuousDense -->
<g id="node21" class="node">
<title>MatrixContinuousDense</title>
<ellipse fill="none" stroke="#000000" cx="877.2463" cy="-18" rx="124.2781" ry="18"/>
<text text-anchor="middle" x="877.2463" y="-14.3" font-family="Times,serif" font-size="14.00" fill="#000000">MatrixContinuousDense</text>
</g>
<!-- MatrixContinuous&#45;&gt;MatrixContinuousDense -->
<g id="edge22" class="edge">
<title>MatrixContinuous&#45;&gt;MatrixContinuousDense</title>
<path fill="none" stroke="#000000" d="M745.4771,-73.4817C769.8029,-63.2393 801.2794,-49.986 827.3678,-39.0014"/>
<polygon fill="#000000" stroke="#000000" points="828.8542,-42.1733 836.7123,-35.0669 826.1377,-35.7218 828.8542,-42.1733"/>
</g>
<!-- Entity -->
<g id="node6" class="node">
<title>Entity</title>
<ellipse fill="none" stroke="#000000" cx="446.2463" cy="-162" rx="39.7935" ry="18"/>
<text text-anchor="middle" x="446.2463" y="-158.3" font-family="Times,serif" font-size="14.00" fill="#000000">Entity</text>
</g>
<!-- List -->
<g id="node7" class="node">
<title>List</title>
<ellipse fill="none" stroke="#000000" cx="532.2463" cy="-162" rx="28.6953" ry="18"/>
<text text-anchor="middle" x="532.2463" y="-158.3" font-family="Times,serif" font-size="14.00" fill="#000000">List</text>
</g>
<!-- DiscreteVector -->
<g id="node8" class="node">
<title>DiscreteVector</title>
<ellipse fill="none" stroke="#000000" cx="1070.2463" cy="-90" rx="80.6858" ry="18"/>
<text text-anchor="middle" x="1070.2463" y="-86.3" font-family="Times,serif" font-size="14.00" fill="#000000">DiscreteVector</text>
</g>
<!-- SparseMatrix -->
<g id="node9" class="node">
<title>SparseMatrix</title>
<ellipse fill="none" stroke="#000000" cx="519.2463" cy="-90" rx="74.187" ry="18"/>
<text text-anchor="middle" x="519.2463" y="-86.3" font-family="Times,serif" font-size="14.00" fill="#000000">SparseMatrix</text>
</g>
<!-- SparseMatrix&#45;&gt;MatrixContinuousSparse -->
<g id="edge20" class="edge">
<title>SparseMatrix&#45;&gt;MatrixContinuousSparse</title>
<path fill="none" stroke="#000000" d="M537.7856,-72.2022C546.9804,-63.3752 558.2391,-52.5669 568.2768,-42.9307"/>
<polygon fill="#000000" stroke="#000000" points="570.8702,-45.2928 575.6603,-35.8425 566.0225,-40.243 570.8702,-45.2928"/>
</g>
<!-- Matrix -->
<g id="node10" class="node">
<title>Matrix</title>
<ellipse fill="none" stroke="#000000" cx="621.2463" cy="-162" rx="42.4939" ry="18"/>
<text text-anchor="middle" x="621.2463" y="-158.3" font-family="Times,serif" font-size="14.00" fill="#000000">Matrix</text>
</g>
<!-- Matrix&#45;&gt;MatrixContinuous -->
<g id="edge5" class="edge">
<title>Matrix&#45;&gt;MatrixContinuous</title>
<path fill="none" stroke="#000000" d="M640.5341,-145.6621C651.4631,-136.4046 665.3462,-124.6447 677.5331,-114.3217"/>
<polygon fill="#000000" stroke="#000000" points="679.8804,-116.9204 685.2486,-107.7862 675.356,-111.579 679.8804,-116.9204"/>
</g>
<!-- Matrix&#45;&gt;SparseMatrix -->
<g id="edge9" class="edge">
<title>Matrix&#45;&gt;SparseMatrix</title>
<path fill="none" stroke="#000000" d="M599.3647,-146.5542C585.5353,-136.7923 567.4101,-123.998 551.8979,-113.0482"/>
<polygon fill="#000000" stroke="#000000" points="553.7808,-110.0932 543.5927,-107.1857 549.744,-115.812 553.7808,-110.0932"/>
</g>
<!-- DenseMatrix -->
<g id="node23" class="node">
<title>DenseMatrix</title>
<ellipse fill="none" stroke="#000000" cx="890.2463" cy="-90" rx="70.6878" ry="18"/>
<text text-anchor="middle" x="890.2463" y="-86.3" font-family="Times,serif" font-size="14.00" fill="#000000">DenseMatrix</text>
</g>
<!-- Matrix&#45;&gt;DenseMatrix -->
<g id="edge25" class="edge">
<title>Matrix&#45;&gt;DenseMatrix</title>
<path fill="none" stroke="#000000" d="M653.1938,-150.1941C659.4743,-148.0238 666.04,-145.8592 672.2463,-144 701.0796,-135.3626 774.4248,-117.5028 828.1056,-104.686"/>
<polygon fill="#000000" stroke="#000000" points="828.9691,-108.0783 837.885,-102.3549 827.3459,-101.2691 828.9691,-108.0783"/>
</g>
<!-- Category -->
<g id="node11" class="node">
<title>Category</title>
<ellipse fill="none" stroke="#000000" cx="735.2463" cy="-162" rx="53.8905" ry="18"/>
<text text-anchor="middle" x="735.2463" y="-158.3" font-family="Times,serif" font-size="14.00" fill="#000000">Category</text>
</g>
<!-- Chunktag -->
<g id="node12" class="node">
<title>Chunktag</title>
<ellipse fill="none" stroke="#000000" cx="863.2463" cy="-162" rx="56.59" ry="18"/>
<text text-anchor="middle" x="863.2463" y="-158.3" font-family="Times,serif" font-size="14.00" fill="#000000">Chunktag</text>
</g>
<!-- Synset -->
<g id="node14" class="node">
<title>Synset</title>
<ellipse fill="none" stroke="#000000" cx="980.2463" cy="-162" rx="42.4939" ry="18"/>
<text text-anchor="middle" x="980.2463" y="-158.3" font-family="Times,serif" font-size="14.00" fill="#000000">Synset</text>
</g>
<!-- Summary -->
<g id="node16" class="node">
<title>Summary</title>
<ellipse fill="none" stroke="#000000" cx="368.2463" cy="-18" rx="55.7903" ry="18"/>
<text text-anchor="middle" x="368.2463" y="-14.3" font-family="Times,serif" font-size="14.00" fill="#000000">Summary</text>
</g>
<!-- Tuple -->
<g id="node17" class="node">
<title>Tuple</title>
<ellipse fill="none" stroke="#000000" cx="1077.2463" cy="-162" rx="37.0935" ry="18"/>
<text text-anchor="middle" x="1077.2463" y="-158.3" font-family="Times,serif" font-size="14.00" fill="#000000">Tuple</text>
</g>
<!-- CategoricalVector -->
<g id="node18" class="node">
<title>CategoricalVector</title>
<ellipse fill="none" stroke="#000000" cx="1263.2463" cy="-90" rx="94.7833" ry="18"/>
<text text-anchor="middle" x="1263.2463" y="-86.3" font-family="Times,serif" font-size="14.00" fill="#000000">CategoricalVector</text>
</g>
<!-- Flags -->
<g id="node20" class="node">
<title>Flags</title>
<ellipse fill="none" stroke="#000000" cx="1168.2463" cy="-162" rx="36.2938" ry="18"/>
<text text-anchor="middle" x="1168.2463" y="-158.3" font-family="Times,serif" font-size="14.00" fill="#000000">Flags</text>
</g>
<!-- ContinuousVector -->
<g id="node22" class="node">
<title>ContinuousVector</title>
<ellipse fill="none" stroke="#000000" cx="1470.2463" cy="-90" rx="94.4839" ry="18"/>
<text text-anchor="middle" x="1470.2463" y="-86.3" font-family="Times,serif" font-size="14.00" fill="#000000">ContinuousVector</text>
</g>
<!-- DenseMatrix&#45;&gt;MatrixContinuousDense -->
<g id="edge23" class="edge">
<title>DenseMatrix&#45;&gt;MatrixContinuousDense</title>
<path fill="none" stroke="#000000" d="M886.9658,-71.8314C885.5755,-64.131 883.9222,-54.9743 882.377,-46.4166"/>
<polygon fill="#000000" stroke="#000000" points="885.7921,-45.6322 880.5709,-36.4133 878.9035,-46.8761 885.7921,-45.6322"/>
</g>
<!-- Vector -->
<g id="node24" class="node">
<title>Vector</title>
<ellipse fill="none" stroke="#000000" cx="1263.2463" cy="-162" rx="40.8928" ry="18"/>
<text text-anchor="middle" x="1263.2463" y="-158.3" font-family="Times,serif" font-size="14.00" fill="#000000">Vector</text>
</g>
<!-- Vector&#45;&gt;DiscreteVector -->
<g id="edge8" class="edge">
<title>Vector&#45;&gt;DiscreteVector</title>
<path fill="none" stroke="#000000" d="M1231.8079,-150.2717C1201.9317,-139.1262 1156.4817,-122.1707 1121.39,-109.0795"/>
<polygon fill="#000000" stroke="#000000" points="1122.3811,-105.7137 1111.7885,-105.4976 1119.9344,-112.2722 1122.3811,-105.7137"/>
</g>
<!-- Vector&#45;&gt;CategoricalVector -->
<g id="edge18" class="edge">
<title>Vector&#45;&gt;CategoricalVector</title>
<path fill="none" stroke="#000000" d="M1263.2463,-143.8314C1263.2463,-136.131 1263.2463,-126.9743 1263.2463,-118.4166"/>
<polygon fill="#000000" stroke="#000000" points="1266.7464,-118.4132 1263.2463,-108.4133 1259.7464,-118.4133 1266.7464,-118.4132"/>
</g>
<!-- Vector&#45;&gt;ContinuousVector -->
<g id="edge24" class="edge">
<title>Vector&#45;&gt;ContinuousVector</title>
<path fill="none" stroke="#000000" d="M1294.9624,-150.5052C1301.0266,-148.3291 1307.3285,-146.0828 1313.2463,-144 1346.5903,-132.2644 1384.0172,-119.3803 1413.963,-109.1412"/>
<polygon fill="#000000" stroke="#000000" points="1415.4834,-112.3205 1423.815,-105.7758 1413.2205,-105.6964 1415.4834,-112.3205"/>
</g>
<!-- Tensor3 -->
<g id="node25" class="node">
<title>Tensor3</title>
<ellipse fill="none" stroke="#000000" cx="1370.2463" cy="-162" rx="48.1917" ry="18"/>
<text text-anchor="middle" x="1370.2463" y="-158.3" font-family="Times,serif" font-size="14.00" fill="#000000">Tensor3</text>
</g>
<!-- Document&#45;&gt;Summary -->
<g id="edge16" class="edge">
<title>Document&#45;&gt;Summary</title>
<path fill="none" stroke="#000000" d="M368.2463,-71.8314C368.2463,-64.131 368.2463,-54.9743 368.2463,-46.4166"/>
<polygon fill="#000000" stroke="#000000" points="371.7464,-46.4132 368.2463,-36.4133 364.7464,-46.4133 371.7464,-46.4132"/>
</g>
<!-- DataType -->
<g id="node27" class="node">
<title>DataType</title>
<ellipse fill="none" stroke="#000000" cx="678.2463" cy="-234" rx="55.7903" ry="18"/>
<text text-anchor="middle" x="678.2463" y="-230.3" font-family="Times,serif" font-size="14.00" fill="#000000">DataType</text>
</g>
<!-- DataType&#45;&gt;Postag -->
<g id="edge1" class="edge">
<title>DataType&#45;&gt;Postag</title>
<path fill="none" stroke="#000000" d="M623.1757,-230.6605C497.6612,-222.7667 193.5004,-201.9634 93.2463,-180 89.8412,-179.254 86.3511,-178.3459 82.8724,-177.3382"/>
<polygon fill="#000000" stroke="#000000" points="83.7678,-173.9509 73.1784,-174.2873 81.6663,-180.628 83.7678,-173.9509"/>
</g>
<!-- DataType&#45;&gt;Stem -->
<g id="edge2" class="edge">
<title>DataType&#45;&gt;Stem</title>
<path fill="none" stroke="#000000" d="M623.5783,-230.0006C512.4903,-221.556 263.9053,-200.9543 181.2463,-180 178.4711,-179.2965 175.6402,-178.4532 172.8196,-177.5208"/>
<polygon fill="#000000" stroke="#000000" points="173.9594,-174.2111 163.3654,-174.0818 171.5665,-180.7894 173.9594,-174.2111"/>
</g>
<!-- DataType&#45;&gt;Sentiment -->
<g id="edge3" class="edge">
<title>DataType&#45;&gt;Sentiment</title>
<path fill="none" stroke="#000000" d="M625.3134,-227.9383C554.6701,-219.4259 425.8541,-202.4263 317.2463,-180 312.5595,-179.0322 307.7142,-177.939 302.8687,-176.7813"/>
<polygon fill="#000000" stroke="#000000" points="303.521,-173.3373 292.9732,-174.3342 301.8405,-180.1326 303.521,-173.3373"/>
</g>
<!-- DataType&#45;&gt;Text -->
<g id="edge4" class="edge">
<title>DataType&#45;&gt;Text</title>
<path fill="none" stroke="#000000" d="M625.8142,-227.6457C568.6845,-219.8681 475.0422,-204.6079 397.2463,-180 394.9796,-179.283 392.6709,-178.4732 390.3641,-177.6039"/>
<polygon fill="#000000" stroke="#000000" points="391.5858,-174.3222 381.0048,-173.7805 388.9385,-180.8024 391.5858,-174.3222"/>
</g>
<!-- DataType&#45;&gt;Entity -->
<g id="edge6" class="edge">
<title>DataType&#45;&gt;Entity</title>
<path fill="none" stroke="#000000" d="M635.2137,-222.3338C597.7466,-211.9477 542.0891,-195.9671 494.2463,-180 491.5553,-179.1019 488.7903,-178.1484 486.0114,-177.1672"/>
<polygon fill="#000000" stroke="#000000" points="487.1915,-173.8722 476.5972,-173.7648 484.8122,-180.4555 487.1915,-173.8722"/>
</g>
<!-- DataType&#45;&gt;List -->
<g id="edge7" class="edge">
<title>DataType&#45;&gt;List</title>
<path fill="none" stroke="#000000" d="M647.6399,-218.9064C623.1721,-206.8401 588.9805,-189.9786 564.1718,-177.7441"/>
<polygon fill="#000000" stroke="#000000" points="565.6796,-174.5853 555.1628,-173.3013 562.5835,-180.8634 565.6796,-174.5853"/>
</g>
<!-- DataType&#45;&gt;Matrix -->
<g id="edge10" class="edge">
<title>DataType&#45;&gt;Matrix</title>
<path fill="none" stroke="#000000" d="M664.1564,-216.2022C657.2208,-207.4416 648.7403,-196.7293 641.1553,-187.1482"/>
<polygon fill="#000000" stroke="#000000" points="643.7328,-184.7652 634.7816,-179.0972 638.2445,-189.1102 643.7328,-184.7652"/>
</g>
<!-- DataType&#45;&gt;Category -->
<g id="edge11" class="edge">
<title>DataType&#45;&gt;Category</title>
<path fill="none" stroke="#000000" d="M692.3361,-216.2022C699.1697,-207.5704 707.5031,-197.0439 715.002,-187.5717"/>
<polygon fill="#000000" stroke="#000000" points="717.8555,-189.606 721.3184,-179.593 712.3672,-185.261 717.8555,-189.606"/>
</g>
<!-- DataType&#45;&gt;Chunktag -->
<g id="edge12" class="edge">
<title>DataType&#45;&gt;Chunktag</title>
<path fill="none" stroke="#000000" d="M713.9161,-220.1177C743.5091,-208.6004 785.7722,-192.1521 817.7889,-179.6915"/>
<polygon fill="#000000" stroke="#000000" points="819.3211,-182.851 827.3708,-175.9624 816.7822,-176.3276 819.3211,-182.851"/>
</g>
<!-- DataType&#45;&gt;Synset -->
<g id="edge14" class="edge">
<title>DataType&#45;&gt;Synset</title>
<path fill="none" stroke="#000000" d="M727.7595,-225.278C778.7182,-215.8521 860.1912,-199.5286 929.2463,-180 932.3634,-179.1185 935.5666,-178.1477 938.7761,-177.1276"/>
<polygon fill="#000000" stroke="#000000" points="939.9505,-180.4257 948.3435,-173.9598 937.7502,-173.7805 939.9505,-180.4257"/>
</g>
<!-- DataType&#45;&gt;Tuple -->
<g id="edge17" class="edge">
<title>DataType&#45;&gt;Tuple</title>
<path fill="none" stroke="#000000" d="M732.5356,-229.4543C802.5091,-222.7441 927.5118,-207.8615 1031.2463,-180 1034.0415,-179.2492 1036.8992,-178.3836 1039.7544,-177.4464"/>
<polygon fill="#000000" stroke="#000000" points="1041.0984,-180.6835 1049.3573,-174.0472 1038.7625,-174.0847 1041.0984,-180.6835"/>
</g>
<!-- DataType&#45;&gt;Flags -->
<g id="edge21" class="edge">
<title>DataType&#45;&gt;Flags</title>
<path fill="none" stroke="#000000" d="M733.9031,-231.8781C819.0023,-227.6022 986.0325,-215.1288 1123.2463,-180 1125.9057,-179.3192 1128.6181,-178.5195 1131.3268,-177.6424"/>
<polygon fill="#000000" stroke="#000000" points="1132.7663,-180.8454 1141.0185,-174.2007 1130.4238,-174.249 1132.7663,-180.8454"/>
</g>
<!-- DataType&#45;&gt;Vector -->
<g id="edge26" class="edge">
<title>DataType&#45;&gt;Vector</title>
<path fill="none" stroke="#000000" d="M734.0328,-232.8487C832.1277,-229.8361 1041.4069,-218.9818 1213.2463,-180 1216.4853,-179.2652 1219.8021,-178.3811 1223.1108,-177.4043"/>
<polygon fill="#000000" stroke="#000000" points="1224.4757,-180.6421 1232.9265,-174.2519 1222.3352,-173.9774 1224.4757,-180.6421"/>
</g>
<!-- DataType&#45;&gt;Tensor3 -->
<g id="edge27" class="edge">
<title>DataType&#45;&gt;Tensor3</title>
<path fill="none" stroke="#000000" d="M733.4774,-230.8755C866.6933,-223.0858 1202.8105,-201.8531 1313.2463,-180 1317.3119,-179.1955 1321.4963,-178.2039 1325.6635,-177.1032"/>
<polygon fill="#000000" stroke="#000000" points="1326.6253,-180.4685 1335.2914,-174.3736 1324.7159,-173.734 1326.6253,-180.4685"/>
</g>
</g>
</svg>
