<?xml version="1.0" encoding="UTF-8" standalone="no"?>
<!DOCTYPE svg PUBLIC "-//W3C//DTD SVG 1.1//EN"
 "http://www.w3.org/Graphics/SVG/1.1/DTD/svg11.dtd">
<!-- Generated by graphviz version 2.40.1 (20161225.0304)
 -->
<!-- Title: G Pages: 1 -->
<svg width="1542pt" height="260pt"
 viewBox="0.00 0.00 1541.63 260.00" xmlns="http://www.w3.org/2000/svg" xmlns:xlink="http://www.w3.org/1999/xlink">
<g id="graph0" class="graph" transform="scale(1 1) rotate(0) translate(4 256)">
<title>G</title>
<polygon fill="#ffffff" stroke="transparent" points="-4,4 -4,-256 1537.6303,-256 1537.6303,4 -4,4"/>
<!-- ContinuousVector -->
<g id="node1" class="node">
<title>ContinuousVector</title>
<ellipse fill="none" stroke="#000000" cx="94.2416" cy="-90" rx="94.4839" ry="18"/>
<text text-anchor="middle" x="94.2416" y="-86.3" font-family="Times,serif" font-size="14.00" fill="#000000">ContinuousVector</text>
</g>
<!-- Tuple -->
<g id="node2" class="node">
<title>Tuple</title>
<ellipse fill="none" stroke="#000000" cx="101.2416" cy="-162" rx="37.0935" ry="18"/>
<text text-anchor="middle" x="101.2416" y="-158.3" font-family="Times,serif" font-size="14.00" fill="#000000">Tuple</text>
</g>
<!-- DenseMatrix -->
<g id="node3" class="node">
<title>DenseMatrix</title>
<ellipse fill="none" stroke="#000000" cx="1061.2416" cy="-90" rx="70.6878" ry="18"/>
<text text-anchor="middle" x="1061.2416" y="-86.3" font-family="Times,serif" font-size="14.00" fill="#000000">DenseMatrix</text>
</g>
<!-- MatrixContinuousDense -->
<g id="node22" class="node">
<title>MatrixContinuousDense</title>
<ellipse fill="none" stroke="#000000" cx="1086.2416" cy="-18" rx="124.2781" ry="18"/>
<text text-anchor="middle" x="1086.2416" y="-14.3" font-family="Times,serif" font-size="14.00" fill="#000000">MatrixContinuousDense</text>
</g>
<!-- DenseMatrix&#45;&gt;MatrixContinuousDense -->
<g id="edge23" class="edge">
<title>DenseMatrix&#45;&gt;MatrixContinuousDense</title>
<path fill="none" stroke="#000000" d="M1067.5502,-71.8314C1070.2533,-64.0463 1073.4733,-54.7729 1076.4726,-46.1347"/>
<polygon fill="#000000" stroke="#000000" points="1079.8743,-47.0081 1079.8481,-36.4133 1073.2616,-44.7119 1079.8743,-47.0081"/>
</g>
<!-- Flags -->
<g id="node4" class="node">
<title>Flags</title>
<ellipse fill="none" stroke="#000000" cx="192.2416" cy="-162" rx="36.2938" ry="18"/>
<text text-anchor="middle" x="192.2416" y="-158.3" font-family="Times,serif" font-size="14.00" fill="#000000">Flags</text>
</g>
<!-- Vector -->
<g id="node5" class="node">
<title>Vector</title>
<ellipse fill="none" stroke="#000000" cx="287.2416" cy="-162" rx="40.8928" ry="18"/>
<text text-anchor="middle" x="287.2416" y="-158.3" font-family="Times,serif" font-size="14.00" fill="#000000">Vector</text>
</g>
<!-- Vector&#45;&gt;ContinuousVector -->
<g id="edge1" class="edge">
<title>Vector&#45;&gt;ContinuousVector</title>
<path fill="none" stroke="#000000" d="M255.8033,-150.2717C226.3176,-139.2719 181.6627,-122.613 146.7667,-109.5949"/>
<polygon fill="#000000" stroke="#000000" points="147.7964,-106.2434 137.2038,-106.0273 145.3497,-112.8019 147.7964,-106.2434"/>
</g>
<!-- DiscreteVector -->
<g id="node13" class="node">
<title>DiscreteVector</title>
<ellipse fill="none" stroke="#000000" cx="287.2416" cy="-90" rx="80.6858" ry="18"/>
<text text-anchor="middle" x="287.2416" y="-86.3" font-family="Times,serif" font-size="14.00" fill="#000000">DiscreteVector</text>
</g>
<!-- Vector&#45;&gt;DiscreteVector -->
<g id="edge13" class="edge">
<title>Vector&#45;&gt;DiscreteVector</title>
<path fill="none" stroke="#000000" d="M287.2416,-143.8314C287.2416,-136.131 287.2416,-126.9743 287.2416,-118.4166"/>
<polygon fill="#000000" stroke="#000000" points="290.7417,-118.4132 287.2416,-108.4133 283.7417,-118.4133 290.7417,-118.4132"/>
</g>
<!-- CategoricalVector -->
<g id="node25" class="node">
<title>CategoricalVector</title>
<ellipse fill="none" stroke="#000000" cx="480.2416" cy="-90" rx="94.7833" ry="18"/>
<text text-anchor="middle" x="480.2416" y="-86.3" font-family="Times,serif" font-size="14.00" fill="#000000">CategoricalVector</text>
</g>
<!-- Vector&#45;&gt;CategoricalVector -->
<g id="edge26" class="edge">
<title>Vector&#45;&gt;CategoricalVector</title>
<path fill="none" stroke="#000000" d="M318.68,-150.2717C348.068,-139.3083 392.525,-122.7233 427.3696,-109.7243"/>
<polygon fill="#000000" stroke="#000000" points="428.7762,-112.9352 436.9221,-106.1607 426.3295,-106.3767 428.7762,-112.9352"/>
</g>
<!-- Tensor3 -->
<g id="node6" class="node">
<title>Tensor3</title>
<ellipse fill="none" stroke="#000000" cx="394.2416" cy="-162" rx="48.1917" ry="18"/>
<text text-anchor="middle" x="394.2416" y="-158.3" font-family="Times,serif" font-size="14.00" fill="#000000">Tensor3</text>
</g>
<!-- Document -->
<g id="node7" class="node">
<title>Document</title>
<ellipse fill="none" stroke="#000000" cx="698.2416" cy="-90" rx="58.4896" ry="18"/>
<text text-anchor="middle" x="698.2416" y="-86.3" font-family="Times,serif" font-size="14.00" fill="#000000">Document</text>
</g>
<!-- Summary -->
<g id="node24" class="node">
<title>Summary</title>
<ellipse fill="none" stroke="#000000" cx="698.2416" cy="-18" rx="55.7903" ry="18"/>
<text text-anchor="middle" x="698.2416" y="-14.3" font-family="Times,serif" font-size="14.00" fill="#000000">Summary</text>
</g>
<!-- Document&#45;&gt;Summary -->
<g id="edge25" class="edge">
<title>Document&#45;&gt;Summary</title>
<path fill="none" stroke="#000000" d="M698.2416,-71.8314C698.2416,-64.131 698.2416,-54.9743 698.2416,-46.4166"/>
<polygon fill="#000000" stroke="#000000" points="701.7417,-46.4132 698.2416,-36.4133 694.7417,-46.4133 701.7417,-46.4132"/>
</g>
<!-- Postag -->
<g id="node8" class="node">
<title>Postag</title>
<ellipse fill="none" stroke="#000000" cx="502.2416" cy="-162" rx="42.4939" ry="18"/>
<text text-anchor="middle" x="502.2416" y="-158.3" font-family="Times,serif" font-size="14.00" fill="#000000">Postag</text>
</g>
<!-- Stem -->
<g id="node9" class="node">
<title>Stem</title>
<ellipse fill="none" stroke="#000000" cx="597.2416" cy="-162" rx="35.194" ry="18"/>
<text text-anchor="middle" x="597.2416" y="-158.3" font-family="Times,serif" font-size="14.00" fill="#000000">Stem</text>
</g>
<!-- Sentiment -->
<g id="node10" class="node">
<title>Sentiment</title>
<ellipse fill="none" stroke="#000000" cx="709.2416" cy="-162" rx="59.2899" ry="18"/>
<text text-anchor="middle" x="709.2416" y="-158.3" font-family="Times,serif" font-size="14.00" fill="#000000">Sentiment</text>
</g>
<!-- MatrixContinuous -->
<g id="node11" class="node">
<title>MatrixContinuous</title>
<ellipse fill="none" stroke="#000000" cx="1245.2416" cy="-90" rx="94.7833" ry="18"/>
<text text-anchor="middle" x="1245.2416" y="-86.3" font-family="Times,serif" font-size="14.00" fill="#000000">MatrixContinuous</text>
</g>
<!-- MatrixContinuous&#45;&gt;MatrixContinuousDense -->
<g id="edge22" class="edge">
<title>MatrixContinuous&#45;&gt;MatrixContinuousDense</title>
<path fill="none" stroke="#000000" d="M1208.3642,-73.3008C1186.0925,-63.2155 1157.4844,-50.2609 1133.5565,-39.4256"/>
<polygon fill="#000000" stroke="#000000" points="1134.8542,-36.1711 1124.3008,-35.2344 1131.9666,-42.5478 1134.8542,-36.1711"/>
</g>
<!-- MatrixContinuousSparse -->
<g id="node26" class="node">
<title>MatrixContinuousSparse</title>
<ellipse fill="none" stroke="#000000" cx="1406.2416" cy="-18" rx="127.2775" ry="18"/>
<text text-anchor="middle" x="1406.2416" y="-14.3" font-family="Times,serif" font-size="14.00" fill="#000000">MatrixContinuousSparse</text>
</g>
<!-- MatrixContinuous&#45;&gt;MatrixContinuousSparse -->
<g id="edge27" class="edge">
<title>MatrixContinuous&#45;&gt;MatrixContinuousSparse</title>
<path fill="none" stroke="#000000" d="M1282.5829,-73.3008C1305.1348,-63.2155 1334.1027,-50.2609 1358.3316,-39.4256"/>
<polygon fill="#000000" stroke="#000000" points="1360.0038,-42.5119 1367.7037,-35.2344 1357.1461,-36.1218 1360.0038,-42.5119"/>
</g>
<!-- Entity -->
<g id="node12" class="node">
<title>Entity</title>
<ellipse fill="none" stroke="#000000" cx="826.2416" cy="-162" rx="39.7935" ry="18"/>
<text text-anchor="middle" x="826.2416" y="-158.3" font-family="Times,serif" font-size="14.00" fill="#000000">Entity</text>
</g>
<!-- SparseMatrix -->
<g id="node14" class="node">
<title>SparseMatrix</title>
<ellipse fill="none" stroke="#000000" cx="1432.2416" cy="-90" rx="74.187" ry="18"/>
<text text-anchor="middle" x="1432.2416" y="-86.3" font-family="Times,serif" font-size="14.00" fill="#000000">SparseMatrix</text>
</g>
<!-- SparseMatrix&#45;&gt;MatrixContinuousSparse -->
<g id="edge28" class="edge">
<title>SparseMatrix&#45;&gt;MatrixContinuousSparse</title>
<path fill="none" stroke="#000000" d="M1425.6807,-71.8314C1422.8389,-63.9617 1419.4479,-54.5712 1416.2998,-45.8533"/>
<polygon fill="#000000" stroke="#000000" points="1419.5793,-44.63 1412.8909,-36.4133 1412.9954,-47.0076 1419.5793,-44.63"/>
</g>
<!-- Text -->
<g id="node15" class="node">
<title>Text</title>
<ellipse fill="none" stroke="#000000" cx="915.2416" cy="-162" rx="31.3957" ry="18"/>
<text text-anchor="middle" x="915.2416" y="-158.3" font-family="Times,serif" font-size="14.00" fill="#000000">Text</text>
</g>
<!-- Text&#45;&gt;Document -->
<g id="edge7" class="edge">
<title>Text&#45;&gt;Document</title>
<path fill="none" stroke="#000000" d="M890.9083,-150.4599C885.7836,-148.1965 880.3741,-145.9288 875.2416,-144 834.6949,-128.7619 787.7625,-114.5965 752.417,-104.6004"/>
<polygon fill="#000000" stroke="#000000" points="753.3436,-101.2253 742.7699,-101.8941 751.4528,-107.9651 753.3436,-101.2253"/>
</g>
<!-- Sentence -->
<g id="node20" class="node">
<title>Sentence</title>
<ellipse fill="none" stroke="#000000" cx="828.2416" cy="-90" rx="53.8905" ry="18"/>
<text text-anchor="middle" x="828.2416" y="-86.3" font-family="Times,serif" font-size="14.00" fill="#000000">Sentence</text>
</g>
<!-- Text&#45;&gt;Sentence -->
<g id="edge20" class="edge">
<title>Text&#45;&gt;Sentence</title>
<path fill="none" stroke="#000000" d="M897.2152,-147.0816C885.5096,-137.3942 870.0044,-124.5622 856.6601,-113.5187"/>
<polygon fill="#000000" stroke="#000000" points="858.6194,-110.5971 848.6839,-106.9178 854.1564,-115.9899 858.6194,-110.5971"/>
</g>
<!-- Word -->
<g id="node23" class="node">
<title>Word</title>
<ellipse fill="none" stroke="#000000" cx="936.2416" cy="-90" rx="35.9954" ry="18"/>
<text text-anchor="middle" x="936.2416" y="-86.3" font-family="Times,serif" font-size="14.00" fill="#000000">Word</text>
</g>
<!-- Text&#45;&gt;Word -->
<g id="edge24" class="edge">
<title>Text&#45;&gt;Word</title>
<path fill="none" stroke="#000000" d="M920.4327,-144.2022C922.78,-136.1541 925.6078,-126.4588 928.2189,-117.5067"/>
<polygon fill="#000000" stroke="#000000" points="931.5975,-118.4226 931.0376,-107.8425 924.8775,-116.4625 931.5975,-118.4226"/>
</g>
<!-- List -->
<g id="node16" class="node">
<title>List</title>
<ellipse fill="none" stroke="#000000" cx="993.2416" cy="-162" rx="28.6953" ry="18"/>
<text text-anchor="middle" x="993.2416" y="-158.3" font-family="Times,serif" font-size="14.00" fill="#000000">List</text>
</g>
<!-- Matrix -->
<g id="node17" class="node">
<title>Matrix</title>
<ellipse fill="none" stroke="#000000" cx="1082.2416" cy="-162" rx="42.4939" ry="18"/>
<text text-anchor="middle" x="1082.2416" y="-158.3" font-family="Times,serif" font-size="14.00" fill="#000000">Matrix</text>
</g>
<!-- Matrix&#45;&gt;DenseMatrix -->
<g id="edge3" class="edge">
<title>Matrix&#45;&gt;DenseMatrix</title>
<path fill="none" stroke="#000000" d="M1076.9425,-143.8314C1074.6718,-136.0463 1071.9671,-126.7729 1069.4476,-118.1347"/>
<polygon fill="#000000" stroke="#000000" points="1072.7722,-117.0332 1066.6122,-108.4133 1066.0522,-118.9933 1072.7722,-117.0332"/>
</g>
<!-- Matrix&#45;&gt;MatrixContinuous -->
<g id="edge11" class="edge">
<title>Matrix&#45;&gt;MatrixContinuous</title>
<path fill="none" stroke="#000000" d="M1111.7597,-148.9613C1135.9102,-138.2936 1170.5123,-123.0093 1198.4346,-110.6755"/>
<polygon fill="#000000" stroke="#000000" points="1199.8899,-113.859 1207.6231,-106.6168 1197.0615,-107.4558 1199.8899,-113.859"/>
</g>
<!-- Matrix&#45;&gt;SparseMatrix -->
<g id="edge14" class="edge">
<title>Matrix&#45;&gt;SparseMatrix</title>
<path fill="none" stroke="#000000" d="M1113.8079,-149.8991C1120.1798,-147.7293 1126.877,-145.6402 1133.2416,-144 1227.4866,-119.7123 1253.657,-126.3189 1349.2416,-108 1355.0861,-106.8799 1361.1508,-105.6656 1367.2208,-104.4146"/>
<polygon fill="#000000" stroke="#000000" points="1368.332,-107.758 1377.4036,-102.2849 1366.8988,-100.9063 1368.332,-107.758"/>
</g>
<!-- Category -->
<g id="node18" class="node">
<title>Category</title>
<ellipse fill="none" stroke="#000000" cx="1196.2416" cy="-162" rx="53.8905" ry="18"/>
<text text-anchor="middle" x="1196.2416" y="-158.3" font-family="Times,serif" font-size="14.00" fill="#000000">Category</text>
</g>
<!-- Chunktag -->
<g id="node19" class="node">
<title>Chunktag</title>
<ellipse fill="none" stroke="#000000" cx="1324.2416" cy="-162" rx="56.59" ry="18"/>
<text text-anchor="middle" x="1324.2416" y="-158.3" font-family="Times,serif" font-size="14.00" fill="#000000">Chunktag</text>
</g>
<!-- Synset -->
<g id="node21" class="node">
<title>Synset</title>
<ellipse fill="none" stroke="#000000" cx="1441.2416" cy="-162" rx="42.4939" ry="18"/>
<text text-anchor="middle" x="1441.2416" y="-158.3" font-family="Times,serif" font-size="14.00" fill="#000000">Synset</text>
</g>
<!-- DataType -->
<g id="node27" class="node">
<title>DataType</title>
<ellipse fill="none" stroke="#000000" cx="767.2416" cy="-234" rx="55.7903" ry="18"/>
<text text-anchor="middle" x="767.2416" y="-230.3" font-family="Times,serif" font-size="14.00" fill="#000000">DataType</text>
</g>
<!-- DataType&#45;&gt;Tuple -->
<g id="edge2" class="edge">
<title>DataType&#45;&gt;Tuple</title>
<path fill="none" stroke="#000000" d="M711.7677,-231.203C580.5054,-224.2569 253.891,-204.9637 147.2416,-180 144.2487,-179.2994 141.192,-178.4422 138.1482,-177.4858"/>
<polygon fill="#000000" stroke="#000000" points="139.1584,-174.1317 128.5636,-174.1643 136.8663,-180.7458 139.1584,-174.1317"/>
</g>
<!-- DataType&#45;&gt;Flags -->
<g id="edge4" class="edge">
<title>DataType&#45;&gt;Flags</title>
<path fill="none" stroke="#000000" d="M712.0888,-230.3367C595.26,-222.2581 326.2725,-201.8838 237.2416,-180 234.5758,-179.3447 231.8586,-178.5642 229.1464,-177.7008"/>
<polygon fill="#000000" stroke="#000000" points="230.0422,-174.3057 219.4474,-174.2883 227.7189,-180.9089 230.0422,-174.3057"/>
</g>
<!-- DataType&#45;&gt;Vector -->
<g id="edge5" class="edge">
<title>DataType&#45;&gt;Vector</title>
<path fill="none" stroke="#000000" d="M711.9035,-230.9619C629.3504,-225.5543 469.4908,-211.6974 337.2416,-180 334.0118,-179.2259 330.7016,-178.3135 327.3974,-177.3171"/>
<polygon fill="#000000" stroke="#000000" points="328.182,-173.8919 317.5898,-174.1299 326.0185,-180.5492 328.182,-173.8919"/>
</g>
<!-- DataType&#45;&gt;Tensor3 -->
<g id="edge6" class="edge">
<title>DataType&#45;&gt;Tensor3</title>
<path fill="none" stroke="#000000" d="M715.0719,-227.3129C652.0545,-218.7247 543.0649,-202.2338 451.2416,-180 447.4357,-179.0784 443.5134,-178.0375 439.5916,-176.9323"/>
<polygon fill="#000000" stroke="#000000" points="440.4922,-173.549 429.9109,-174.0845 438.5166,-180.2645 440.4922,-173.549"/>
</g>
<!-- DataType&#45;&gt;Postag -->
<g id="edge8" class="edge">
<title>DataType&#45;&gt;Postag</title>
<path fill="none" stroke="#000000" d="M720.9858,-223.6273C677.4138,-213.5507 610.4651,-197.278 553.2416,-180 550.1406,-179.0637 546.9491,-178.0528 543.7478,-177.0045"/>
<polygon fill="#000000" stroke="#000000" points="544.7898,-173.6623 534.1957,-173.7843 542.5536,-180.2955 544.7898,-173.6623"/>
</g>
<!-- DataType&#45;&gt;Stem -->
<g id="edge9" class="edge">
<title>DataType&#45;&gt;Stem</title>
<path fill="none" stroke="#000000" d="M733.2482,-219.6028C704.5203,-207.4357 663.4572,-190.0442 633.978,-177.5589"/>
<polygon fill="#000000" stroke="#000000" points="635.0325,-174.2046 624.4593,-173.5275 632.3025,-180.6503 635.0325,-174.2046"/>
</g>
<!-- DataType&#45;&gt;Sentiment -->
<g id="edge10" class="edge">
<title>DataType&#45;&gt;Sentiment</title>
<path fill="none" stroke="#000000" d="M753.2015,-216.5708C746.1296,-207.7919 737.4233,-196.9841 729.6297,-187.3093"/>
<polygon fill="#000000" stroke="#000000" points="732.3525,-185.1101 723.3536,-179.5182 726.9012,-189.5015 732.3525,-185.1101"/>
</g>
<!-- DataType&#45;&gt;Entity -->
<g id="edge12" class="edge">
<title>DataType&#45;&gt;Entity</title>
<path fill="none" stroke="#000000" d="M781.5239,-216.5708C788.771,-207.7269 797.7054,-196.8239 805.6781,-187.0945"/>
<polygon fill="#000000" stroke="#000000" points="808.4598,-189.2219 812.0909,-179.2687 803.0455,-184.7851 808.4598,-189.2219"/>
</g>
<!-- DataType&#45;&gt;Text -->
<g id="edge15" class="edge">
<title>DataType&#45;&gt;Text</title>
<path fill="none" stroke="#000000" d="M798.2673,-218.9064C822.7696,-206.9864 856.8914,-190.3866 881.9601,-178.191"/>
<polygon fill="#000000" stroke="#000000" points="883.6245,-181.2736 891.0857,-173.7515 880.5622,-174.9789 883.6245,-181.2736"/>
</g>
<!-- DataType&#45;&gt;List -->
<g id="edge16" class="edge">
<title>DataType&#45;&gt;List</title>
<path fill="none" stroke="#000000" d="M812.351,-223.2442C850.8577,-213.5434 907.4288,-198.0536 955.2416,-180 957.1368,-179.2844 959.0676,-178.5125 961.004,-177.7048"/>
<polygon fill="#000000" stroke="#000000" points="962.8641,-180.7092 970.5944,-173.464 960.0332,-174.3072 962.8641,-180.7092"/>
</g>
<!-- DataType&#45;&gt;Matrix -->
<g id="edge17" class="edge">
<title>DataType&#45;&gt;Matrix</title>
<path fill="none" stroke="#000000" d="M817.3575,-225.8664C870.8241,-216.6984 957.7599,-200.3784 1031.2416,-180 1034.3632,-179.1343 1037.5696,-178.175 1040.7814,-177.1631"/>
<polygon fill="#000000" stroke="#000000" points="1041.95,-180.4633 1050.3531,-174.0105 1039.76,-173.8146 1041.95,-180.4633"/>
</g>
<!-- DataType&#45;&gt;Category -->
<g id="edge18" class="edge">
<title>DataType&#45;&gt;Category</title>
<path fill="none" stroke="#000000" d="M820.3654,-228.3882C891.9318,-220.3226 1023.0517,-203.7618 1133.2416,-180 1137.613,-179.0573 1142.1275,-177.9797 1146.638,-176.8308"/>
<polygon fill="#000000" stroke="#000000" points="1147.6817,-180.1751 1156.449,-174.2265 1145.8857,-173.4094 1147.6817,-180.1751"/>
</g>
<!-- DataType&#45;&gt;Chunktag -->
<g id="edge19" class="edge">
<title>DataType&#45;&gt;Chunktag</title>
<path fill="none" stroke="#000000" d="M822.6442,-230.8332C914.1872,-224.9511 1102.4918,-210.1032 1259.2416,-180 1263.8845,-179.1084 1268.6796,-178.0502 1273.4636,-176.9003"/>
<polygon fill="#000000" stroke="#000000" points="1274.378,-180.2793 1283.2151,-174.435 1272.6623,-173.4929 1274.378,-180.2793"/>
</g>
<!-- DataType&#45;&gt;Synset -->
<g id="edge21" class="edge">
<title>DataType&#45;&gt;Synset</title>
<path fill="none" stroke="#000000" d="M822.4444,-231.0083C953.9024,-223.5949 1282.5353,-203.2809 1390.2416,-180 1393.6488,-179.2635 1397.1403,-178.3621 1400.62,-177.3591"/>
<polygon fill="#000000" stroke="#000000" points="1401.8229,-180.65 1410.3158,-174.3158 1399.7265,-173.9712 1401.8229,-180.65"/>
</g>
</g>
</svg>
