<?xml version="1.0" encoding="UTF-8" standalone="no"?>
<!DOCTYPE svg PUBLIC "-//W3C//DTD SVG 1.1//EN"
 "http://www.w3.org/Graphics/SVG/1.1/DTD/svg11.dtd">
<!-- Generated by graphviz version 2.40.1 (20161225.0304)
 -->
<!-- Title: G Pages: 1 -->
<svg width="1728pt" height="260pt"
 viewBox="0.00 0.00 1727.74 260.00" xmlns="http://www.w3.org/2000/svg" xmlns:xlink="http://www.w3.org/1999/xlink">
<g id="graph0" class="graph" transform="scale(1 1) rotate(0) translate(4 256)">
<title>G</title>
<polygon fill="#ffffff" stroke="transparent" points="-4,4 -4,-256 1723.7364,-256 1723.7364,4 -4,4"/>
<!-- Matrix -->
<g id="node1" class="node">
<title>Matrix</title>
<ellipse fill="none" stroke="#000000" cx="313.139" cy="-162" rx="42.4939" ry="18"/>
<text text-anchor="middle" x="313.139" y="-158.3" font-family="Times,serif" font-size="14.00" fill="#000000">Matrix</text>
</g>
<!-- DenseMatrix -->
<g id="node12" class="node">
<title>DenseMatrix</title>
<ellipse fill="none" stroke="#000000" cx="98.139" cy="-90" rx="70.6878" ry="18"/>
<text text-anchor="middle" x="98.139" y="-86.3" font-family="Times,serif" font-size="14.00" fill="#000000">DenseMatrix</text>
</g>
<!-- Matrix&#45;&gt;DenseMatrix -->
<g id="edge13" class="edge">
<title>Matrix&#45;&gt;DenseMatrix</title>
<path fill="none" stroke="#000000" d="M279.5452,-150.75C245.0675,-139.204 190.9313,-121.0746 150.7629,-107.6229"/>
<polygon fill="#000000" stroke="#000000" points="151.7246,-104.254 141.1307,-104.3972 149.5017,-110.8916 151.7246,-104.254"/>
</g>
<!-- MatrixContinuous -->
<g id="node21" class="node">
<title>MatrixContinuous</title>
<ellipse fill="none" stroke="#000000" cx="282.139" cy="-90" rx="94.7833" ry="18"/>
<text text-anchor="middle" x="282.139" y="-86.3" font-family="Times,serif" font-size="14.00" fill="#000000">MatrixContinuous</text>
</g>
<!-- Matrix&#45;&gt;MatrixContinuous -->
<g id="edge22" class="edge">
<title>Matrix&#45;&gt;MatrixContinuous</title>
<path fill="none" stroke="#000000" d="M305.4761,-144.2022C301.9999,-136.1287 297.8102,-126.3976 293.9457,-117.422"/>
<polygon fill="#000000" stroke="#000000" points="297.0984,-115.8938 289.9291,-108.0931 290.669,-118.6621 297.0984,-115.8938"/>
</g>
<!-- SparseMatrix -->
<g id="node26" class="node">
<title>SparseMatrix</title>
<ellipse fill="none" stroke="#000000" cx="469.139" cy="-90" rx="74.187" ry="18"/>
<text text-anchor="middle" x="469.139" y="-86.3" font-family="Times,serif" font-size="14.00" fill="#000000">SparseMatrix</text>
</g>
<!-- Matrix&#45;&gt;SparseMatrix -->
<g id="edge28" class="edge">
<title>Matrix&#45;&gt;SparseMatrix</title>
<path fill="none" stroke="#000000" d="M342.1158,-148.6261C365.5254,-137.8217 398.8422,-122.4447 425.4815,-110.1496"/>
<polygon fill="#000000" stroke="#000000" points="426.9856,-113.3103 434.5984,-105.9418 424.0521,-106.9546 426.9856,-113.3103"/>
</g>
<!-- Word -->
<g id="node2" class="node">
<title>Word</title>
<ellipse fill="none" stroke="#000000" cx="1190.139" cy="-90" rx="35.9954" ry="18"/>
<text text-anchor="middle" x="1190.139" y="-86.3" font-family="Times,serif" font-size="14.00" fill="#000000">Word</text>
</g>
<!-- Category -->
<g id="node3" class="node">
<title>Category</title>
<ellipse fill="none" stroke="#000000" cx="458.139" cy="-162" rx="53.8905" ry="18"/>
<text text-anchor="middle" x="458.139" y="-158.3" font-family="Times,serif" font-size="14.00" fill="#000000">Category</text>
</g>
<!-- Chunktag -->
<g id="node4" class="node">
<title>Chunktag</title>
<ellipse fill="none" stroke="#000000" cx="586.139" cy="-162" rx="56.59" ry="18"/>
<text text-anchor="middle" x="586.139" y="-158.3" font-family="Times,serif" font-size="14.00" fill="#000000">Chunktag</text>
</g>
<!-- Synset -->
<g id="node5" class="node">
<title>Synset</title>
<ellipse fill="none" stroke="#000000" cx="703.139" cy="-162" rx="42.4939" ry="18"/>
<text text-anchor="middle" x="703.139" y="-158.3" font-family="Times,serif" font-size="14.00" fill="#000000">Synset</text>
</g>
<!-- Sentence -->
<g id="node6" class="node">
<title>Sentence</title>
<ellipse fill="none" stroke="#000000" cx="1298.139" cy="-90" rx="53.8905" ry="18"/>
<text text-anchor="middle" x="1298.139" y="-86.3" font-family="Times,serif" font-size="14.00" fill="#000000">Sentence</text>
</g>
<!-- Summary -->
<g id="node7" class="node">
<title>Summary</title>
<ellipse fill="none" stroke="#000000" cx="1428.139" cy="-18" rx="55.7903" ry="18"/>
<text text-anchor="middle" x="1428.139" y="-14.3" font-family="Times,serif" font-size="14.00" fill="#000000">Summary</text>
</g>
<!-- CategoricalVector -->
<g id="node8" class="node">
<title>CategoricalVector</title>
<ellipse fill="none" stroke="#000000" cx="656.139" cy="-90" rx="94.7833" ry="18"/>
<text text-anchor="middle" x="656.139" y="-86.3" font-family="Times,serif" font-size="14.00" fill="#000000">CategoricalVector</text>
</g>
<!-- MatrixContinuousSparse -->
<g id="node9" class="node">
<title>MatrixContinuousSparse</title>
<ellipse fill="none" stroke="#000000" cx="419.139" cy="-18" rx="127.2775" ry="18"/>
<text text-anchor="middle" x="419.139" y="-14.3" font-family="Times,serif" font-size="14.00" fill="#000000">MatrixContinuousSparse</text>
</g>
<!-- ContinuousVector -->
<g id="node10" class="node">
<title>ContinuousVector</title>
<ellipse fill="none" stroke="#000000" cx="863.139" cy="-90" rx="94.4839" ry="18"/>
<text text-anchor="middle" x="863.139" y="-86.3" font-family="Times,serif" font-size="14.00" fill="#000000">ContinuousVector</text>
</g>
<!-- Tuple -->
<g id="node11" class="node">
<title>Tuple</title>
<ellipse fill="none" stroke="#000000" cx="800.139" cy="-162" rx="37.0935" ry="18"/>
<text text-anchor="middle" x="800.139" y="-158.3" font-family="Times,serif" font-size="14.00" fill="#000000">Tuple</text>
</g>
<!-- MatrixContinuousDense -->
<g id="node23" class="node">
<title>MatrixContinuousDense</title>
<ellipse fill="none" stroke="#000000" cx="124.139" cy="-18" rx="124.2781" ry="18"/>
<text text-anchor="middle" x="124.139" y="-14.3" font-family="Times,serif" font-size="14.00" fill="#000000">MatrixContinuousDense</text>
</g>
<!-- DenseMatrix&#45;&gt;MatrixContinuousDense -->
<g id="edge25" class="edge">
<title>DenseMatrix&#45;&gt;MatrixContinuousDense</title>
<path fill="none" stroke="#000000" d="M104.6999,-71.8314C107.5417,-63.9617 110.9327,-54.5712 114.0809,-45.8533"/>
<polygon fill="#000000" stroke="#000000" points="117.3852,-47.0076 117.4897,-36.4133 110.8013,-44.63 117.3852,-47.0076"/>
</g>
<!-- Flags -->
<g id="node13" class="node">
<title>Flags</title>
<ellipse fill="none" stroke="#000000" cx="891.139" cy="-162" rx="36.2938" ry="18"/>
<text text-anchor="middle" x="891.139" y="-158.3" font-family="Times,serif" font-size="14.00" fill="#000000">Flags</text>
</g>
<!-- Vector -->
<g id="node14" class="node">
<title>Vector</title>
<ellipse fill="none" stroke="#000000" cx="986.139" cy="-162" rx="40.8928" ry="18"/>
<text text-anchor="middle" x="986.139" y="-158.3" font-family="Times,serif" font-size="14.00" fill="#000000">Vector</text>
</g>
<!-- Vector&#45;&gt;CategoricalVector -->
<g id="edge8" class="edge">
<title>Vector&#45;&gt;CategoricalVector</title>
<path fill="none" stroke="#000000" d="M955.1722,-150.0102C948.9268,-147.8312 942.3665,-145.7104 936.139,-144 899.2829,-133.8776 805.0253,-116.3212 736.0174,-103.9809"/>
<polygon fill="#000000" stroke="#000000" points="736.4881,-100.5097 726.0289,-102.1995 735.2591,-107.401 736.4881,-100.5097"/>
</g>
<!-- Vector&#45;&gt;ContinuousVector -->
<g id="edge11" class="edge">
<title>Vector&#45;&gt;ContinuousVector</title>
<path fill="none" stroke="#000000" d="M961.5437,-147.6028C944.2778,-137.4959 920.8536,-123.7842 901.1906,-112.2741"/>
<polygon fill="#000000" stroke="#000000" points="902.8548,-109.1927 892.4565,-107.1615 899.3185,-115.2339 902.8548,-109.1927"/>
</g>
<!-- DiscreteVector -->
<g id="node24" class="node">
<title>DiscreteVector</title>
<ellipse fill="none" stroke="#000000" cx="1056.139" cy="-90" rx="80.6858" ry="18"/>
<text text-anchor="middle" x="1056.139" y="-86.3" font-family="Times,serif" font-size="14.00" fill="#000000">DiscreteVector</text>
</g>
<!-- Vector&#45;&gt;DiscreteVector -->
<g id="edge26" class="edge">
<title>Vector&#45;&gt;DiscreteVector</title>
<path fill="none" stroke="#000000" d="M1002.3743,-145.3008C1011.1285,-136.2965 1022.1062,-125.0052 1031.8559,-114.9769"/>
<polygon fill="#000000" stroke="#000000" points="1034.5537,-117.2229 1039.0151,-107.6132 1029.5348,-112.3434 1034.5537,-117.2229"/>
</g>
<!-- Tensor3 -->
<g id="node15" class="node">
<title>Tensor3</title>
<ellipse fill="none" stroke="#000000" cx="1093.139" cy="-162" rx="48.1917" ry="18"/>
<text text-anchor="middle" x="1093.139" y="-158.3" font-family="Times,serif" font-size="14.00" fill="#000000">Tensor3</text>
</g>
<!-- Text -->
<g id="node16" class="node">
<title>Text</title>
<ellipse fill="none" stroke="#000000" cx="1190.139" cy="-162" rx="31.3957" ry="18"/>
<text text-anchor="middle" x="1190.139" y="-158.3" font-family="Times,serif" font-size="14.00" fill="#000000">Text</text>
</g>
<!-- Text&#45;&gt;Word -->
<g id="edge2" class="edge">
<title>Text&#45;&gt;Word</title>
<path fill="none" stroke="#000000" d="M1190.139,-143.8314C1190.139,-136.131 1190.139,-126.9743 1190.139,-118.4166"/>
<polygon fill="#000000" stroke="#000000" points="1193.6391,-118.4132 1190.139,-108.4133 1186.6391,-118.4133 1193.6391,-118.4132"/>
</g>
<!-- Text&#45;&gt;Sentence -->
<g id="edge6" class="edge">
<title>Text&#45;&gt;Sentence</title>
<path fill="none" stroke="#000000" d="M1210.7072,-148.2879C1226.1701,-137.9792 1247.6628,-123.6508 1265.4688,-111.7801"/>
<polygon fill="#000000" stroke="#000000" points="1267.4921,-114.6378 1273.8712,-106.1785 1263.6092,-108.8134 1267.4921,-114.6378"/>
</g>
<!-- Document -->
<g id="node17" class="node">
<title>Document</title>
<ellipse fill="none" stroke="#000000" cx="1428.139" cy="-90" rx="58.4896" ry="18"/>
<text text-anchor="middle" x="1428.139" y="-86.3" font-family="Times,serif" font-size="14.00" fill="#000000">Document</text>
</g>
<!-- Text&#45;&gt;Document -->
<g id="edge18" class="edge">
<title>Text&#45;&gt;Document</title>
<path fill="none" stroke="#000000" d="M1214.4285,-150.3408C1219.5564,-148.0861 1224.9783,-145.852 1230.139,-144 1237.0793,-141.5093 1317.8549,-119.6551 1374.0619,-104.5244"/>
<polygon fill="#000000" stroke="#000000" points="1375.1521,-107.8557 1383.8992,-101.8774 1373.3332,-101.0961 1375.1521,-107.8557"/>
</g>
<!-- Document&#45;&gt;Summary -->
<g id="edge7" class="edge">
<title>Document&#45;&gt;Summary</title>
<path fill="none" stroke="#000000" d="M1428.139,-71.8314C1428.139,-64.131 1428.139,-54.9743 1428.139,-46.4166"/>
<polygon fill="#000000" stroke="#000000" points="1431.6391,-46.4132 1428.139,-36.4133 1424.6391,-46.4133 1431.6391,-46.4132"/>
</g>
<!-- Postag -->
<g id="node18" class="node">
<title>Postag</title>
<ellipse fill="none" stroke="#000000" cx="1281.139" cy="-162" rx="42.4939" ry="18"/>
<text text-anchor="middle" x="1281.139" y="-158.3" font-family="Times,serif" font-size="14.00" fill="#000000">Postag</text>
</g>
<!-- Sentiment -->
<g id="node19" class="node">
<title>Sentiment</title>
<ellipse fill="none" stroke="#000000" cx="1400.139" cy="-162" rx="59.2899" ry="18"/>
<text text-anchor="middle" x="1400.139" y="-158.3" font-family="Times,serif" font-size="14.00" fill="#000000">Sentiment</text>
</g>
<!-- Stem -->
<g id="node20" class="node">
<title>Stem</title>
<ellipse fill="none" stroke="#000000" cx="1512.139" cy="-162" rx="35.194" ry="18"/>
<text text-anchor="middle" x="1512.139" y="-158.3" font-family="Times,serif" font-size="14.00" fill="#000000">Stem</text>
</g>
<!-- MatrixContinuous&#45;&gt;MatrixContinuousSparse -->
<g id="edge9" class="edge">
<title>MatrixContinuous&#45;&gt;MatrixContinuousSparse</title>
<path fill="none" stroke="#000000" d="M314.6061,-72.937C333.27,-63.1282 356.9232,-50.6974 377.0073,-40.1422"/>
<polygon fill="#000000" stroke="#000000" points="378.7295,-43.1911 385.9533,-35.4407 375.473,-36.9947 378.7295,-43.1911"/>
</g>
<!-- MatrixContinuous&#45;&gt;MatrixContinuousDense -->
<g id="edge24" class="edge">
<title>MatrixContinuous&#45;&gt;MatrixContinuousDense</title>
<path fill="none" stroke="#000000" d="M245.4935,-73.3008C223.3618,-63.2155 194.9337,-50.2609 171.1563,-39.4256"/>
<polygon fill="#000000" stroke="#000000" points="172.5099,-36.1962 161.9588,-35.2344 169.6072,-42.566 172.5099,-36.1962"/>
</g>
<!-- Entity -->
<g id="node22" class="node">
<title>Entity</title>
<ellipse fill="none" stroke="#000000" cx="1605.139" cy="-162" rx="39.7935" ry="18"/>
<text text-anchor="middle" x="1605.139" y="-158.3" font-family="Times,serif" font-size="14.00" fill="#000000">Entity</text>
</g>
<!-- List -->
<g id="node25" class="node">
<title>List</title>
<ellipse fill="none" stroke="#000000" cx="1691.139" cy="-162" rx="28.6953" ry="18"/>
<text text-anchor="middle" x="1691.139" y="-158.3" font-family="Times,serif" font-size="14.00" fill="#000000">List</text>
</g>
<!-- SparseMatrix&#45;&gt;MatrixContinuousSparse -->
<g id="edge10" class="edge">
<title>SparseMatrix&#45;&gt;MatrixContinuousSparse</title>
<path fill="none" stroke="#000000" d="M456.7794,-72.2022C450.9939,-63.871 443.9826,-53.7748 437.5869,-44.565"/>
<polygon fill="#000000" stroke="#000000" points="440.2825,-42.3104 431.7037,-36.0931 434.5329,-46.3032 440.2825,-42.3104"/>
</g>
<!-- DataType -->
<g id="node27" class="node">
<title>DataType</title>
<ellipse fill="none" stroke="#000000" cx="1039.139" cy="-234" rx="55.7903" ry="18"/>
<text text-anchor="middle" x="1039.139" y="-230.3" font-family="Times,serif" font-size="14.00" fill="#000000">DataType</text>
</g>
<!-- DataType&#45;&gt;Matrix -->
<g id="edge1" class="edge">
<title>DataType&#45;&gt;Matrix</title>
<path fill="none" stroke="#000000" d="M983.2876,-231.8084C871.2265,-226.8629 611.1951,-212.625 395.139,-180 383.5466,-178.2495 371.1434,-175.822 359.5835,-173.3157"/>
<polygon fill="#000000" stroke="#000000" points="360.2055,-169.8685 349.6834,-171.1079 358.6818,-176.7007 360.2055,-169.8685"/>
</g>
<!-- DataType&#45;&gt;Category -->
<g id="edge3" class="edge">
<title>DataType&#45;&gt;Category</title>
<path fill="none" stroke="#000000" d="M983.7349,-231.4923C888.2986,-226.4499 687.0612,-212.6418 520.139,-180 515.9315,-179.1772 511.5972,-178.1985 507.2679,-177.1287"/>
<polygon fill="#000000" stroke="#000000" points="507.7982,-173.6495 497.2374,-174.4981 506.0223,-180.4205 507.7982,-173.6495"/>
</g>
<!-- DataType&#45;&gt;Chunktag -->
<g id="edge4" class="edge">
<title>DataType&#45;&gt;Chunktag</title>
<path fill="none" stroke="#000000" d="M985.5618,-228.7109C910.5272,-220.8085 770.0931,-204.211 652.139,-180 647.4416,-179.0358 642.5843,-177.9281 637.7343,-176.746"/>
<polygon fill="#000000" stroke="#000000" points="638.3964,-173.3031 627.8428,-174.2374 636.6755,-180.0883 638.3964,-173.3031"/>
</g>
<!-- DataType&#45;&gt;Synset -->
<g id="edge5" class="edge">
<title>DataType&#45;&gt;Synset</title>
<path fill="none" stroke="#000000" d="M987.9007,-226.6974C930.4382,-217.9533 834.7337,-201.7227 754.139,-180 750.9659,-179.1448 747.7072,-178.1869 744.4455,-177.1705"/>
<polygon fill="#000000" stroke="#000000" points="745.3272,-173.7764 734.7345,-173.9897 743.1482,-180.4286 745.3272,-173.7764"/>
</g>
<!-- DataType&#45;&gt;Tuple -->
<g id="edge12" class="edge">
<title>DataType&#45;&gt;Tuple</title>
<path fill="none" stroke="#000000" d="M994.6811,-222.9137C955.3144,-212.777 896.4572,-196.8372 846.139,-180 843.5594,-179.1369 840.9129,-178.2113 838.2557,-177.252"/>
<polygon fill="#000000" stroke="#000000" points="839.279,-173.8981 828.6863,-173.6818 836.8321,-180.4566 839.279,-173.8981"/>
</g>
<!-- DataType&#45;&gt;Flags -->
<g id="edge14" class="edge">
<title>DataType&#45;&gt;Flags</title>
<path fill="none" stroke="#000000" d="M1008.1133,-218.9064C984.2123,-207.2789 951.1581,-191.1985 926.2822,-179.0967"/>
<polygon fill="#000000" stroke="#000000" points="927.7083,-175.8983 917.1847,-174.6709 924.646,-182.1929 927.7083,-175.8983"/>
</g>
<!-- DataType&#45;&gt;Vector -->
<g id="edge15" class="edge">
<title>DataType&#45;&gt;Vector</title>
<path fill="none" stroke="#000000" d="M1026.0379,-216.2022C1019.7011,-207.5938 1011.9773,-197.1011 1005.0193,-187.6488"/>
<polygon fill="#000000" stroke="#000000" points="1007.6534,-185.3231 998.9065,-179.3446 1002.0161,-189.4728 1007.6534,-185.3231"/>
</g>
<!-- DataType&#45;&gt;Tensor3 -->
<g id="edge16" class="edge">
<title>DataType&#45;&gt;Tensor3</title>
<path fill="none" stroke="#000000" d="M1052.4873,-216.2022C1059.0095,-207.506 1066.9739,-196.8867 1074.1192,-187.3598"/>
<polygon fill="#000000" stroke="#000000" points="1076.9305,-189.4446 1080.1305,-179.3446 1071.3305,-185.2446 1076.9305,-189.4446"/>
</g>
<!-- DataType&#45;&gt;Text -->
<g id="edge17" class="edge">
<title>DataType&#45;&gt;Text</title>
<path fill="none" stroke="#000000" d="M1070.4263,-219.0816C1095.5507,-207.1017 1130.7606,-190.3129 1156.4905,-178.0443"/>
<polygon fill="#000000" stroke="#000000" points="1158.3268,-181.0463 1165.8468,-173.583 1155.314,-174.7278 1158.3268,-181.0463"/>
</g>
<!-- DataType&#45;&gt;Postag -->
<g id="edge19" class="edge">
<title>DataType&#45;&gt;Postag</title>
<path fill="none" stroke="#000000" d="M1082.6121,-222.5573C1121.4785,-212.1261 1179.8876,-195.9536 1230.139,-180 1233.0867,-179.0642 1236.1201,-178.0712 1239.1684,-177.0513"/>
<polygon fill="#000000" stroke="#000000" points="1240.5361,-180.2827 1248.8684,-173.7388 1238.2738,-173.6583 1240.5361,-180.2827"/>
</g>
<!-- DataType&#45;&gt;Sentiment -->
<g id="edge20" class="edge">
<title>DataType&#45;&gt;Sentiment</title>
<path fill="none" stroke="#000000" d="M1089.4054,-225.939C1147.9556,-216.2717 1247.4718,-198.9788 1332.139,-180 1336.8087,-178.9532 1341.6422,-177.8052 1346.4799,-176.6113"/>
<polygon fill="#000000" stroke="#000000" points="1347.5265,-179.957 1356.3647,-174.1143 1345.812,-173.1702 1347.5265,-179.957"/>
</g>
<!-- DataType&#45;&gt;Stem -->
<g id="edge21" class="edge">
<title>DataType&#45;&gt;Stem</title>
<path fill="none" stroke="#000000" d="M1094.8747,-231.6586C1177.5668,-227.1417 1337.0853,-214.4098 1468.139,-180 1470.7434,-179.3162 1473.3986,-178.5143 1476.0493,-177.6356"/>
<polygon fill="#000000" stroke="#000000" points="1477.3268,-180.8954 1485.5303,-174.1906 1474.9362,-174.3162 1477.3268,-180.8954"/>
</g>
<!-- DataType&#45;&gt;Entity -->
<g id="edge23" class="edge">
<title>DataType&#45;&gt;Entity</title>
<path fill="none" stroke="#000000" d="M1094.9739,-232.6873C1190.5896,-229.4408 1391.3105,-218.256 1556.139,-180 1559.3612,-179.2521 1562.6608,-178.3516 1565.95,-177.3572"/>
<polygon fill="#000000" stroke="#000000" points="1567.2933,-180.5999 1575.6993,-174.1508 1565.1063,-173.9502 1567.2933,-180.5999"/>
</g>
<!-- DataType&#45;&gt;List -->
<g id="edge27" class="edge">
<title>DataType&#45;&gt;List</title>
<path fill="none" stroke="#000000" d="M1094.7888,-231.7056C1225.6169,-225.8945 1549.5544,-208.9648 1654.139,-180 1656.101,-179.4566 1658.0847,-178.8111 1660.061,-178.093"/>
<polygon fill="#000000" stroke="#000000" points="1661.8761,-181.1273 1669.7457,-174.0335 1659.1701,-174.6715 1661.8761,-181.1273"/>
</g>
</g>
</svg>
