<?xml version="1.0" encoding="UTF-8" standalone="no"?>
<!DOCTYPE svg PUBLIC "-//W3C//DTD SVG 1.1//EN"
 "http://www.w3.org/Graphics/SVG/1.1/DTD/svg11.dtd">
<!-- Generated by graphviz version 2.40.1 (20161225.0304)
 -->
<!-- Title: G Pages: 1 -->
<svg width="1508pt" height="260pt"
 viewBox="0.00 0.00 1507.63 260.00" xmlns="http://www.w3.org/2000/svg" xmlns:xlink="http://www.w3.org/1999/xlink">
<g id="graph0" class="graph" transform="scale(1 1) rotate(0) translate(4 256)">
<title>G</title>
<polygon fill="#ffffff" stroke="transparent" points="-4,4 -4,-256 1503.6338,-256 1503.6338,4 -4,4"/>
<!-- MatrixContinuous -->
<g id="node1" class="node">
<title>MatrixContinuous</title>
<ellipse fill="none" stroke="#000000" cx="282.139" cy="-90" rx="94.7833" ry="18"/>
<text text-anchor="middle" x="282.139" y="-86.3" font-family="Times,serif" font-size="14.00" fill="#000000">MatrixContinuous</text>
</g>
<!-- MatrixContinuousDense -->
<g id="node3" class="node">
<title>MatrixContinuousDense</title>
<ellipse fill="none" stroke="#000000" cx="124.139" cy="-18" rx="124.2781" ry="18"/>
<text text-anchor="middle" x="124.139" y="-14.3" font-family="Times,serif" font-size="14.00" fill="#000000">MatrixContinuousDense</text>
</g>
<!-- MatrixContinuous&#45;&gt;MatrixContinuousDense -->
<g id="edge3" class="edge">
<title>MatrixContinuous&#45;&gt;MatrixContinuousDense</title>
<path fill="none" stroke="#000000" d="M245.4935,-73.3008C223.3618,-63.2155 194.9337,-50.2609 171.1563,-39.4256"/>
<polygon fill="#000000" stroke="#000000" points="172.5099,-36.1962 161.9588,-35.2344 169.6072,-42.566 172.5099,-36.1962"/>
</g>
<!-- MatrixContinuousSparse -->
<g id="node15" class="node">
<title>MatrixContinuousSparse</title>
<ellipse fill="none" stroke="#000000" cx="419.139" cy="-18" rx="127.2775" ry="18"/>
<text text-anchor="middle" x="419.139" y="-14.3" font-family="Times,serif" font-size="14.00" fill="#000000">MatrixContinuousSparse</text>
</g>
<!-- MatrixContinuous&#45;&gt;MatrixContinuousSparse -->
<g id="edge16" class="edge">
<title>MatrixContinuous&#45;&gt;MatrixContinuousSparse</title>
<path fill="none" stroke="#000000" d="M314.6061,-72.937C333.27,-63.1282 356.9232,-50.6974 377.0073,-40.1422"/>
<polygon fill="#000000" stroke="#000000" points="378.7295,-43.1911 385.9533,-35.4407 375.473,-36.9947 378.7295,-43.1911"/>
</g>
<!-- Entity -->
<g id="node2" class="node">
<title>Entity</title>
<ellipse fill="none" stroke="#000000" cx="107.139" cy="-162" rx="39.7935" ry="18"/>
<text text-anchor="middle" x="107.139" y="-158.3" font-family="Times,serif" font-size="14.00" fill="#000000">Entity</text>
</g>
<!-- DiscreteVector -->
<g id="node4" class="node">
<title>DiscreteVector</title>
<ellipse fill="none" stroke="#000000" cx="655.139" cy="-90" rx="80.6858" ry="18"/>
<text text-anchor="middle" x="655.139" y="-86.3" font-family="Times,serif" font-size="14.00" fill="#000000">DiscreteVector</text>
</g>
<!-- SparseMatrix -->
<g id="node5" class="node">
<title>SparseMatrix</title>
<ellipse fill="none" stroke="#000000" cx="469.139" cy="-90" rx="74.187" ry="18"/>
<text text-anchor="middle" x="469.139" y="-86.3" font-family="Times,serif" font-size="14.00" fill="#000000">SparseMatrix</text>
</g>
<!-- SparseMatrix&#45;&gt;MatrixContinuousSparse -->
<g id="edge17" class="edge">
<title>SparseMatrix&#45;&gt;MatrixContinuousSparse</title>
<path fill="none" stroke="#000000" d="M456.7794,-72.2022C450.9939,-63.871 443.9826,-53.7748 437.5869,-44.565"/>
<polygon fill="#000000" stroke="#000000" points="440.2825,-42.3104 431.7037,-36.0931 434.5329,-46.3032 440.2825,-42.3104"/>
</g>
<!-- List -->
<g id="node6" class="node">
<title>List</title>
<ellipse fill="none" stroke="#000000" cx="193.139" cy="-162" rx="28.6953" ry="18"/>
<text text-anchor="middle" x="193.139" y="-158.3" font-family="Times,serif" font-size="14.00" fill="#000000">List</text>
</g>
<!-- Matrix -->
<g id="node7" class="node">
<title>Matrix</title>
<ellipse fill="none" stroke="#000000" cx="282.139" cy="-162" rx="42.4939" ry="18"/>
<text text-anchor="middle" x="282.139" y="-158.3" font-family="Times,serif" font-size="14.00" fill="#000000">Matrix</text>
</g>
<!-- Matrix&#45;&gt;MatrixContinuous -->
<g id="edge1" class="edge">
<title>Matrix&#45;&gt;MatrixContinuous</title>
<path fill="none" stroke="#000000" d="M282.139,-143.8314C282.139,-136.131 282.139,-126.9743 282.139,-118.4166"/>
<polygon fill="#000000" stroke="#000000" points="285.6391,-118.4132 282.139,-108.4133 278.6391,-118.4133 285.6391,-118.4132"/>
</g>
<!-- Matrix&#45;&gt;SparseMatrix -->
<g id="edge6" class="edge">
<title>Matrix&#45;&gt;SparseMatrix</title>
<path fill="none" stroke="#000000" d="M313.861,-149.7862C342.8823,-138.6122 386.2764,-121.9043 419.8196,-108.9893"/>
<polygon fill="#000000" stroke="#000000" points="421.3672,-112.1439 429.4418,-105.2845 418.852,-105.6114 421.3672,-112.1439"/>
</g>
<!-- DenseMatrix -->
<g id="node19" class="node">
<title>DenseMatrix</title>
<ellipse fill="none" stroke="#000000" cx="98.139" cy="-90" rx="70.6878" ry="18"/>
<text text-anchor="middle" x="98.139" y="-86.3" font-family="Times,serif" font-size="14.00" fill="#000000">DenseMatrix</text>
</g>
<!-- Matrix&#45;&gt;DenseMatrix -->
<g id="edge21" class="edge">
<title>Matrix&#45;&gt;DenseMatrix</title>
<path fill="none" stroke="#000000" d="M250.9259,-149.7862C222.2768,-138.5757 179.393,-121.795 146.3438,-108.8628"/>
<polygon fill="#000000" stroke="#000000" points="147.4553,-105.5393 136.8674,-105.1546 144.9044,-112.058 147.4553,-105.5393"/>
</g>
<!-- Word -->
<g id="node8" class="node">
<title>Word</title>
<ellipse fill="none" stroke="#000000" cx="1203.139" cy="-90" rx="35.9954" ry="18"/>
<text text-anchor="middle" x="1203.139" y="-86.3" font-family="Times,serif" font-size="14.00" fill="#000000">Word</text>
</g>
<!-- Category -->
<g id="node9" class="node">
<title>Category</title>
<ellipse fill="none" stroke="#000000" cx="396.139" cy="-162" rx="53.8905" ry="18"/>
<text text-anchor="middle" x="396.139" y="-158.3" font-family="Times,serif" font-size="14.00" fill="#000000">Category</text>
</g>
<!-- Chunktag -->
<g id="node10" class="node">
<title>Chunktag</title>
<ellipse fill="none" stroke="#000000" cx="524.139" cy="-162" rx="56.59" ry="18"/>
<text text-anchor="middle" x="524.139" y="-158.3" font-family="Times,serif" font-size="14.00" fill="#000000">Chunktag</text>
</g>
<!-- Synset -->
<g id="node11" class="node">
<title>Synset</title>
<ellipse fill="none" stroke="#000000" cx="641.139" cy="-162" rx="42.4939" ry="18"/>
<text text-anchor="middle" x="641.139" y="-158.3" font-family="Times,serif" font-size="14.00" fill="#000000">Synset</text>
</g>
<!-- Sentence -->
<g id="node12" class="node">
<title>Sentence</title>
<ellipse fill="none" stroke="#000000" cx="1311.139" cy="-90" rx="53.8905" ry="18"/>
<text text-anchor="middle" x="1311.139" y="-86.3" font-family="Times,serif" font-size="14.00" fill="#000000">Sentence</text>
</g>
<!-- Summary -->
<g id="node13" class="node">
<title>Summary</title>
<ellipse fill="none" stroke="#000000" cx="1441.139" cy="-18" rx="55.7903" ry="18"/>
<text text-anchor="middle" x="1441.139" y="-14.3" font-family="Times,serif" font-size="14.00" fill="#000000">Summary</text>
</g>
<!-- CategoricalVector -->
<g id="node14" class="node">
<title>CategoricalVector</title>
<ellipse fill="none" stroke="#000000" cx="848.139" cy="-90" rx="94.7833" ry="18"/>
<text text-anchor="middle" x="848.139" y="-86.3" font-family="Times,serif" font-size="14.00" fill="#000000">CategoricalVector</text>
</g>
<!-- Stem -->
<g id="node16" class="node">
<title>Stem</title>
<ellipse fill="none" stroke="#000000" cx="736.139" cy="-162" rx="35.194" ry="18"/>
<text text-anchor="middle" x="736.139" y="-158.3" font-family="Times,serif" font-size="14.00" fill="#000000">Stem</text>
</g>
<!-- ContinuousVector -->
<g id="node17" class="node">
<title>ContinuousVector</title>
<ellipse fill="none" stroke="#000000" cx="1055.139" cy="-90" rx="94.4839" ry="18"/>
<text text-anchor="middle" x="1055.139" y="-86.3" font-family="Times,serif" font-size="14.00" fill="#000000">ContinuousVector</text>
</g>
<!-- Tuple -->
<g id="node18" class="node">
<title>Tuple</title>
<ellipse fill="none" stroke="#000000" cx="826.139" cy="-162" rx="37.0935" ry="18"/>
<text text-anchor="middle" x="826.139" y="-158.3" font-family="Times,serif" font-size="14.00" fill="#000000">Tuple</text>
</g>
<!-- DenseMatrix&#45;&gt;MatrixContinuousDense -->
<g id="edge4" class="edge">
<title>DenseMatrix&#45;&gt;MatrixContinuousDense</title>
<path fill="none" stroke="#000000" d="M104.6999,-71.8314C107.5417,-63.9617 110.9327,-54.5712 114.0809,-45.8533"/>
<polygon fill="#000000" stroke="#000000" points="117.3852,-47.0076 117.4897,-36.4133 110.8013,-44.63 117.3852,-47.0076"/>
</g>
<!-- Flags -->
<g id="node20" class="node">
<title>Flags</title>
<ellipse fill="none" stroke="#000000" cx="917.139" cy="-162" rx="36.2938" ry="18"/>
<text text-anchor="middle" x="917.139" y="-158.3" font-family="Times,serif" font-size="14.00" fill="#000000">Flags</text>
</g>
<!-- Vector -->
<g id="node21" class="node">
<title>Vector</title>
<ellipse fill="none" stroke="#000000" cx="1012.139" cy="-162" rx="40.8928" ry="18"/>
<text text-anchor="middle" x="1012.139" y="-158.3" font-family="Times,serif" font-size="14.00" fill="#000000">Vector</text>
</g>
<!-- Vector&#45;&gt;DiscreteVector -->
<g id="edge5" class="edge">
<title>Vector&#45;&gt;DiscreteVector</title>
<path fill="none" stroke="#000000" d="M981.4753,-149.9704C975.1471,-147.7691 968.4782,-145.6498 962.139,-144 867.1037,-119.2665 840.7251,-125.7362 744.139,-108 737.8304,-106.8415 731.2789,-105.5966 724.7212,-104.322"/>
<polygon fill="#000000" stroke="#000000" points="724.9321,-100.7966 714.4449,-102.3028 723.5824,-107.6653 724.9321,-100.7966"/>
</g>
<!-- Vector&#45;&gt;CategoricalVector -->
<g id="edge15" class="edge">
<title>Vector&#45;&gt;CategoricalVector</title>
<path fill="none" stroke="#000000" d="M982.8191,-149.1278C958.4829,-138.4437 923.4114,-123.0464 895.1583,-110.6426"/>
<polygon fill="#000000" stroke="#000000" points="896.427,-107.3772 885.8636,-106.562 893.6131,-113.7867 896.427,-107.3772"/>
</g>
<!-- Vector&#45;&gt;ContinuousVector -->
<g id="edge19" class="edge">
<title>Vector&#45;&gt;ContinuousVector</title>
<path fill="none" stroke="#000000" d="M1022.5481,-144.5708C1027.5067,-136.2679 1033.5493,-126.1502 1039.0782,-116.8925"/>
<polygon fill="#000000" stroke="#000000" points="1042.2541,-118.4006 1044.3767,-108.0206 1036.2443,-114.8114 1042.2541,-118.4006"/>
</g>
<!-- Tensor3 -->
<g id="node22" class="node">
<title>Tensor3</title>
<ellipse fill="none" stroke="#000000" cx="1119.139" cy="-162" rx="48.1917" ry="18"/>
<text text-anchor="middle" x="1119.139" y="-158.3" font-family="Times,serif" font-size="14.00" fill="#000000">Tensor3</text>
</g>
<!-- Text -->
<g id="node23" class="node">
<title>Text</title>
<ellipse fill="none" stroke="#000000" cx="1216.139" cy="-162" rx="31.3957" ry="18"/>
<text text-anchor="middle" x="1216.139" y="-158.3" font-family="Times,serif" font-size="14.00" fill="#000000">Text</text>
</g>
<!-- Text&#45;&gt;Word -->
<g id="edge9" class="edge">
<title>Text&#45;&gt;Word</title>
<path fill="none" stroke="#000000" d="M1212.8585,-143.8314C1211.4682,-136.131 1209.8149,-126.9743 1208.2698,-118.4166"/>
<polygon fill="#000000" stroke="#000000" points="1211.6848,-117.6322 1206.4636,-108.4133 1204.7962,-118.8761 1211.6848,-117.6322"/>
</g>
<!-- Text&#45;&gt;Sentence -->
<g id="edge13" class="edge">
<title>Text&#45;&gt;Sentence</title>
<path fill="none" stroke="#000000" d="M1235.3637,-147.4297C1248.5385,-137.4446 1266.2762,-124.0013 1281.278,-112.6315"/>
<polygon fill="#000000" stroke="#000000" points="1283.4288,-115.3931 1289.2844,-106.5634 1279.2007,-109.8143 1283.4288,-115.3931"/>
</g>
<!-- Document -->
<g id="node24" class="node">
<title>Document</title>
<ellipse fill="none" stroke="#000000" cx="1441.139" cy="-90" rx="58.4896" ry="18"/>
<text text-anchor="middle" x="1441.139" y="-86.3" font-family="Times,serif" font-size="14.00" fill="#000000">Document</text>
</g>
<!-- Text&#45;&gt;Document -->
<g id="edge26" class="edge">
<title>Text&#45;&gt;Document</title>
<path fill="none" stroke="#000000" d="M1240.4543,-150.4117C1245.5804,-148.1518 1250.9949,-145.8977 1256.139,-144 1280.2657,-135.0992 1342.1223,-117.4172 1387.6981,-104.709"/>
<polygon fill="#000000" stroke="#000000" points="1388.75,-108.0494 1397.4462,-101.9974 1386.874,-101.3055 1388.75,-108.0494"/>
</g>
<!-- Document&#45;&gt;Summary -->
<g id="edge14" class="edge">
<title>Document&#45;&gt;Summary</title>
<path fill="none" stroke="#000000" d="M1441.139,-71.8314C1441.139,-64.131 1441.139,-54.9743 1441.139,-46.4166"/>
<polygon fill="#000000" stroke="#000000" points="1444.6391,-46.4132 1441.139,-36.4133 1437.6391,-46.4133 1444.6391,-46.4132"/>
</g>
<!-- Postag -->
<g id="node25" class="node">
<title>Postag</title>
<ellipse fill="none" stroke="#000000" cx="1307.139" cy="-162" rx="42.4939" ry="18"/>
<text text-anchor="middle" x="1307.139" y="-158.3" font-family="Times,serif" font-size="14.00" fill="#000000">Postag</text>
</g>
<!-- Sentiment -->
<g id="node26" class="node">
<title>Sentiment</title>
<ellipse fill="none" stroke="#000000" cx="1426.139" cy="-162" rx="59.2899" ry="18"/>
<text text-anchor="middle" x="1426.139" y="-158.3" font-family="Times,serif" font-size="14.00" fill="#000000">Sentiment</text>
</g>
<!-- DataType -->
<g id="node27" class="node">
<title>DataType</title>
<ellipse fill="none" stroke="#000000" cx="781.139" cy="-234" rx="55.7903" ry="18"/>
<text text-anchor="middle" x="781.139" y="-230.3" font-family="Times,serif" font-size="14.00" fill="#000000">DataType</text>
</g>
<!-- DataType&#45;&gt;Entity -->
<g id="edge2" class="edge">
<title>DataType&#45;&gt;Entity</title>
<path fill="none" stroke="#000000" d="M725.6406,-231.1552C593.4834,-224.0677 263.1322,-204.4228 155.139,-180 152.1116,-179.3153 149.0182,-178.4832 145.933,-177.5564"/>
<polygon fill="#000000" stroke="#000000" points="146.7908,-174.1537 136.1976,-174.3388 144.5941,-180.8002 146.7908,-174.1537"/>
</g>
<!-- DataType&#45;&gt;List -->
<g id="edge7" class="edge">
<title>DataType&#45;&gt;List</title>
<path fill="none" stroke="#000000" d="M725.6188,-230.9759C605.1614,-224.0209 323.2584,-205.5068 231.139,-180 228.824,-179.359 226.4762,-178.5854 224.1424,-177.7238"/>
<polygon fill="#000000" stroke="#000000" points="225.3232,-174.424 214.7466,-173.8015 222.6265,-180.8838 225.3232,-174.424"/>
</g>
<!-- DataType&#45;&gt;Matrix -->
<g id="edge8" class="edge">
<title>DataType&#45;&gt;Matrix</title>
<path fill="none" stroke="#000000" d="M725.6338,-231.2285C640.2993,-226.0926 472.1674,-212.4976 333.139,-180 329.7918,-179.2176 326.359,-178.2909 322.9334,-177.2771"/>
<polygon fill="#000000" stroke="#000000" points="323.9665,-173.9329 313.376,-174.2371 321.8446,-180.6036 323.9665,-173.9329"/>
</g>
<!-- DataType&#45;&gt;Category -->
<g id="edge10" class="edge">
<title>DataType&#45;&gt;Category</title>
<path fill="none" stroke="#000000" d="M729.3089,-227.2394C665.2026,-218.4414 552.9293,-201.6057 458.139,-180 454.0819,-179.0753 449.8977,-178.0402 445.7085,-176.9462"/>
<polygon fill="#000000" stroke="#000000" points="446.5494,-173.5479 435.9821,-174.311 444.7188,-180.3044 446.5494,-173.5479"/>
</g>
<!-- DataType&#45;&gt;Chunktag -->
<g id="edge11" class="edge">
<title>DataType&#45;&gt;Chunktag</title>
<path fill="none" stroke="#000000" d="M738.7007,-222.1107C694.2448,-209.6561 624.3552,-190.0761 576.5005,-176.6694"/>
<polygon fill="#000000" stroke="#000000" points="577.2138,-173.2345 566.6404,-173.907 575.3254,-179.975 577.2138,-173.2345"/>
</g>
<!-- DataType&#45;&gt;Synset -->
<g id="edge12" class="edge">
<title>DataType&#45;&gt;Synset</title>
<path fill="none" stroke="#000000" d="M751.4486,-218.7307C729.8617,-207.6288 700.5163,-192.5369 677.5196,-180.71"/>
<polygon fill="#000000" stroke="#000000" points="678.9063,-177.4875 668.4127,-176.0265 675.7049,-183.7125 678.9063,-177.4875"/>
</g>
<!-- DataType&#45;&gt;Stem -->
<g id="edge18" class="edge">
<title>DataType&#45;&gt;Stem</title>
<path fill="none" stroke="#000000" d="M770.0154,-216.2022C764.69,-207.6817 758.2109,-197.315 752.3505,-187.9385"/>
<polygon fill="#000000" stroke="#000000" points="755.2474,-185.9696 746.9793,-179.3446 749.3114,-189.6796 755.2474,-185.9696"/>
</g>
<!-- DataType&#45;&gt;Tuple -->
<g id="edge20" class="edge">
<title>DataType&#45;&gt;Tuple</title>
<path fill="none" stroke="#000000" d="M792.2626,-216.2022C797.5879,-207.6817 804.0671,-197.315 809.9274,-187.9385"/>
<polygon fill="#000000" stroke="#000000" points="812.9666,-189.6796 815.2986,-179.3446 807.0306,-185.9696 812.9666,-189.6796"/>
</g>
<!-- DataType&#45;&gt;Flags -->
<g id="edge22" class="edge">
<title>DataType&#45;&gt;Flags</title>
<path fill="none" stroke="#000000" d="M810.3144,-218.5542C831.717,-207.2234 860.8364,-191.8072 883.2674,-179.932"/>
<polygon fill="#000000" stroke="#000000" points="884.92,-183.0174 892.1202,-175.2452 881.6447,-176.8309 884.92,-183.0174"/>
</g>
<!-- DataType&#45;&gt;Vector -->
<g id="edge23" class="edge">
<title>DataType&#45;&gt;Vector</title>
<path fill="none" stroke="#000000" d="M823.4047,-222.111C860.2195,-211.5838 914.9456,-195.5214 962.139,-180 965.0681,-179.0366 968.0846,-178.018 971.1158,-176.975"/>
<polygon fill="#000000" stroke="#000000" points="972.4769,-180.2068 980.7581,-173.5983 970.1633,-173.6002 972.4769,-180.2068"/>
</g>
<!-- DataType&#45;&gt;Tensor3 -->
<g id="edge24" class="edge">
<title>DataType&#45;&gt;Tensor3</title>
<path fill="none" stroke="#000000" d="M831.5239,-226.1301C888.0602,-216.8805 982.3153,-200.2011 1062.139,-180 1065.7733,-179.0803 1069.5169,-178.0617 1073.2667,-176.9904"/>
<polygon fill="#000000" stroke="#000000" points="1074.5438,-180.2624 1083.1359,-174.0636 1072.5535,-173.5513 1074.5438,-180.2624"/>
</g>
<!-- DataType&#45;&gt;Text -->
<g id="edge25" class="edge">
<title>DataType&#45;&gt;Text</title>
<path fill="none" stroke="#000000" d="M836.4725,-231.4373C913.82,-226.736 1058.0465,-213.8762 1176.139,-180 1178.4242,-179.3445 1180.7469,-178.5811 1183.064,-177.746"/>
<polygon fill="#000000" stroke="#000000" points="1184.4567,-180.9587 1192.447,-174.0013 1181.862,-174.4573 1184.4567,-180.9587"/>
</g>
<!-- DataType&#45;&gt;Postag -->
<g id="edge27" class="edge">
<title>DataType&#45;&gt;Postag</title>
<path fill="none" stroke="#000000" d="M836.679,-231.7545C926.0611,-227.2359 1106.9129,-214.3498 1256.139,-180 1259.4888,-179.2289 1262.9235,-178.3103 1266.3503,-177.302"/>
<polygon fill="#000000" stroke="#000000" points="1267.4352,-180.6298 1275.9099,-174.2714 1265.3198,-173.9571 1267.4352,-180.6298"/>
</g>
<!-- DataType&#45;&gt;Sentiment -->
<g id="edge28" class="edge">
<title>DataType&#45;&gt;Sentiment</title>
<path fill="none" stroke="#000000" d="M836.846,-231.8514C940.2745,-227.1853 1168.6937,-213.6994 1358.139,-180 1363.1212,-179.1137 1368.2721,-178.0428 1373.4066,-176.8701"/>
<polygon fill="#000000" stroke="#000000" points="1374.3076,-180.2533 1383.2117,-174.5116 1372.6704,-173.4475 1374.3076,-180.2533"/>
</g>
</g>
</svg>
