<?xml version="1.0" encoding="UTF-8" standalone="no"?>
<!DOCTYPE svg PUBLIC "-//W3C//DTD SVG 1.1//EN"
 "http://www.w3.org/Graphics/SVG/1.1/DTD/svg11.dtd">
<!-- Generated by graphviz version 2.38.0 (20140413.2041)
 -->
<!-- Title: G Pages: 1 -->
<svg width="1498pt" height="260pt"
 viewBox="0.00 0.00 1497.88 260.00" xmlns="http://www.w3.org/2000/svg" xmlns:xlink="http://www.w3.org/1999/xlink">
<g id="graph0" class="graph" transform="scale(1 1) rotate(0) translate(4 256)">
<title>G</title>
<polygon fill="white" stroke="none" points="-4,4 -4,-256 1493.88,-256 1493.88,4 -4,4"/>
<!-- SparseMatrix -->
<g id="node1" class="node"><title>SparseMatrix</title>
<ellipse fill="none" stroke="black" cx="101.389" cy="-90" rx="74.187" ry="18"/>
<text text-anchor="middle" x="101.389" y="-86.3" font-family="Times,serif" font-size="14.00">SparseMatrix</text>
</g>
<!-- MatrixContinuousSparse -->
<g id="node20" class="node"><title>MatrixContinuousSparse</title>
<ellipse fill="none" stroke="black" cx="127.389" cy="-18" rx="127.277" ry="18"/>
<text text-anchor="middle" x="127.389" y="-14.3" font-family="Times,serif" font-size="14.00">MatrixContinuousSparse</text>
</g>
<!-- SparseMatrix&#45;&gt;MatrixContinuousSparse -->
<g id="edge22" class="edge"><title>SparseMatrix&#45;&gt;MatrixContinuousSparse</title>
<path fill="none" stroke="black" d="M107.683,-72.055C110.609,-64.1762 114.16,-54.6165 117.437,-45.794"/>
<polygon fill="black" stroke="black" points="120.771,-46.8682 120.972,-36.2753 114.209,-44.4309 120.771,-46.8682"/>
</g>
<!-- Sentiment -->
<g id="node2" class="node"><title>Sentiment</title>
<ellipse fill="none" stroke="black" cx="84.3887" cy="-162" rx="58.4896" ry="18"/>
<text text-anchor="middle" x="84.3887" y="-158.3" font-family="Times,serif" font-size="14.00">Sentiment</text>
</g>
<!-- Tuple -->
<g id="node3" class="node"><title>Tuple</title>
<ellipse fill="none" stroke="black" cx="197.389" cy="-162" rx="36.2938" ry="18"/>
<text text-anchor="middle" x="197.389" y="-158.3" font-family="Times,serif" font-size="14.00">Tuple</text>
</g>
<!-- Matrix -->
<g id="node4" class="node"><title>Matrix</title>
<ellipse fill="none" stroke="black" cx="294.389" cy="-162" rx="42.4939" ry="18"/>
<text text-anchor="middle" x="294.389" y="-158.3" font-family="Times,serif" font-size="14.00">Matrix</text>
</g>
<!-- Matrix&#45;&gt;SparseMatrix -->
<g id="edge1" class="edge"><title>Matrix&#45;&gt;SparseMatrix</title>
<path fill="none" stroke="black" d="M263.38,-149.753C232.991,-138.732 186.197,-121.76 150.702,-108.886"/>
<polygon fill="black" stroke="black" points="151.607,-105.491 141.013,-105.371 149.22,-112.071 151.607,-105.491"/>
</g>
<!-- DenseMatrix -->
<g id="node16" class="node"><title>DenseMatrix</title>
<ellipse fill="none" stroke="black" cx="474.389" cy="-90" rx="71.4873" ry="18"/>
<text text-anchor="middle" x="474.389" y="-86.3" font-family="Times,serif" font-size="14.00">DenseMatrix</text>
</g>
<!-- Matrix&#45;&gt;DenseMatrix -->
<g id="edge17" class="edge"><title>Matrix&#45;&gt;DenseMatrix</title>
<path fill="none" stroke="black" d="M324.517,-149.284C352.754,-138.302 395.383,-121.724 427.967,-109.053"/>
<polygon fill="black" stroke="black" points="429.247,-112.31 437.299,-105.424 426.71,-105.786 429.247,-112.31"/>
</g>
<!-- MatrixContinuous -->
<g id="node23" class="node"><title>MatrixContinuous</title>
<ellipse fill="none" stroke="black" cx="289.389" cy="-90" rx="95.5831" ry="18"/>
<text text-anchor="middle" x="289.389" y="-86.3" font-family="Times,serif" font-size="14.00">MatrixContinuous</text>
</g>
<!-- Matrix&#45;&gt;MatrixContinuous -->
<g id="edge24" class="edge"><title>Matrix&#45;&gt;MatrixContinuous</title>
<path fill="none" stroke="black" d="M293.153,-143.697C292.602,-135.983 291.94,-126.712 291.325,-118.112"/>
<polygon fill="black" stroke="black" points="294.814,-117.83 290.61,-108.104 287.832,-118.328 294.814,-117.83"/>
</g>
<!-- Category -->
<g id="node5" class="node"><title>Category</title>
<ellipse fill="none" stroke="black" cx="408.389" cy="-162" rx="53.8905" ry="18"/>
<text text-anchor="middle" x="408.389" y="-158.3" font-family="Times,serif" font-size="14.00">Category</text>
</g>
<!-- Sentence -->
<g id="node6" class="node"><title>Sentence</title>
<ellipse fill="none" stroke="black" cx="1211.39" cy="-90" rx="53.8905" ry="18"/>
<text text-anchor="middle" x="1211.39" y="-86.3" font-family="Times,serif" font-size="14.00">Sentence</text>
</g>
<!-- MatrixContinuousDense -->
<g id="node7" class="node"><title>MatrixContinuousDense</title>
<ellipse fill="none" stroke="black" cx="448.389" cy="-18" rx="124.278" ry="18"/>
<text text-anchor="middle" x="448.389" y="-14.3" font-family="Times,serif" font-size="14.00">MatrixContinuousDense</text>
</g>
<!-- Word -->
<g id="node8" class="node"><title>Word</title>
<ellipse fill="none" stroke="black" cx="1319.39" cy="-90" rx="35.9954" ry="18"/>
<text text-anchor="middle" x="1319.39" y="-86.3" font-family="Times,serif" font-size="14.00">Word</text>
</g>
<!-- Summary -->
<g id="node9" class="node"><title>Summary</title>
<ellipse fill="none" stroke="black" cx="1431.39" cy="-18" rx="55.4913" ry="18"/>
<text text-anchor="middle" x="1431.39" y="-14.3" font-family="Times,serif" font-size="14.00">Summary</text>
</g>
<!-- CategoricalVector -->
<g id="node10" class="node"><title>CategoricalVector</title>
<ellipse fill="none" stroke="black" cx="658.389" cy="-90" rx="94.7833" ry="18"/>
<text text-anchor="middle" x="658.389" y="-86.3" font-family="Times,serif" font-size="14.00">CategoricalVector</text>
</g>
<!-- Chunktag -->
<g id="node11" class="node"><title>Chunktag</title>
<ellipse fill="none" stroke="black" cx="536.389" cy="-162" rx="56.59" ry="18"/>
<text text-anchor="middle" x="536.389" y="-158.3" font-family="Times,serif" font-size="14.00">Chunktag</text>
</g>
<!-- Postag -->
<g id="node12" class="node"><title>Postag</title>
<ellipse fill="none" stroke="black" cx="653.389" cy="-162" rx="42.4939" ry="18"/>
<text text-anchor="middle" x="653.389" y="-158.3" font-family="Times,serif" font-size="14.00">Postag</text>
</g>
<!-- Entity -->
<g id="node13" class="node"><title>Entity</title>
<ellipse fill="none" stroke="black" cx="753.389" cy="-162" rx="39.7935" ry="18"/>
<text text-anchor="middle" x="753.389" y="-158.3" font-family="Times,serif" font-size="14.00">Entity</text>
</g>
<!-- ContinuousVector -->
<g id="node14" class="node"><title>ContinuousVector</title>
<ellipse fill="none" stroke="black" cx="865.389" cy="-90" rx="94.4839" ry="18"/>
<text text-anchor="middle" x="865.389" y="-86.3" font-family="Times,serif" font-size="14.00">ContinuousVector</text>
</g>
<!-- Synset -->
<g id="node15" class="node"><title>Synset</title>
<ellipse fill="none" stroke="black" cx="853.389" cy="-162" rx="42.4939" ry="18"/>
<text text-anchor="middle" x="853.389" y="-158.3" font-family="Times,serif" font-size="14.00">Synset</text>
</g>
<!-- DenseMatrix&#45;&gt;MatrixContinuousDense -->
<g id="edge8" class="edge"><title>DenseMatrix&#45;&gt;MatrixContinuousDense</title>
<path fill="none" stroke="black" d="M468.095,-72.055C465.168,-64.1762 461.618,-54.6165 458.341,-45.794"/>
<polygon fill="black" stroke="black" points="461.568,-44.4309 454.805,-36.2753 455.006,-46.8682 461.568,-44.4309"/>
</g>
<!-- List -->
<g id="node17" class="node"><title>List</title>
<ellipse fill="none" stroke="black" cx="942.389" cy="-162" rx="28.6953" ry="18"/>
<text text-anchor="middle" x="942.389" y="-158.3" font-family="Times,serif" font-size="14.00">List</text>
</g>
<!-- Vector -->
<g id="node18" class="node"><title>Vector</title>
<ellipse fill="none" stroke="black" cx="1030.39" cy="-162" rx="40.8928" ry="18"/>
<text text-anchor="middle" x="1030.39" y="-158.3" font-family="Times,serif" font-size="14.00">Vector</text>
</g>
<!-- Vector&#45;&gt;CategoricalVector -->
<g id="edge11" class="edge"><title>Vector&#45;&gt;CategoricalVector</title>
<path fill="none" stroke="black" d="M999.953,-149.764C993.549,-147.65 986.792,-145.604 980.389,-144 977.427,-143.258 832.311,-119.461 737.923,-104.01"/>
<polygon fill="black" stroke="black" points="738.251,-100.517 727.816,-102.356 737.12,-107.425 738.251,-100.517"/>
</g>
<!-- Vector&#45;&gt;ContinuousVector -->
<g id="edge15" class="edge"><title>Vector&#45;&gt;ContinuousVector</title>
<path fill="none" stroke="black" d="M1002.02,-148.967C977.272,-138.466 940.88,-123.027 911.877,-110.722"/>
<polygon fill="black" stroke="black" points="912.924,-107.365 902.351,-106.681 910.19,-113.809 912.924,-107.365"/>
</g>
<!-- DiscreteVector -->
<g id="node26" class="node"><title>DiscreteVector</title>
<ellipse fill="none" stroke="black" cx="1058.39" cy="-90" rx="80.6858" ry="18"/>
<text text-anchor="middle" x="1058.39" y="-86.3" font-family="Times,serif" font-size="14.00">DiscreteVector</text>
</g>
<!-- Vector&#45;&gt;DiscreteVector -->
<g id="edge27" class="edge"><title>Vector&#45;&gt;DiscreteVector</title>
<path fill="none" stroke="black" d="M1037.17,-144.055C1040.32,-136.176 1044.14,-126.617 1047.67,-117.794"/>
<polygon fill="black" stroke="black" points="1051.01,-118.86 1051.48,-108.275 1044.51,-116.26 1051.01,-118.86"/>
</g>
<!-- Document -->
<g id="node19" class="node"><title>Document</title>
<ellipse fill="none" stroke="black" cx="1431.39" cy="-90" rx="58.4896" ry="18"/>
<text text-anchor="middle" x="1431.39" y="-86.3" font-family="Times,serif" font-size="14.00">Document</text>
</g>
<!-- Document&#45;&gt;Summary -->
<g id="edge10" class="edge"><title>Document&#45;&gt;Summary</title>
<path fill="none" stroke="black" d="M1431.39,-71.6966C1431.39,-63.9827 1431.39,-54.7125 1431.39,-46.1124"/>
<polygon fill="black" stroke="black" points="1434.89,-46.1043 1431.39,-36.1043 1427.89,-46.1044 1434.89,-46.1043"/>
</g>
<!-- Stem -->
<g id="node21" class="node"><title>Stem</title>
<ellipse fill="none" stroke="black" cx="1123.39" cy="-162" rx="34.394" ry="18"/>
<text text-anchor="middle" x="1123.39" y="-158.3" font-family="Times,serif" font-size="14.00">Stem</text>
</g>
<!-- DataType -->
<g id="node22" class="node"><title>DataType</title>
<ellipse fill="none" stroke="black" cx="753.389" cy="-234" rx="55.4913" ry="18"/>
<text text-anchor="middle" x="753.389" y="-230.3" font-family="Times,serif" font-size="14.00">DataType</text>
</g>
<!-- DataType&#45;&gt;Sentiment -->
<g id="edge2" class="edge"><title>DataType&#45;&gt;Sentiment</title>
<path fill="none" stroke="black" d="M698.744,-231.054C592.729,-226.645 352.011,-213.541 152.389,-180 147.27,-179.14 141.969,-178.094 136.688,-176.949"/>
<polygon fill="black" stroke="black" points="137.141,-173.463 126.613,-174.647 135.582,-180.287 137.141,-173.463"/>
</g>
<!-- DataType&#45;&gt;Tuple -->
<g id="edge3" class="edge"><title>DataType&#45;&gt;Tuple</title>
<path fill="none" stroke="black" d="M698.302,-231.777C603.969,-228.688 405.95,-217.852 243.389,-180 240.238,-179.266 237.009,-178.376 233.794,-177.391"/>
<polygon fill="black" stroke="black" points="234.88,-174.064 224.286,-174.218 232.664,-180.704 234.88,-174.064"/>
</g>
<!-- DataType&#45;&gt;Matrix -->
<g id="edge4" class="edge"><title>DataType&#45;&gt;Matrix</title>
<path fill="none" stroke="black" d="M699.997,-229.36C621.505,-223.269 470.706,-208.743 345.389,-180 342.011,-179.225 338.541,-178.318 335.076,-177.332"/>
<polygon fill="black" stroke="black" points="335.99,-173.952 325.405,-174.394 333.955,-180.65 335.99,-173.952"/>
</g>
<!-- DataType&#45;&gt;Category -->
<g id="edge5" class="edge"><title>DataType&#45;&gt;Category</title>
<path fill="none" stroke="black" d="M705.067,-225.199C648.528,-215.783 552.223,-198.848 470.389,-180 466.29,-179.056 462.054,-178.021 457.81,-176.943"/>
<polygon fill="black" stroke="black" points="458.515,-173.51 447.955,-174.372 456.748,-180.283 458.515,-173.51"/>
</g>
<!-- DataType&#45;&gt;Chunktag -->
<g id="edge12" class="edge"><title>DataType&#45;&gt;Chunktag</title>
<path fill="none" stroke="black" d="M715.59,-220.807C679.209,-209.071 624.042,-191.275 584.534,-178.531"/>
<polygon fill="black" stroke="black" points="585.44,-175.145 574.848,-175.406 583.291,-181.807 585.44,-175.145"/>
</g>
<!-- DataType&#45;&gt;Postag -->
<g id="edge13" class="edge"><title>DataType&#45;&gt;Postag</title>
<path fill="none" stroke="black" d="M731.195,-217.465C716.922,-207.473 698.215,-194.378 682.721,-183.533"/>
<polygon fill="black" stroke="black" points="684.692,-180.64 674.493,-177.773 680.678,-186.375 684.692,-180.64"/>
</g>
<!-- DataType&#45;&gt;Entity -->
<g id="edge14" class="edge"><title>DataType&#45;&gt;Entity</title>
<path fill="none" stroke="black" d="M753.389,-215.697C753.389,-207.983 753.389,-198.712 753.389,-190.112"/>
<polygon fill="black" stroke="black" points="756.889,-190.104 753.389,-180.104 749.889,-190.104 756.889,-190.104"/>
</g>
<!-- DataType&#45;&gt;Synset -->
<g id="edge16" class="edge"><title>DataType&#45;&gt;Synset</title>
<path fill="none" stroke="black" d="M775.582,-217.465C789.856,-207.473 808.562,-194.378 824.056,-183.533"/>
<polygon fill="black" stroke="black" points="826.099,-186.375 832.284,-177.773 822.085,-180.64 826.099,-186.375"/>
</g>
<!-- DataType&#45;&gt;List -->
<g id="edge18" class="edge"><title>DataType&#45;&gt;List</title>
<path fill="none" stroke="black" d="M790.941,-220.786C821.689,-210.554 866.189,-195.218 904.389,-180 906.462,-179.174 908.587,-178.3 910.723,-177.402"/>
<polygon fill="black" stroke="black" points="912.229,-180.564 920.016,-173.38 909.448,-174.14 912.229,-180.564"/>
</g>
<!-- DataType&#45;&gt;Vector -->
<g id="edge19" class="edge"><title>DataType&#45;&gt;Vector</title>
<path fill="none" stroke="black" d="M798.949,-223.742C845.025,-214.056 918.133,-197.804 980.389,-180 983.518,-179.105 986.741,-178.131 989.971,-177.118"/>
<polygon fill="black" stroke="black" points="991.165,-180.411 999.599,-173.998 989.007,-173.751 991.165,-180.411"/>
</g>
<!-- DataType&#45;&gt;Stem -->
<g id="edge23" class="edge"><title>DataType&#45;&gt;Stem</title>
<path fill="none" stroke="black" d="M805.668,-228.044C870.854,-221.065 985.292,-206.174 1080.39,-180 1082.98,-179.286 1085.64,-178.467 1088.29,-177.583"/>
<polygon fill="black" stroke="black" points="1089.55,-180.849 1097.77,-174.17 1087.18,-174.262 1089.55,-180.849"/>
</g>
<!-- Text -->
<g id="node24" class="node"><title>Text</title>
<ellipse fill="none" stroke="black" cx="1211.39" cy="-162" rx="30.5947" ry="18"/>
<text text-anchor="middle" x="1211.39" y="-158.3" font-family="Times,serif" font-size="14.00">Text</text>
</g>
<!-- DataType&#45;&gt;Text -->
<g id="edge25" class="edge"><title>DataType&#45;&gt;Text</title>
<path fill="none" stroke="black" d="M807.593,-230.086C887.245,-224.898 1040.14,-211.488 1166.39,-180 1170.2,-179.05 1174.13,-177.874 1178.01,-176.59"/>
<polygon fill="black" stroke="black" points="1179.18,-179.885 1187.43,-173.234 1176.84,-173.29 1179.18,-179.885"/>
</g>
<!-- Tensor3 -->
<g id="node25" class="node"><title>Tensor3</title>
<ellipse fill="none" stroke="black" cx="1308.39" cy="-162" rx="48.1917" ry="18"/>
<text text-anchor="middle" x="1308.39" y="-158.3" font-family="Times,serif" font-size="14.00">Tensor3</text>
</g>
<!-- DataType&#45;&gt;Tensor3 -->
<g id="edge26" class="edge"><title>DataType&#45;&gt;Tensor3</title>
<path fill="none" stroke="black" d="M807.678,-230.493C899.729,-225.515 1091.97,-211.973 1251.39,-180 1255.32,-179.212 1259.37,-178.271 1263.41,-177.243"/>
<polygon fill="black" stroke="black" points="1264.64,-180.538 1273.37,-174.544 1262.81,-173.781 1264.64,-180.538"/>
</g>
<!-- MatrixContinuous&#45;&gt;MatrixContinuousDense -->
<g id="edge7" class="edge"><title>MatrixContinuous&#45;&gt;MatrixContinuousDense</title>
<path fill="none" stroke="black" d="M325.071,-73.2906C347.785,-63.2911 377.437,-50.2365 401.973,-39.4347"/>
<polygon fill="black" stroke="black" points="403.703,-42.4973 411.445,-35.2646 400.882,-36.0907 403.703,-42.4973"/>
</g>
<!-- MatrixContinuous&#45;&gt;MatrixContinuousSparse -->
<g id="edge21" class="edge"><title>MatrixContinuous&#45;&gt;MatrixContinuousSparse</title>
<path fill="none" stroke="black" d="M253.033,-73.2906C229.789,-63.2469 199.411,-50.1209 174.349,-39.2915"/>
<polygon fill="black" stroke="black" points="175.598,-36.0183 165.03,-35.2646 172.821,-42.4441 175.598,-36.0183"/>
</g>
<!-- Text&#45;&gt;Sentence -->
<g id="edge6" class="edge"><title>Text&#45;&gt;Sentence</title>
<path fill="none" stroke="black" d="M1211.39,-143.697C1211.39,-135.983 1211.39,-126.712 1211.39,-118.112"/>
<polygon fill="black" stroke="black" points="1214.89,-118.104 1211.39,-108.104 1207.89,-118.104 1214.89,-118.104"/>
</g>
<!-- Text&#45;&gt;Word -->
<g id="edge9" class="edge"><title>Text&#45;&gt;Word</title>
<path fill="none" stroke="black" d="M1231.2,-148.161C1247.6,-137.53 1271.15,-122.265 1289.79,-110.184"/>
<polygon fill="black" stroke="black" points="1291.74,-113.091 1298.23,-104.715 1287.93,-107.217 1291.74,-113.091"/>
</g>
<!-- Text&#45;&gt;Document -->
<g id="edge20" class="edge"><title>Text&#45;&gt;Document</title>
<path fill="none" stroke="black" d="M1234.9,-150.475C1240.27,-148.219 1245.99,-145.935 1251.39,-144 1293.44,-128.932 1342.08,-114.801 1378.19,-104.926"/>
<polygon fill="black" stroke="black" points="1379.29,-108.253 1388.02,-102.256 1377.46,-101.498 1379.29,-108.253"/>
</g>
</g>
</svg>
