<?xml version="1.0" encoding="UTF-8" standalone="no"?>
<!DOCTYPE svg PUBLIC "-//W3C//DTD SVG 1.1//EN"
 "http://www.w3.org/Graphics/SVG/1.1/DTD/svg11.dtd">
<!-- Generated by graphviz version 2.40.1 (20161225.0304)
 -->
<!-- Title: G Pages: 1 -->
<svg width="2215pt" height="188pt"
 viewBox="0.00 0.00 2215.39 188.00" xmlns="http://www.w3.org/2000/svg" xmlns:xlink="http://www.w3.org/1999/xlink">
<g id="graph0" class="graph" transform="scale(1 1) rotate(0) translate(4 184)">
<title>G</title>
<polygon fill="#ffffff" stroke="transparent" points="-4,4 -4,-184 2211.3852,-184 2211.3852,4 -4,4"/>
<!-- Stem -->
<g id="node1" class="node">
<title>Stem</title>
<ellipse fill="none" stroke="#000000" cx="51.139" cy="-162" rx="35.194" ry="18"/>
<text text-anchor="middle" x="51.139" y="-158.3" font-family="Times,serif" font-size="14.00" fill="#000000">Stem</text>
</g>
<!-- Sentiment -->
<g id="node2" class="node">
<title>Sentiment</title>
<ellipse fill="none" stroke="#000000" cx="163.139" cy="-162" rx="59.2899" ry="18"/>
<text text-anchor="middle" x="163.139" y="-158.3" font-family="Times,serif" font-size="14.00" fill="#000000">Sentiment</text>
</g>
<!-- MatrixContinuous -->
<g id="node3" class="node">
<title>MatrixContinuous</title>
<ellipse fill="none" stroke="#000000" cx="282.139" cy="-90" rx="94.7833" ry="18"/>
<text text-anchor="middle" x="282.139" y="-86.3" font-family="Times,serif" font-size="14.00" fill="#000000">MatrixContinuous</text>
</g>
<!-- MatrixContinuousDense -->
<g id="node15" class="node">
<title>MatrixContinuousDense</title>
<ellipse fill="none" stroke="#000000" cx="124.139" cy="-18" rx="124.2781" ry="18"/>
<text text-anchor="middle" x="124.139" y="-14.3" font-family="Times,serif" font-size="14.00" fill="#000000">MatrixContinuousDense</text>
</g>
<!-- MatrixContinuous&#45;&gt;MatrixContinuousDense -->
<g id="edge6" class="edge">
<title>MatrixContinuous&#45;&gt;MatrixContinuousDense</title>
<path fill="none" stroke="#000000" d="M245.4935,-73.3008C223.3618,-63.2155 194.9337,-50.2609 171.1563,-39.4256"/>
<polygon fill="#000000" stroke="#000000" points="172.5099,-36.1962 161.9588,-35.2344 169.6072,-42.566 172.5099,-36.1962"/>
</g>
<!-- MatrixContinuousSparse -->
<g id="node18" class="node">
<title>MatrixContinuousSparse</title>
<ellipse fill="none" stroke="#000000" cx="419.139" cy="-18" rx="127.2775" ry="18"/>
<text text-anchor="middle" x="419.139" y="-14.3" font-family="Times,serif" font-size="14.00" fill="#000000">MatrixContinuousSparse</text>
</g>
<!-- MatrixContinuous&#45;&gt;MatrixContinuousSparse -->
<g id="edge10" class="edge">
<title>MatrixContinuous&#45;&gt;MatrixContinuousSparse</title>
<path fill="none" stroke="#000000" d="M314.6061,-72.937C333.27,-63.1282 356.9232,-50.6974 377.0073,-40.1422"/>
<polygon fill="#000000" stroke="#000000" points="378.7295,-43.1911 385.9533,-35.4407 375.473,-36.9947 378.7295,-43.1911"/>
</g>
<!-- Entity -->
<g id="node4" class="node">
<title>Entity</title>
<ellipse fill="none" stroke="#000000" cx="559.139" cy="-162" rx="39.7935" ry="18"/>
<text text-anchor="middle" x="559.139" y="-158.3" font-family="Times,serif" font-size="14.00" fill="#000000">Entity</text>
</g>
<!-- DiscreteVector -->
<g id="node5" class="node">
<title>DiscreteVector</title>
<ellipse fill="none" stroke="#000000" cx="642.139" cy="-90" rx="80.6858" ry="18"/>
<text text-anchor="middle" x="642.139" y="-86.3" font-family="Times,serif" font-size="14.00" fill="#000000">DiscreteVector</text>
</g>
<!-- SparseMatrix -->
<g id="node6" class="node">
<title>SparseMatrix</title>
<ellipse fill="none" stroke="#000000" cx="469.139" cy="-90" rx="74.187" ry="18"/>
<text text-anchor="middle" x="469.139" y="-86.3" font-family="Times,serif" font-size="14.00" fill="#000000">SparseMatrix</text>
</g>
<!-- SparseMatrix&#45;&gt;MatrixContinuousSparse -->
<g id="edge11" class="edge">
<title>SparseMatrix&#45;&gt;MatrixContinuousSparse</title>
<path fill="none" stroke="#000000" d="M456.7794,-72.2022C450.9939,-63.871 443.9826,-53.7748 437.5869,-44.565"/>
<polygon fill="#000000" stroke="#000000" points="440.2825,-42.3104 431.7037,-36.0931 434.5329,-46.3032 440.2825,-42.3104"/>
</g>
<!-- Text -->
<g id="node7" class="node">
<title>Text</title>
<ellipse fill="none" stroke="#000000" cx="1343.139" cy="-162" rx="31.3957" ry="18"/>
<text text-anchor="middle" x="1343.139" y="-158.3" font-family="Times,serif" font-size="14.00" fill="#000000">Text</text>
</g>
<!-- Document -->
<g id="node11" class="node">
<title>Document</title>
<ellipse fill="none" stroke="#000000" cx="1213.139" cy="-90" rx="58.4896" ry="18"/>
<text text-anchor="middle" x="1213.139" y="-86.3" font-family="Times,serif" font-size="14.00" fill="#000000">Document</text>
</g>
<!-- Text&#45;&gt;Document -->
<g id="edge4" class="edge">
<title>Text&#45;&gt;Document</title>
<path fill="none" stroke="#000000" d="M1320.4947,-149.4586C1301.3137,-138.8352 1273.4168,-123.3847 1250.8682,-110.8962"/>
<polygon fill="#000000" stroke="#000000" points="1252.3331,-107.7066 1241.8894,-105.9233 1248.9416,-113.8301 1252.3331,-107.7066"/>
</g>
<!-- Sentence -->
<g id="node14" class="node">
<title>Sentence</title>
<ellipse fill="none" stroke="#000000" cx="1343.139" cy="-90" rx="53.8905" ry="18"/>
<text text-anchor="middle" x="1343.139" y="-86.3" font-family="Times,serif" font-size="14.00" fill="#000000">Sentence</text>
</g>
<!-- Text&#45;&gt;Sentence -->
<g id="edge5" class="edge">
<title>Text&#45;&gt;Sentence</title>
<path fill="none" stroke="#000000" d="M1343.139,-143.8314C1343.139,-136.131 1343.139,-126.9743 1343.139,-118.4166"/>
<polygon fill="#000000" stroke="#000000" points="1346.6391,-118.4132 1343.139,-108.4133 1339.6391,-118.4133 1346.6391,-118.4132"/>
</g>
<!-- Word -->
<g id="node20" class="node">
<title>Word</title>
<ellipse fill="none" stroke="#000000" cx="1451.139" cy="-90" rx="35.9954" ry="18"/>
<text text-anchor="middle" x="1451.139" y="-86.3" font-family="Times,serif" font-size="14.00" fill="#000000">Word</text>
</g>
<!-- Text&#45;&gt;Word -->
<g id="edge13" class="edge">
<title>Text&#45;&gt;Word</title>
<path fill="none" stroke="#000000" d="M1363.7072,-148.2879C1379.9065,-137.4883 1402.7234,-122.2771 1420.9864,-110.1017"/>
<polygon fill="#000000" stroke="#000000" points="1423.158,-112.8605 1429.5371,-104.4013 1419.2751,-107.0361 1423.158,-112.8605"/>
</g>
<!-- List -->
<g id="node8" class="node">
<title>List</title>
<ellipse fill="none" stroke="#000000" cx="1421.139" cy="-162" rx="28.6953" ry="18"/>
<text text-anchor="middle" x="1421.139" y="-158.3" font-family="Times,serif" font-size="14.00" fill="#000000">List</text>
</g>
<!-- Matrix -->
<g id="node9" class="node">
<title>Matrix</title>
<ellipse fill="none" stroke="#000000" cx="282.139" cy="-162" rx="42.4939" ry="18"/>
<text text-anchor="middle" x="282.139" y="-158.3" font-family="Times,serif" font-size="14.00" fill="#000000">Matrix</text>
</g>
<!-- Matrix&#45;&gt;MatrixContinuous -->
<g id="edge1" class="edge">
<title>Matrix&#45;&gt;MatrixContinuous</title>
<path fill="none" stroke="#000000" d="M282.139,-143.8314C282.139,-136.131 282.139,-126.9743 282.139,-118.4166"/>
<polygon fill="#000000" stroke="#000000" points="285.6391,-118.4132 282.139,-108.4133 278.6391,-118.4133 285.6391,-118.4132"/>
</g>
<!-- Matrix&#45;&gt;SparseMatrix -->
<g id="edge3" class="edge">
<title>Matrix&#45;&gt;SparseMatrix</title>
<path fill="none" stroke="#000000" d="M313.861,-149.7862C342.8823,-138.6122 386.2764,-121.9043 419.8196,-108.9893"/>
<polygon fill="#000000" stroke="#000000" points="421.3672,-112.1439 429.4418,-105.2845 418.852,-105.6114 421.3672,-112.1439"/>
</g>
<!-- DenseMatrix -->
<g id="node22" class="node">
<title>DenseMatrix</title>
<ellipse fill="none" stroke="#000000" cx="98.139" cy="-90" rx="70.6878" ry="18"/>
<text text-anchor="middle" x="98.139" y="-86.3" font-family="Times,serif" font-size="14.00" fill="#000000">DenseMatrix</text>
</g>
<!-- Matrix&#45;&gt;DenseMatrix -->
<g id="edge14" class="edge">
<title>Matrix&#45;&gt;DenseMatrix</title>
<path fill="none" stroke="#000000" d="M250.9259,-149.7862C222.2768,-138.5757 179.393,-121.795 146.3438,-108.8628"/>
<polygon fill="#000000" stroke="#000000" points="147.4553,-105.5393 136.8674,-105.1546 144.9044,-112.058 147.4553,-105.5393"/>
</g>
<!-- Category -->
<g id="node10" class="node">
<title>Category</title>
<ellipse fill="none" stroke="#000000" cx="1522.139" cy="-162" rx="53.8905" ry="18"/>
<text text-anchor="middle" x="1522.139" y="-158.3" font-family="Times,serif" font-size="14.00" fill="#000000">Category</text>
</g>
<!-- Summary -->
<g id="node16" class="node">
<title>Summary</title>
<ellipse fill="none" stroke="#000000" cx="1213.139" cy="-18" rx="55.7903" ry="18"/>
<text text-anchor="middle" x="1213.139" y="-14.3" font-family="Times,serif" font-size="14.00" fill="#000000">Summary</text>
</g>
<!-- Document&#45;&gt;Summary -->
<g id="edge8" class="edge">
<title>Document&#45;&gt;Summary</title>
<path fill="none" stroke="#000000" d="M1213.139,-71.8314C1213.139,-64.131 1213.139,-54.9743 1213.139,-46.4166"/>
<polygon fill="#000000" stroke="#000000" points="1216.6391,-46.4132 1213.139,-36.4133 1209.6391,-46.4133 1216.6391,-46.4132"/>
</g>
<!-- Chunktag -->
<g id="node12" class="node">
<title>Chunktag</title>
<ellipse fill="none" stroke="#000000" cx="1650.139" cy="-162" rx="56.59" ry="18"/>
<text text-anchor="middle" x="1650.139" y="-158.3" font-family="Times,serif" font-size="14.00" fill="#000000">Chunktag</text>
</g>
<!-- Synset -->
<g id="node13" class="node">
<title>Synset</title>
<ellipse fill="none" stroke="#000000" cx="1767.139" cy="-162" rx="42.4939" ry="18"/>
<text text-anchor="middle" x="1767.139" y="-158.3" font-family="Times,serif" font-size="14.00" fill="#000000">Synset</text>
</g>
<!-- CategoricalVector -->
<g id="node17" class="node">
<title>CategoricalVector</title>
<ellipse fill="none" stroke="#000000" cx="835.139" cy="-90" rx="94.7833" ry="18"/>
<text text-anchor="middle" x="835.139" y="-86.3" font-family="Times,serif" font-size="14.00" fill="#000000">CategoricalVector</text>
</g>
<!-- ContinuousVector -->
<g id="node19" class="node">
<title>ContinuousVector</title>
<ellipse fill="none" stroke="#000000" cx="1042.139" cy="-90" rx="94.4839" ry="18"/>
<text text-anchor="middle" x="1042.139" y="-86.3" font-family="Times,serif" font-size="14.00" fill="#000000">ContinuousVector</text>
</g>
<!-- Tuple -->
<g id="node21" class="node">
<title>Tuple</title>
<ellipse fill="none" stroke="#000000" cx="1864.139" cy="-162" rx="37.0935" ry="18"/>
<text text-anchor="middle" x="1864.139" y="-158.3" font-family="Times,serif" font-size="14.00" fill="#000000">Tuple</text>
</g>
<!-- DenseMatrix&#45;&gt;MatrixContinuousDense -->
<g id="edge7" class="edge">
<title>DenseMatrix&#45;&gt;MatrixContinuousDense</title>
<path fill="none" stroke="#000000" d="M104.6999,-71.8314C107.5417,-63.9617 110.9327,-54.5712 114.0809,-45.8533"/>
<polygon fill="#000000" stroke="#000000" points="117.3852,-47.0076 117.4897,-36.4133 110.8013,-44.63 117.3852,-47.0076"/>
</g>
<!-- Flags -->
<g id="node23" class="node">
<title>Flags</title>
<ellipse fill="none" stroke="#000000" cx="1955.139" cy="-162" rx="36.2938" ry="18"/>
<text text-anchor="middle" x="1955.139" y="-158.3" font-family="Times,serif" font-size="14.00" fill="#000000">Flags</text>
</g>
<!-- Vector -->
<g id="node24" class="node">
<title>Vector</title>
<ellipse fill="none" stroke="#000000" cx="835.139" cy="-162" rx="40.8928" ry="18"/>
<text text-anchor="middle" x="835.139" y="-158.3" font-family="Times,serif" font-size="14.00" fill="#000000">Vector</text>
</g>
<!-- Vector&#45;&gt;DiscreteVector -->
<g id="edge2" class="edge">
<title>Vector&#45;&gt;DiscreteVector</title>
<path fill="none" stroke="#000000" d="M803.7007,-150.2717C773.8244,-139.1262 728.3745,-122.1707 693.2827,-109.0795"/>
<polygon fill="#000000" stroke="#000000" points="694.2739,-105.7137 683.6812,-105.4976 691.8271,-112.2722 694.2739,-105.7137"/>
</g>
<!-- Vector&#45;&gt;CategoricalVector -->
<g id="edge9" class="edge">
<title>Vector&#45;&gt;CategoricalVector</title>
<path fill="none" stroke="#000000" d="M835.139,-143.8314C835.139,-136.131 835.139,-126.9743 835.139,-118.4166"/>
<polygon fill="#000000" stroke="#000000" points="838.6391,-118.4132 835.139,-108.4133 831.6391,-118.4133 838.6391,-118.4132"/>
</g>
<!-- Vector&#45;&gt;ContinuousVector -->
<g id="edge12" class="edge">
<title>Vector&#45;&gt;ContinuousVector</title>
<path fill="none" stroke="#000000" d="M867.4827,-150.75C899.3189,-139.6766 948.5642,-122.5477 986.6588,-109.2975"/>
<polygon fill="#000000" stroke="#000000" points="988.2888,-112.4363 996.5839,-105.8453 985.9891,-105.8248 988.2888,-112.4363"/>
</g>
<!-- Tensor3 -->
<g id="node25" class="node">
<title>Tensor3</title>
<ellipse fill="none" stroke="#000000" cx="2057.139" cy="-162" rx="48.1917" ry="18"/>
<text text-anchor="middle" x="2057.139" y="-158.3" font-family="Times,serif" font-size="14.00" fill="#000000">Tensor3</text>
</g>
<!-- Postag -->
<g id="node26" class="node">
<title>Postag</title>
<ellipse fill="none" stroke="#000000" cx="2165.139" cy="-162" rx="42.4939" ry="18"/>
<text text-anchor="middle" x="2165.139" y="-158.3" font-family="Times,serif" font-size="14.00" fill="#000000">Postag</text>
</g>
</g>
</svg>
