<?xml version="1.0" encoding="UTF-8" standalone="no"?>
<!DOCTYPE svg PUBLIC "-//W3C//DTD SVG 1.1//EN"
 "http://www.w3.org/Graphics/SVG/1.1/DTD/svg11.dtd">
<!-- Generated by graphviz version 2.40.1 (20161225.0304)
 -->
<!-- Title: G Pages: 1 -->
<svg width="1789pt" height="260pt"
 viewBox="0.00 0.00 1789.49 260.00" xmlns="http://www.w3.org/2000/svg" xmlns:xlink="http://www.w3.org/1999/xlink">
<g id="graph0" class="graph" transform="scale(1 1) rotate(0) translate(4 256)">
<title>G</title>
<polygon fill="#ffffff" stroke="transparent" points="-4,4 -4,-256 1785.4879,-256 1785.4879,4 -4,4"/>
<!-- Document -->
<g id="node1" class="node">
<title>Document</title>
<ellipse fill="none" stroke="#000000" cx="914.2463" cy="-90" rx="58.4896" ry="18"/>
<text text-anchor="middle" x="914.2463" y="-86.3" font-family="Times,serif" font-size="14.00" fill="#000000">Document</text>
</g>
<!-- Summary -->
<g id="node18" class="node">
<title>Summary</title>
<ellipse fill="none" stroke="#000000" cx="914.2463" cy="-18" rx="55.7903" ry="18"/>
<text text-anchor="middle" x="914.2463" y="-14.3" font-family="Times,serif" font-size="14.00" fill="#000000">Summary</text>
</g>
<!-- Document&#45;&gt;Summary -->
<g id="edge19" class="edge">
<title>Document&#45;&gt;Summary</title>
<path fill="none" stroke="#000000" d="M914.2463,-71.8314C914.2463,-64.131 914.2463,-54.9743 914.2463,-46.4166"/>
<polygon fill="#000000" stroke="#000000" points="917.7464,-46.4132 914.2463,-36.4133 910.7464,-46.4133 917.7464,-46.4132"/>
</g>
<!-- Postag -->
<g id="node2" class="node">
<title>Postag</title>
<ellipse fill="none" stroke="#000000" cx="42.2463" cy="-162" rx="42.4939" ry="18"/>
<text text-anchor="middle" x="42.2463" y="-158.3" font-family="Times,serif" font-size="14.00" fill="#000000">Postag</text>
</g>
<!-- Stem -->
<g id="node3" class="node">
<title>Stem</title>
<ellipse fill="none" stroke="#000000" cx="137.2463" cy="-162" rx="35.194" ry="18"/>
<text text-anchor="middle" x="137.2463" y="-158.3" font-family="Times,serif" font-size="14.00" fill="#000000">Stem</text>
</g>
<!-- Word -->
<g id="node4" class="node">
<title>Word</title>
<ellipse fill="none" stroke="#000000" cx="1026.2463" cy="-90" rx="35.9954" ry="18"/>
<text text-anchor="middle" x="1026.2463" y="-86.3" font-family="Times,serif" font-size="14.00" fill="#000000">Word</text>
</g>
<!-- Sentiment -->
<g id="node5" class="node">
<title>Sentiment</title>
<ellipse fill="none" stroke="#000000" cx="249.2463" cy="-162" rx="59.2899" ry="18"/>
<text text-anchor="middle" x="249.2463" y="-158.3" font-family="Times,serif" font-size="14.00" fill="#000000">Sentiment</text>
</g>
<!-- MatrixContinuous -->
<g id="node6" class="node">
<title>MatrixContinuous</title>
<ellipse fill="none" stroke="#000000" cx="541.2463" cy="-90" rx="94.7833" ry="18"/>
<text text-anchor="middle" x="541.2463" y="-86.3" font-family="Times,serif" font-size="14.00" fill="#000000">MatrixContinuous</text>
</g>
<!-- MatrixContinuousDense -->
<g id="node17" class="node">
<title>MatrixContinuousDense</title>
<ellipse fill="none" stroke="#000000" cx="401.2463" cy="-18" rx="124.2781" ry="18"/>
<text text-anchor="middle" x="401.2463" y="-14.3" font-family="Times,serif" font-size="14.00" fill="#000000">MatrixContinuousDense</text>
</g>
<!-- MatrixContinuous&#45;&gt;MatrixContinuousDense -->
<g id="edge17" class="edge">
<title>MatrixContinuous&#45;&gt;MatrixContinuousDense</title>
<path fill="none" stroke="#000000" d="M508.0682,-72.937C488.9955,-63.1282 464.8245,-50.6974 444.3005,-40.1422"/>
<polygon fill="#000000" stroke="#000000" points="445.6523,-36.9017 435.1587,-35.4407 442.4508,-43.1267 445.6523,-36.9017"/>
</g>
<!-- MatrixContinuousSparse -->
<g id="node21" class="node">
<title>MatrixContinuousSparse</title>
<ellipse fill="none" stroke="#000000" cx="699.2463" cy="-18" rx="127.2775" ry="18"/>
<text text-anchor="middle" x="699.2463" y="-14.3" font-family="Times,serif" font-size="14.00" fill="#000000">MatrixContinuousSparse</text>
</g>
<!-- MatrixContinuous&#45;&gt;MatrixContinuousSparse -->
<g id="edge22" class="edge">
<title>MatrixContinuous&#45;&gt;MatrixContinuousSparse</title>
<path fill="none" stroke="#000000" d="M577.8918,-73.3008C600.0234,-63.2155 628.4515,-50.2609 652.229,-39.4256"/>
<polygon fill="#000000" stroke="#000000" points="653.7781,-42.566 661.4264,-35.2344 650.8753,-36.1962 653.7781,-42.566"/>
</g>
<!-- Entity -->
<g id="node7" class="node">
<title>Entity</title>
<ellipse fill="none" stroke="#000000" cx="366.2463" cy="-162" rx="39.7935" ry="18"/>
<text text-anchor="middle" x="366.2463" y="-158.3" font-family="Times,serif" font-size="14.00" fill="#000000">Entity</text>
</g>
<!-- DiscreteVector -->
<g id="node8" class="node">
<title>DiscreteVector</title>
<ellipse fill="none" stroke="#000000" cx="1287.2463" cy="-90" rx="80.6858" ry="18"/>
<text text-anchor="middle" x="1287.2463" y="-86.3" font-family="Times,serif" font-size="14.00" fill="#000000">DiscreteVector</text>
</g>
<!-- SparseMatrix -->
<g id="node9" class="node">
<title>SparseMatrix</title>
<ellipse fill="none" stroke="#000000" cx="728.2463" cy="-90" rx="74.187" ry="18"/>
<text text-anchor="middle" x="728.2463" y="-86.3" font-family="Times,serif" font-size="14.00" fill="#000000">SparseMatrix</text>
</g>
<!-- SparseMatrix&#45;&gt;MatrixContinuousSparse -->
<g id="edge23" class="edge">
<title>SparseMatrix&#45;&gt;MatrixContinuousSparse</title>
<path fill="none" stroke="#000000" d="M720.9283,-71.8314C717.7586,-63.9617 713.9763,-54.5712 710.4649,-45.8533"/>
<polygon fill="#000000" stroke="#000000" points="713.6454,-44.3815 706.6627,-36.4133 707.1523,-46.9968 713.6454,-44.3815"/>
</g>
<!-- List -->
<g id="node10" class="node">
<title>List</title>
<ellipse fill="none" stroke="#000000" cx="452.2463" cy="-162" rx="28.6953" ry="18"/>
<text text-anchor="middle" x="452.2463" y="-158.3" font-family="Times,serif" font-size="14.00" fill="#000000">List</text>
</g>
<!-- Matrix -->
<g id="node11" class="node">
<title>Matrix</title>
<ellipse fill="none" stroke="#000000" cx="541.2463" cy="-162" rx="42.4939" ry="18"/>
<text text-anchor="middle" x="541.2463" y="-158.3" font-family="Times,serif" font-size="14.00" fill="#000000">Matrix</text>
</g>
<!-- Matrix&#45;&gt;MatrixContinuous -->
<g id="edge6" class="edge">
<title>Matrix&#45;&gt;MatrixContinuous</title>
<path fill="none" stroke="#000000" d="M541.2463,-143.8314C541.2463,-136.131 541.2463,-126.9743 541.2463,-118.4166"/>
<polygon fill="#000000" stroke="#000000" points="544.7464,-118.4132 541.2463,-108.4133 537.7464,-118.4133 544.7464,-118.4132"/>
</g>
<!-- Matrix&#45;&gt;SparseMatrix -->
<g id="edge9" class="edge">
<title>Matrix&#45;&gt;SparseMatrix</title>
<path fill="none" stroke="#000000" d="M572.9683,-149.7862C601.9896,-138.6122 645.3837,-121.9043 678.9269,-108.9893"/>
<polygon fill="#000000" stroke="#000000" points="680.4745,-112.1439 688.549,-105.2845 677.9592,-105.6114 680.4745,-112.1439"/>
</g>
<!-- DenseMatrix -->
<g id="node24" class="node">
<title>DenseMatrix</title>
<ellipse fill="none" stroke="#000000" cx="357.2463" cy="-90" rx="70.6878" ry="18"/>
<text text-anchor="middle" x="357.2463" y="-86.3" font-family="Times,serif" font-size="14.00" fill="#000000">DenseMatrix</text>
</g>
<!-- Matrix&#45;&gt;DenseMatrix -->
<g id="edge26" class="edge">
<title>Matrix&#45;&gt;DenseMatrix</title>
<path fill="none" stroke="#000000" d="M510.0332,-149.7862C481.3841,-138.5757 438.5002,-121.795 405.4511,-108.8628"/>
<polygon fill="#000000" stroke="#000000" points="406.5625,-105.5393 395.9747,-105.1546 404.0117,-112.058 406.5625,-105.5393"/>
</g>
<!-- Category -->
<g id="node12" class="node">
<title>Category</title>
<ellipse fill="none" stroke="#000000" cx="655.2463" cy="-162" rx="53.8905" ry="18"/>
<text text-anchor="middle" x="655.2463" y="-158.3" font-family="Times,serif" font-size="14.00" fill="#000000">Category</text>
</g>
<!-- Chunktag -->
<g id="node13" class="node">
<title>Chunktag</title>
<ellipse fill="none" stroke="#000000" cx="783.2463" cy="-162" rx="56.59" ry="18"/>
<text text-anchor="middle" x="783.2463" y="-158.3" font-family="Times,serif" font-size="14.00" fill="#000000">Chunktag</text>
</g>
<!-- Tensor3 -->
<g id="node14" class="node">
<title>Tensor3</title>
<ellipse fill="none" stroke="#000000" cx="906.2463" cy="-162" rx="48.1917" ry="18"/>
<text text-anchor="middle" x="906.2463" y="-158.3" font-family="Times,serif" font-size="14.00" fill="#000000">Tensor3</text>
</g>
<!-- Sentence -->
<g id="node15" class="node">
<title>Sentence</title>
<ellipse fill="none" stroke="#000000" cx="1134.2463" cy="-90" rx="53.8905" ry="18"/>
<text text-anchor="middle" x="1134.2463" y="-86.3" font-family="Times,serif" font-size="14.00" fill="#000000">Sentence</text>
</g>
<!-- Synset -->
<g id="node16" class="node">
<title>Synset</title>
<ellipse fill="none" stroke="#000000" cx="1014.2463" cy="-162" rx="42.4939" ry="18"/>
<text text-anchor="middle" x="1014.2463" y="-158.3" font-family="Times,serif" font-size="14.00" fill="#000000">Synset</text>
</g>
<!-- Text -->
<g id="node19" class="node">
<title>Text</title>
<ellipse fill="none" stroke="#000000" cx="1105.2463" cy="-162" rx="31.3957" ry="18"/>
<text text-anchor="middle" x="1105.2463" y="-158.3" font-family="Times,serif" font-size="14.00" fill="#000000">Text</text>
</g>
<!-- Text&#45;&gt;Document -->
<g id="edge1" class="edge">
<title>Text&#45;&gt;Document</title>
<path fill="none" stroke="#000000" d="M1080.84,-150.6473C1075.7205,-148.3703 1070.3316,-146.0498 1065.2463,-144 1031.7224,-130.4876 993.3665,-116.7926 963.701,-106.5754"/>
<polygon fill="#000000" stroke="#000000" points="964.5879,-103.1795 953.9933,-103.249 962.3188,-109.8016 964.5879,-103.1795"/>
</g>
<!-- Text&#45;&gt;Word -->
<g id="edge4" class="edge">
<title>Text&#45;&gt;Word</title>
<path fill="none" stroke="#000000" d="M1088.4924,-146.7307C1077.7177,-136.9107 1063.5178,-123.969 1051.4015,-112.9263"/>
<polygon fill="#000000" stroke="#000000" points="1053.5459,-110.1451 1043.7973,-105.9959 1048.8306,-115.3188 1053.5459,-110.1451"/>
</g>
<!-- Text&#45;&gt;Sentence -->
<g id="edge15" class="edge">
<title>Text&#45;&gt;Sentence</title>
<path fill="none" stroke="#000000" d="M1112.4148,-144.2022C1115.6913,-136.0675 1119.6455,-126.2501 1123.2834,-117.2181"/>
<polygon fill="#000000" stroke="#000000" points="1126.5701,-118.4261 1127.0597,-107.8425 1120.0769,-115.8107 1126.5701,-118.4261"/>
</g>
<!-- CategoricalVector -->
<g id="node20" class="node">
<title>CategoricalVector</title>
<ellipse fill="none" stroke="#000000" cx="1480.2463" cy="-90" rx="94.7833" ry="18"/>
<text text-anchor="middle" x="1480.2463" y="-86.3" font-family="Times,serif" font-size="14.00" fill="#000000">CategoricalVector</text>
</g>
<!-- ContinuousVector -->
<g id="node22" class="node">
<title>ContinuousVector</title>
<ellipse fill="none" stroke="#000000" cx="1687.2463" cy="-90" rx="94.4839" ry="18"/>
<text text-anchor="middle" x="1687.2463" y="-86.3" font-family="Times,serif" font-size="14.00" fill="#000000">ContinuousVector</text>
</g>
<!-- Tuple -->
<g id="node23" class="node">
<title>Tuple</title>
<ellipse fill="none" stroke="#000000" cx="1191.2463" cy="-162" rx="37.0935" ry="18"/>
<text text-anchor="middle" x="1191.2463" y="-158.3" font-family="Times,serif" font-size="14.00" fill="#000000">Tuple</text>
</g>
<!-- DenseMatrix&#45;&gt;MatrixContinuousDense -->
<g id="edge18" class="edge">
<title>DenseMatrix&#45;&gt;MatrixContinuousDense</title>
<path fill="none" stroke="#000000" d="M368.1227,-72.2022C373.1615,-63.9569 379.2568,-53.9828 384.8378,-44.8501"/>
<polygon fill="#000000" stroke="#000000" points="387.9613,-46.451 390.1893,-36.0931 381.9883,-42.8009 387.9613,-46.451"/>
</g>
<!-- Flags -->
<g id="node25" class="node">
<title>Flags</title>
<ellipse fill="none" stroke="#000000" cx="1282.2463" cy="-162" rx="36.2938" ry="18"/>
<text text-anchor="middle" x="1282.2463" y="-158.3" font-family="Times,serif" font-size="14.00" fill="#000000">Flags</text>
</g>
<!-- Vector -->
<g id="node26" class="node">
<title>Vector</title>
<ellipse fill="none" stroke="#000000" cx="1429.2463" cy="-162" rx="40.8928" ry="18"/>
<text text-anchor="middle" x="1429.2463" y="-158.3" font-family="Times,serif" font-size="14.00" fill="#000000">Vector</text>
</g>
<!-- Vector&#45;&gt;DiscreteVector -->
<g id="edge8" class="edge">
<title>Vector&#45;&gt;DiscreteVector</title>
<path fill="none" stroke="#000000" d="M1402.2029,-148.2879C1381.5306,-137.8061 1352.6619,-123.1685 1329.0264,-111.1843"/>
<polygon fill="#000000" stroke="#000000" points="1330.4239,-107.9687 1319.9221,-106.568 1327.2583,-114.2121 1330.4239,-107.9687"/>
</g>
<!-- Vector&#45;&gt;CategoricalVector -->
<g id="edge21" class="edge">
<title>Vector&#45;&gt;CategoricalVector</title>
<path fill="none" stroke="#000000" d="M1441.5919,-144.5708C1447.5956,-136.095 1454.939,-125.7279 1461.6064,-116.3151"/>
<polygon fill="#000000" stroke="#000000" points="1464.5575,-118.2039 1467.4817,-108.0206 1458.8454,-114.1578 1464.5575,-118.2039"/>
</g>
<!-- Vector&#45;&gt;ContinuousVector -->
<g id="edge24" class="edge">
<title>Vector&#45;&gt;ContinuousVector</title>
<path fill="none" stroke="#000000" d="M1464.0413,-152.2898C1504.9179,-140.8823 1573.5425,-121.7313 1623.9309,-107.6694"/>
<polygon fill="#000000" stroke="#000000" points="1625.0606,-110.9879 1633.7518,-104.9287 1623.179,-104.2456 1625.0606,-110.9879"/>
</g>
<!-- DataType -->
<g id="node27" class="node">
<title>DataType</title>
<ellipse fill="none" stroke="#000000" cx="719.2463" cy="-234" rx="55.7903" ry="18"/>
<text text-anchor="middle" x="719.2463" y="-230.3" font-family="Times,serif" font-size="14.00" fill="#000000">DataType</text>
</g>
<!-- DataType&#45;&gt;Postag -->
<g id="edge2" class="edge">
<title>DataType&#45;&gt;Postag</title>
<path fill="none" stroke="#000000" d="M663.7778,-231.0198C531.687,-223.6318 201.4722,-203.3699 93.2463,-180 89.8389,-179.2642 86.3473,-178.3633 82.8675,-177.3606"/>
<polygon fill="#000000" stroke="#000000" points="83.7609,-173.9728 73.1717,-174.318 81.6649,-180.6516 83.7609,-173.9728"/>
</g>
<!-- DataType&#45;&gt;Stem -->
<g id="edge3" class="edge">
<title>DataType&#45;&gt;Stem</title>
<path fill="none" stroke="#000000" d="M664.1426,-230.4897C546.0093,-222.6353 271.7645,-202.5525 181.2463,-180 178.4683,-179.3079 175.6353,-178.4728 172.8132,-177.5463"/>
<polygon fill="#000000" stroke="#000000" points="173.9503,-174.2357 163.3561,-174.1186 171.5649,-180.8168 173.9503,-174.2357"/>
</g>
<!-- DataType&#45;&gt;Sentiment -->
<g id="edge5" class="edge">
<title>DataType&#45;&gt;Sentiment</title>
<path fill="none" stroke="#000000" d="M665.573,-228.9503C588.1592,-221.1791 440.8783,-204.5663 317.2463,-180 312.4813,-179.0532 307.5551,-177.966 302.633,-176.8048"/>
<polygon fill="#000000" stroke="#000000" points="303.1344,-173.3241 292.5883,-174.339 301.4655,-180.1222 303.1344,-173.3241"/>
</g>
<!-- DataType&#45;&gt;Entity -->
<g id="edge7" class="edge">
<title>DataType&#45;&gt;Entity</title>
<path fill="none" stroke="#000000" d="M666.7944,-227.6939C605.508,-219.643 501.3869,-203.8359 414.2463,-180 411.4294,-179.2295 408.5461,-178.3608 405.6596,-177.4317"/>
<polygon fill="#000000" stroke="#000000" points="406.5202,-174.0269 395.9256,-174.0954 404.2505,-180.6487 406.5202,-174.0269"/>
</g>
<!-- DataType&#45;&gt;List -->
<g id="edge10" class="edge">
<title>DataType&#45;&gt;List</title>
<path fill="none" stroke="#000000" d="M669.6973,-225.4474C622.7264,-216.6111 550.5771,-201.1362 490.2463,-180 488.1192,-179.2548 485.9524,-178.4275 483.7865,-177.5488"/>
<polygon fill="#000000" stroke="#000000" points="484.987,-174.254 474.4217,-173.4621 482.1871,-180.6697 484.987,-174.254"/>
</g>
<!-- DataType&#45;&gt;Matrix -->
<g id="edge11" class="edge">
<title>DataType&#45;&gt;Matrix</title>
<path fill="none" stroke="#000000" d="M684.0792,-219.7751C654.5494,-207.8305 612.3547,-190.763 581.4832,-178.2756"/>
<polygon fill="#000000" stroke="#000000" points="582.4711,-174.8998 571.8883,-174.3945 579.8462,-181.389 582.4711,-174.8998"/>
</g>
<!-- DataType&#45;&gt;Category -->
<g id="edge12" class="edge">
<title>DataType&#45;&gt;Category</title>
<path fill="none" stroke="#000000" d="M703.7536,-216.5708C695.8138,-207.6385 686.0068,-196.6056 677.2933,-186.8029"/>
<polygon fill="#000000" stroke="#000000" points="679.8558,-184.4175 670.5962,-179.2687 674.6239,-189.0681 679.8558,-184.4175"/>
</g>
<!-- DataType&#45;&gt;Chunktag -->
<g id="edge13" class="edge">
<title>DataType&#45;&gt;Chunktag</title>
<path fill="none" stroke="#000000" d="M734.7389,-216.5708C742.6203,-207.7041 752.3416,-196.7678 761.0068,-187.0194"/>
<polygon fill="#000000" stroke="#000000" points="763.6468,-189.3176 767.6745,-179.5182 758.4149,-184.6671 763.6468,-189.3176"/>
</g>
<!-- DataType&#45;&gt;Tensor3 -->
<g id="edge14" class="edge">
<title>DataType&#45;&gt;Tensor3</title>
<path fill="none" stroke="#000000" d="M755.3017,-220.1177C785.9841,-208.3042 830.1409,-191.3026 862.7739,-178.738"/>
<polygon fill="#000000" stroke="#000000" points="864.4292,-181.8512 872.5038,-174.9918 861.914,-175.3187 864.4292,-181.8512"/>
</g>
<!-- DataType&#45;&gt;Synset -->
<g id="edge16" class="edge">
<title>DataType&#45;&gt;Synset</title>
<path fill="none" stroke="#000000" d="M767.8285,-225.0558C817.3856,-215.511 896.2955,-199.1467 963.2463,-180 966.3608,-179.1093 969.5621,-178.1318 972.7702,-177.107"/>
<polygon fill="#000000" stroke="#000000" points="973.948,-180.4039 982.3351,-173.9304 971.7417,-173.7607 973.948,-180.4039"/>
</g>
<!-- DataType&#45;&gt;Text -->
<g id="edge20" class="edge">
<title>DataType&#45;&gt;Text</title>
<path fill="none" stroke="#000000" d="M773.8789,-230.0206C842.9209,-223.9643 964.8621,-209.8288 1065.2463,-180 1067.5251,-179.3228 1069.8431,-178.5431 1072.1566,-177.696"/>
<polygon fill="#000000" stroke="#000000" points="1073.5611,-180.9037 1081.5316,-173.9236 1070.9479,-174.4097 1073.5611,-180.9037"/>
</g>
<!-- DataType&#45;&gt;Tuple -->
<g id="edge25" class="edge">
<title>DataType&#45;&gt;Tuple</title>
<path fill="none" stroke="#000000" d="M774.8662,-231.3306C856.9923,-226.4099 1015.0317,-213.1851 1145.2463,-180 1148.0509,-179.2852 1150.9156,-178.4461 1153.7757,-177.5277"/>
<polygon fill="#000000" stroke="#000000" points="1155.1043,-180.771 1163.3885,-174.1662 1152.7936,-174.1634 1155.1043,-180.771"/>
</g>
<!-- DataType&#45;&gt;Flags -->
<g id="edge27" class="edge">
<title>DataType&#45;&gt;Flags</title>
<path fill="none" stroke="#000000" d="M774.0177,-230.2151C888.6608,-221.9788 1150.4547,-201.4408 1237.2463,-180 1239.9113,-179.3416 1242.6279,-178.5587 1245.3397,-177.6937"/>
<polygon fill="#000000" stroke="#000000" points="1246.7687,-180.9012 1255.0379,-174.2776 1244.4431,-174.2988 1246.7687,-180.9012"/>
</g>
<!-- DataType&#45;&gt;Vector -->
<g id="edge28" class="edge">
<title>DataType&#45;&gt;Vector</title>
<path fill="none" stroke="#000000" d="M774.3349,-230.7019C881.2524,-223.9484 1124.2287,-206.8782 1327.2463,-180 1344.9612,-177.6547 1364.2929,-174.4178 1381.3167,-171.335"/>
<polygon fill="#000000" stroke="#000000" points="1382.3822,-174.6977 1391.5831,-169.4448 1381.1146,-167.8134 1382.3822,-174.6977"/>
</g>
</g>
</svg>
