<?xml version="1.0" encoding="UTF-8" standalone="no"?>
<!DOCTYPE svg PUBLIC "-//W3C//DTD SVG 1.1//EN"
 "http://www.w3.org/Graphics/SVG/1.1/DTD/svg11.dtd">
<!-- Generated by graphviz version 2.40.1 (20161225.0304)
 -->
<!-- Title: G Pages: 1 -->
<svg width="1602pt" height="260pt"
 viewBox="0.00 0.00 1602.28 260.00" xmlns="http://www.w3.org/2000/svg" xmlns:xlink="http://www.w3.org/1999/xlink">
<g id="graph0" class="graph" transform="scale(1 1) rotate(0) translate(4 256)">
<title>G</title>
<polygon fill="#ffffff" stroke="transparent" points="-4,4 -4,-256 1598.2803,-256 1598.2803,4 -4,4"/>
<!-- CategoricalVector -->
<g id="node1" class="node">
<title>CategoricalVector</title>
<ellipse fill="none" stroke="#000000" cx="94.8916" cy="-90" rx="94.7833" ry="18"/>
<text text-anchor="middle" x="94.8916" y="-86.3" font-family="Times,serif" font-size="14.00" fill="#000000">CategoricalVector</text>
</g>
<!-- MatrixContinuousSparse -->
<g id="node2" class="node">
<title>MatrixContinuousSparse</title>
<ellipse fill="none" stroke="#000000" cx="1466.8916" cy="-18" rx="127.2775" ry="18"/>
<text text-anchor="middle" x="1466.8916" y="-14.3" font-family="Times,serif" font-size="14.00" fill="#000000">MatrixContinuousSparse</text>
</g>
<!-- ContinuousVector -->
<g id="node3" class="node">
<title>ContinuousVector</title>
<ellipse fill="none" stroke="#000000" cx="301.8916" cy="-90" rx="94.4839" ry="18"/>
<text text-anchor="middle" x="301.8916" y="-86.3" font-family="Times,serif" font-size="14.00" fill="#000000">ContinuousVector</text>
</g>
<!-- Tuple -->
<g id="node4" class="node">
<title>Tuple</title>
<ellipse fill="none" stroke="#000000" cx="115.8916" cy="-162" rx="37.0935" ry="18"/>
<text text-anchor="middle" x="115.8916" y="-158.3" font-family="Times,serif" font-size="14.00" fill="#000000">Tuple</text>
</g>
<!-- Word -->
<g id="node5" class="node">
<title>Word</title>
<ellipse fill="none" stroke="#000000" cx="736.8916" cy="-90" rx="35.9954" ry="18"/>
<text text-anchor="middle" x="736.8916" y="-86.3" font-family="Times,serif" font-size="14.00" fill="#000000">Word</text>
</g>
<!-- DenseMatrix -->
<g id="node6" class="node">
<title>DenseMatrix</title>
<ellipse fill="none" stroke="#000000" cx="1121.8916" cy="-90" rx="70.6878" ry="18"/>
<text text-anchor="middle" x="1121.8916" y="-86.3" font-family="Times,serif" font-size="14.00" fill="#000000">DenseMatrix</text>
</g>
<!-- MatrixContinuousDense -->
<g id="node19" class="node">
<title>MatrixContinuousDense</title>
<ellipse fill="none" stroke="#000000" cx="1146.8916" cy="-18" rx="124.2781" ry="18"/>
<text text-anchor="middle" x="1146.8916" y="-14.3" font-family="Times,serif" font-size="14.00" fill="#000000">MatrixContinuousDense</text>
</g>
<!-- DenseMatrix&#45;&gt;MatrixContinuousDense -->
<g id="edge21" class="edge">
<title>DenseMatrix&#45;&gt;MatrixContinuousDense</title>
<path fill="none" stroke="#000000" d="M1128.2001,-71.8314C1130.9033,-64.0463 1134.1232,-54.7729 1137.1226,-46.1347"/>
<polygon fill="#000000" stroke="#000000" points="1140.5243,-47.0081 1140.4981,-36.4133 1133.9115,-44.7119 1140.5243,-47.0081"/>
</g>
<!-- Flags -->
<g id="node7" class="node">
<title>Flags</title>
<ellipse fill="none" stroke="#000000" cx="206.8916" cy="-162" rx="36.2938" ry="18"/>
<text text-anchor="middle" x="206.8916" y="-158.3" font-family="Times,serif" font-size="14.00" fill="#000000">Flags</text>
</g>
<!-- Vector -->
<g id="node8" class="node">
<title>Vector</title>
<ellipse fill="none" stroke="#000000" cx="301.8916" cy="-162" rx="40.8928" ry="18"/>
<text text-anchor="middle" x="301.8916" y="-158.3" font-family="Times,serif" font-size="14.00" fill="#000000">Vector</text>
</g>
<!-- Vector&#45;&gt;CategoricalVector -->
<g id="edge1" class="edge">
<title>Vector&#45;&gt;CategoricalVector</title>
<path fill="none" stroke="#000000" d="M270.1754,-150.5052C264.1112,-148.3291 257.8094,-146.0828 251.8916,-144 218.5475,-132.2644 181.1207,-119.3803 151.1748,-109.1412"/>
<polygon fill="#000000" stroke="#000000" points="151.9173,-105.6964 141.3228,-105.7758 149.6544,-112.3205 151.9173,-105.6964"/>
</g>
<!-- Vector&#45;&gt;ContinuousVector -->
<g id="edge4" class="edge">
<title>Vector&#45;&gt;ContinuousVector</title>
<path fill="none" stroke="#000000" d="M301.8916,-143.8314C301.8916,-136.131 301.8916,-126.9743 301.8916,-118.4166"/>
<polygon fill="#000000" stroke="#000000" points="305.3917,-118.4132 301.8916,-108.4133 298.3917,-118.4133 305.3917,-118.4132"/>
</g>
<!-- DiscreteVector -->
<g id="node16" class="node">
<title>DiscreteVector</title>
<ellipse fill="none" stroke="#000000" cx="494.8916" cy="-90" rx="80.6858" ry="18"/>
<text text-anchor="middle" x="494.8916" y="-86.3" font-family="Times,serif" font-size="14.00" fill="#000000">DiscreteVector</text>
</g>
<!-- Vector&#45;&gt;DiscreteVector -->
<g id="edge17" class="edge">
<title>Vector&#45;&gt;DiscreteVector</title>
<path fill="none" stroke="#000000" d="M333.3299,-150.2717C363.2062,-139.1262 408.6561,-122.1707 443.7479,-109.0795"/>
<polygon fill="#000000" stroke="#000000" points="445.2034,-112.2722 453.3493,-105.4976 442.7567,-105.7137 445.2034,-112.2722"/>
</g>
<!-- Tensor3 -->
<g id="node9" class="node">
<title>Tensor3</title>
<ellipse fill="none" stroke="#000000" cx="408.8916" cy="-162" rx="48.1917" ry="18"/>
<text text-anchor="middle" x="408.8916" y="-158.3" font-family="Times,serif" font-size="14.00" fill="#000000">Tensor3</text>
</g>
<!-- Document -->
<g id="node10" class="node">
<title>Document</title>
<ellipse fill="none" stroke="#000000" cx="848.8916" cy="-90" rx="58.4896" ry="18"/>
<text text-anchor="middle" x="848.8916" y="-86.3" font-family="Times,serif" font-size="14.00" fill="#000000">Document</text>
</g>
<!-- Summary -->
<g id="node26" class="node">
<title>Summary</title>
<ellipse fill="none" stroke="#000000" cx="848.8916" cy="-18" rx="55.7903" ry="18"/>
<text text-anchor="middle" x="848.8916" y="-14.3" font-family="Times,serif" font-size="14.00" fill="#000000">Summary</text>
</g>
<!-- Document&#45;&gt;Summary -->
<g id="edge28" class="edge">
<title>Document&#45;&gt;Summary</title>
<path fill="none" stroke="#000000" d="M848.8916,-71.8314C848.8916,-64.131 848.8916,-54.9743 848.8916,-46.4166"/>
<polygon fill="#000000" stroke="#000000" points="852.3917,-46.4132 848.8916,-36.4133 845.3917,-46.4133 852.3917,-46.4132"/>
</g>
<!-- Postag -->
<g id="node11" class="node">
<title>Postag</title>
<ellipse fill="none" stroke="#000000" cx="516.8916" cy="-162" rx="42.4939" ry="18"/>
<text text-anchor="middle" x="516.8916" y="-158.3" font-family="Times,serif" font-size="14.00" fill="#000000">Postag</text>
</g>
<!-- Sentiment -->
<g id="node12" class="node">
<title>Sentiment</title>
<ellipse fill="none" stroke="#000000" cx="635.8916" cy="-162" rx="59.2899" ry="18"/>
<text text-anchor="middle" x="635.8916" y="-158.3" font-family="Times,serif" font-size="14.00" fill="#000000">Sentiment</text>
</g>
<!-- Stem -->
<g id="node13" class="node">
<title>Stem</title>
<ellipse fill="none" stroke="#000000" cx="747.8916" cy="-162" rx="35.194" ry="18"/>
<text text-anchor="middle" x="747.8916" y="-158.3" font-family="Times,serif" font-size="14.00" fill="#000000">Stem</text>
</g>
<!-- MatrixContinuous -->
<g id="node14" class="node">
<title>MatrixContinuous</title>
<ellipse fill="none" stroke="#000000" cx="1305.8916" cy="-90" rx="94.7833" ry="18"/>
<text text-anchor="middle" x="1305.8916" y="-86.3" font-family="Times,serif" font-size="14.00" fill="#000000">MatrixContinuous</text>
</g>
<!-- MatrixContinuous&#45;&gt;MatrixContinuousSparse -->
<g id="edge2" class="edge">
<title>MatrixContinuous&#45;&gt;MatrixContinuousSparse</title>
<path fill="none" stroke="#000000" d="M1343.2329,-73.3008C1365.7848,-63.2155 1394.7526,-50.2609 1418.9816,-39.4256"/>
<polygon fill="#000000" stroke="#000000" points="1420.6538,-42.5119 1428.3537,-35.2344 1417.796,-36.1218 1420.6538,-42.5119"/>
</g>
<!-- MatrixContinuous&#45;&gt;MatrixContinuousDense -->
<g id="edge20" class="edge">
<title>MatrixContinuous&#45;&gt;MatrixContinuousDense</title>
<path fill="none" stroke="#000000" d="M1269.0141,-73.3008C1246.7424,-63.2155 1218.1344,-50.2609 1194.2064,-39.4256"/>
<polygon fill="#000000" stroke="#000000" points="1195.5041,-36.1711 1184.9508,-35.2344 1192.6165,-42.5478 1195.5041,-36.1711"/>
</g>
<!-- Entity -->
<g id="node15" class="node">
<title>Entity</title>
<ellipse fill="none" stroke="#000000" cx="840.8916" cy="-162" rx="39.7935" ry="18"/>
<text text-anchor="middle" x="840.8916" y="-158.3" font-family="Times,serif" font-size="14.00" fill="#000000">Entity</text>
</g>
<!-- SparseMatrix -->
<g id="node17" class="node">
<title>SparseMatrix</title>
<ellipse fill="none" stroke="#000000" cx="1492.8916" cy="-90" rx="74.187" ry="18"/>
<text text-anchor="middle" x="1492.8916" y="-86.3" font-family="Times,serif" font-size="14.00" fill="#000000">SparseMatrix</text>
</g>
<!-- SparseMatrix&#45;&gt;MatrixContinuousSparse -->
<g id="edge3" class="edge">
<title>SparseMatrix&#45;&gt;MatrixContinuousSparse</title>
<path fill="none" stroke="#000000" d="M1486.3307,-71.8314C1483.4889,-63.9617 1480.0978,-54.5712 1476.9497,-45.8533"/>
<polygon fill="#000000" stroke="#000000" points="1480.2293,-44.63 1473.5408,-36.4133 1473.6454,-47.0076 1480.2293,-44.63"/>
</g>
<!-- List -->
<g id="node18" class="node">
<title>List</title>
<ellipse fill="none" stroke="#000000" cx="926.8916" cy="-162" rx="28.6953" ry="18"/>
<text text-anchor="middle" x="926.8916" y="-158.3" font-family="Times,serif" font-size="14.00" fill="#000000">List</text>
</g>
<!-- Text -->
<g id="node20" class="node">
<title>Text</title>
<ellipse fill="none" stroke="#000000" cx="1004.8916" cy="-162" rx="31.3957" ry="18"/>
<text text-anchor="middle" x="1004.8916" y="-158.3" font-family="Times,serif" font-size="14.00" fill="#000000">Text</text>
</g>
<!-- Text&#45;&gt;Word -->
<g id="edge6" class="edge">
<title>Text&#45;&gt;Word</title>
<path fill="none" stroke="#000000" d="M981.1273,-150.2374C975.8681,-147.9373 970.2607,-145.7113 964.8916,-144 885.9139,-118.8277 861.3845,-131.4945 781.8916,-108 779.259,-107.2219 776.5665,-106.3498 773.8722,-105.4203"/>
<polygon fill="#000000" stroke="#000000" points="774.8045,-102.034 764.211,-101.8682 772.3889,-108.6041 774.8045,-102.034"/>
</g>
<!-- Text&#45;&gt;Document -->
<g id="edge11" class="edge">
<title>Text&#45;&gt;Document</title>
<path fill="none" stroke="#000000" d="M980.5166,-150.75C956.5727,-139.699 919.5618,-122.617 890.8771,-109.3779"/>
<polygon fill="#000000" stroke="#000000" points="892.0456,-106.0625 881.4993,-105.0497 889.1122,-112.4182 892.0456,-106.0625"/>
</g>
<!-- Sentence -->
<g id="node24" class="node">
<title>Sentence</title>
<ellipse fill="none" stroke="#000000" cx="978.8916" cy="-90" rx="53.8905" ry="18"/>
<text text-anchor="middle" x="978.8916" y="-86.3" font-family="Times,serif" font-size="14.00" fill="#000000">Sentence</text>
</g>
<!-- Text&#45;&gt;Sentence -->
<g id="edge26" class="edge">
<title>Text&#45;&gt;Sentence</title>
<path fill="none" stroke="#000000" d="M998.4646,-144.2022C995.5802,-136.2146 992.1099,-126.6045 988.8975,-117.7087"/>
<polygon fill="#000000" stroke="#000000" points="992.1137,-116.3099 985.4252,-108.0931 985.5298,-118.6874 992.1137,-116.3099"/>
</g>
<!-- Matrix -->
<g id="node21" class="node">
<title>Matrix</title>
<ellipse fill="none" stroke="#000000" cx="1095.8916" cy="-162" rx="42.4939" ry="18"/>
<text text-anchor="middle" x="1095.8916" y="-158.3" font-family="Times,serif" font-size="14.00" fill="#000000">Matrix</text>
</g>
<!-- Matrix&#45;&gt;DenseMatrix -->
<g id="edge7" class="edge">
<title>Matrix&#45;&gt;DenseMatrix</title>
<path fill="none" stroke="#000000" d="M1102.3185,-144.2022C1105.203,-136.2146 1108.6733,-126.6045 1111.8857,-117.7087"/>
<polygon fill="#000000" stroke="#000000" points="1115.2534,-118.6874 1115.358,-108.0931 1108.6695,-116.3099 1115.2534,-118.6874"/>
</g>
<!-- Matrix&#45;&gt;MatrixContinuous -->
<g id="edge15" class="edge">
<title>Matrix&#45;&gt;MatrixContinuous</title>
<path fill="none" stroke="#000000" d="M1128.5196,-150.4194C1134.6206,-148.2724 1140.9469,-146.0584 1146.8916,-144 1180.9466,-132.2078 1219.1885,-119.2123 1249.6323,-108.9254"/>
<polygon fill="#000000" stroke="#000000" points="1250.8727,-112.2008 1259.2275,-105.6856 1248.6333,-105.5686 1250.8727,-112.2008"/>
</g>
<!-- Matrix&#45;&gt;SparseMatrix -->
<g id="edge18" class="edge">
<title>Matrix&#45;&gt;SparseMatrix</title>
<path fill="none" stroke="#000000" d="M1127.1481,-149.8446C1133.6043,-147.653 1140.4125,-145.5695 1146.8916,-144 1261.5541,-116.2238 1293.7105,-128.5177 1409.8916,-108 1415.99,-106.923 1422.3214,-105.7149 1428.6453,-104.4477"/>
<polygon fill="#000000" stroke="#000000" points="1429.449,-107.8558 1438.5419,-102.4181 1428.0426,-100.9985 1429.449,-107.8558"/>
</g>
<!-- Category -->
<g id="node22" class="node">
<title>Category</title>
<ellipse fill="none" stroke="#000000" cx="1209.8916" cy="-162" rx="53.8905" ry="18"/>
<text text-anchor="middle" x="1209.8916" y="-158.3" font-family="Times,serif" font-size="14.00" fill="#000000">Category</text>
</g>
<!-- Chunktag -->
<g id="node23" class="node">
<title>Chunktag</title>
<ellipse fill="none" stroke="#000000" cx="1337.8916" cy="-162" rx="56.59" ry="18"/>
<text text-anchor="middle" x="1337.8916" y="-158.3" font-family="Times,serif" font-size="14.00" fill="#000000">Chunktag</text>
</g>
<!-- Synset -->
<g id="node25" class="node">
<title>Synset</title>
<ellipse fill="none" stroke="#000000" cx="1454.8916" cy="-162" rx="42.4939" ry="18"/>
<text text-anchor="middle" x="1454.8916" y="-158.3" font-family="Times,serif" font-size="14.00" fill="#000000">Synset</text>
</g>
<!-- DataType -->
<g id="node27" class="node">
<title>DataType</title>
<ellipse fill="none" stroke="#000000" cx="793.8916" cy="-234" rx="55.7903" ry="18"/>
<text text-anchor="middle" x="793.8916" y="-230.3" font-family="Times,serif" font-size="14.00" fill="#000000">DataType</text>
</g>
<!-- DataType&#45;&gt;Tuple -->
<g id="edge5" class="edge">
<title>DataType&#45;&gt;Tuple</title>
<path fill="none" stroke="#000000" d="M738.331,-231.304C605.1868,-224.5132 270.8787,-205.4165 161.8916,-180 158.898,-179.3019 155.841,-178.4464 152.7969,-177.4913"/>
<polygon fill="#000000" stroke="#000000" points="153.8065,-174.137 143.2117,-174.172 151.5159,-180.7517 153.8065,-174.137"/>
</g>
<!-- DataType&#45;&gt;Flags -->
<g id="edge8" class="edge">
<title>DataType&#45;&gt;Flags</title>
<path fill="none" stroke="#000000" d="M738.8399,-230.4859C620.1019,-222.586 343.2872,-202.3568 251.8916,-180 249.225,-179.3477 246.5073,-178.5693 243.7947,-177.7076"/>
<polygon fill="#000000" stroke="#000000" points="244.6897,-174.3123 234.0948,-174.2984 242.3685,-180.9163 244.6897,-174.3123"/>
</g>
<!-- DataType&#45;&gt;Vector -->
<g id="edge9" class="edge">
<title>DataType&#45;&gt;Vector</title>
<path fill="none" stroke="#000000" d="M738.4097,-231.214C653.9701,-226.082 488.5815,-212.5191 351.8916,-180 348.6604,-179.2313 345.3493,-178.3228 342.0445,-177.3291"/>
<polygon fill="#000000" stroke="#000000" points="342.8278,-173.9037 332.2358,-174.1467 340.6675,-180.562 342.8278,-173.9037"/>
</g>
<!-- DataType&#45;&gt;Tensor3 -->
<g id="edge10" class="edge">
<title>DataType&#45;&gt;Tensor3</title>
<path fill="none" stroke="#000000" d="M741.4543,-227.7149C676.3126,-219.3705 562.0162,-202.9662 465.8916,-180 462.0829,-179.09 458.1586,-178.0572 454.2355,-176.9576"/>
<polygon fill="#000000" stroke="#000000" points="455.1335,-173.5736 444.5527,-174.1184 453.1638,-180.2908 455.1335,-173.5736"/>
</g>
<!-- DataType&#45;&gt;Postag -->
<g id="edge12" class="edge">
<title>DataType&#45;&gt;Postag</title>
<path fill="none" stroke="#000000" d="M746.7668,-224.2484C700.7842,-214.3798 629.0242,-198.0377 567.8916,-180 564.7846,-179.0833 561.5889,-178.0867 558.3846,-177.0485"/>
<polygon fill="#000000" stroke="#000000" points="559.4208,-173.7045 548.8269,-173.8471 557.1974,-180.342 559.4208,-173.7045"/>
</g>
<!-- DataType&#45;&gt;Sentiment -->
<g id="edge13" class="edge">
<title>DataType&#45;&gt;Sentiment</title>
<path fill="none" stroke="#000000" d="M761.5367,-219.256C737.4141,-208.2634 704.2516,-193.1514 678.0534,-181.213"/>
<polygon fill="#000000" stroke="#000000" points="679.2973,-177.9336 668.7462,-176.9717 676.3946,-184.3034 679.2973,-177.9336"/>
</g>
<!-- DataType&#45;&gt;Stem -->
<g id="edge14" class="edge">
<title>DataType&#45;&gt;Stem</title>
<path fill="none" stroke="#000000" d="M782.5208,-216.2022C777.0771,-207.6817 770.4539,-197.315 764.4634,-187.9385"/>
<polygon fill="#000000" stroke="#000000" points="767.3062,-185.8872 758.9728,-179.3446 761.4073,-189.6559 767.3062,-185.8872"/>
</g>
<!-- DataType&#45;&gt;Entity -->
<g id="edge16" class="edge">
<title>DataType&#45;&gt;Entity</title>
<path fill="none" stroke="#000000" d="M805.5096,-216.2022C811.0716,-207.6817 817.8387,-197.315 823.9595,-187.9385"/>
<polygon fill="#000000" stroke="#000000" points="827.034,-189.6316 829.5694,-179.3446 821.1723,-185.8052 827.034,-189.6316"/>
</g>
<!-- DataType&#45;&gt;List -->
<g id="edge19" class="edge">
<title>DataType&#45;&gt;List</title>
<path fill="none" stroke="#000000" d="M822.7506,-218.3771C844.4098,-206.6518 874.0123,-190.6264 896.1209,-178.6578"/>
<polygon fill="#000000" stroke="#000000" points="897.9644,-181.6398 905.0922,-173.8012 894.6319,-175.484 897.9644,-181.6398"/>
</g>
<!-- DataType&#45;&gt;Text -->
<g id="edge22" class="edge">
<title>DataType&#45;&gt;Text</title>
<path fill="none" stroke="#000000" d="M836.1759,-222.1462C871.0732,-212.007 921.6948,-196.4751 964.8916,-180 966.9728,-179.2062 969.1006,-178.3589 971.2372,-177.4805"/>
<polygon fill="#000000" stroke="#000000" points="972.7249,-180.651 980.5436,-173.5013 969.9728,-174.2147 972.7249,-180.651"/>
</g>
<!-- DataType&#45;&gt;Matrix -->
<g id="edge23" class="edge">
<title>DataType&#45;&gt;Matrix</title>
<path fill="none" stroke="#000000" d="M843.4048,-225.278C894.3635,-215.8521 975.8365,-199.5286 1044.8916,-180 1048.0087,-179.1185 1051.2119,-178.1477 1054.4214,-177.1276"/>
<polygon fill="#000000" stroke="#000000" points="1055.5958,-180.4257 1063.9888,-173.9598 1053.3955,-173.7805 1055.5958,-180.4257"/>
</g>
<!-- DataType&#45;&gt;Category -->
<g id="edge24" class="edge">
<title>DataType&#45;&gt;Category</title>
<path fill="none" stroke="#000000" d="M846.9036,-228.0137C916.2982,-219.694 1041.5005,-203.0202 1146.8916,-180 1151.2604,-179.0457 1155.7732,-177.9601 1160.2825,-176.8059"/>
<polygon fill="#000000" stroke="#000000" points="1161.3291,-180.1492 1170.0919,-174.194 1159.528,-173.3849 1161.3291,-180.1492"/>
</g>
<!-- DataType&#45;&gt;Chunktag -->
<g id="edge25" class="edge">
<title>DataType&#45;&gt;Chunktag</title>
<path fill="none" stroke="#000000" d="M848.9128,-230.6325C938.4307,-224.5209 1120.8931,-209.4226 1272.8916,-180 1277.5331,-179.1015 1282.3274,-178.0387 1287.1107,-176.8858"/>
<polygon fill="#000000" stroke="#000000" points="1288.0268,-180.2644 1296.8615,-174.4164 1286.3082,-173.4786 1288.0268,-180.2644"/>
</g>
<!-- DataType&#45;&gt;Synset -->
<g id="edge27" class="edge">
<title>DataType&#45;&gt;Synset</title>
<path fill="none" stroke="#000000" d="M849.3775,-230.8748C979.0337,-223.2835 1298.8263,-202.8109 1403.8916,-180 1407.2981,-179.2604 1410.7891,-178.3568 1414.2685,-177.3522"/>
<polygon fill="#000000" stroke="#000000" points="1415.4724,-180.6428 1423.9637,-174.3065 1413.3744,-173.9646 1415.4724,-180.6428"/>
</g>
</g>
</svg>
