<?xml version="1.0" encoding="UTF-8" standalone="no"?>
<!DOCTYPE svg PUBLIC "-//W3C//DTD SVG 1.1//EN"
 "http://www.w3.org/Graphics/SVG/1.1/DTD/svg11.dtd">
<!-- Generated by graphviz version 2.40.1 (20161225.0304)
 -->
<!-- Title: G Pages: 1 -->
<svg width="1841pt" height="260pt"
 viewBox="0.00 0.00 1840.59 260.00" xmlns="http://www.w3.org/2000/svg" xmlns:xlink="http://www.w3.org/1999/xlink">
<g id="graph0" class="graph" transform="scale(1 1) rotate(0) translate(4 256)">
<title>G</title>
<polygon fill="#ffffff" stroke="transparent" points="-4,4 -4,-256 1836.5917,-256 1836.5917,4 -4,4"/>
<!-- Text -->
<g id="node1" class="node">
<title>Text</title>
<ellipse fill="none" stroke="#000000" cx="217.9452" cy="-162" rx="31.3957" ry="18"/>
<text text-anchor="middle" x="217.9452" y="-158.3" font-family="Times,serif" font-size="14.00" fill="#000000">Text</text>
</g>
<!-- Sentence -->
<g id="node5" class="node">
<title>Sentence</title>
<ellipse fill="none" stroke="#000000" cx="53.9452" cy="-90" rx="53.8905" ry="18"/>
<text text-anchor="middle" x="53.9452" y="-86.3" font-family="Times,serif" font-size="14.00" fill="#000000">Sentence</text>
</g>
<!-- Text&#45;&gt;Sentence -->
<g id="edge5" class="edge">
<title>Text&#45;&gt;Sentence</title>
<path fill="none" stroke="#000000" d="M193.0371,-151.0647C167.2949,-139.7633 126.6502,-121.9193 95.9309,-108.4328"/>
<polygon fill="#000000" stroke="#000000" points="97.3069,-105.2145 86.7435,-104.3993 94.493,-111.624 97.3069,-105.2145"/>
</g>
<!-- Word -->
<g id="node13" class="node">
<title>Word</title>
<ellipse fill="none" stroke="#000000" cx="161.9452" cy="-90" rx="35.9954" ry="18"/>
<text text-anchor="middle" x="161.9452" y="-86.3" font-family="Times,serif" font-size="14.00" fill="#000000">Word</text>
</g>
<!-- Text&#45;&gt;Word -->
<g id="edge14" class="edge">
<title>Text&#45;&gt;Word</title>
<path fill="none" stroke="#000000" d="M204.9569,-145.3008C197.99,-136.3433 189.2626,-125.1223 181.4932,-115.1331"/>
<polygon fill="#000000" stroke="#000000" points="184.1541,-112.8534 175.2519,-107.1086 178.6286,-117.151 184.1541,-112.8534"/>
</g>
<!-- Document -->
<g id="node18" class="node">
<title>Document</title>
<ellipse fill="none" stroke="#000000" cx="273.9452" cy="-90" rx="58.4896" ry="18"/>
<text text-anchor="middle" x="273.9452" y="-86.3" font-family="Times,serif" font-size="14.00" fill="#000000">Document</text>
</g>
<!-- Text&#45;&gt;Document -->
<g id="edge19" class="edge">
<title>Text&#45;&gt;Document</title>
<path fill="none" stroke="#000000" d="M230.9335,-145.3008C237.7995,-136.4731 246.3752,-125.4471 254.0588,-115.5682"/>
<polygon fill="#000000" stroke="#000000" points="256.8694,-117.6555 260.2461,-107.6132 251.3439,-113.3579 256.8694,-117.6555"/>
</g>
<!-- Matrix -->
<g id="node2" class="node">
<title>Matrix</title>
<ellipse fill="none" stroke="#000000" cx="535.9452" cy="-162" rx="42.4939" ry="18"/>
<text text-anchor="middle" x="535.9452" y="-158.3" font-family="Times,serif" font-size="14.00" fill="#000000">Matrix</text>
</g>
<!-- DenseMatrix -->
<g id="node14" class="node">
<title>DenseMatrix</title>
<ellipse fill="none" stroke="#000000" cx="420.9452" cy="-90" rx="70.6878" ry="18"/>
<text text-anchor="middle" x="420.9452" y="-86.3" font-family="Times,serif" font-size="14.00" fill="#000000">DenseMatrix</text>
</g>
<!-- Matrix&#45;&gt;DenseMatrix -->
<g id="edge15" class="edge">
<title>Matrix&#45;&gt;DenseMatrix</title>
<path fill="none" stroke="#000000" d="M512.1171,-147.0816C496.0604,-137.0286 474.5948,-123.5893 456.5256,-112.2764"/>
<polygon fill="#000000" stroke="#000000" points="458.2998,-109.2579 447.9666,-106.9178 454.5852,-115.191 458.2998,-109.2579"/>
</g>
<!-- MatrixContinuous -->
<g id="node22" class="node">
<title>MatrixContinuous</title>
<ellipse fill="none" stroke="#000000" cx="604.9452" cy="-90" rx="94.7833" ry="18"/>
<text text-anchor="middle" x="604.9452" y="-86.3" font-family="Times,serif" font-size="14.00" fill="#000000">MatrixContinuous</text>
</g>
<!-- Matrix&#45;&gt;MatrixContinuous -->
<g id="edge23" class="edge">
<title>Matrix&#45;&gt;MatrixContinuous</title>
<path fill="none" stroke="#000000" d="M551.9486,-145.3008C560.5142,-136.3627 571.2396,-125.1711 580.7968,-115.1983"/>
<polygon fill="#000000" stroke="#000000" points="583.4304,-117.5087 587.8226,-107.8671 578.3765,-112.6654 583.4304,-117.5087"/>
</g>
<!-- SparseMatrix -->
<g id="node25" class="node">
<title>SparseMatrix</title>
<ellipse fill="none" stroke="#000000" cx="791.9452" cy="-90" rx="74.187" ry="18"/>
<text text-anchor="middle" x="791.9452" y="-86.3" font-family="Times,serif" font-size="14.00" fill="#000000">SparseMatrix</text>
</g>
<!-- Matrix&#45;&gt;SparseMatrix -->
<g id="edge26" class="edge">
<title>Matrix&#45;&gt;SparseMatrix</title>
<path fill="none" stroke="#000000" d="M568.1881,-150.1726C574.3836,-148.0272 580.8426,-145.8773 586.9452,-144 634.2298,-129.4545 688.3767,-115.2962 729.1435,-105.1286"/>
<polygon fill="#000000" stroke="#000000" points="730.0805,-108.5023 738.9432,-102.697 728.3946,-101.7084 730.0805,-108.5023"/>
</g>
<!-- Category -->
<g id="node3" class="node">
<title>Category</title>
<ellipse fill="none" stroke="#000000" cx="649.9452" cy="-162" rx="53.8905" ry="18"/>
<text text-anchor="middle" x="649.9452" y="-158.3" font-family="Times,serif" font-size="14.00" fill="#000000">Category</text>
</g>
<!-- Chunktag -->
<g id="node4" class="node">
<title>Chunktag</title>
<ellipse fill="none" stroke="#000000" cx="777.9452" cy="-162" rx="56.59" ry="18"/>
<text text-anchor="middle" x="777.9452" y="-158.3" font-family="Times,serif" font-size="14.00" fill="#000000">Chunktag</text>
</g>
<!-- Synset -->
<g id="node6" class="node">
<title>Synset</title>
<ellipse fill="none" stroke="#000000" cx="894.9452" cy="-162" rx="42.4939" ry="18"/>
<text text-anchor="middle" x="894.9452" y="-158.3" font-family="Times,serif" font-size="14.00" fill="#000000">Synset</text>
</g>
<!-- Summary -->
<g id="node7" class="node">
<title>Summary</title>
<ellipse fill="none" stroke="#000000" cx="273.9452" cy="-18" rx="55.7903" ry="18"/>
<text text-anchor="middle" x="273.9452" y="-14.3" font-family="Times,serif" font-size="14.00" fill="#000000">Summary</text>
</g>
<!-- List -->
<g id="node8" class="node">
<title>List</title>
<ellipse fill="none" stroke="#000000" cx="983.9452" cy="-162" rx="28.6953" ry="18"/>
<text text-anchor="middle" x="983.9452" y="-158.3" font-family="Times,serif" font-size="14.00" fill="#000000">List</text>
</g>
<!-- CategoricalVector -->
<g id="node9" class="node">
<title>CategoricalVector</title>
<ellipse fill="none" stroke="#000000" cx="1046.9452" cy="-90" rx="94.7833" ry="18"/>
<text text-anchor="middle" x="1046.9452" y="-86.3" font-family="Times,serif" font-size="14.00" fill="#000000">CategoricalVector</text>
</g>
<!-- MatrixContinuousSparse -->
<g id="node10" class="node">
<title>MatrixContinuousSparse</title>
<ellipse fill="none" stroke="#000000" cx="778.9452" cy="-18" rx="127.2775" ry="18"/>
<text text-anchor="middle" x="778.9452" y="-14.3" font-family="Times,serif" font-size="14.00" fill="#000000">MatrixContinuousSparse</text>
</g>
<!-- ContinuousVector -->
<g id="node11" class="node">
<title>ContinuousVector</title>
<ellipse fill="none" stroke="#000000" cx="1253.9452" cy="-90" rx="94.4839" ry="18"/>
<text text-anchor="middle" x="1253.9452" y="-86.3" font-family="Times,serif" font-size="14.00" fill="#000000">ContinuousVector</text>
</g>
<!-- Tuple -->
<g id="node12" class="node">
<title>Tuple</title>
<ellipse fill="none" stroke="#000000" cx="1067.9452" cy="-162" rx="37.0935" ry="18"/>
<text text-anchor="middle" x="1067.9452" y="-158.3" font-family="Times,serif" font-size="14.00" fill="#000000">Tuple</text>
</g>
<!-- MatrixContinuousDense -->
<g id="node26" class="node">
<title>MatrixContinuousDense</title>
<ellipse fill="none" stroke="#000000" cx="496.9452" cy="-18" rx="124.2781" ry="18"/>
<text text-anchor="middle" x="496.9452" y="-14.3" font-family="Times,serif" font-size="14.00" fill="#000000">MatrixContinuousDense</text>
</g>
<!-- DenseMatrix&#45;&gt;MatrixContinuousDense -->
<g id="edge28" class="edge">
<title>DenseMatrix&#45;&gt;MatrixContinuousDense</title>
<path fill="none" stroke="#000000" d="M439.3427,-72.5708C448.6546,-63.749 460.1291,-52.8784 470.3796,-43.1674"/>
<polygon fill="#000000" stroke="#000000" points="473.071,-45.4389 477.9235,-36.0206 468.2568,-40.3572 473.071,-45.4389"/>
</g>
<!-- Flags -->
<g id="node15" class="node">
<title>Flags</title>
<ellipse fill="none" stroke="#000000" cx="1158.9452" cy="-162" rx="36.2938" ry="18"/>
<text text-anchor="middle" x="1158.9452" y="-158.3" font-family="Times,serif" font-size="14.00" fill="#000000">Flags</text>
</g>
<!-- Vector -->
<g id="node16" class="node">
<title>Vector</title>
<ellipse fill="none" stroke="#000000" cx="1253.9452" cy="-162" rx="40.8928" ry="18"/>
<text text-anchor="middle" x="1253.9452" y="-158.3" font-family="Times,serif" font-size="14.00" fill="#000000">Vector</text>
</g>
<!-- Vector&#45;&gt;CategoricalVector -->
<g id="edge9" class="edge">
<title>Vector&#45;&gt;CategoricalVector</title>
<path fill="none" stroke="#000000" d="M1222.2291,-150.5052C1216.1648,-148.3291 1209.863,-146.0828 1203.9452,-144 1170.6011,-132.2644 1133.1743,-119.3803 1103.2285,-109.1412"/>
<polygon fill="#000000" stroke="#000000" points="1103.971,-105.6964 1093.3764,-105.7758 1101.7081,-112.3205 1103.971,-105.6964"/>
</g>
<!-- Vector&#45;&gt;ContinuousVector -->
<g id="edge12" class="edge">
<title>Vector&#45;&gt;ContinuousVector</title>
<path fill="none" stroke="#000000" d="M1253.9452,-143.8314C1253.9452,-136.131 1253.9452,-126.9743 1253.9452,-118.4166"/>
<polygon fill="#000000" stroke="#000000" points="1257.4453,-118.4132 1253.9452,-108.4133 1250.4453,-118.4133 1257.4453,-118.4132"/>
</g>
<!-- DiscreteVector -->
<g id="node24" class="node">
<title>DiscreteVector</title>
<ellipse fill="none" stroke="#000000" cx="1446.9452" cy="-90" rx="80.6858" ry="18"/>
<text text-anchor="middle" x="1446.9452" y="-86.3" font-family="Times,serif" font-size="14.00" fill="#000000">DiscreteVector</text>
</g>
<!-- Vector&#45;&gt;DiscreteVector -->
<g id="edge25" class="edge">
<title>Vector&#45;&gt;DiscreteVector</title>
<path fill="none" stroke="#000000" d="M1285.3835,-150.2717C1315.2598,-139.1262 1360.7097,-122.1707 1395.8015,-109.0795"/>
<polygon fill="#000000" stroke="#000000" points="1397.2571,-112.2722 1405.403,-105.4976 1394.8103,-105.7137 1397.2571,-112.2722"/>
</g>
<!-- Tensor3 -->
<g id="node17" class="node">
<title>Tensor3</title>
<ellipse fill="none" stroke="#000000" cx="1360.9452" cy="-162" rx="48.1917" ry="18"/>
<text text-anchor="middle" x="1360.9452" y="-158.3" font-family="Times,serif" font-size="14.00" fill="#000000">Tensor3</text>
</g>
<!-- Document&#45;&gt;Summary -->
<g id="edge7" class="edge">
<title>Document&#45;&gt;Summary</title>
<path fill="none" stroke="#000000" d="M273.9452,-71.8314C273.9452,-64.131 273.9452,-54.9743 273.9452,-46.4166"/>
<polygon fill="#000000" stroke="#000000" points="277.4453,-46.4132 273.9452,-36.4133 270.4453,-46.4133 277.4453,-46.4132"/>
</g>
<!-- Postag -->
<g id="node19" class="node">
<title>Postag</title>
<ellipse fill="none" stroke="#000000" cx="1468.9452" cy="-162" rx="42.4939" ry="18"/>
<text text-anchor="middle" x="1468.9452" y="-158.3" font-family="Times,serif" font-size="14.00" fill="#000000">Postag</text>
</g>
<!-- Sentiment -->
<g id="node20" class="node">
<title>Sentiment</title>
<ellipse fill="none" stroke="#000000" cx="1587.9452" cy="-162" rx="59.2899" ry="18"/>
<text text-anchor="middle" x="1587.9452" y="-158.3" font-family="Times,serif" font-size="14.00" fill="#000000">Sentiment</text>
</g>
<!-- Stem -->
<g id="node21" class="node">
<title>Stem</title>
<ellipse fill="none" stroke="#000000" cx="1699.9452" cy="-162" rx="35.194" ry="18"/>
<text text-anchor="middle" x="1699.9452" y="-158.3" font-family="Times,serif" font-size="14.00" fill="#000000">Stem</text>
</g>
<!-- MatrixContinuous&#45;&gt;MatrixContinuousSparse -->
<g id="edge10" class="edge">
<title>MatrixContinuous&#45;&gt;MatrixContinuousSparse</title>
<path fill="none" stroke="#000000" d="M644.8643,-73.4817C669.6169,-63.2393 701.6456,-49.986 728.1917,-39.0014"/>
<polygon fill="#000000" stroke="#000000" points="729.7982,-42.1246 737.7002,-35.0669 727.1217,-35.6564 729.7982,-42.1246"/>
</g>
<!-- MatrixContinuous&#45;&gt;MatrixContinuousDense -->
<g id="edge27" class="edge">
<title>MatrixContinuous&#45;&gt;MatrixContinuousDense</title>
<path fill="none" stroke="#000000" d="M578.8014,-72.5708C564.8157,-63.247 547.397,-51.6345 532.2274,-41.5214"/>
<polygon fill="#000000" stroke="#000000" points="533.8605,-38.4037 523.5985,-35.7689 529.9776,-44.2281 533.8605,-38.4037"/>
</g>
<!-- Entity -->
<g id="node23" class="node">
<title>Entity</title>
<ellipse fill="none" stroke="#000000" cx="1792.9452" cy="-162" rx="39.7935" ry="18"/>
<text text-anchor="middle" x="1792.9452" y="-158.3" font-family="Times,serif" font-size="14.00" fill="#000000">Entity</text>
</g>
<!-- SparseMatrix&#45;&gt;MatrixContinuousSparse -->
<g id="edge11" class="edge">
<title>SparseMatrix&#45;&gt;MatrixContinuousSparse</title>
<path fill="none" stroke="#000000" d="M788.6648,-71.8314C787.2744,-64.131 785.6211,-54.9743 784.076,-46.4166"/>
<polygon fill="#000000" stroke="#000000" points="787.491,-45.6322 782.2698,-36.4133 780.6024,-46.8761 787.491,-45.6322"/>
</g>
<!-- DataType -->
<g id="node27" class="node">
<title>DataType</title>
<ellipse fill="none" stroke="#000000" cx="1112.9452" cy="-234" rx="55.7903" ry="18"/>
<text text-anchor="middle" x="1112.9452" y="-230.3" font-family="Times,serif" font-size="14.00" fill="#000000">DataType</text>
</g>
<!-- DataType&#45;&gt;Text -->
<g id="edge1" class="edge">
<title>DataType&#45;&gt;Text</title>
<path fill="none" stroke="#000000" d="M1058.6408,-229.6314C894.4055,-216.4192 405.2966,-177.0718 259.4447,-165.3385"/>
<polygon fill="#000000" stroke="#000000" points="259.3987,-161.8236 249.1503,-164.5103 258.8374,-168.801 259.3987,-161.8236"/>
</g>
<!-- DataType&#45;&gt;Matrix -->
<g id="edge2" class="edge">
<title>DataType&#45;&gt;Matrix</title>
<path fill="none" stroke="#000000" d="M1056.9668,-232.5944C960.0793,-229.2023 755.3383,-217.7971 586.9452,-180 583.5912,-179.2472 580.1536,-178.3416 576.7247,-177.3422"/>
<polygon fill="#000000" stroke="#000000" points="577.7513,-173.9961 567.1617,-174.3269 575.6463,-180.6721 577.7513,-173.9961"/>
</g>
<!-- DataType&#45;&gt;Category -->
<g id="edge3" class="edge">
<title>DataType&#45;&gt;Category</title>
<path fill="none" stroke="#000000" d="M1058.6748,-229.2757C981.1832,-221.9467 834.6271,-205.9188 711.9452,-180 707.8123,-179.1268 703.5525,-178.1207 699.2929,-177.0396"/>
<polygon fill="#000000" stroke="#000000" points="699.9774,-173.5999 689.4134,-174.4083 698.1758,-180.3641 699.9774,-173.5999"/>
</g>
<!-- DataType&#45;&gt;Chunktag -->
<g id="edge4" class="edge">
<title>DataType&#45;&gt;Chunktag</title>
<path fill="none" stroke="#000000" d="M1063.6405,-225.1458C1009.5267,-215.1855 920.1991,-198.0299 843.9452,-180 839.5351,-178.9572 834.9734,-177.8254 830.4032,-176.6543"/>
<polygon fill="#000000" stroke="#000000" points="831.0009,-173.1929 820.4406,-174.047 829.2286,-179.9649 831.0009,-173.1929"/>
</g>
<!-- DataType&#45;&gt;Synset -->
<g id="edge6" class="edge">
<title>DataType&#45;&gt;Synset</title>
<path fill="none" stroke="#000000" d="M1072.6917,-221.3139C1038.8046,-210.5552 989.1,-194.5898 945.9452,-180 943.0585,-179.0241 940.0842,-178.0063 937.0907,-176.973"/>
<polygon fill="#000000" stroke="#000000" points="938.1436,-173.6336 927.5488,-173.652 935.8426,-180.2446 938.1436,-173.6336"/>
</g>
<!-- DataType&#45;&gt;List -->
<g id="edge8" class="edge">
<title>DataType&#45;&gt;List</title>
<path fill="none" stroke="#000000" d="M1084.9541,-218.3771C1064.1693,-206.7762 1035.8425,-190.9659 1014.4754,-179.0401"/>
<polygon fill="#000000" stroke="#000000" points="1015.9316,-175.8446 1005.4938,-174.0271 1012.52,-181.957 1015.9316,-175.8446"/>
</g>
<!-- DataType&#45;&gt;Tuple -->
<g id="edge13" class="edge">
<title>DataType&#45;&gt;Tuple</title>
<path fill="none" stroke="#000000" d="M1101.8216,-216.2022C1096.4963,-207.6817 1090.0171,-197.315 1084.1568,-187.9385"/>
<polygon fill="#000000" stroke="#000000" points="1087.0536,-185.9696 1078.7856,-179.3446 1081.1176,-189.6796 1087.0536,-185.9696"/>
</g>
<!-- DataType&#45;&gt;Flags -->
<g id="edge16" class="edge">
<title>DataType&#45;&gt;Flags</title>
<path fill="none" stroke="#000000" d="M1124.316,-216.2022C1129.7597,-207.6817 1136.3829,-197.315 1142.3734,-187.9385"/>
<polygon fill="#000000" stroke="#000000" points="1145.4295,-189.6559 1147.864,-179.3446 1139.5306,-185.8872 1145.4295,-189.6559"/>
</g>
<!-- DataType&#45;&gt;Vector -->
<g id="edge17" class="edge">
<title>DataType&#45;&gt;Vector</title>
<path fill="none" stroke="#000000" d="M1142.8477,-218.7307C1164.7309,-207.5562 1194.5305,-192.3395 1217.7581,-180.4785"/>
<polygon fill="#000000" stroke="#000000" points="1219.6323,-183.4514 1226.9467,-175.7865 1216.4489,-177.2172 1219.6323,-183.4514"/>
</g>
<!-- DataType&#45;&gt;Tensor3 -->
<g id="edge18" class="edge">
<title>DataType&#45;&gt;Tensor3</title>
<path fill="none" stroke="#000000" d="M1155.9127,-222.2533C1194.6944,-211.5556 1253.2692,-195.1613 1303.9452,-180 1307.4312,-178.9571 1311.0315,-177.8622 1314.6494,-176.7491"/>
<polygon fill="#000000" stroke="#000000" points="1315.6887,-180.0913 1324.2011,-173.7835 1313.613,-173.4061 1315.6887,-180.0913"/>
</g>
<!-- DataType&#45;&gt;Postag -->
<g id="edge20" class="edge">
<title>DataType&#45;&gt;Postag</title>
<path fill="none" stroke="#000000" d="M1165.0433,-227.4298C1226.217,-219.1066 1330.4465,-203.0203 1417.9452,-180 1421.1234,-179.1638 1424.3858,-178.2199 1427.65,-177.2132"/>
<polygon fill="#000000" stroke="#000000" points="1428.9405,-180.474 1437.3658,-174.0501 1426.7735,-173.8178 1428.9405,-180.474"/>
</g>
<!-- DataType&#45;&gt;Sentiment -->
<g id="edge21" class="edge">
<title>DataType&#45;&gt;Sentiment</title>
<path fill="none" stroke="#000000" d="M1166.96,-229.0365C1245.2503,-221.3448 1394.6076,-204.7996 1519.9452,-180 1524.711,-179.057 1529.6376,-177.9725 1534.5601,-176.8131"/>
<polygon fill="#000000" stroke="#000000" points="1535.7267,-180.1308 1544.6053,-174.3496 1534.0594,-173.3322 1535.7267,-180.1308"/>
</g>
<!-- DataType&#45;&gt;Stem -->
<g id="edge22" class="edge">
<title>DataType&#45;&gt;Stem</title>
<path fill="none" stroke="#000000" d="M1168.1115,-230.5439C1287.0946,-222.7597 1564.4688,-202.7468 1655.9452,-180 1658.7235,-179.3091 1661.5567,-178.475 1664.3789,-177.5492"/>
<polygon fill="#000000" stroke="#000000" points="1665.6267,-180.8198 1673.8364,-174.1227 1663.2422,-174.2385 1665.6267,-180.8198"/>
</g>
<!-- DataType&#45;&gt;Entity -->
<g id="edge24" class="edge">
<title>DataType&#45;&gt;Entity</title>
<path fill="none" stroke="#000000" d="M1168.3849,-231.1546C1301.2445,-224.0297 1634.8712,-204.2431 1743.9452,-180 1747.1743,-179.2823 1750.4787,-178.4033 1753.7713,-177.4237"/>
<polygon fill="#000000" stroke="#000000" points="1755.1039,-180.6706 1763.5265,-174.2433 1752.9341,-174.0154 1755.1039,-180.6706"/>
</g>
</g>
</svg>
