<?xml version="1.0" encoding="UTF-8" standalone="no"?>
<!DOCTYPE svg PUBLIC "-//W3C//DTD SVG 1.1//EN"
 "http://www.w3.org/Graphics/SVG/1.1/DTD/svg11.dtd">
<!-- Generated by graphviz version 2.40.1 (20161225.0304)
 -->
<!-- Title: G Pages: 1 -->
<svg width="1597pt" height="260pt"
 viewBox="0.00 0.00 1597.04 260.00" xmlns="http://www.w3.org/2000/svg" xmlns:xlink="http://www.w3.org/1999/xlink">
<g id="graph0" class="graph" transform="scale(1 1) rotate(0) translate(4 256)">
<title>G</title>
<polygon fill="#ffffff" stroke="transparent" points="-4,4 -4,-256 1593.0352,-256 1593.0352,4 -4,4"/>
<!-- DiscreteVector -->
<g id="node1" class="node">
<title>DiscreteVector</title>
<ellipse fill="none" stroke="#000000" cx="658.3887" cy="-90" rx="80.6858" ry="18"/>
<text text-anchor="middle" x="658.3887" y="-86.3" font-family="Times,serif" font-size="14.00" fill="#000000">DiscreteVector</text>
</g>
<!-- SparseMatrix -->
<g id="node2" class="node">
<title>SparseMatrix</title>
<ellipse fill="none" stroke="#000000" cx="101.3887" cy="-90" rx="74.187" ry="18"/>
<text text-anchor="middle" x="101.3887" y="-86.3" font-family="Times,serif" font-size="14.00" fill="#000000">SparseMatrix</text>
</g>
<!-- MatrixContinuousSparse -->
<g id="node12" class="node">
<title>MatrixContinuousSparse</title>
<ellipse fill="none" stroke="#000000" cx="127.3887" cy="-18" rx="127.2775" ry="18"/>
<text text-anchor="middle" x="127.3887" y="-14.3" font-family="Times,serif" font-size="14.00" fill="#000000">MatrixContinuousSparse</text>
</g>
<!-- SparseMatrix&#45;&gt;MatrixContinuousSparse -->
<g id="edge13" class="edge">
<title>SparseMatrix&#45;&gt;MatrixContinuousSparse</title>
<path fill="none" stroke="#000000" d="M107.9496,-71.8314C110.7914,-63.9617 114.1824,-54.5712 117.3306,-45.8533"/>
<polygon fill="#000000" stroke="#000000" points="120.6349,-47.0076 120.7395,-36.4133 114.051,-44.63 120.6349,-47.0076"/>
</g>
<!-- List -->
<g id="node3" class="node">
<title>List</title>
<ellipse fill="none" stroke="#000000" cx="199.3887" cy="-162" rx="28.6953" ry="18"/>
<text text-anchor="middle" x="199.3887" y="-158.3" font-family="Times,serif" font-size="14.00" fill="#000000">List</text>
</g>
<!-- Matrix -->
<g id="node4" class="node">
<title>Matrix</title>
<ellipse fill="none" stroke="#000000" cx="288.3887" cy="-162" rx="42.4939" ry="18"/>
<text text-anchor="middle" x="288.3887" y="-158.3" font-family="Times,serif" font-size="14.00" fill="#000000">Matrix</text>
</g>
<!-- Matrix&#45;&gt;SparseMatrix -->
<g id="edge2" class="edge">
<title>Matrix&#45;&gt;SparseMatrix</title>
<path fill="none" stroke="#000000" d="M256.6667,-149.7862C227.6454,-138.6122 184.2513,-121.9043 150.708,-108.9893"/>
<polygon fill="#000000" stroke="#000000" points="151.6757,-105.6114 141.0859,-105.2845 149.1605,-112.1439 151.6757,-105.6114"/>
</g>
<!-- DenseMatrix -->
<g id="node15" class="node">
<title>DenseMatrix</title>
<ellipse fill="none" stroke="#000000" cx="472.3887" cy="-90" rx="70.6878" ry="18"/>
<text text-anchor="middle" x="472.3887" y="-86.3" font-family="Times,serif" font-size="14.00" fill="#000000">DenseMatrix</text>
</g>
<!-- Matrix&#45;&gt;DenseMatrix -->
<g id="edge16" class="edge">
<title>Matrix&#45;&gt;DenseMatrix</title>
<path fill="none" stroke="#000000" d="M319.6018,-149.7862C348.2509,-138.5757 391.1347,-121.795 424.1838,-108.8628"/>
<polygon fill="#000000" stroke="#000000" points="425.6233,-112.058 433.6603,-105.1546 423.0724,-105.5393 425.6233,-112.058"/>
</g>
<!-- MatrixContinuous -->
<g id="node25" class="node">
<title>MatrixContinuous</title>
<ellipse fill="none" stroke="#000000" cx="288.3887" cy="-90" rx="94.7833" ry="18"/>
<text text-anchor="middle" x="288.3887" y="-86.3" font-family="Times,serif" font-size="14.00" fill="#000000">MatrixContinuous</text>
</g>
<!-- Matrix&#45;&gt;MatrixContinuous -->
<g id="edge27" class="edge">
<title>Matrix&#45;&gt;MatrixContinuous</title>
<path fill="none" stroke="#000000" d="M288.3887,-143.8314C288.3887,-136.131 288.3887,-126.9743 288.3887,-118.4166"/>
<polygon fill="#000000" stroke="#000000" points="291.8888,-118.4132 288.3887,-108.4133 284.8888,-118.4133 291.8888,-118.4132"/>
</g>
<!-- Word -->
<g id="node5" class="node">
<title>Word</title>
<ellipse fill="none" stroke="#000000" cx="1206.3887" cy="-90" rx="35.9954" ry="18"/>
<text text-anchor="middle" x="1206.3887" y="-86.3" font-family="Times,serif" font-size="14.00" fill="#000000">Word</text>
</g>
<!-- Category -->
<g id="node6" class="node">
<title>Category</title>
<ellipse fill="none" stroke="#000000" cx="402.3887" cy="-162" rx="53.8905" ry="18"/>
<text text-anchor="middle" x="402.3887" y="-158.3" font-family="Times,serif" font-size="14.00" fill="#000000">Category</text>
</g>
<!-- Chunktag -->
<g id="node7" class="node">
<title>Chunktag</title>
<ellipse fill="none" stroke="#000000" cx="530.3887" cy="-162" rx="56.59" ry="18"/>
<text text-anchor="middle" x="530.3887" y="-158.3" font-family="Times,serif" font-size="14.00" fill="#000000">Chunktag</text>
</g>
<!-- Sentence -->
<g id="node8" class="node">
<title>Sentence</title>
<ellipse fill="none" stroke="#000000" cx="1314.3887" cy="-90" rx="53.8905" ry="18"/>
<text text-anchor="middle" x="1314.3887" y="-86.3" font-family="Times,serif" font-size="14.00" fill="#000000">Sentence</text>
</g>
<!-- Synset -->
<g id="node9" class="node">
<title>Synset</title>
<ellipse fill="none" stroke="#000000" cx="647.3887" cy="-162" rx="42.4939" ry="18"/>
<text text-anchor="middle" x="647.3887" y="-158.3" font-family="Times,serif" font-size="14.00" fill="#000000">Synset</text>
</g>
<!-- Summary -->
<g id="node10" class="node">
<title>Summary</title>
<ellipse fill="none" stroke="#000000" cx="1444.3887" cy="-18" rx="55.7903" ry="18"/>
<text text-anchor="middle" x="1444.3887" y="-14.3" font-family="Times,serif" font-size="14.00" fill="#000000">Summary</text>
</g>
<!-- CategoricalVector -->
<g id="node11" class="node">
<title>CategoricalVector</title>
<ellipse fill="none" stroke="#000000" cx="851.3887" cy="-90" rx="94.7833" ry="18"/>
<text text-anchor="middle" x="851.3887" y="-86.3" font-family="Times,serif" font-size="14.00" fill="#000000">CategoricalVector</text>
</g>
<!-- ContinuousVector -->
<g id="node13" class="node">
<title>ContinuousVector</title>
<ellipse fill="none" stroke="#000000" cx="1058.3887" cy="-90" rx="94.4839" ry="18"/>
<text text-anchor="middle" x="1058.3887" y="-86.3" font-family="Times,serif" font-size="14.00" fill="#000000">ContinuousVector</text>
</g>
<!-- Tuple -->
<g id="node14" class="node">
<title>Tuple</title>
<ellipse fill="none" stroke="#000000" cx="744.3887" cy="-162" rx="37.0935" ry="18"/>
<text text-anchor="middle" x="744.3887" y="-158.3" font-family="Times,serif" font-size="14.00" fill="#000000">Tuple</text>
</g>
<!-- MatrixContinuousDense -->
<g id="node20" class="node">
<title>MatrixContinuousDense</title>
<ellipse fill="none" stroke="#000000" cx="422.3887" cy="-18" rx="124.2781" ry="18"/>
<text text-anchor="middle" x="422.3887" y="-14.3" font-family="Times,serif" font-size="14.00" fill="#000000">MatrixContinuousDense</text>
</g>
<!-- DenseMatrix&#45;&gt;MatrixContinuousDense -->
<g id="edge22" class="edge">
<title>DenseMatrix&#45;&gt;MatrixContinuousDense</title>
<path fill="none" stroke="#000000" d="M460.0291,-72.2022C454.2436,-63.871 447.2323,-53.7748 440.8366,-44.565"/>
<polygon fill="#000000" stroke="#000000" points="443.5322,-42.3104 434.9534,-36.0931 437.7826,-46.3032 443.5322,-42.3104"/>
</g>
<!-- Flags -->
<g id="node16" class="node">
<title>Flags</title>
<ellipse fill="none" stroke="#000000" cx="835.3887" cy="-162" rx="36.2938" ry="18"/>
<text text-anchor="middle" x="835.3887" y="-158.3" font-family="Times,serif" font-size="14.00" fill="#000000">Flags</text>
</g>
<!-- Stem -->
<g id="node17" class="node">
<title>Stem</title>
<ellipse fill="none" stroke="#000000" cx="924.3887" cy="-162" rx="35.194" ry="18"/>
<text text-anchor="middle" x="924.3887" y="-158.3" font-family="Times,serif" font-size="14.00" fill="#000000">Stem</text>
</g>
<!-- Vector -->
<g id="node18" class="node">
<title>Vector</title>
<ellipse fill="none" stroke="#000000" cx="1018.3887" cy="-162" rx="40.8928" ry="18"/>
<text text-anchor="middle" x="1018.3887" y="-158.3" font-family="Times,serif" font-size="14.00" fill="#000000">Vector</text>
</g>
<!-- Vector&#45;&gt;DiscreteVector -->
<g id="edge1" class="edge">
<title>Vector&#45;&gt;DiscreteVector</title>
<path fill="none" stroke="#000000" d="M987.7278,-149.9596C981.3994,-147.7591 974.7297,-145.6429 968.3887,-144 872.0528,-119.0402 845.2885,-125.867 747.3887,-108 741.0788,-106.8484 734.5265,-105.6082 727.9682,-104.3366"/>
<polygon fill="#000000" stroke="#000000" points="728.178,-100.8112 717.6913,-102.3209 726.8306,-107.6803 728.178,-100.8112"/>
</g>
<!-- Vector&#45;&gt;CategoricalVector -->
<g id="edge11" class="edge">
<title>Vector&#45;&gt;CategoricalVector</title>
<path fill="none" stroke="#000000" d="M988.9169,-149.2936C964.0993,-138.5938 928.1227,-123.0829 899.1903,-110.6091"/>
<polygon fill="#000000" stroke="#000000" points="900.2435,-107.2517 889.6749,-106.5066 897.4721,-113.6798 900.2435,-107.2517"/>
</g>
<!-- Vector&#45;&gt;ContinuousVector -->
<g id="edge14" class="edge">
<title>Vector&#45;&gt;ContinuousVector</title>
<path fill="none" stroke="#000000" d="M1028.2763,-144.2022C1032.8571,-135.9569 1038.3982,-125.9828 1043.472,-116.8501"/>
<polygon fill="#000000" stroke="#000000" points="1046.54,-118.5345 1048.337,-108.0931 1040.4209,-115.1349 1046.54,-118.5345"/>
</g>
<!-- Tensor3 -->
<g id="node19" class="node">
<title>Tensor3</title>
<ellipse fill="none" stroke="#000000" cx="1125.3887" cy="-162" rx="48.1917" ry="18"/>
<text text-anchor="middle" x="1125.3887" y="-158.3" font-family="Times,serif" font-size="14.00" fill="#000000">Tensor3</text>
</g>
<!-- Text -->
<g id="node21" class="node">
<title>Text</title>
<ellipse fill="none" stroke="#000000" cx="1222.3887" cy="-162" rx="31.3957" ry="18"/>
<text text-anchor="middle" x="1222.3887" y="-158.3" font-family="Times,serif" font-size="14.00" fill="#000000">Text</text>
</g>
<!-- Text&#45;&gt;Word -->
<g id="edge5" class="edge">
<title>Text&#45;&gt;Word</title>
<path fill="none" stroke="#000000" d="M1218.3512,-143.8314C1216.5946,-135.9266 1214.497,-126.4872 1212.5524,-117.7365"/>
<polygon fill="#000000" stroke="#000000" points="1215.9555,-116.916 1210.3695,-107.9134 1209.1222,-118.4346 1215.9555,-116.916"/>
</g>
<!-- Text&#45;&gt;Sentence -->
<g id="edge8" class="edge">
<title>Text&#45;&gt;Sentence</title>
<path fill="none" stroke="#000000" d="M1241.0063,-147.4297C1253.6469,-137.5371 1270.6249,-124.2499 1285.0664,-112.9479"/>
<polygon fill="#000000" stroke="#000000" points="1287.5063,-115.4828 1293.2243,-106.5634 1283.1921,-109.9703 1287.5063,-115.4828"/>
</g>
<!-- Document -->
<g id="node22" class="node">
<title>Document</title>
<ellipse fill="none" stroke="#000000" cx="1444.3887" cy="-90" rx="58.4896" ry="18"/>
<text text-anchor="middle" x="1444.3887" y="-86.3" font-family="Times,serif" font-size="14.00" fill="#000000">Document</text>
</g>
<!-- Text&#45;&gt;Document -->
<g id="edge24" class="edge">
<title>Text&#45;&gt;Document</title>
<path fill="none" stroke="#000000" d="M1246.7106,-150.4293C1251.8361,-148.1682 1257.2489,-145.9091 1262.3887,-144 1286.0141,-135.2247 1346.3647,-117.6624 1391.13,-104.9435"/>
<polygon fill="#000000" stroke="#000000" points="1392.3303,-108.2412 1400.9967,-102.1467 1390.4213,-101.5066 1392.3303,-108.2412"/>
</g>
<!-- Document&#45;&gt;Summary -->
<g id="edge10" class="edge">
<title>Document&#45;&gt;Summary</title>
<path fill="none" stroke="#000000" d="M1444.3887,-71.8314C1444.3887,-64.131 1444.3887,-54.9743 1444.3887,-46.4166"/>
<polygon fill="#000000" stroke="#000000" points="1447.8888,-46.4132 1444.3887,-36.4133 1440.8888,-46.4133 1447.8888,-46.4132"/>
</g>
<!-- Postag -->
<g id="node23" class="node">
<title>Postag</title>
<ellipse fill="none" stroke="#000000" cx="1313.3887" cy="-162" rx="42.4939" ry="18"/>
<text text-anchor="middle" x="1313.3887" y="-158.3" font-family="Times,serif" font-size="14.00" fill="#000000">Postag</text>
</g>
<!-- Sentiment -->
<g id="node24" class="node">
<title>Sentiment</title>
<ellipse fill="none" stroke="#000000" cx="1432.3887" cy="-162" rx="59.2899" ry="18"/>
<text text-anchor="middle" x="1432.3887" y="-158.3" font-family="Times,serif" font-size="14.00" fill="#000000">Sentiment</text>
</g>
<!-- MatrixContinuous&#45;&gt;MatrixContinuousSparse -->
<g id="edge12" class="edge">
<title>MatrixContinuous&#45;&gt;MatrixContinuousSparse</title>
<path fill="none" stroke="#000000" d="M251.0474,-73.3008C228.4955,-63.2155 199.5276,-50.2609 175.2987,-39.4256"/>
<polygon fill="#000000" stroke="#000000" points="176.4842,-36.1218 165.9266,-35.2344 173.6265,-42.5119 176.4842,-36.1218"/>
</g>
<!-- MatrixContinuous&#45;&gt;MatrixContinuousDense -->
<g id="edge21" class="edge">
<title>MatrixContinuous&#45;&gt;MatrixContinuousDense</title>
<path fill="none" stroke="#000000" d="M320.1448,-72.937C338.3179,-63.1724 361.3269,-50.8093 380.9139,-40.285"/>
<polygon fill="#000000" stroke="#000000" points="382.7773,-43.257 389.9297,-35.4407 379.4641,-37.0908 382.7773,-43.257"/>
</g>
<!-- Entity -->
<g id="node26" class="node">
<title>Entity</title>
<ellipse fill="none" stroke="#000000" cx="1549.3887" cy="-162" rx="39.7935" ry="18"/>
<text text-anchor="middle" x="1549.3887" y="-158.3" font-family="Times,serif" font-size="14.00" fill="#000000">Entity</text>
</g>
<!-- DataType -->
<g id="node27" class="node">
<title>DataType</title>
<ellipse fill="none" stroke="#000000" cx="879.3887" cy="-234" rx="55.7903" ry="18"/>
<text text-anchor="middle" x="879.3887" y="-230.3" font-family="Times,serif" font-size="14.00" fill="#000000">DataType</text>
</g>
<!-- DataType&#45;&gt;List -->
<g id="edge3" class="edge">
<title>DataType&#45;&gt;List</title>
<path fill="none" stroke="#000000" d="M823.8238,-231.874C688.9796,-226.3058 347.4153,-209.6402 237.3887,-180 235.0693,-179.3752 232.7182,-178.6136 230.3821,-177.7607"/>
<polygon fill="#000000" stroke="#000000" points="231.5589,-174.4596 220.9812,-173.8571 228.8744,-180.9244 231.5589,-174.4596"/>
</g>
<!-- DataType&#45;&gt;Matrix -->
<g id="edge4" class="edge">
<title>DataType&#45;&gt;Matrix</title>
<path fill="none" stroke="#000000" d="M823.4991,-232.8065C724.6938,-229.727 513.1881,-218.7702 339.3887,-180 336.0337,-179.2516 332.5954,-178.3491 329.166,-177.352"/>
<polygon fill="#000000" stroke="#000000" points="330.1917,-174.0056 319.6021,-174.3404 328.0891,-180.6824 330.1917,-174.0056"/>
</g>
<!-- DataType&#45;&gt;Category -->
<g id="edge6" class="edge">
<title>DataType&#45;&gt;Category</title>
<path fill="none" stroke="#000000" d="M824.8936,-229.5907C745.1427,-222.5341 592.2273,-206.7103 464.3887,-180 460.2538,-179.1361 455.9927,-178.1364 451.7321,-177.0597"/>
<polygon fill="#000000" stroke="#000000" points="452.4147,-173.6197 441.8513,-174.4351 450.6176,-180.3851 452.4147,-173.6197"/>
</g>
<!-- DataType&#45;&gt;Chunktag -->
<g id="edge7" class="edge">
<title>DataType&#45;&gt;Chunktag</title>
<path fill="none" stroke="#000000" d="M829.5555,-225.6988C772.8322,-215.9704 677.5253,-198.7751 596.3887,-180 591.7856,-178.9348 587.0193,-177.766 582.2518,-176.5516"/>
<polygon fill="#000000" stroke="#000000" points="583.0754,-173.1494 572.5158,-174.0131 581.3092,-179.9229 583.0754,-173.1494"/>
</g>
<!-- DataType&#45;&gt;Synset -->
<g id="edge9" class="edge">
<title>DataType&#45;&gt;Synset</title>
<path fill="none" stroke="#000000" d="M837.1472,-222.0371C800.3477,-211.4631 745.6305,-195.3735 698.3887,-180 695.4478,-179.043 692.4195,-178.0343 689.3748,-177.003"/>
<polygon fill="#000000" stroke="#000000" points="690.2768,-173.612 679.6821,-173.668 687.9993,-180.2311 690.2768,-173.612"/>
</g>
<!-- DataType&#45;&gt;Tuple -->
<g id="edge15" class="edge">
<title>DataType&#45;&gt;Tuple</title>
<path fill="none" stroke="#000000" d="M850.4278,-218.5542C829.4126,-207.3461 800.9022,-192.1405 778.7367,-180.319"/>
<polygon fill="#000000" stroke="#000000" points="780.1367,-177.099 769.6661,-175.4813 776.8425,-183.2754 780.1367,-177.099"/>
</g>
<!-- DataType&#45;&gt;Flags -->
<g id="edge17" class="edge">
<title>DataType&#45;&gt;Flags</title>
<path fill="none" stroke="#000000" d="M868.5123,-216.2022C863.3053,-207.6817 856.9701,-197.315 851.24,-187.9385"/>
<polygon fill="#000000" stroke="#000000" points="854.1892,-186.0523 845.9882,-179.3446 848.2162,-189.7025 854.1892,-186.0523"/>
</g>
<!-- DataType&#45;&gt;Stem -->
<g id="edge18" class="edge">
<title>DataType&#45;&gt;Stem</title>
<path fill="none" stroke="#000000" d="M890.5123,-216.2022C895.8376,-207.6817 902.3168,-197.315 908.1772,-187.9385"/>
<polygon fill="#000000" stroke="#000000" points="911.2163,-189.6796 913.5483,-179.3446 905.2803,-185.9696 911.2163,-189.6796"/>
</g>
<!-- DataType&#45;&gt;Vector -->
<g id="edge19" class="edge">
<title>DataType&#45;&gt;Vector</title>
<path fill="none" stroke="#000000" d="M909.2077,-218.5542C930.6617,-207.4413 959.7024,-192.3986 982.4398,-180.621"/>
<polygon fill="#000000" stroke="#000000" points="984.173,-183.665 991.4426,-175.9577 980.9533,-177.4494 984.173,-183.665"/>
</g>
<!-- DataType&#45;&gt;Tensor3 -->
<g id="edge20" class="edge">
<title>DataType&#45;&gt;Tensor3</title>
<path fill="none" stroke="#000000" d="M921.8973,-222.216C960.2669,-211.4935 1018.2247,-195.0838 1068.3887,-180 1071.8732,-178.9522 1075.4725,-177.8538 1079.0897,-176.7383"/>
<polygon fill="#000000" stroke="#000000" points="1080.1305,-180.0801 1088.6401,-173.7685 1078.0518,-173.3958 1080.1305,-180.0801"/>
</g>
<!-- DataType&#45;&gt;Text -->
<g id="edge23" class="edge">
<title>DataType&#45;&gt;Text</title>
<path fill="none" stroke="#000000" d="M932.877,-228.5076C994.1654,-221.2922 1097.1307,-206.337 1182.3887,-180 1184.6602,-179.2983 1186.9725,-178.5001 1189.2819,-177.6393"/>
<polygon fill="#000000" stroke="#000000" points="1190.6994,-180.8413 1198.6473,-173.8355 1188.0653,-174.3558 1190.6994,-180.8413"/>
</g>
<!-- DataType&#45;&gt;Postag -->
<g id="edge25" class="edge">
<title>DataType&#45;&gt;Postag</title>
<path fill="none" stroke="#000000" d="M933.9466,-229.7516C1008.823,-223.1438 1147.2558,-208.136 1262.3887,-180 1265.7279,-179.184 1269.155,-178.2332 1272.5766,-177.203"/>
<polygon fill="#000000" stroke="#000000" points="1273.6769,-180.5258 1282.1272,-174.1349 1271.5359,-173.8612 1273.6769,-180.5258"/>
</g>
<!-- DataType&#45;&gt;Sentiment -->
<g id="edge26" class="edge">
<title>DataType&#45;&gt;Sentiment</title>
<path fill="none" stroke="#000000" d="M934.3291,-230.5408C1024.6494,-224.2609 1209.9067,-208.8821 1364.3887,-180 1369.3629,-179.07 1374.5085,-177.9695 1379.6395,-176.778"/>
<polygon fill="#000000" stroke="#000000" points="1380.55,-180.1587 1389.4402,-174.3955 1378.8964,-173.3568 1380.55,-180.1587"/>
</g>
<!-- DataType&#45;&gt;Entity -->
<g id="edge28" class="edge">
<title>DataType&#45;&gt;Entity</title>
<path fill="none" stroke="#000000" d="M934.9188,-231.0619C1066.3194,-223.8045 1393.311,-203.8762 1500.3887,-180 1503.6173,-179.2801 1506.9214,-178.3995 1510.2137,-177.4188"/>
<polygon fill="#000000" stroke="#000000" points="1511.5471,-180.6654 1519.9685,-174.2365 1509.3761,-174.0106 1511.5471,-180.6654"/>
</g>
</g>
</svg>
