<?xml version="1.0" encoding="UTF-8" standalone="no"?>
<!DOCTYPE svg PUBLIC "-//W3C//DTD SVG 1.1//EN"
 "http://www.w3.org/Graphics/SVG/1.1/DTD/svg11.dtd">
<!-- Generated by graphviz version 2.38.0 (20140413.2041)
 -->
<!-- Title: G Pages: 1 -->
<svg width="1657pt" height="260pt"
 viewBox="0.00 0.00 1657.49 260.00" xmlns="http://www.w3.org/2000/svg" xmlns:xlink="http://www.w3.org/1999/xlink">
<g id="graph0" class="graph" transform="scale(1 1) rotate(0) translate(4 256)">
<title>G</title>
<polygon fill="white" stroke="none" points="-4,4 -4,-256 1653.49,-256 1653.49,4 -4,4"/>
<!-- ContinuousVector -->
<g id="node1" class="node"><title>ContinuousVector</title>
<ellipse fill="none" stroke="black" cx="94.2416" cy="-90" rx="94.4839" ry="18"/>
<text text-anchor="middle" x="94.2416" y="-86.3" font-family="Times,serif" font-size="14.00">ContinuousVector</text>
</g>
<!-- MatrixContinuousSparse -->
<g id="node2" class="node"><title>MatrixContinuousSparse</title>
<ellipse fill="none" stroke="black" cx="1361.24" cy="-18" rx="127.277" ry="18"/>
<text text-anchor="middle" x="1361.24" y="-14.3" font-family="Times,serif" font-size="14.00">MatrixContinuousSparse</text>
</g>
<!-- Sentiment -->
<g id="node3" class="node"><title>Sentiment</title>
<ellipse fill="none" stroke="black" cx="363.242" cy="-162" rx="58.4896" ry="18"/>
<text text-anchor="middle" x="363.242" y="-158.3" font-family="Times,serif" font-size="14.00">Sentiment</text>
</g>
<!-- DenseMatrix -->
<g id="node4" class="node"><title>DenseMatrix</title>
<ellipse fill="none" stroke="black" cx="1014.24" cy="-90" rx="71.4873" ry="18"/>
<text text-anchor="middle" x="1014.24" y="-86.3" font-family="Times,serif" font-size="14.00">DenseMatrix</text>
</g>
<!-- MatrixContinuousDense -->
<g id="node21" class="node"><title>MatrixContinuousDense</title>
<ellipse fill="none" stroke="black" cx="1040.24" cy="-18" rx="124.278" ry="18"/>
<text text-anchor="middle" x="1040.24" y="-14.3" font-family="Times,serif" font-size="14.00">MatrixContinuousDense</text>
</g>
<!-- DenseMatrix&#45;&gt;MatrixContinuousDense -->
<g id="edge23" class="edge"><title>DenseMatrix&#45;&gt;MatrixContinuousDense</title>
<path fill="none" stroke="black" d="M1020.54,-72.055C1023.46,-64.1762 1027.01,-54.6165 1030.29,-45.794"/>
<polygon fill="black" stroke="black" points="1033.62,-46.8682 1033.83,-36.2753 1027.06,-44.4309 1033.62,-46.8682"/>
</g>
<!-- Vector -->
<g id="node5" class="node"><title>Vector</title>
<ellipse fill="none" stroke="black" cx="480.242" cy="-162" rx="40.8928" ry="18"/>
<text text-anchor="middle" x="480.242" y="-158.3" font-family="Times,serif" font-size="14.00">Vector</text>
</g>
<!-- Vector&#45;&gt;ContinuousVector -->
<g id="edge1" class="edge"><title>Vector&#45;&gt;ContinuousVector</title>
<path fill="none" stroke="black" d="M450.085,-149.803C443.601,-147.662 436.742,-145.594 430.242,-144 328.474,-119.04 300.714,-124.532 197.242,-108 189.289,-106.729 180.995,-105.388 172.716,-104.038"/>
<polygon fill="black" stroke="black" points="173.084,-100.552 162.65,-102.392 171.954,-107.46 173.084,-100.552"/>
</g>
<!-- DiscreteVector -->
<g id="node13" class="node"><title>DiscreteVector</title>
<ellipse fill="none" stroke="black" cx="287.242" cy="-90" rx="80.6858" ry="18"/>
<text text-anchor="middle" x="287.242" y="-86.3" font-family="Times,serif" font-size="14.00">DiscreteVector</text>
</g>
<!-- Vector&#45;&gt;DiscreteVector -->
<g id="edge14" class="edge"><title>Vector&#45;&gt;DiscreteVector</title>
<path fill="none" stroke="black" d="M449.66,-149.908C419.542,-138.985 373.013,-122.109 337.463,-109.215"/>
<polygon fill="black" stroke="black" points="338.345,-105.812 327.75,-105.692 335.958,-112.392 338.345,-105.812"/>
</g>
<!-- CategoricalVector -->
<g id="node24" class="node"><title>CategoricalVector</title>
<ellipse fill="none" stroke="black" cx="480.242" cy="-90" rx="94.7833" ry="18"/>
<text text-anchor="middle" x="480.242" y="-86.3" font-family="Times,serif" font-size="14.00">CategoricalVector</text>
</g>
<!-- Vector&#45;&gt;CategoricalVector -->
<g id="edge26" class="edge"><title>Vector&#45;&gt;CategoricalVector</title>
<path fill="none" stroke="black" d="M480.242,-143.697C480.242,-135.983 480.242,-126.712 480.242,-118.112"/>
<polygon fill="black" stroke="black" points="483.742,-118.104 480.242,-108.104 476.742,-118.104 483.742,-118.104"/>
</g>
<!-- Document -->
<g id="node6" class="node"><title>Document</title>
<ellipse fill="none" stroke="black" cx="651.242" cy="-90" rx="58.4896" ry="18"/>
<text text-anchor="middle" x="651.242" y="-86.3" font-family="Times,serif" font-size="14.00">Document</text>
</g>
<!-- Summary -->
<g id="node11" class="node"><title>Summary</title>
<ellipse fill="none" stroke="black" cx="651.242" cy="-18" rx="55.4913" ry="18"/>
<text text-anchor="middle" x="651.242" y="-14.3" font-family="Times,serif" font-size="14.00">Summary</text>
</g>
<!-- Document&#45;&gt;Summary -->
<g id="edge12" class="edge"><title>Document&#45;&gt;Summary</title>
<path fill="none" stroke="black" d="M651.242,-71.6966C651.242,-63.9827 651.242,-54.7125 651.242,-46.1124"/>
<polygon fill="black" stroke="black" points="654.742,-46.1043 651.242,-36.1043 647.742,-46.1044 654.742,-46.1043"/>
</g>
<!-- Stem -->
<g id="node7" class="node"><title>Stem</title>
<ellipse fill="none" stroke="black" cx="596.242" cy="-162" rx="34.394" ry="18"/>
<text text-anchor="middle" x="596.242" y="-158.3" font-family="Times,serif" font-size="14.00">Stem</text>
</g>
<!-- List -->
<g id="node8" class="node"><title>List</title>
<ellipse fill="none" stroke="black" cx="677.242" cy="-162" rx="28.6953" ry="18"/>
<text text-anchor="middle" x="677.242" y="-158.3" font-family="Times,serif" font-size="14.00">List</text>
</g>
<!-- MatrixContinuous -->
<g id="node9" class="node"><title>MatrixContinuous</title>
<ellipse fill="none" stroke="black" cx="1199.24" cy="-90" rx="95.5831" ry="18"/>
<text text-anchor="middle" x="1199.24" y="-86.3" font-family="Times,serif" font-size="14.00">MatrixContinuous</text>
</g>
<!-- MatrixContinuous&#45;&gt;MatrixContinuousSparse -->
<g id="edge2" class="edge"><title>MatrixContinuous&#45;&gt;MatrixContinuousSparse</title>
<path fill="none" stroke="black" d="M1235.6,-73.2906C1258.84,-63.2469 1289.22,-50.1209 1314.28,-39.2915"/>
<polygon fill="black" stroke="black" points="1315.81,-42.4441 1323.6,-35.2646 1313.03,-36.0183 1315.81,-42.4441"/>
</g>
<!-- MatrixContinuous&#45;&gt;MatrixContinuousDense -->
<g id="edge22" class="edge"><title>MatrixContinuous&#45;&gt;MatrixContinuousDense</title>
<path fill="none" stroke="black" d="M1163.56,-73.2906C1140.85,-63.2911 1111.19,-50.2365 1086.66,-39.4347"/>
<polygon fill="black" stroke="black" points="1087.75,-36.0907 1077.19,-35.2646 1084.93,-42.4973 1087.75,-36.0907"/>
</g>
<!-- Text -->
<g id="node10" class="node"><title>Text</title>
<ellipse fill="none" stroke="black" cx="754.242" cy="-162" rx="30.5947" ry="18"/>
<text text-anchor="middle" x="754.242" y="-158.3" font-family="Times,serif" font-size="14.00">Text</text>
</g>
<!-- Text&#45;&gt;Document -->
<g id="edge7" class="edge"><title>Text&#45;&gt;Document</title>
<path fill="none" stroke="black" d="M734.868,-147.834C720.279,-137.918 699.962,-124.111 683.007,-112.588"/>
<polygon fill="black" stroke="black" points="684.733,-109.53 674.495,-106.803 680.799,-115.319 684.733,-109.53"/>
</g>
<!-- Sentence -->
<g id="node19" class="node"><title>Sentence</title>
<ellipse fill="none" stroke="black" cx="781.242" cy="-90" rx="53.8905" ry="18"/>
<text text-anchor="middle" x="781.242" y="-86.3" font-family="Times,serif" font-size="14.00">Sentence</text>
</g>
<!-- Text&#45;&gt;Sentence -->
<g id="edge20" class="edge"><title>Text&#45;&gt;Sentence</title>
<path fill="none" stroke="black" d="M760.778,-144.055C763.817,-136.176 767.504,-126.617 770.907,-117.794"/>
<polygon fill="black" stroke="black" points="774.245,-118.865 774.578,-108.275 767.714,-116.346 774.245,-118.865"/>
</g>
<!-- Word -->
<g id="node22" class="node"><title>Word</title>
<ellipse fill="none" stroke="black" cx="889.242" cy="-90" rx="35.9954" ry="18"/>
<text text-anchor="middle" x="889.242" y="-86.3" font-family="Times,serif" font-size="14.00">Word</text>
</g>
<!-- Text&#45;&gt;Word -->
<g id="edge24" class="edge"><title>Text&#45;&gt;Word</title>
<path fill="none" stroke="black" d="M776.534,-149.441C798.183,-138.216 831.313,-121.037 856.059,-108.206"/>
<polygon fill="black" stroke="black" points="857.825,-111.233 865.092,-103.522 854.603,-105.018 857.825,-111.233"/>
</g>
<!-- Chunktag -->
<g id="node12" class="node"><title>Chunktag</title>
<ellipse fill="none" stroke="black" cx="859.242" cy="-162" rx="56.59" ry="18"/>
<text text-anchor="middle" x="859.242" y="-158.3" font-family="Times,serif" font-size="14.00">Chunktag</text>
</g>
<!-- Entity -->
<g id="node14" class="node"><title>Entity</title>
<ellipse fill="none" stroke="black" cx="973.242" cy="-162" rx="39.7935" ry="18"/>
<text text-anchor="middle" x="973.242" y="-158.3" font-family="Times,serif" font-size="14.00">Entity</text>
</g>
<!-- Synset -->
<g id="node15" class="node"><title>Synset</title>
<ellipse fill="none" stroke="black" cx="1073.24" cy="-162" rx="42.4939" ry="18"/>
<text text-anchor="middle" x="1073.24" y="-158.3" font-family="Times,serif" font-size="14.00">Synset</text>
</g>
<!-- SparseMatrix -->
<g id="node16" class="node"><title>SparseMatrix</title>
<ellipse fill="none" stroke="black" cx="1387.24" cy="-90" rx="74.187" ry="18"/>
<text text-anchor="middle" x="1387.24" y="-86.3" font-family="Times,serif" font-size="14.00">SparseMatrix</text>
</g>
<!-- SparseMatrix&#45;&gt;MatrixContinuousSparse -->
<g id="edge3" class="edge"><title>SparseMatrix&#45;&gt;MatrixContinuousSparse</title>
<path fill="none" stroke="black" d="M1380.95,-72.055C1378.02,-64.1762 1374.47,-54.6165 1371.19,-45.794"/>
<polygon fill="black" stroke="black" points="1374.42,-44.4309 1367.66,-36.2753 1367.86,-46.8682 1374.42,-44.4309"/>
</g>
<!-- Matrix -->
<g id="node17" class="node"><title>Matrix</title>
<ellipse fill="none" stroke="black" cx="1175.24" cy="-162" rx="42.4939" ry="18"/>
<text text-anchor="middle" x="1175.24" y="-158.3" font-family="Times,serif" font-size="14.00">Matrix</text>
</g>
<!-- Matrix&#45;&gt;DenseMatrix -->
<g id="edge5" class="edge"><title>Matrix&#45;&gt;DenseMatrix</title>
<path fill="none" stroke="black" d="M1146.83,-148.647C1122.17,-137.927 1086.09,-122.239 1057.79,-109.935"/>
<polygon fill="black" stroke="black" points="1059.09,-106.682 1048.52,-105.904 1056.3,-113.101 1059.09,-106.682"/>
</g>
<!-- Matrix&#45;&gt;MatrixContinuous -->
<g id="edge10" class="edge"><title>Matrix&#45;&gt;MatrixContinuous</title>
<path fill="none" stroke="black" d="M1181.05,-144.055C1183.75,-136.176 1187.03,-126.617 1190.06,-117.794"/>
<polygon fill="black" stroke="black" points="1193.39,-118.87 1193.32,-108.275 1186.76,-116.6 1193.39,-118.87"/>
</g>
<!-- Matrix&#45;&gt;SparseMatrix -->
<g id="edge17" class="edge"><title>Matrix&#45;&gt;SparseMatrix</title>
<path fill="none" stroke="black" d="M1207.34,-150.281C1213.61,-148.193 1220.13,-146.025 1226.24,-144 1262.54,-131.976 1303.47,-118.504 1334.97,-108.151"/>
<polygon fill="black" stroke="black" points="1336.45,-111.352 1344.85,-104.906 1334.26,-104.701 1336.45,-111.352"/>
</g>
<!-- Category -->
<g id="node18" class="node"><title>Category</title>
<ellipse fill="none" stroke="black" cx="1289.24" cy="-162" rx="53.8905" ry="18"/>
<text text-anchor="middle" x="1289.24" y="-158.3" font-family="Times,serif" font-size="14.00">Category</text>
</g>
<!-- Tuple -->
<g id="node20" class="node"><title>Tuple</title>
<ellipse fill="none" stroke="black" cx="1397.24" cy="-162" rx="36.2938" ry="18"/>
<text text-anchor="middle" x="1397.24" y="-158.3" font-family="Times,serif" font-size="14.00">Tuple</text>
</g>
<!-- Tensor3 -->
<g id="node23" class="node"><title>Tensor3</title>
<ellipse fill="none" stroke="black" cx="1499.24" cy="-162" rx="48.1917" ry="18"/>
<text text-anchor="middle" x="1499.24" y="-158.3" font-family="Times,serif" font-size="14.00">Tensor3</text>
</g>
<!-- DataType -->
<g id="node25" class="node"><title>DataType</title>
<ellipse fill="none" stroke="black" cx="973.242" cy="-234" rx="55.4913" ry="18"/>
<text text-anchor="middle" x="973.242" y="-230.3" font-family="Times,serif" font-size="14.00">DataType</text>
</g>
<!-- DataType&#45;&gt;Sentiment -->
<g id="edge4" class="edge"><title>DataType&#45;&gt;Sentiment</title>
<path fill="none" stroke="black" d="M918.927,-230.422C820.76,-225.158 607.524,-210.96 430.242,-180 425.271,-179.132 420.126,-178.09 414.997,-176.956"/>
<polygon fill="black" stroke="black" points="415.739,-173.535 405.206,-174.68 414.154,-180.353 415.739,-173.535"/>
</g>
<!-- DataType&#45;&gt;Vector -->
<g id="edge6" class="edge"><title>DataType&#45;&gt;Vector</title>
<path fill="none" stroke="black" d="M920.925,-228.152C841.213,-220.37 684.728,-203.541 553.242,-180 543.929,-178.333 534.018,-176.241 524.6,-174.101"/>
<polygon fill="black" stroke="black" points="525.159,-170.638 514.625,-171.777 523.57,-177.455 525.159,-170.638"/>
</g>
<!-- DataType&#45;&gt;Stem -->
<g id="edge8" class="edge"><title>DataType&#45;&gt;Stem</title>
<path fill="none" stroke="black" d="M920.711,-228.259C854.279,-221.448 736.791,-206.675 639.242,-180 636.645,-179.29 633.991,-178.474 631.339,-177.593"/>
<polygon fill="black" stroke="black" points="632.446,-174.271 621.852,-174.184 630.079,-180.859 632.446,-174.271"/>
</g>
<!-- DataType&#45;&gt;List -->
<g id="edge9" class="edge"><title>DataType&#45;&gt;List</title>
<path fill="none" stroke="black" d="M923.197,-226.238C870.378,-218.3 785.125,-203.197 714.242,-180 712.327,-179.373 710.38,-178.676 708.431,-177.93"/>
<polygon fill="black" stroke="black" points="709.398,-174.541 698.822,-173.916 706.7,-181 709.398,-174.541"/>
</g>
<!-- DataType&#45;&gt;Text -->
<g id="edge11" class="edge"><title>DataType&#45;&gt;Text</title>
<path fill="none" stroke="black" d="M931.298,-222.243C894.509,-212.431 839.778,-196.919 793.242,-180 791.155,-179.241 789.02,-178.426 786.878,-177.579"/>
<polygon fill="black" stroke="black" points="788.139,-174.313 777.561,-173.728 785.465,-180.782 788.139,-174.313"/>
</g>
<!-- DataType&#45;&gt;Chunktag -->
<g id="edge13" class="edge"><title>DataType&#45;&gt;Chunktag</title>
<path fill="none" stroke="black" d="M948.505,-217.811C932.334,-207.881 910.996,-194.779 893.237,-183.874"/>
<polygon fill="black" stroke="black" points="894.677,-180.651 884.323,-178.401 891.014,-186.616 894.677,-180.651"/>
</g>
<!-- DataType&#45;&gt;Entity -->
<g id="edge15" class="edge"><title>DataType&#45;&gt;Entity</title>
<path fill="none" stroke="black" d="M973.242,-215.697C973.242,-207.983 973.242,-198.712 973.242,-190.112"/>
<polygon fill="black" stroke="black" points="976.742,-190.104 973.242,-180.104 969.742,-190.104 976.742,-190.104"/>
</g>
<!-- DataType&#45;&gt;Synset -->
<g id="edge16" class="edge"><title>DataType&#45;&gt;Synset</title>
<path fill="none" stroke="black" d="M995.435,-217.465C1009.71,-207.473 1028.42,-194.378 1043.91,-183.533"/>
<polygon fill="black" stroke="black" points="1045.95,-186.375 1052.14,-177.773 1041.94,-180.64 1045.95,-186.375"/>
</g>
<!-- DataType&#45;&gt;Matrix -->
<g id="edge18" class="edge"><title>DataType&#45;&gt;Matrix</title>
<path fill="none" stroke="black" d="M1009.82,-220.324C1044.74,-208.223 1097.29,-190.013 1133.75,-177.378"/>
<polygon fill="black" stroke="black" points="1135.28,-180.553 1143.58,-173.971 1132.99,-173.938 1135.28,-180.553"/>
</g>
<!-- DataType&#45;&gt;Category -->
<g id="edge19" class="edge"><title>DataType&#45;&gt;Category</title>
<path fill="none" stroke="black" d="M1019.59,-224.116C1070.46,-214.173 1154.45,-197.191 1226.24,-180 1230.57,-178.963 1235.06,-177.843 1239.55,-176.691"/>
<polygon fill="black" stroke="black" points="1240.55,-180.049 1249.34,-174.136 1238.78,-173.276 1240.55,-180.049"/>
</g>
<!-- DataType&#45;&gt;Tuple -->
<g id="edge21" class="edge"><title>DataType&#45;&gt;Tuple</title>
<path fill="none" stroke="black" d="M1026.69,-229.288C1100.74,-223.298 1238.3,-209.102 1352.24,-180 1355.05,-179.283 1357.92,-178.448 1360.79,-177.541"/>
<polygon fill="black" stroke="black" points="1362.1,-180.792 1370.43,-174.241 1359.83,-174.169 1362.1,-180.792"/>
</g>
<!-- DataType&#45;&gt;Tensor3 -->
<g id="edge25" class="edge"><title>DataType&#45;&gt;Tensor3</title>
<path fill="none" stroke="black" d="M1027.18,-230.022C1114.92,-224.482 1293.71,-210.293 1442.24,-180 1446.17,-179.199 1450.22,-178.249 1454.26,-177.216"/>
<polygon fill="black" stroke="black" points="1455.49,-180.509 1464.22,-174.507 1453.65,-173.754 1455.49,-180.509"/>
</g>
<!-- Postag -->
<g id="node26" class="node"><title>Postag</title>
<ellipse fill="none" stroke="black" cx="1607.24" cy="-162" rx="42.4939" ry="18"/>
<text text-anchor="middle" x="1607.24" y="-158.3" font-family="Times,serif" font-size="14.00">Postag</text>
</g>
<!-- DataType&#45;&gt;Postag -->
<g id="edge27" class="edge"><title>DataType&#45;&gt;Postag</title>
<path fill="none" stroke="black" d="M1028.52,-232.21C1132.8,-229.789 1365.24,-219.953 1556.24,-180 1559.68,-179.281 1563.21,-178.405 1566.73,-177.436"/>
<polygon fill="black" stroke="black" points="1567.96,-180.72 1576.54,-174.503 1565.96,-174.014 1567.96,-180.72"/>
</g>
</g>
</svg>
