<?xml version="1.0" encoding="UTF-8" standalone="no"?>
<!DOCTYPE svg PUBLIC "-//W3C//DTD SVG 1.1//EN"
 "http://www.w3.org/Graphics/SVG/1.1/DTD/svg11.dtd">
<!-- Generated by graphviz version 2.40.1 (20161225.0304)
 -->
<!-- Title: G Pages: 1 -->
<svg width="1604pt" height="260pt"
 viewBox="0.00 0.00 1603.63 260.00" xmlns="http://www.w3.org/2000/svg" xmlns:xlink="http://www.w3.org/1999/xlink">
<g id="graph0" class="graph" transform="scale(1 1) rotate(0) translate(4 256)">
<title>G</title>
<polygon fill="#ffffff" stroke="transparent" points="-4,4 -4,-256 1599.6303,-256 1599.6303,4 -4,4"/>
<!-- Sentence -->
<g id="node1" class="node">
<title>Sentence</title>
<ellipse fill="none" stroke="#000000" cx="743.2416" cy="-90" rx="53.8905" ry="18"/>
<text text-anchor="middle" x="743.2416" y="-86.3" font-family="Times,serif" font-size="14.00" fill="#000000">Sentence</text>
</g>
<!-- ContinuousVector -->
<g id="node2" class="node">
<title>ContinuousVector</title>
<ellipse fill="none" stroke="#000000" cx="94.2416" cy="-90" rx="94.4839" ry="18"/>
<text text-anchor="middle" x="94.2416" y="-86.3" font-family="Times,serif" font-size="14.00" fill="#000000">ContinuousVector</text>
</g>
<!-- Tuple -->
<g id="node3" class="node">
<title>Tuple</title>
<ellipse fill="none" stroke="#000000" cx="101.2416" cy="-162" rx="37.0935" ry="18"/>
<text text-anchor="middle" x="101.2416" y="-158.3" font-family="Times,serif" font-size="14.00" fill="#000000">Tuple</text>
</g>
<!-- Word -->
<g id="node4" class="node">
<title>Word</title>
<ellipse fill="none" stroke="#000000" cx="851.2416" cy="-90" rx="35.9954" ry="18"/>
<text text-anchor="middle" x="851.2416" y="-86.3" font-family="Times,serif" font-size="14.00" fill="#000000">Word</text>
</g>
<!-- DenseMatrix -->
<g id="node5" class="node">
<title>DenseMatrix</title>
<ellipse fill="none" stroke="#000000" cx="1110.2416" cy="-90" rx="70.6878" ry="18"/>
<text text-anchor="middle" x="1110.2416" y="-86.3" font-family="Times,serif" font-size="14.00" fill="#000000">DenseMatrix</text>
</g>
<!-- MatrixContinuousDense -->
<g id="node23" class="node">
<title>MatrixContinuousDense</title>
<ellipse fill="none" stroke="#000000" cx="1186.2416" cy="-18" rx="124.2781" ry="18"/>
<text text-anchor="middle" x="1186.2416" y="-14.3" font-family="Times,serif" font-size="14.00" fill="#000000">MatrixContinuousDense</text>
</g>
<!-- DenseMatrix&#45;&gt;MatrixContinuousDense -->
<g id="edge24" class="edge">
<title>DenseMatrix&#45;&gt;MatrixContinuousDense</title>
<path fill="none" stroke="#000000" d="M1128.6391,-72.5708C1137.951,-63.749 1149.4255,-52.8784 1159.676,-43.1674"/>
<polygon fill="#000000" stroke="#000000" points="1162.3675,-45.4389 1167.2199,-36.0206 1157.5532,-40.3572 1162.3675,-45.4389"/>
</g>
<!-- Flags -->
<g id="node6" class="node">
<title>Flags</title>
<ellipse fill="none" stroke="#000000" cx="192.2416" cy="-162" rx="36.2938" ry="18"/>
<text text-anchor="middle" x="192.2416" y="-158.3" font-family="Times,serif" font-size="14.00" fill="#000000">Flags</text>
</g>
<!-- Vector -->
<g id="node7" class="node">
<title>Vector</title>
<ellipse fill="none" stroke="#000000" cx="287.2416" cy="-162" rx="40.8928" ry="18"/>
<text text-anchor="middle" x="287.2416" y="-158.3" font-family="Times,serif" font-size="14.00" fill="#000000">Vector</text>
</g>
<!-- Vector&#45;&gt;ContinuousVector -->
<g id="edge2" class="edge">
<title>Vector&#45;&gt;ContinuousVector</title>
<path fill="none" stroke="#000000" d="M255.8033,-150.2717C226.3176,-139.2719 181.6627,-122.613 146.7667,-109.5949"/>
<polygon fill="#000000" stroke="#000000" points="147.7964,-106.2434 137.2038,-106.0273 145.3497,-112.8019 147.7964,-106.2434"/>
</g>
<!-- DiscreteVector -->
<g id="node14" class="node">
<title>DiscreteVector</title>
<ellipse fill="none" stroke="#000000" cx="287.2416" cy="-90" rx="80.6858" ry="18"/>
<text text-anchor="middle" x="287.2416" y="-86.3" font-family="Times,serif" font-size="14.00" fill="#000000">DiscreteVector</text>
</g>
<!-- Vector&#45;&gt;DiscreteVector -->
<g id="edge14" class="edge">
<title>Vector&#45;&gt;DiscreteVector</title>
<path fill="none" stroke="#000000" d="M287.2416,-143.8314C287.2416,-136.131 287.2416,-126.9743 287.2416,-118.4166"/>
<polygon fill="#000000" stroke="#000000" points="290.7417,-118.4132 287.2416,-108.4133 283.7417,-118.4133 290.7417,-118.4132"/>
</g>
<!-- CategoricalVector -->
<g id="node25" class="node">
<title>CategoricalVector</title>
<ellipse fill="none" stroke="#000000" cx="480.2416" cy="-90" rx="94.7833" ry="18"/>
<text text-anchor="middle" x="480.2416" y="-86.3" font-family="Times,serif" font-size="14.00" fill="#000000">CategoricalVector</text>
</g>
<!-- Vector&#45;&gt;CategoricalVector -->
<g id="edge26" class="edge">
<title>Vector&#45;&gt;CategoricalVector</title>
<path fill="none" stroke="#000000" d="M318.68,-150.2717C348.068,-139.3083 392.525,-122.7233 427.3696,-109.7243"/>
<polygon fill="#000000" stroke="#000000" points="428.7762,-112.9352 436.9221,-106.1607 426.3295,-106.3767 428.7762,-112.9352"/>
</g>
<!-- Tensor3 -->
<g id="node8" class="node">
<title>Tensor3</title>
<ellipse fill="none" stroke="#000000" cx="394.2416" cy="-162" rx="48.1917" ry="18"/>
<text text-anchor="middle" x="394.2416" y="-158.3" font-family="Times,serif" font-size="14.00" fill="#000000">Tensor3</text>
</g>
<!-- Document -->
<g id="node9" class="node">
<title>Document</title>
<ellipse fill="none" stroke="#000000" cx="963.2416" cy="-90" rx="58.4896" ry="18"/>
<text text-anchor="middle" x="963.2416" y="-86.3" font-family="Times,serif" font-size="14.00" fill="#000000">Document</text>
</g>
<!-- Summary -->
<g id="node24" class="node">
<title>Summary</title>
<ellipse fill="none" stroke="#000000" cx="963.2416" cy="-18" rx="55.7903" ry="18"/>
<text text-anchor="middle" x="963.2416" y="-14.3" font-family="Times,serif" font-size="14.00" fill="#000000">Summary</text>
</g>
<!-- Document&#45;&gt;Summary -->
<g id="edge25" class="edge">
<title>Document&#45;&gt;Summary</title>
<path fill="none" stroke="#000000" d="M963.2416,-71.8314C963.2416,-64.131 963.2416,-54.9743 963.2416,-46.4166"/>
<polygon fill="#000000" stroke="#000000" points="966.7417,-46.4132 963.2416,-36.4133 959.7417,-46.4133 966.7417,-46.4132"/>
</g>
<!-- Postag -->
<g id="node10" class="node">
<title>Postag</title>
<ellipse fill="none" stroke="#000000" cx="502.2416" cy="-162" rx="42.4939" ry="18"/>
<text text-anchor="middle" x="502.2416" y="-158.3" font-family="Times,serif" font-size="14.00" fill="#000000">Postag</text>
</g>
<!-- Sentiment -->
<g id="node11" class="node">
<title>Sentiment</title>
<ellipse fill="none" stroke="#000000" cx="621.2416" cy="-162" rx="59.2899" ry="18"/>
<text text-anchor="middle" x="621.2416" y="-158.3" font-family="Times,serif" font-size="14.00" fill="#000000">Sentiment</text>
</g>
<!-- MatrixContinuous -->
<g id="node12" class="node">
<title>MatrixContinuous</title>
<ellipse fill="none" stroke="#000000" cx="1294.2416" cy="-90" rx="94.7833" ry="18"/>
<text text-anchor="middle" x="1294.2416" y="-86.3" font-family="Times,serif" font-size="14.00" fill="#000000">MatrixContinuous</text>
</g>
<!-- MatrixContinuous&#45;&gt;MatrixContinuousDense -->
<g id="edge23" class="edge">
<title>MatrixContinuous&#45;&gt;MatrixContinuousDense</title>
<path fill="none" stroke="#000000" d="M1268.0979,-72.5708C1254.1121,-63.247 1236.6935,-51.6345 1221.5238,-41.5214"/>
<polygon fill="#000000" stroke="#000000" points="1223.1569,-38.4037 1212.895,-35.7689 1219.274,-44.2281 1223.1569,-38.4037"/>
</g>
<!-- MatrixContinuousSparse -->
<g id="node26" class="node">
<title>MatrixContinuousSparse</title>
<ellipse fill="none" stroke="#000000" cx="1468.2416" cy="-18" rx="127.2775" ry="18"/>
<text text-anchor="middle" x="1468.2416" y="-14.3" font-family="Times,serif" font-size="14.00" fill="#000000">MatrixContinuousSparse</text>
</g>
<!-- MatrixContinuous&#45;&gt;MatrixContinuousSparse -->
<g id="edge27" class="edge">
<title>MatrixContinuous&#45;&gt;MatrixContinuousSparse</title>
<path fill="none" stroke="#000000" d="M1334.1608,-73.4817C1358.9133,-63.2393 1390.942,-49.986 1417.4881,-39.0014"/>
<polygon fill="#000000" stroke="#000000" points="1419.0947,-42.1246 1426.9966,-35.0669 1416.4182,-35.6564 1419.0947,-42.1246"/>
</g>
<!-- Entity -->
<g id="node13" class="node">
<title>Entity</title>
<ellipse fill="none" stroke="#000000" cx="738.2416" cy="-162" rx="39.7935" ry="18"/>
<text text-anchor="middle" x="738.2416" y="-158.3" font-family="Times,serif" font-size="14.00" fill="#000000">Entity</text>
</g>
<!-- Stem -->
<g id="node15" class="node">
<title>Stem</title>
<ellipse fill="none" stroke="#000000" cx="831.2416" cy="-162" rx="35.194" ry="18"/>
<text text-anchor="middle" x="831.2416" y="-158.3" font-family="Times,serif" font-size="14.00" fill="#000000">Stem</text>
</g>
<!-- SparseMatrix -->
<g id="node16" class="node">
<title>SparseMatrix</title>
<ellipse fill="none" stroke="#000000" cx="1481.2416" cy="-90" rx="74.187" ry="18"/>
<text text-anchor="middle" x="1481.2416" y="-86.3" font-family="Times,serif" font-size="14.00" fill="#000000">SparseMatrix</text>
</g>
<!-- SparseMatrix&#45;&gt;MatrixContinuousSparse -->
<g id="edge28" class="edge">
<title>SparseMatrix&#45;&gt;MatrixContinuousSparse</title>
<path fill="none" stroke="#000000" d="M1477.9612,-71.8314C1476.5708,-64.131 1474.9176,-54.9743 1473.3724,-46.4166"/>
<polygon fill="#000000" stroke="#000000" points="1476.7875,-45.6322 1471.5663,-36.4133 1469.8989,-46.8761 1476.7875,-45.6322"/>
</g>
<!-- List -->
<g id="node17" class="node">
<title>List</title>
<ellipse fill="none" stroke="#000000" cx="913.2416" cy="-162" rx="28.6953" ry="18"/>
<text text-anchor="middle" x="913.2416" y="-158.3" font-family="Times,serif" font-size="14.00" fill="#000000">List</text>
</g>
<!-- Text -->
<g id="node18" class="node">
<title>Text</title>
<ellipse fill="none" stroke="#000000" cx="991.2416" cy="-162" rx="31.3957" ry="18"/>
<text text-anchor="middle" x="991.2416" y="-158.3" font-family="Times,serif" font-size="14.00" fill="#000000">Text</text>
</g>
<!-- Text&#45;&gt;Sentence -->
<g id="edge1" class="edge">
<title>Text&#45;&gt;Sentence</title>
<path fill="none" stroke="#000000" d="M966.9844,-150.2491C961.8542,-148.001 956.4232,-145.7928 951.2416,-144 888.4906,-122.2883 870.3967,-125.1235 806.2416,-108 802.2233,-106.9275 798.0676,-105.7941 793.8959,-104.6392"/>
<polygon fill="#000000" stroke="#000000" points="794.7629,-101.2475 784.1897,-101.9238 792.877,-107.9886 794.7629,-101.2475"/>
</g>
<!-- Text&#45;&gt;Word -->
<g id="edge4" class="edge">
<title>Text&#45;&gt;Word</title>
<path fill="none" stroke="#000000" d="M967.8088,-149.9488C945.3468,-138.3969 911.1771,-120.824 885.6315,-107.6862"/>
<polygon fill="#000000" stroke="#000000" points="887.1415,-104.5271 876.6478,-103.066 883.94,-110.7521 887.1415,-104.5271"/>
</g>
<!-- Text&#45;&gt;Document -->
<g id="edge9" class="edge">
<title>Text&#45;&gt;Document</title>
<path fill="none" stroke="#000000" d="M984.3203,-144.2022C981.1806,-136.1287 977.3963,-126.3976 973.9057,-117.422"/>
<polygon fill="#000000" stroke="#000000" points="977.1644,-116.1446 970.2779,-108.0931 970.6404,-118.6818 977.1644,-116.1446"/>
</g>
<!-- Matrix -->
<g id="node19" class="node">
<title>Matrix</title>
<ellipse fill="none" stroke="#000000" cx="1082.2416" cy="-162" rx="42.4939" ry="18"/>
<text text-anchor="middle" x="1082.2416" y="-158.3" font-family="Times,serif" font-size="14.00" fill="#000000">Matrix</text>
</g>
<!-- Matrix&#45;&gt;DenseMatrix -->
<g id="edge5" class="edge">
<title>Matrix&#45;&gt;DenseMatrix</title>
<path fill="none" stroke="#000000" d="M1089.163,-144.2022C1092.3027,-136.1287 1096.087,-126.3976 1099.5775,-117.422"/>
<polygon fill="#000000" stroke="#000000" points="1102.8429,-118.6818 1103.2054,-108.0931 1096.3189,-116.1446 1102.8429,-118.6818"/>
</g>
<!-- Matrix&#45;&gt;MatrixContinuous -->
<g id="edge12" class="edge">
<title>Matrix&#45;&gt;MatrixContinuous</title>
<path fill="none" stroke="#000000" d="M1114.8633,-150.401C1120.9649,-148.2557 1127.2931,-146.0472 1133.2416,-144 1167.7035,-132.14 1206.4257,-119.1421 1237.2575,-108.8709"/>
<polygon fill="#000000" stroke="#000000" points="1238.592,-112.1156 1246.9751,-105.6369 1236.3815,-105.4738 1238.592,-112.1156"/>
</g>
<!-- Matrix&#45;&gt;SparseMatrix -->
<g id="edge16" class="edge">
<title>Matrix&#45;&gt;SparseMatrix</title>
<path fill="none" stroke="#000000" d="M1113.4969,-149.8395C1119.9532,-147.6483 1126.7617,-145.5662 1133.2416,-144 1248.7743,-116.075 1281.1828,-128.6115 1398.2416,-108 1404.3406,-106.9261 1410.6724,-105.7201 1416.9965,-104.4542"/>
<polygon fill="#000000" stroke="#000000" points="1417.7996,-107.8624 1426.8934,-102.4261 1416.3943,-101.0049 1417.7996,-107.8624"/>
</g>
<!-- Category -->
<g id="node20" class="node">
<title>Category</title>
<ellipse fill="none" stroke="#000000" cx="1196.2416" cy="-162" rx="53.8905" ry="18"/>
<text text-anchor="middle" x="1196.2416" y="-158.3" font-family="Times,serif" font-size="14.00" fill="#000000">Category</text>
</g>
<!-- Chunktag -->
<g id="node21" class="node">
<title>Chunktag</title>
<ellipse fill="none" stroke="#000000" cx="1324.2416" cy="-162" rx="56.59" ry="18"/>
<text text-anchor="middle" x="1324.2416" y="-158.3" font-family="Times,serif" font-size="14.00" fill="#000000">Chunktag</text>
</g>
<!-- Synset -->
<g id="node22" class="node">
<title>Synset</title>
<ellipse fill="none" stroke="#000000" cx="1441.2416" cy="-162" rx="42.4939" ry="18"/>
<text text-anchor="middle" x="1441.2416" y="-158.3" font-family="Times,serif" font-size="14.00" fill="#000000">Synset</text>
</g>
<!-- DataType -->
<g id="node27" class="node">
<title>DataType</title>
<ellipse fill="none" stroke="#000000" cx="784.2416" cy="-234" rx="55.7903" ry="18"/>
<text text-anchor="middle" x="784.2416" y="-230.3" font-family="Times,serif" font-size="14.00" fill="#000000">DataType</text>
</g>
<!-- DataType&#45;&gt;Tuple -->
<g id="edge3" class="edge">
<title>DataType&#45;&gt;Tuple</title>
<path fill="none" stroke="#000000" d="M728.736,-231.3496C594.8742,-224.6272 257.2284,-205.611 147.2416,-180 144.2479,-179.3029 141.1906,-178.4481 138.1464,-177.4935"/>
<polygon fill="#000000" stroke="#000000" points="139.1558,-174.1392 128.5611,-174.1752 136.8658,-180.754 139.1558,-174.1392"/>
</g>
<!-- DataType&#45;&gt;Flags -->
<g id="edge6" class="edge">
<title>DataType&#45;&gt;Flags</title>
<path fill="none" stroke="#000000" d="M729.1333,-230.5397C609.5518,-222.709 329.5981,-202.5477 237.2416,-180 234.5748,-179.3489 231.8568,-178.5714 229.1441,-177.7104"/>
<polygon fill="#000000" stroke="#000000" points="230.0387,-174.315 219.4439,-174.3026 227.7185,-180.9193 230.0387,-174.315"/>
</g>
<!-- DataType&#45;&gt;Vector -->
<g id="edge7" class="edge">
<title>DataType&#45;&gt;Vector</title>
<path fill="none" stroke="#000000" d="M728.8349,-231.3234C643.6575,-226.3122 475.8576,-212.8787 337.2416,-180 334.01,-179.2335 330.6984,-178.3266 327.3934,-177.3339"/>
<polygon fill="#000000" stroke="#000000" points="328.1762,-173.9084 317.5842,-174.1535 326.0172,-180.5672 328.1762,-173.9084"/>
</g>
<!-- DataType&#45;&gt;Tensor3 -->
<g id="edge8" class="edge">
<title>DataType&#45;&gt;Tensor3</title>
<path fill="none" stroke="#000000" d="M731.5797,-227.8606C665.5412,-219.6137 549.1061,-203.2574 451.2416,-180 447.4318,-179.0946 443.5068,-178.065 439.5831,-176.9676"/>
<polygon fill="#000000" stroke="#000000" points="440.4802,-173.5834 429.8996,-174.1318 438.5129,-180.3012 440.4802,-173.5834"/>
</g>
<!-- DataType&#45;&gt;Postag -->
<g id="edge10" class="edge">
<title>DataType&#45;&gt;Postag</title>
<path fill="none" stroke="#000000" d="M736.5078,-224.44C689.5178,-214.655 615.897,-198.3203 553.2416,-180 550.1325,-179.0909 546.9351,-178.0999 543.7297,-177.0656"/>
<polygon fill="#000000" stroke="#000000" points="544.7636,-173.7209 534.1698,-173.8714 542.5452,-180.3601 544.7636,-173.7209"/>
</g>
<!-- DataType&#45;&gt;Sentiment -->
<g id="edge11" class="edge">
<title>DataType&#45;&gt;Sentiment</title>
<path fill="none" stroke="#000000" d="M751.2562,-219.4297C726.2087,-208.3658 691.5491,-193.056 664.3142,-181.0259"/>
<polygon fill="#000000" stroke="#000000" points="665.58,-177.7588 655.0184,-176.9198 662.7516,-184.162 665.58,-177.7588"/>
</g>
<!-- DataType&#45;&gt;Entity -->
<g id="edge13" class="edge">
<title>DataType&#45;&gt;Entity</title>
<path fill="none" stroke="#000000" d="M772.8708,-216.2022C767.4272,-207.6817 760.804,-197.315 754.8134,-187.9385"/>
<polygon fill="#000000" stroke="#000000" points="757.6563,-185.8872 749.3229,-179.3446 751.7574,-189.6559 757.6563,-185.8872"/>
</g>
<!-- DataType&#45;&gt;Stem -->
<g id="edge15" class="edge">
<title>DataType&#45;&gt;Stem</title>
<path fill="none" stroke="#000000" d="M795.8596,-216.2022C801.4629,-207.6186 808.2891,-197.1613 814.4455,-187.7303"/>
<polygon fill="#000000" stroke="#000000" points="817.5455,-189.3842 820.081,-179.0972 811.6838,-185.5578 817.5455,-189.3842"/>
</g>
<!-- DataType&#45;&gt;List -->
<g id="edge17" class="edge">
<title>DataType&#45;&gt;List</title>
<path fill="none" stroke="#000000" d="M812.2327,-218.3771C833.0176,-206.7762 861.3443,-190.9659 882.7114,-179.0401"/>
<polygon fill="#000000" stroke="#000000" points="884.6669,-181.957 891.6931,-174.0271 881.2553,-175.8446 884.6669,-181.957"/>
</g>
<!-- DataType&#45;&gt;Text -->
<g id="edge18" class="edge">
<title>DataType&#45;&gt;Text</title>
<path fill="none" stroke="#000000" d="M825.8619,-221.9345C859.9195,-211.7299 909.1604,-196.2152 951.2416,-180 953.3201,-179.1991 955.4458,-178.3462 957.5808,-177.4637"/>
<polygon fill="#000000" stroke="#000000" points="959.0724,-180.6324 966.8832,-173.4741 956.3132,-174.1991 959.0724,-180.6324"/>
</g>
<!-- DataType&#45;&gt;Matrix -->
<g id="edge19" class="edge">
<title>DataType&#45;&gt;Matrix</title>
<path fill="none" stroke="#000000" d="M833.4269,-225.1133C883.5977,-215.6137 963.4812,-199.2843 1031.2416,-180 1034.3573,-179.1133 1037.5594,-178.1387 1040.7681,-177.116"/>
<polygon fill="#000000" stroke="#000000" points="1041.9445,-180.4134 1050.3342,-173.9432 1039.7408,-173.7693 1041.9445,-180.4134"/>
</g>
<!-- DataType&#45;&gt;Category -->
<g id="edge20" class="edge">
<title>DataType&#45;&gt;Category</title>
<path fill="none" stroke="#000000" d="M836.9466,-227.9266C905.6118,-219.5398 1029.1866,-202.8217 1133.2416,-180 1137.6097,-179.042 1142.1218,-177.9537 1146.6308,-176.7978"/>
<polygon fill="#000000" stroke="#000000" points="1147.6783,-180.1409 1156.4396,-174.1836 1145.8756,-173.377 1147.6783,-180.1409"/>
</g>
<!-- DataType&#45;&gt;Chunktag -->
<g id="edge21" class="edge">
<title>DataType&#45;&gt;Chunktag</title>
<path fill="none" stroke="#000000" d="M839.1633,-230.5678C928.0615,-224.3845 1108.7138,-209.2111 1259.2416,-180 1263.8827,-179.0994 1268.6767,-178.0351 1273.4599,-176.8812"/>
<polygon fill="#000000" stroke="#000000" points="1274.3765,-180.2596 1283.2104,-174.4105 1272.657,-173.4741 1274.3765,-180.2596"/>
</g>
<!-- DataType&#45;&gt;Synset -->
<g id="edge22" class="edge">
<title>DataType&#45;&gt;Synset</title>
<path fill="none" stroke="#000000" d="M839.3639,-230.8592C968.1702,-223.2339 1285.8665,-202.6927 1390.2416,-180 1393.6479,-179.2594 1397.1388,-178.3551 1400.6181,-177.3501"/>
<polygon fill="#000000" stroke="#000000" points="1401.8223,-180.6405 1410.3131,-174.3035 1399.7237,-173.9624 1401.8223,-180.6405"/>
</g>
</g>
</svg>
