<?xml version="1.0" encoding="UTF-8" standalone="no"?>
<!DOCTYPE svg PUBLIC "-//W3C//DTD SVG 1.1//EN"
 "http://www.w3.org/Graphics/SVG/1.1/DTD/svg11.dtd">
<!-- Generated by graphviz version 2.38.0 (20140413.2041)
 -->
<!-- Title: G Pages: 1 -->
<svg width="1664pt" height="260pt"
 viewBox="0.00 0.00 1663.74 260.00" xmlns="http://www.w3.org/2000/svg" xmlns:xlink="http://www.w3.org/1999/xlink">
<g id="graph0" class="graph" transform="scale(1 1) rotate(0) translate(4 256)">
<title>G</title>
<polygon fill="white" stroke="none" points="-4,4 -4,-256 1659.74,-256 1659.74,4 -4,4"/>
<!-- Document -->
<g id="node1" class="node"><title>Document</title>
<ellipse fill="none" stroke="black" cx="58.4948" cy="-90" rx="58.4896" ry="18"/>
<text text-anchor="middle" x="58.4948" y="-86.3" font-family="Times,serif" font-size="14.00">Document</text>
</g>
<!-- Summary -->
<g id="node17" class="node"><title>Summary</title>
<ellipse fill="none" stroke="black" cx="58.4948" cy="-18" rx="55.4913" ry="18"/>
<text text-anchor="middle" x="58.4948" y="-14.3" font-family="Times,serif" font-size="14.00">Summary</text>
</g>
<!-- Document&#45;&gt;Summary -->
<g id="edge17" class="edge"><title>Document&#45;&gt;Summary</title>
<path fill="none" stroke="black" d="M58.4948,-71.6966C58.4948,-63.9827 58.4948,-54.7125 58.4948,-46.1124"/>
<polygon fill="black" stroke="black" points="61.9949,-46.1043 58.4948,-36.1043 54.9949,-46.1044 61.9949,-46.1043"/>
</g>
<!-- Stem -->
<g id="node2" class="node"><title>Stem</title>
<ellipse fill="none" stroke="black" cx="105.495" cy="-162" rx="34.394" ry="18"/>
<text text-anchor="middle" x="105.495" y="-158.3" font-family="Times,serif" font-size="14.00">Stem</text>
</g>
<!-- DataType -->
<g id="node3" class="node"><title>DataType</title>
<ellipse fill="none" stroke="black" cx="685.495" cy="-234" rx="55.4913" ry="18"/>
<text text-anchor="middle" x="685.495" y="-230.3" font-family="Times,serif" font-size="14.00">DataType</text>
</g>
<!-- DataType&#45;&gt;Stem -->
<g id="edge2" class="edge"><title>DataType&#45;&gt;Stem</title>
<path fill="none" stroke="black" d="M630.153,-232.575C531.828,-230.711 320.814,-221.701 148.495,-180 145.879,-179.367 143.21,-178.608 140.548,-177.767"/>
<polygon fill="black" stroke="black" points="141.633,-174.439 131.038,-174.441 139.322,-181.046 141.633,-174.439"/>
</g>
<!-- Text -->
<g id="node5" class="node"><title>Text</title>
<ellipse fill="none" stroke="black" cx="188.495" cy="-162" rx="30.5947" ry="18"/>
<text text-anchor="middle" x="188.495" y="-158.3" font-family="Times,serif" font-size="14.00">Text</text>
</g>
<!-- DataType&#45;&gt;Text -->
<g id="edge4" class="edge"><title>DataType&#45;&gt;Text</title>
<path fill="none" stroke="black" d="M630.581,-231.86C543.619,-228.9 369.514,-218.257 227.495,-180 225.208,-179.384 222.883,-178.656 220.564,-177.853"/>
<polygon fill="black" stroke="black" points="221.774,-174.568 211.185,-174.229 219.251,-181.098 221.774,-174.568"/>
</g>
<!-- Chunktag -->
<g id="node6" class="node"><title>Chunktag</title>
<ellipse fill="none" stroke="black" cx="293.495" cy="-162" rx="56.59" ry="18"/>
<text text-anchor="middle" x="293.495" y="-158.3" font-family="Times,serif" font-size="14.00">Chunktag</text>
</g>
<!-- DataType&#45;&gt;Chunktag -->
<g id="edge5" class="edge"><title>DataType&#45;&gt;Chunktag</title>
<path fill="none" stroke="black" d="M635.362,-226.386C570.952,-217.542 455.84,-200.57 358.495,-180 353.887,-179.026 349.116,-177.937 344.348,-176.793"/>
<polygon fill="black" stroke="black" points="345.165,-173.389 334.617,-174.386 343.484,-180.185 345.165,-173.389"/>
</g>
<!-- Entity -->
<g id="node7" class="node"><title>Entity</title>
<ellipse fill="none" stroke="black" cx="407.495" cy="-162" rx="39.7935" ry="18"/>
<text text-anchor="middle" x="407.495" y="-158.3" font-family="Times,serif" font-size="14.00">Entity</text>
</g>
<!-- DataType&#45;&gt;Entity -->
<g id="edge6" class="edge"><title>DataType&#45;&gt;Entity</title>
<path fill="none" stroke="black" d="M639.505,-223.861C593.001,-214.269 519.232,-198.087 456.495,-180 453.38,-179.102 450.172,-178.12 446.959,-177.096"/>
<polygon fill="black" stroke="black" points="447.986,-173.75 437.393,-173.939 445.792,-180.397 447.986,-173.75"/>
</g>
<!-- Synset -->
<g id="node8" class="node"><title>Synset</title>
<ellipse fill="none" stroke="black" cx="507.495" cy="-162" rx="42.4939" ry="18"/>
<text text-anchor="middle" x="507.495" y="-158.3" font-family="Times,serif" font-size="14.00">Synset</text>
</g>
<!-- DataType&#45;&gt;Synset -->
<g id="edge7" class="edge"><title>DataType&#45;&gt;Synset</title>
<path fill="none" stroke="black" d="M651.595,-219.669C621.703,-207.913 578.14,-190.782 546.745,-178.435"/>
<polygon fill="black" stroke="black" points="548.008,-175.171 537.421,-174.769 545.446,-181.686 548.008,-175.171"/>
</g>
<!-- List -->
<g id="node11" class="node"><title>List</title>
<ellipse fill="none" stroke="black" cx="596.495" cy="-162" rx="28.6953" ry="18"/>
<text text-anchor="middle" x="596.495" y="-158.3" font-family="Times,serif" font-size="14.00">List</text>
</g>
<!-- DataType&#45;&gt;List -->
<g id="edge10" class="edge"><title>DataType&#45;&gt;List</title>
<path fill="none" stroke="black" d="M665.299,-217.116C652.388,-206.961 635.539,-193.709 621.746,-182.86"/>
<polygon fill="black" stroke="black" points="623.639,-179.897 613.615,-176.466 619.312,-185.399 623.639,-179.897"/>
</g>
<!-- Matrix -->
<g id="node12" class="node"><title>Matrix</title>
<ellipse fill="none" stroke="black" cx="685.495" cy="-162" rx="42.4939" ry="18"/>
<text text-anchor="middle" x="685.495" y="-158.3" font-family="Times,serif" font-size="14.00">Matrix</text>
</g>
<!-- DataType&#45;&gt;Matrix -->
<g id="edge11" class="edge"><title>DataType&#45;&gt;Matrix</title>
<path fill="none" stroke="black" d="M685.495,-215.697C685.495,-207.983 685.495,-198.712 685.495,-190.112"/>
<polygon fill="black" stroke="black" points="688.995,-190.104 685.495,-180.104 681.995,-190.104 688.995,-190.104"/>
</g>
<!-- Category -->
<g id="node13" class="node"><title>Category</title>
<ellipse fill="none" stroke="black" cx="799.495" cy="-162" rx="53.8905" ry="18"/>
<text text-anchor="middle" x="799.495" y="-158.3" font-family="Times,serif" font-size="14.00">Category</text>
</g>
<!-- DataType&#45;&gt;Category -->
<g id="edge12" class="edge"><title>DataType&#45;&gt;Category</title>
<path fill="none" stroke="black" d="M710.231,-217.811C726.514,-207.813 748.035,-194.598 765.866,-183.649"/>
<polygon fill="black" stroke="black" points="768.116,-186.375 774.807,-178.159 764.454,-180.409 768.116,-186.375"/>
</g>
<!-- Tensor3 -->
<g id="node18" class="node"><title>Tensor3</title>
<ellipse fill="none" stroke="black" cx="919.495" cy="-162" rx="48.1917" ry="18"/>
<text text-anchor="middle" x="919.495" y="-158.3" font-family="Times,serif" font-size="14.00">Tensor3</text>
</g>
<!-- DataType&#45;&gt;Tensor3 -->
<g id="edge18" class="edge"><title>DataType&#45;&gt;Tensor3</title>
<path fill="none" stroke="black" d="M724.661,-221.284C765.58,-209.043 829.743,-189.849 873.155,-176.862"/>
<polygon fill="black" stroke="black" points="874.324,-180.166 882.901,-173.947 872.318,-173.46 874.324,-180.166"/>
</g>
<!-- Postag -->
<g id="node20" class="node"><title>Postag</title>
<ellipse fill="none" stroke="black" cx="1027.49" cy="-162" rx="42.4939" ry="18"/>
<text text-anchor="middle" x="1027.49" y="-158.3" font-family="Times,serif" font-size="14.00">Postag</text>
</g>
<!-- DataType&#45;&gt;Postag -->
<g id="edge20" class="edge"><title>DataType&#45;&gt;Postag</title>
<path fill="none" stroke="black" d="M735.387,-226.112C793.718,-217.554 892.926,-201.424 976.495,-180 979.704,-179.177 983.004,-178.256 986.308,-177.279"/>
<polygon fill="black" stroke="black" points="987.632,-180.533 996.144,-174.224 985.556,-173.848 987.632,-180.533"/>
</g>
<!-- Sentiment -->
<g id="node23" class="node"><title>Sentiment</title>
<ellipse fill="none" stroke="black" cx="1146.49" cy="-162" rx="58.4896" ry="18"/>
<text text-anchor="middle" x="1146.49" y="-158.3" font-family="Times,serif" font-size="14.00">Sentiment</text>
</g>
<!-- DataType&#45;&gt;Sentiment -->
<g id="edge24" class="edge"><title>DataType&#45;&gt;Sentiment</title>
<path fill="none" stroke="black" d="M737.605,-227.834C813.146,-219.924 957.296,-203.248 1078.49,-180 1083.52,-179.036 1088.73,-177.93 1093.93,-176.755"/>
<polygon fill="black" stroke="black" points="1094.91,-180.118 1103.85,-174.429 1093.32,-173.303 1094.91,-180.118"/>
</g>
<!-- Tuple -->
<g id="node24" class="node"><title>Tuple</title>
<ellipse fill="none" stroke="black" cx="1259.49" cy="-162" rx="36.2938" ry="18"/>
<text text-anchor="middle" x="1259.49" y="-158.3" font-family="Times,serif" font-size="14.00">Tuple</text>
</g>
<!-- DataType&#45;&gt;Tuple -->
<g id="edge25" class="edge"><title>DataType&#45;&gt;Tuple</title>
<path fill="none" stroke="black" d="M740.585,-232.052C837.448,-229.375 1044.07,-219.138 1213.49,-180 1216.65,-179.272 1219.88,-178.385 1223.09,-177.403"/>
<polygon fill="black" stroke="black" points="1224.22,-180.717 1232.6,-174.235 1222.01,-174.076 1224.22,-180.717"/>
</g>
<!-- Vector -->
<g id="node26" class="node"><title>Vector</title>
<ellipse fill="none" stroke="black" cx="1354.49" cy="-162" rx="40.8928" ry="18"/>
<text text-anchor="middle" x="1354.49" y="-158.3" font-family="Times,serif" font-size="14.00">Vector</text>
</g>
<!-- DataType&#45;&gt;Vector -->
<g id="edge27" class="edge"><title>DataType&#45;&gt;Vector</title>
<path fill="none" stroke="black" d="M740.793,-232.732C849.817,-231.225 1099.7,-222.918 1304.49,-180 1307.92,-179.282 1311.43,-178.401 1314.93,-177.421"/>
<polygon fill="black" stroke="black" points="1316.14,-180.713 1324.68,-174.45 1314.1,-174.017 1316.14,-180.713"/>
</g>
<!-- MatrixContinuous -->
<g id="node4" class="node"><title>MatrixContinuous</title>
<ellipse fill="none" stroke="black" cx="685.495" cy="-90" rx="95.5831" ry="18"/>
<text text-anchor="middle" x="685.495" y="-86.3" font-family="Times,serif" font-size="14.00">MatrixContinuous</text>
</g>
<!-- MatrixContinuousDense -->
<g id="node15" class="node"><title>MatrixContinuousDense</title>
<ellipse fill="none" stroke="black" cx="526.495" cy="-18" rx="124.278" ry="18"/>
<text text-anchor="middle" x="526.495" y="-14.3" font-family="Times,serif" font-size="14.00">MatrixContinuousDense</text>
</g>
<!-- MatrixContinuous&#45;&gt;MatrixContinuousDense -->
<g id="edge14" class="edge"><title>MatrixContinuous&#45;&gt;MatrixContinuousDense</title>
<path fill="none" stroke="black" d="M649.812,-73.2906C627.099,-63.2911 597.446,-50.2365 572.911,-39.4347"/>
<polygon fill="black" stroke="black" points="574.001,-36.0907 563.439,-35.2646 571.181,-42.4973 574.001,-36.0907"/>
</g>
<!-- MatrixContinuousSparse -->
<g id="node21" class="node"><title>MatrixContinuousSparse</title>
<ellipse fill="none" stroke="black" cx="847.495" cy="-18" rx="127.277" ry="18"/>
<text text-anchor="middle" x="847.495" y="-14.3" font-family="Times,serif" font-size="14.00">MatrixContinuousSparse</text>
</g>
<!-- MatrixContinuous&#45;&gt;MatrixContinuousSparse -->
<g id="edge21" class="edge"><title>MatrixContinuous&#45;&gt;MatrixContinuousSparse</title>
<path fill="none" stroke="black" d="M721.851,-73.2906C745.095,-63.2469 775.472,-50.1209 800.535,-39.2915"/>
<polygon fill="black" stroke="black" points="802.062,-42.4441 809.854,-35.2646 799.286,-36.0183 802.062,-42.4441"/>
</g>
<!-- Text&#45;&gt;Document -->
<g id="edge1" class="edge"><title>Text&#45;&gt;Document</title>
<path fill="none" stroke="black" d="M166.736,-149.284C147.21,-138.77 118.156,-123.125 95.0643,-110.691"/>
<polygon fill="black" stroke="black" points="96.684,-107.588 86.2199,-105.929 93.3652,-113.752 96.684,-107.588"/>
</g>
<!-- Sentence -->
<g id="node14" class="node"><title>Sentence</title>
<ellipse fill="none" stroke="black" cx="188.495" cy="-90" rx="53.8905" ry="18"/>
<text text-anchor="middle" x="188.495" y="-86.3" font-family="Times,serif" font-size="14.00">Sentence</text>
</g>
<!-- Text&#45;&gt;Sentence -->
<g id="edge13" class="edge"><title>Text&#45;&gt;Sentence</title>
<path fill="none" stroke="black" d="M188.495,-143.697C188.495,-135.983 188.495,-126.712 188.495,-118.112"/>
<polygon fill="black" stroke="black" points="191.995,-118.104 188.495,-108.104 184.995,-118.104 191.995,-118.104"/>
</g>
<!-- Word -->
<g id="node16" class="node"><title>Word</title>
<ellipse fill="none" stroke="black" cx="296.495" cy="-90" rx="35.9954" ry="18"/>
<text text-anchor="middle" x="296.495" y="-86.3" font-family="Times,serif" font-size="14.00">Word</text>
</g>
<!-- Text&#45;&gt;Word -->
<g id="edge16" class="edge"><title>Text&#45;&gt;Word</title>
<path fill="none" stroke="black" d="M208.304,-148.161C224.706,-137.53 248.257,-122.265 266.896,-110.184"/>
<polygon fill="black" stroke="black" points="268.847,-113.091 275.335,-104.715 265.039,-107.217 268.847,-113.091"/>
</g>
<!-- DiscreteVector -->
<g id="node9" class="node"><title>DiscreteVector</title>
<ellipse fill="none" stroke="black" cx="1161.49" cy="-90" rx="80.6858" ry="18"/>
<text text-anchor="middle" x="1161.49" y="-86.3" font-family="Times,serif" font-size="14.00">DiscreteVector</text>
</g>
<!-- SparseMatrix -->
<g id="node10" class="node"><title>SparseMatrix</title>
<ellipse fill="none" stroke="black" cx="873.495" cy="-90" rx="74.187" ry="18"/>
<text text-anchor="middle" x="873.495" y="-86.3" font-family="Times,serif" font-size="14.00">SparseMatrix</text>
</g>
<!-- SparseMatrix&#45;&gt;MatrixContinuousSparse -->
<g id="edge22" class="edge"><title>SparseMatrix&#45;&gt;MatrixContinuousSparse</title>
<path fill="none" stroke="black" d="M867.201,-72.055C864.275,-64.1762 860.724,-54.6165 857.447,-45.794"/>
<polygon fill="black" stroke="black" points="860.674,-44.4309 853.911,-36.2753 854.112,-46.8682 860.674,-44.4309"/>
</g>
<!-- Matrix&#45;&gt;MatrixContinuous -->
<g id="edge3" class="edge"><title>Matrix&#45;&gt;MatrixContinuous</title>
<path fill="none" stroke="black" d="M685.495,-143.697C685.495,-135.983 685.495,-126.712 685.495,-118.112"/>
<polygon fill="black" stroke="black" points="688.995,-118.104 685.495,-108.104 681.995,-118.104 688.995,-118.104"/>
</g>
<!-- Matrix&#45;&gt;SparseMatrix -->
<g id="edge9" class="edge"><title>Matrix&#45;&gt;SparseMatrix</title>
<path fill="none" stroke="black" d="M716.119,-149.597C745.696,-138.584 790.944,-121.737 825.343,-108.929"/>
<polygon fill="black" stroke="black" points="826.586,-112.201 834.736,-105.431 824.143,-105.641 826.586,-112.201"/>
</g>
<!-- DenseMatrix -->
<g id="node25" class="node"><title>DenseMatrix</title>
<ellipse fill="none" stroke="black" cx="500.495" cy="-90" rx="71.4873" ry="18"/>
<text text-anchor="middle" x="500.495" y="-86.3" font-family="Times,serif" font-size="14.00">DenseMatrix</text>
</g>
<!-- Matrix&#45;&gt;DenseMatrix -->
<g id="edge26" class="edge"><title>Matrix&#45;&gt;DenseMatrix</title>
<path fill="none" stroke="black" d="M654.946,-149.441C625.896,-138.449 581.76,-121.749 548.097,-109.012"/>
<polygon fill="black" stroke="black" points="549.051,-105.63 538.459,-105.365 546.573,-112.177 549.051,-105.63"/>
</g>
<!-- CategoricalVector -->
<g id="node19" class="node"><title>CategoricalVector</title>
<ellipse fill="none" stroke="black" cx="1354.49" cy="-90" rx="94.7833" ry="18"/>
<text text-anchor="middle" x="1354.49" y="-86.3" font-family="Times,serif" font-size="14.00">CategoricalVector</text>
</g>
<!-- ContinuousVector -->
<g id="node22" class="node"><title>ContinuousVector</title>
<ellipse fill="none" stroke="black" cx="1561.49" cy="-90" rx="94.4839" ry="18"/>
<text text-anchor="middle" x="1561.49" y="-86.3" font-family="Times,serif" font-size="14.00">ContinuousVector</text>
</g>
<!-- DenseMatrix&#45;&gt;MatrixContinuousDense -->
<g id="edge15" class="edge"><title>DenseMatrix&#45;&gt;MatrixContinuousDense</title>
<path fill="none" stroke="black" d="M506.789,-72.055C509.715,-64.1762 513.266,-54.6165 516.543,-45.794"/>
<polygon fill="black" stroke="black" points="519.877,-46.8682 520.078,-36.2753 513.315,-44.4309 519.877,-46.8682"/>
</g>
<!-- Vector&#45;&gt;DiscreteVector -->
<g id="edge8" class="edge"><title>Vector&#45;&gt;DiscreteVector</title>
<path fill="none" stroke="black" d="M1323.91,-149.908C1293.79,-138.985 1247.27,-122.109 1211.72,-109.215"/>
<polygon fill="black" stroke="black" points="1212.6,-105.812 1202,-105.692 1210.21,-112.392 1212.6,-105.812"/>
</g>
<!-- Vector&#45;&gt;CategoricalVector -->
<g id="edge19" class="edge"><title>Vector&#45;&gt;CategoricalVector</title>
<path fill="none" stroke="black" d="M1354.49,-143.697C1354.49,-135.983 1354.49,-126.712 1354.49,-118.112"/>
<polygon fill="black" stroke="black" points="1357.99,-118.104 1354.49,-108.104 1350.99,-118.104 1357.99,-118.104"/>
</g>
<!-- Vector&#45;&gt;ContinuousVector -->
<g id="edge23" class="edge"><title>Vector&#45;&gt;ContinuousVector</title>
<path fill="none" stroke="black" d="M1385.93,-150.369C1418.15,-139.474 1468.86,-122.325 1507.52,-109.253"/>
<polygon fill="black" stroke="black" points="1508.71,-112.543 1517.07,-106.024 1506.47,-105.912 1508.71,-112.543"/>
</g>
</g>
</svg>
