<?xml version="1.0" encoding="UTF-8" standalone="no"?>
<!DOCTYPE svg PUBLIC "-//W3C//DTD SVG 1.1//EN"
 "http://www.w3.org/Graphics/SVG/1.1/DTD/svg11.dtd">
<!-- Generated by graphviz version 2.40.1 (20161225.0304)
 -->
<!-- Title: G Pages: 1 -->
<svg width="1700pt" height="260pt"
 viewBox="0.00 0.00 1699.54 260.00" xmlns="http://www.w3.org/2000/svg" xmlns:xlink="http://www.w3.org/1999/xlink">
<g id="graph0" class="graph" transform="scale(1 1) rotate(0) translate(4 256)">
<title>G</title>
<polygon fill="#ffffff" stroke="transparent" points="-4,4 -4,-256 1695.5381,-256 1695.5381,4 -4,4"/>
<!-- DenseMatrix -->
<g id="node1" class="node">
<title>DenseMatrix</title>
<ellipse fill="none" stroke="#000000" cx="895.5928" cy="-90" rx="70.6878" ry="18"/>
<text text-anchor="middle" x="895.5928" y="-86.3" font-family="Times,serif" font-size="14.00" fill="#000000">DenseMatrix</text>
</g>
<!-- MatrixContinuousDense -->
<g id="node21" class="node">
<title>MatrixContinuousDense</title>
<ellipse fill="none" stroke="#000000" cx="908.5928" cy="-18" rx="124.2781" ry="18"/>
<text text-anchor="middle" x="908.5928" y="-14.3" font-family="Times,serif" font-size="14.00" fill="#000000">MatrixContinuousDense</text>
</g>
<!-- DenseMatrix&#45;&gt;MatrixContinuousDense -->
<g id="edge22" class="edge">
<title>DenseMatrix&#45;&gt;MatrixContinuousDense</title>
<path fill="none" stroke="#000000" d="M898.8733,-71.8314C900.2636,-64.131 901.9169,-54.9743 903.4621,-46.4166"/>
<polygon fill="#000000" stroke="#000000" points="906.9356,-46.8761 905.2682,-36.4133 900.047,-45.6322 906.9356,-46.8761"/>
</g>
<!-- Flags -->
<g id="node2" class="node">
<title>Flags</title>
<ellipse fill="none" stroke="#000000" cx="178.5928" cy="-162" rx="36.2938" ry="18"/>
<text text-anchor="middle" x="178.5928" y="-158.3" font-family="Times,serif" font-size="14.00" fill="#000000">Flags</text>
</g>
<!-- Vector -->
<g id="node3" class="node">
<title>Vector</title>
<ellipse fill="none" stroke="#000000" cx="273.5928" cy="-162" rx="40.8928" ry="18"/>
<text text-anchor="middle" x="273.5928" y="-158.3" font-family="Times,serif" font-size="14.00" fill="#000000">Vector</text>
</g>
<!-- DiscreteVector -->
<g id="node12" class="node">
<title>DiscreteVector</title>
<ellipse fill="none" stroke="#000000" cx="80.5928" cy="-90" rx="80.6858" ry="18"/>
<text text-anchor="middle" x="80.5928" y="-86.3" font-family="Times,serif" font-size="14.00" fill="#000000">DiscreteVector</text>
</g>
<!-- Vector&#45;&gt;DiscreteVector -->
<g id="edge12" class="edge">
<title>Vector&#45;&gt;DiscreteVector</title>
<path fill="none" stroke="#000000" d="M242.1545,-150.2717C212.2783,-139.1262 166.8283,-122.1707 131.7366,-109.0795"/>
<polygon fill="#000000" stroke="#000000" points="132.7277,-105.7137 122.1351,-105.4976 130.281,-112.2722 132.7277,-105.7137"/>
</g>
<!-- CategoricalVector -->
<g id="node24" class="node">
<title>CategoricalVector</title>
<ellipse fill="none" stroke="#000000" cx="273.5928" cy="-90" rx="94.7833" ry="18"/>
<text text-anchor="middle" x="273.5928" y="-86.3" font-family="Times,serif" font-size="14.00" fill="#000000">CategoricalVector</text>
</g>
<!-- Vector&#45;&gt;CategoricalVector -->
<g id="edge25" class="edge">
<title>Vector&#45;&gt;CategoricalVector</title>
<path fill="none" stroke="#000000" d="M273.5928,-143.8314C273.5928,-136.131 273.5928,-126.9743 273.5928,-118.4166"/>
<polygon fill="#000000" stroke="#000000" points="277.0929,-118.4132 273.5928,-108.4133 270.0929,-118.4133 277.0929,-118.4132"/>
</g>
<!-- ContinuousVector -->
<g id="node26" class="node">
<title>ContinuousVector</title>
<ellipse fill="none" stroke="#000000" cx="480.5928" cy="-90" rx="94.4839" ry="18"/>
<text text-anchor="middle" x="480.5928" y="-86.3" font-family="Times,serif" font-size="14.00" fill="#000000">ContinuousVector</text>
</g>
<!-- Vector&#45;&gt;ContinuousVector -->
<g id="edge28" class="edge">
<title>Vector&#45;&gt;ContinuousVector</title>
<path fill="none" stroke="#000000" d="M305.309,-150.5052C311.3732,-148.3291 317.675,-146.0828 323.5928,-144 356.9369,-132.2644 394.3638,-119.3803 424.3096,-109.1412"/>
<polygon fill="#000000" stroke="#000000" points="425.83,-112.3205 434.1616,-105.7758 423.5671,-105.6964 425.83,-112.3205"/>
</g>
<!-- Tensor3 -->
<g id="node4" class="node">
<title>Tensor3</title>
<ellipse fill="none" stroke="#000000" cx="380.5928" cy="-162" rx="48.1917" ry="18"/>
<text text-anchor="middle" x="380.5928" y="-158.3" font-family="Times,serif" font-size="14.00" fill="#000000">Tensor3</text>
</g>
<!-- Postag -->
<g id="node5" class="node">
<title>Postag</title>
<ellipse fill="none" stroke="#000000" cx="488.5928" cy="-162" rx="42.4939" ry="18"/>
<text text-anchor="middle" x="488.5928" y="-158.3" font-family="Times,serif" font-size="14.00" fill="#000000">Postag</text>
</g>
<!-- Document -->
<g id="node6" class="node">
<title>Document</title>
<ellipse fill="none" stroke="#000000" cx="1417.5928" cy="-90" rx="58.4896" ry="18"/>
<text text-anchor="middle" x="1417.5928" y="-86.3" font-family="Times,serif" font-size="14.00" fill="#000000">Document</text>
</g>
<!-- Summary -->
<g id="node22" class="node">
<title>Summary</title>
<ellipse fill="none" stroke="#000000" cx="1417.5928" cy="-18" rx="55.7903" ry="18"/>
<text text-anchor="middle" x="1417.5928" y="-14.3" font-family="Times,serif" font-size="14.00" fill="#000000">Summary</text>
</g>
<!-- Document&#45;&gt;Summary -->
<g id="edge23" class="edge">
<title>Document&#45;&gt;Summary</title>
<path fill="none" stroke="#000000" d="M1417.5928,-71.8314C1417.5928,-64.131 1417.5928,-54.9743 1417.5928,-46.4166"/>
<polygon fill="#000000" stroke="#000000" points="1421.0929,-46.4132 1417.5928,-36.4133 1414.0929,-46.4133 1421.0929,-46.4132"/>
</g>
<!-- Stem -->
<g id="node7" class="node">
<title>Stem</title>
<ellipse fill="none" stroke="#000000" cx="583.5928" cy="-162" rx="35.194" ry="18"/>
<text text-anchor="middle" x="583.5928" y="-158.3" font-family="Times,serif" font-size="14.00" fill="#000000">Stem</text>
</g>
<!-- Word -->
<g id="node8" class="node">
<title>Word</title>
<ellipse fill="none" stroke="#000000" cx="1529.5928" cy="-90" rx="35.9954" ry="18"/>
<text text-anchor="middle" x="1529.5928" y="-86.3" font-family="Times,serif" font-size="14.00" fill="#000000">Word</text>
</g>
<!-- Sentiment -->
<g id="node9" class="node">
<title>Sentiment</title>
<ellipse fill="none" stroke="#000000" cx="695.5928" cy="-162" rx="59.2899" ry="18"/>
<text text-anchor="middle" x="695.5928" y="-158.3" font-family="Times,serif" font-size="14.00" fill="#000000">Sentiment</text>
</g>
<!-- MatrixContinuous -->
<g id="node10" class="node">
<title>MatrixContinuous</title>
<ellipse fill="none" stroke="#000000" cx="1079.5928" cy="-90" rx="94.7833" ry="18"/>
<text text-anchor="middle" x="1079.5928" y="-86.3" font-family="Times,serif" font-size="14.00" fill="#000000">MatrixContinuous</text>
</g>
<!-- MatrixContinuous&#45;&gt;MatrixContinuousDense -->
<g id="edge21" class="edge">
<title>MatrixContinuous&#45;&gt;MatrixContinuousDense</title>
<path fill="none" stroke="#000000" d="M1040.362,-73.4817C1016.0362,-63.2393 984.5597,-49.986 958.4713,-39.0014"/>
<polygon fill="#000000" stroke="#000000" points="959.7014,-35.7218 949.1268,-35.0669 956.9849,-42.1733 959.7014,-35.7218"/>
</g>
<!-- MatrixContinuousSparse -->
<g id="node25" class="node">
<title>MatrixContinuousSparse</title>
<ellipse fill="none" stroke="#000000" cx="1203.5928" cy="-18" rx="127.2775" ry="18"/>
<text text-anchor="middle" x="1203.5928" y="-14.3" font-family="Times,serif" font-size="14.00" fill="#000000">MatrixContinuousSparse</text>
</g>
<!-- MatrixContinuous&#45;&gt;MatrixContinuousSparse -->
<g id="edge26" class="edge">
<title>MatrixContinuous&#45;&gt;MatrixContinuousSparse</title>
<path fill="none" stroke="#000000" d="M1109.2939,-72.7542C1125.7676,-63.1888 1146.4621,-51.1727 1164.2645,-40.8358"/>
<polygon fill="#000000" stroke="#000000" points="1166.3823,-43.6534 1173.2727,-35.6053 1162.8673,-37.5999 1166.3823,-43.6534"/>
</g>
<!-- Entity -->
<g id="node11" class="node">
<title>Entity</title>
<ellipse fill="none" stroke="#000000" cx="812.5928" cy="-162" rx="39.7935" ry="18"/>
<text text-anchor="middle" x="812.5928" y="-158.3" font-family="Times,serif" font-size="14.00" fill="#000000">Entity</text>
</g>
<!-- SparseMatrix -->
<g id="node13" class="node">
<title>SparseMatrix</title>
<ellipse fill="none" stroke="#000000" cx="1266.5928" cy="-90" rx="74.187" ry="18"/>
<text text-anchor="middle" x="1266.5928" y="-86.3" font-family="Times,serif" font-size="14.00" fill="#000000">SparseMatrix</text>
</g>
<!-- SparseMatrix&#45;&gt;MatrixContinuousSparse -->
<g id="edge27" class="edge">
<title>SparseMatrix&#45;&gt;MatrixContinuousSparse</title>
<path fill="none" stroke="#000000" d="M1251.0198,-72.2022C1243.5045,-63.6134 1234.3479,-53.1486 1226.0918,-43.7131"/>
<polygon fill="#000000" stroke="#000000" points="1228.6434,-41.3141 1219.4243,-36.0931 1223.3754,-45.9237 1228.6434,-41.3141"/>
</g>
<!-- List -->
<g id="node14" class="node">
<title>List</title>
<ellipse fill="none" stroke="#000000" cx="898.5928" cy="-162" rx="28.6953" ry="18"/>
<text text-anchor="middle" x="898.5928" y="-158.3" font-family="Times,serif" font-size="14.00" fill="#000000">List</text>
</g>
<!-- Tuple -->
<g id="node15" class="node">
<title>Tuple</title>
<ellipse fill="none" stroke="#000000" cx="982.5928" cy="-162" rx="37.0935" ry="18"/>
<text text-anchor="middle" x="982.5928" y="-158.3" font-family="Times,serif" font-size="14.00" fill="#000000">Tuple</text>
</g>
<!-- Matrix -->
<g id="node16" class="node">
<title>Matrix</title>
<ellipse fill="none" stroke="#000000" cx="1079.5928" cy="-162" rx="42.4939" ry="18"/>
<text text-anchor="middle" x="1079.5928" y="-158.3" font-family="Times,serif" font-size="14.00" fill="#000000">Matrix</text>
</g>
<!-- Matrix&#45;&gt;DenseMatrix -->
<g id="edge1" class="edge">
<title>Matrix&#45;&gt;DenseMatrix</title>
<path fill="none" stroke="#000000" d="M1048.3798,-149.7862C1019.7307,-138.5757 976.8468,-121.795 943.7977,-108.8628"/>
<polygon fill="#000000" stroke="#000000" points="944.9091,-105.5393 934.3213,-105.1546 942.3583,-112.058 944.9091,-105.5393"/>
</g>
<!-- Matrix&#45;&gt;MatrixContinuous -->
<g id="edge10" class="edge">
<title>Matrix&#45;&gt;MatrixContinuous</title>
<path fill="none" stroke="#000000" d="M1079.5928,-143.8314C1079.5928,-136.131 1079.5928,-126.9743 1079.5928,-118.4166"/>
<polygon fill="#000000" stroke="#000000" points="1083.0929,-118.4132 1079.5928,-108.4133 1076.0929,-118.4133 1083.0929,-118.4132"/>
</g>
<!-- Matrix&#45;&gt;SparseMatrix -->
<g id="edge13" class="edge">
<title>Matrix&#45;&gt;SparseMatrix</title>
<path fill="none" stroke="#000000" d="M1111.3148,-149.7862C1140.3362,-138.6122 1183.7303,-121.9043 1217.2735,-108.9893"/>
<polygon fill="#000000" stroke="#000000" points="1218.8211,-112.1439 1226.8956,-105.2845 1216.3058,-105.6114 1218.8211,-112.1439"/>
</g>
<!-- Category -->
<g id="node17" class="node">
<title>Category</title>
<ellipse fill="none" stroke="#000000" cx="1193.5928" cy="-162" rx="53.8905" ry="18"/>
<text text-anchor="middle" x="1193.5928" y="-158.3" font-family="Times,serif" font-size="14.00" fill="#000000">Category</text>
</g>
<!-- Chunktag -->
<g id="node18" class="node">
<title>Chunktag</title>
<ellipse fill="none" stroke="#000000" cx="1321.5928" cy="-162" rx="56.59" ry="18"/>
<text text-anchor="middle" x="1321.5928" y="-158.3" font-family="Times,serif" font-size="14.00" fill="#000000">Chunktag</text>
</g>
<!-- Sentence -->
<g id="node19" class="node">
<title>Sentence</title>
<ellipse fill="none" stroke="#000000" cx="1637.5928" cy="-90" rx="53.8905" ry="18"/>
<text text-anchor="middle" x="1637.5928" y="-86.3" font-family="Times,serif" font-size="14.00" fill="#000000">Sentence</text>
</g>
<!-- Synset -->
<g id="node20" class="node">
<title>Synset</title>
<ellipse fill="none" stroke="#000000" cx="1438.5928" cy="-162" rx="42.4939" ry="18"/>
<text text-anchor="middle" x="1438.5928" y="-158.3" font-family="Times,serif" font-size="14.00" fill="#000000">Synset</text>
</g>
<!-- Text -->
<g id="node23" class="node">
<title>Text</title>
<ellipse fill="none" stroke="#000000" cx="1529.5928" cy="-162" rx="31.3957" ry="18"/>
<text text-anchor="middle" x="1529.5928" y="-158.3" font-family="Times,serif" font-size="14.00" fill="#000000">Text</text>
</g>
<!-- Text&#45;&gt;Document -->
<g id="edge6" class="edge">
<title>Text&#45;&gt;Document</title>
<path fill="none" stroke="#000000" d="M1508.5265,-148.4574C1492.4438,-138.1185 1469.9607,-123.665 1451.3747,-111.7169"/>
<polygon fill="#000000" stroke="#000000" points="1453.1829,-108.7185 1442.8784,-106.255 1449.3975,-114.6068 1453.1829,-108.7185"/>
</g>
<!-- Text&#45;&gt;Word -->
<g id="edge8" class="edge">
<title>Text&#45;&gt;Word</title>
<path fill="none" stroke="#000000" d="M1529.5928,-143.8314C1529.5928,-136.131 1529.5928,-126.9743 1529.5928,-118.4166"/>
<polygon fill="#000000" stroke="#000000" points="1533.0929,-118.4132 1529.5928,-108.4133 1526.0929,-118.4133 1533.0929,-118.4132"/>
</g>
<!-- Text&#45;&gt;Sentence -->
<g id="edge19" class="edge">
<title>Text&#45;&gt;Sentence</title>
<path fill="none" stroke="#000000" d="M1550.161,-148.2879C1565.624,-137.9792 1587.1167,-123.6508 1604.9227,-111.7801"/>
<polygon fill="#000000" stroke="#000000" points="1606.946,-114.6378 1613.3251,-106.1785 1603.0631,-108.8134 1606.946,-114.6378"/>
</g>
<!-- DataType -->
<g id="node27" class="node">
<title>DataType</title>
<ellipse fill="none" stroke="#000000" cx="855.5928" cy="-234" rx="55.7903" ry="18"/>
<text text-anchor="middle" x="855.5928" y="-230.3" font-family="Times,serif" font-size="14.00" fill="#000000">DataType</text>
</g>
<!-- DataType&#45;&gt;Flags -->
<g id="edge2" class="edge">
<title>DataType&#45;&gt;Flags</title>
<path fill="none" stroke="#000000" d="M800.02,-231.3562C666.8484,-224.682 332.4836,-205.8261 223.5928,-180 220.9218,-179.3665 218.2007,-178.6021 215.4856,-177.7505"/>
<polygon fill="#000000" stroke="#000000" points="216.3755,-174.3541 205.7806,-174.3627 214.0684,-180.963 216.3755,-174.3541"/>
</g>
<!-- DataType&#45;&gt;Vector -->
<g id="edge3" class="edge">
<title>DataType&#45;&gt;Vector</title>
<path fill="none" stroke="#000000" d="M799.7307,-232.8016C702.0225,-229.7186 494.2412,-218.7621 323.5928,-180 320.354,-179.2643 317.0373,-178.3796 313.7288,-177.4023"/>
<polygon fill="#000000" stroke="#000000" points="314.5045,-173.9754 303.9132,-174.2491 312.3635,-180.6399 314.5045,-173.9754"/>
</g>
<!-- DataType&#45;&gt;Tensor3 -->
<g id="edge4" class="edge">
<title>DataType&#45;&gt;Tensor3</title>
<path fill="none" stroke="#000000" d="M800.9526,-230.0518C720.6118,-223.5475 566.2094,-208.3802 437.5928,-180 433.7689,-179.1562 429.8339,-178.1701 425.9036,-177.102"/>
<polygon fill="#000000" stroke="#000000" points="426.7874,-173.7143 416.2095,-174.3122 424.8514,-180.4413 426.7874,-173.7143"/>
</g>
<!-- DataType&#45;&gt;Postag -->
<g id="edge5" class="edge">
<title>DataType&#45;&gt;Postag</title>
<path fill="none" stroke="#000000" d="M803.0129,-227.7984C739.8254,-219.7091 630.8971,-203.7297 539.5928,-180 536.4122,-179.1734 533.148,-178.2363 529.8825,-177.2345"/>
<polygon fill="#000000" stroke="#000000" points="530.7565,-173.8385 520.1644,-174.0803 528.5954,-180.4965 530.7565,-173.8385"/>
</g>
<!-- DataType&#45;&gt;Stem -->
<g id="edge7" class="edge">
<title>DataType&#45;&gt;Stem</title>
<path fill="none" stroke="#000000" d="M807.4001,-224.861C760.8399,-215.5005 688.5988,-199.5713 627.5928,-180 625.0289,-179.1775 622.4038,-178.2722 619.7749,-177.3187"/>
<polygon fill="#000000" stroke="#000000" points="620.9305,-174.0136 610.3398,-173.7161 618.4334,-180.5531 620.9305,-174.0136"/>
</g>
<!-- DataType&#45;&gt;Sentiment -->
<g id="edge9" class="edge">
<title>DataType&#45;&gt;Sentiment</title>
<path fill="none" stroke="#000000" d="M822.8284,-219.256C798.4005,-208.2634 764.8182,-193.1514 738.2884,-181.213"/>
<polygon fill="#000000" stroke="#000000" points="739.4189,-177.8837 728.8634,-176.9717 736.5463,-184.2672 739.4189,-177.8837"/>
</g>
<!-- DataType&#45;&gt;Entity -->
<g id="edge11" class="edge">
<title>DataType&#45;&gt;Entity</title>
<path fill="none" stroke="#000000" d="M844.9636,-216.2022C839.9647,-207.832 833.9018,-197.6802 828.3808,-188.4356"/>
<polygon fill="#000000" stroke="#000000" points="831.2322,-186.3839 823.0998,-179.593 825.2223,-189.9731 831.2322,-186.3839"/>
</g>
<!-- DataType&#45;&gt;List -->
<g id="edge14" class="edge">
<title>DataType&#45;&gt;List</title>
<path fill="none" stroke="#000000" d="M866.2221,-216.2022C871.3484,-207.6186 877.5937,-197.1613 883.2262,-187.7303"/>
<polygon fill="#000000" stroke="#000000" points="886.2595,-189.4773 888.382,-179.0972 880.2496,-185.8881 886.2595,-189.4773"/>
</g>
<!-- DataType&#45;&gt;Tuple -->
<g id="edge15" class="edge">
<title>DataType&#45;&gt;Tuple</title>
<path fill="none" stroke="#000000" d="M883.4635,-218.1993C902.9265,-207.1652 928.992,-192.3879 949.5101,-180.7556"/>
<polygon fill="#000000" stroke="#000000" points="951.2421,-183.7971 958.2152,-175.8204 947.7898,-177.7076 951.2421,-183.7971"/>
</g>
<!-- DataType&#45;&gt;Matrix -->
<g id="edge16" class="edge">
<title>DataType&#45;&gt;Matrix</title>
<path fill="none" stroke="#000000" d="M896.6254,-221.6564C931.7647,-210.9748 983.6574,-194.9372 1028.5928,-180 1031.5276,-179.0244 1034.5514,-178.0019 1037.5928,-176.9607"/>
<polygon fill="#000000" stroke="#000000" points="1038.9752,-180.186 1047.2791,-173.6061 1036.6843,-173.5715 1038.9752,-180.186"/>
</g>
<!-- DataType&#45;&gt;Category -->
<g id="edge17" class="edge">
<title>DataType&#45;&gt;Category</title>
<path fill="none" stroke="#000000" d="M905.0444,-225.5875C960.3054,-215.8861 1052.303,-198.8354 1130.5928,-180 1134.8767,-178.9694 1139.3065,-177.8385 1143.74,-176.6614"/>
<polygon fill="#000000" stroke="#000000" points="1144.6677,-180.0363 1153.3965,-174.0315 1142.8282,-173.2823 1144.6677,-180.0363"/>
</g>
<!-- DataType&#45;&gt;Chunktag -->
<g id="edge18" class="edge">
<title>DataType&#45;&gt;Chunktag</title>
<path fill="none" stroke="#000000" d="M909.4948,-229.0982C986.8486,-221.5315 1133.5805,-205.1928 1256.5928,-180 1261.0362,-179.09 1265.623,-178.0433 1270.2082,-176.9221"/>
<polygon fill="#000000" stroke="#000000" points="1271.3644,-180.2392 1280.1868,-174.3727 1269.6317,-173.457 1271.3644,-180.2392"/>
</g>
<!-- DataType&#45;&gt;Synset -->
<g id="edge20" class="edge">
<title>DataType&#45;&gt;Synset</title>
<path fill="none" stroke="#000000" d="M911.4299,-232.6901C1009.0997,-229.4367 1216.824,-218.2276 1387.5928,-180 1390.9473,-179.2491 1394.3852,-178.3449 1397.8143,-177.3465"/>
<polygon fill="#000000" stroke="#000000" points="1398.8921,-180.6766 1407.3777,-174.3328 1396.7881,-174.0003 1398.8921,-180.6766"/>
</g>
<!-- DataType&#45;&gt;Text -->
<g id="edge24" class="edge">
<title>DataType&#45;&gt;Text</title>
<path fill="none" stroke="#000000" d="M911.4144,-231.6585C1045.1702,-225.6602 1380.9292,-208.1995 1489.5928,-180 1491.894,-179.4028 1494.2287,-178.6836 1496.5547,-177.881"/>
<polygon fill="#000000" stroke="#000000" points="1497.915,-181.1073 1505.9582,-174.2111 1495.37,-174.5863 1497.915,-181.1073"/>
</g>
</g>
</svg>
