<?xml version="1.0" encoding="UTF-8" standalone="no"?>
<!-- Created with Inkscape (http://www.inkscape.org/) -->

<svg
   xmlns:dc="http://purl.org/dc/elements/1.1/"
   xmlns:cc="http://creativecommons.org/ns#"
   xmlns:rdf="http://www.w3.org/1999/02/22-rdf-syntax-ns#"
   xmlns:svg="http://www.w3.org/2000/svg"
   xmlns="http://www.w3.org/2000/svg"
   xmlns:sodipodi="http://sodipodi.sourceforge.net/DTD/sodipodi-0.dtd"
   xmlns:inkscape="http://www.inkscape.org/namespaces/inkscape"
   width="3854.9539"
   height="973.39185"
   viewBox="0 0 1019.9565 257.54326"
   version="1.1"
   id="svg8"
   inkscape:version="0.92.4 (5da689c313, 2019-01-14)"
   sodipodi:docname="autogoal-logo-project.svg"
   inkscape:export-filename="/home/apiad/Projects/autogoal/docs/autogoal-banner.png"
   inkscape:export-xdpi="98.624199"
   inkscape:export-ydpi="98.624199">
  <defs
     id="defs2">
    <inkscape:path-effect
       effect="simplify"
       id="path-effect1341"
       is_visible="true"
       steps="1"
       threshold="0.00980583"
       smooth_angles="360"
       helper_size="0"
       simplify_individual_paths="false"
       simplify_just_coalesce="false"
       simplifyindividualpaths="false"
       simplifyJustCoalesce="false" />
    <inkscape:path-effect
       effect="simplify"
       id="path-effect1337"
       is_visible="true"
       steps="1"
       threshold="0.00980583"
       smooth_angles="360"
       helper_size="0"
       simplify_individual_paths="false"
       simplify_just_coalesce="false"
       simplifyindividualpaths="false"
       simplifyJustCoalesce="false" />
    <inkscape:path-effect
       effect="simplify"
       id="path-effect1328"
       is_visible="true"
       steps="1"
       threshold="0.00980583"
       smooth_angles="360"
       helper_size="0"
       simplify_individual_paths="false"
       simplify_just_coalesce="false"
       simplifyindividualpaths="false"
       simplifyJustCoalesce="false" />
    <inkscape:path-effect
       effect="simplify"
       id="path-effect1320"
       is_visible="true"
       steps="1"
       threshold="0.00980583"
       smooth_angles="360"
       helper_size="0"
       simplify_individual_paths="false"
       simplify_just_coalesce="false"
       simplifyindividualpaths="false"
       simplifyJustCoalesce="false" />
    <inkscape:path-effect
       effect="simplify"
       id="path-effect1316"
       is_visible="true"
       steps="1"
       threshold="0.00980583"
       smooth_angles="360"
       helper_size="0"
       simplify_individual_paths="false"
       simplify_just_coalesce="false"
       simplifyindividualpaths="false"
       simplifyJustCoalesce="false" />
    <inkscape:path-effect
       effect="simplify"
       id="path-effect1312"
       is_visible="true"
       steps="1"
       threshold="0.00980583"
       smooth_angles="360"
       helper_size="0"
       simplify_individual_paths="false"
       simplify_just_coalesce="false"
       simplifyindividualpaths="false"
       simplifyJustCoalesce="false" />
    <inkscape:path-effect
       effect="simplify"
       id="path-effect1246"
       is_visible="true"
       steps="1"
       threshold="0.00980583"
       smooth_angles="360"
       helper_size="0"
       simplify_individual_paths="false"
       simplify_just_coalesce="false"
       simplifyindividualpaths="false"
       simplifyJustCoalesce="false" />
    <inkscape:path-effect
       effect="simplify"
       id="path-effect1242"
       is_visible="true"
       steps="1"
       threshold="0.00980583"
       smooth_angles="360"
       helper_size="0"
       simplify_individual_paths="false"
       simplify_just_coalesce="false"
       simplifyindividualpaths="false"
       simplifyJustCoalesce="false" />
    <inkscape:path-effect
       effect="simplify"
       id="path-effect1238"
       is_visible="true"
       steps="1"
       threshold="0.00980583"
       smooth_angles="360"
       helper_size="0"
       simplify_individual_paths="false"
       simplify_just_coalesce="false"
       simplifyindividualpaths="false"
       simplifyJustCoalesce="false" />
    <inkscape:path-effect
       effect="simplify"
       id="path-effect1234"
       is_visible="true"
       steps="1"
       threshold="0.00980583"
       smooth_angles="360"
       helper_size="0"
       simplify_individual_paths="false"
       simplify_just_coalesce="false"
       simplifyindividualpaths="false"
       simplifyJustCoalesce="false" />
    <inkscape:path-effect
       effect="simplify"
       id="path-effect1230"
       is_visible="true"
       steps="1"
       threshold="0.00980583"
       smooth_angles="360"
       helper_size="0"
       simplify_individual_paths="false"
       simplify_just_coalesce="false"
       simplifyindividualpaths="false"
       simplifyJustCoalesce="false" />
    <inkscape:perspective
       sodipodi:type="inkscape:persp3d"
       inkscape:vp_x="-169.33329 : 31.750002 : 0"
       inkscape:vp_y="6.1232327e-14 : 999.99994 : 0"
       inkscape:vp_z="428.6248 : 131.53571 : 1"
       inkscape:persp3d-origin="169.3333 : 63.499998 : 1"
       id="perspective938" />
    <inkscape:path-effect
       effect="simplify"
       id="path-effect936"
       is_visible="true"
       steps="1"
       threshold="0.00980583"
       smooth_angles="360"
       helper_size="0"
       simplify_individual_paths="false"
       simplify_just_coalesce="false"
       simplifyindividualpaths="false"
       simplifyJustCoalesce="false" />
    <inkscape:path-effect
       effect="simplify"
       id="path-effect932"
       is_visible="true"
       steps="1"
       threshold="0.00980583"
       smooth_angles="360"
       helper_size="0"
       simplify_individual_paths="false"
       simplify_just_coalesce="false"
       simplifyindividualpaths="false"
       simplifyJustCoalesce="false" />
    <inkscape:path-effect
       simplifyJustCoalesce="false"
       simplifyindividualpaths="false"
       simplify_just_coalesce="false"
       simplify_individual_paths="false"
       helper_size="0"
       smooth_angles="360"
       threshold="0.00980583"
       steps="1"
       is_visible="true"
       id="path-effect836"
       effect="simplify" />
    <inkscape:path-effect
       simplifyJustCoalesce="false"
       simplifyindividualpaths="false"
       simplify_just_coalesce="false"
       simplify_individual_paths="false"
       helper_size="0"
       smooth_angles="360"
       threshold="0.00980583"
       steps="1"
       is_visible="true"
       id="path-effect836-6"
       effect="simplify" />
    <inkscape:path-effect
       simplifyJustCoalesce="false"
       simplifyindividualpaths="false"
       simplify_just_coalesce="false"
       simplify_individual_paths="false"
       helper_size="0"
       smooth_angles="360"
       threshold="0.00980583"
       steps="1"
       is_visible="true"
       id="path-effect836-3"
       effect="simplify" />
    <inkscape:path-effect
       simplifyJustCoalesce="false"
       simplifyindividualpaths="false"
       simplify_just_coalesce="false"
       simplify_individual_paths="false"
       helper_size="0"
       smooth_angles="360"
       threshold="0.00980583"
       steps="1"
       is_visible="true"
       id="path-effect836-6-6"
       effect="simplify" />
    <inkscape:path-effect
       simplifyJustCoalesce="false"
       simplifyindividualpaths="false"
       simplify_just_coalesce="false"
       simplify_individual_paths="false"
       helper_size="0"
       smooth_angles="360"
       threshold="0.00980583"
       steps="1"
       is_visible="true"
       id="path-effect836-6-3"
       effect="simplify" />
    <inkscape:path-effect
       simplifyJustCoalesce="false"
       simplifyindividualpaths="false"
       simplify_just_coalesce="false"
       simplify_individual_paths="false"
       helper_size="0"
       smooth_angles="360"
       threshold="0.00980583"
       steps="1"
       is_visible="true"
       id="path-effect836-67"
       effect="simplify" />
    <inkscape:path-effect
       simplifyJustCoalesce="false"
       simplifyindividualpaths="false"
       simplify_just_coalesce="false"
       simplify_individual_paths="false"
       helper_size="0"
       smooth_angles="360"
       threshold="0.00980583"
       steps="1"
       is_visible="true"
       id="path-effect836-67-9"
       effect="simplify" />
    <inkscape:path-effect
       simplifyJustCoalesce="false"
       simplifyindividualpaths="false"
       simplify_just_coalesce="false"
       simplify_individual_paths="false"
       helper_size="0"
       smooth_angles="360"
       threshold="0.00980583"
       steps="1"
       is_visible="true"
       id="path-effect836-6-3-3"
       effect="simplify" />
    <inkscape:path-effect
       effect="simplify"
       id="path-effect1230-7"
       is_visible="true"
       steps="1"
       threshold="0.00980583"
       smooth_angles="360"
       helper_size="0"
       simplify_individual_paths="false"
       simplify_just_coalesce="false"
       simplifyindividualpaths="false"
       simplifyJustCoalesce="false" />
    <inkscape:path-effect
       effect="simplify"
       id="path-effect1234-3"
       is_visible="true"
       steps="1"
       threshold="0.00980583"
       smooth_angles="360"
       helper_size="0"
       simplify_individual_paths="false"
       simplify_just_coalesce="false"
       simplifyindividualpaths="false"
       simplifyJustCoalesce="false" />
    <inkscape:path-effect
       effect="simplify"
       id="path-effect1238-6"
       is_visible="true"
       steps="1"
       threshold="0.00980583"
       smooth_angles="360"
       helper_size="0"
       simplify_individual_paths="false"
       simplify_just_coalesce="false"
       simplifyindividualpaths="false"
       simplifyJustCoalesce="false" />
    <inkscape:path-effect
       effect="simplify"
       id="path-effect1242-1"
       is_visible="true"
       steps="1"
       threshold="0.00980583"
       smooth_angles="360"
       helper_size="0"
       simplify_individual_paths="false"
       simplify_just_coalesce="false"
       simplifyindividualpaths="false"
       simplifyJustCoalesce="false" />
    <inkscape:path-effect
       effect="simplify"
       id="path-effect1246-2"
       is_visible="true"
       steps="1"
       threshold="0.00980583"
       smooth_angles="360"
       helper_size="0"
       simplify_individual_paths="false"
       simplify_just_coalesce="false"
       simplifyindividualpaths="false"
       simplifyJustCoalesce="false" />
    <inkscape:path-effect
       effect="simplify"
       id="path-effect1246-2-9"
       is_visible="true"
       steps="1"
       threshold="0.00980583"
       smooth_angles="360"
       helper_size="0"
       simplify_individual_paths="false"
       simplify_just_coalesce="false"
       simplifyindividualpaths="false"
       simplifyJustCoalesce="false" />
  </defs>
  <sodipodi:namedview
     id="base"
     pagecolor="#ffffff"
     bordercolor="#666666"
     borderopacity="1.0"
     inkscape:pageopacity="0.0"
     inkscape:pageshadow="2"
     inkscape:zoom="0.175"
     inkscape:cx="2576.997"
     inkscape:cy="-139.13868"
     inkscape:document-units="mm"
     inkscape:current-layer="text1198-5-5"
     showgrid="false"
     inkscape:window-width="1920"
     inkscape:window-height="1015"
     inkscape:window-x="0"
     inkscape:window-y="0"
     inkscape:window-maximized="1"
     fit-margin-top="25"
     fit-margin-left="25"
     fit-margin-right="25"
     fit-margin-bottom="25"
     inkscape:lockguides="true"
     units="px" />
  <metadata
     id="metadata5">
    <rdf:RDF>
      <cc:Work
         rdf:about="">
        <dc:format>image/svg+xml</dc:format>
        <dc:type
           rdf:resource="http://purl.org/dc/dcmitype/StillImage" />
        <dc:title></dc:title>
      </cc:Work>
    </rdf:RDF>
  </metadata>
  <g
     inkscape:label="Layer 1"
     inkscape:groupmode="layer"
     id="layer1"
     transform="translate(152.45519,1497.4031)"
     style="display:inline">
    <g
       aria-label="AutoGOAL"
       style="font-style:normal;font-weight:normal;font-size:151.26686096px;line-height:1.25;font-family:sans-serif;letter-spacing:0px;word-spacing:0px;fill:#ff6151;fill-opacity:1;stroke:none;stroke-width:3.78167129"
       id="text1198-5-5">
      <path
         d="m 127.66729,-1357.4485 36.44108,-80.6932 48.93483,107.8479 h -16.03428 l -33.27871,-82.7456 -19.51343,43.87 h 30.6744 l 4.65573,11.7209 m -41.48913,5.4621 -7.60628,21.6926 h -15.27796 l 10.46289,-21.6926"
         style="font-style:normal;font-variant:normal;font-weight:normal;font-stretch:normal;font-family:Ubuntu;-inkscape-font-specification:Ubuntu;fill:#ff6151;fill-opacity:1;stroke-width:3.78167129"
         id="path848"
         inkscape:connector-curvature="0"
         sodipodi:nodetypes="cccccccccccc" />
      <path
         d="m 286.4809,-1332.5628 q -4.84054,1.2101 -12.85768,2.5715 -7.86588,1.3614 -18.30329,1.3614 -9.07601,0 -15.27795,-2.5715 -6.20194,-2.7228 -9.98362,-7.5634 -3.78167,-4.8405 -5.4456,-11.345 -1.66394,-6.6557 -1.66394,-14.6729 v -44.1699 h 14.06782 v 41.1446 q 0,14.3703 4.53801,20.5723 4.538,6.2019 15.27795,6.2019 2.269,0 4.68927,-0.1512 2.42027,-0.1513 4.53801,-0.3026 2.11773,-0.3025 3.78167,-0.4538 1.8152,-0.3025 2.57153,-0.605 v -66.4062 h 14.06782 z"
         style="font-style:normal;font-variant:normal;font-weight:normal;font-stretch:normal;font-family:Ubuntu;-inkscape-font-specification:Ubuntu;fill:#ff6151;fill-opacity:1;stroke-width:3.78167129"
         id="path850"
         inkscape:connector-curvature="0" />
      <path
         d="m 327.77707,-1408.9526 h 25.89941 v 11.7988 h -25.89941 m -3.90016,36.3041 c 0,3.9329 0.30253,7.2104 0.9076,9.8323 0.60507,2.5211 1.51267,4.538 2.7228,6.0507 1.21013,1.4118 2.7228,2.4202 4.53801,3.0253 1.8152,0.6051 3.93294,0.9076 6.35321,0.9076 4.23547,0 7.61376,-0.4538 10.13488,-1.3614 2.62195,-1.0084 4.43715,-1.7143 5.4456,-2.1177 l 2.72281,11.6475 c -1.41183,0.7059 -3.88252,1.5631 -7.41208,2.5716 -3.52956,1.1093 -7.56334,1.6639 -12.10135,1.6639 -5.34476,0 -9.78192,-0.6555 -13.31148,-1.9665 -3.42872,-1.4118 -6.20195,-3.4791 -8.31968,-6.2019 -2.11773,-2.7228 -3.6304,-6.0507 -4.53801,-9.9836 -0.80675,-4.0338 -1.21013,-8.6727 -1.21013,-13.9166 v -70.1878 l 14.06782,-2.4203"
         style="font-style:normal;font-variant:normal;font-weight:normal;font-stretch:normal;font-family:Ubuntu;-inkscape-font-specification:Ubuntu;fill:#ff6151;fill-opacity:1;stroke-width:3.78167129"
         id="path852"
         inkscape:connector-curvature="0"
         sodipodi:nodetypes="ccccccccsccccscscscc" />
      <path
         d="m 438.94135,-1369.6232 q 0,9.3785 -2.72281,16.9419 -2.7228,7.5633 -7.71461,13.0089 -4.84054,5.4456 -11.64755,8.471 -6.807,2.874 -14.82415,2.874 -8.01714,0 -14.82415,-2.874 -6.80701,-3.0254 -11.79882,-8.471 -4.84053,-5.4456 -7.56334,-13.0089 -2.7228,-7.5634 -2.7228,-16.9419 0,-9.2273 2.7228,-16.7906 2.72281,-7.7146 7.56334,-13.1602 4.99181,-5.4457 11.79882,-8.3197 6.80701,-3.0254 14.82415,-3.0254 8.01715,0 14.82415,3.0254 6.80701,2.874 11.64755,8.3197 4.99181,5.4456 7.71461,13.1602 2.72281,7.5633 2.72281,16.7906 z m -14.67289,0 q 0,-13.3115 -6.05067,-21.0261 -5.89941,-7.8659 -16.18556,-7.8659 -10.28614,0 -16.33682,7.8659 -5.89941,7.7146 -5.89941,21.0261 0,13.3115 5.89941,21.1774 6.05068,7.7146 16.33682,7.7146 10.28615,0 16.18556,-7.7146 6.05067,-7.8659 6.05067,-21.1774 z"
         style="font-style:normal;font-variant:normal;font-weight:normal;font-stretch:normal;font-family:Ubuntu;-inkscape-font-specification:Ubuntu;fill:#ff6151;fill-opacity:1;stroke-width:3.78167129"
         id="path854"
         inkscape:connector-curvature="0" />
      <path
         d="m 513.65411,-1417.12 c -11.32292,0 -19.52944,3.226 -24.61956,9.3775 -4.98624,6.0507 -7.47936,14.3704 -7.47936,24.9591 0,5.1431 0.62328,9.8323 1.86984,14.0678 1.24655,4.1346 3.1164,7.7146 5.60952,10.7399 2.49312,3.0253 5.60951,5.3952 9.3492,7.1096 3.73968,1.6135 8.10385,3.3614 13.08888,3.2514 h 17.03466 v -25.4239 h -38.3998 c -2.46629,-0.7997 -2.31709,-16.7185 0.0346,-18.3867 h 56.35262 v 62.4656 h -37.80839 c -7.0858,0 -14.08251,-1.1164 -20.89837,-2.9981 -6.54444,-2.4203 -12.15395,-5.9498 -16.82855,-10.5886 -4.67461,-4.6389 -8.31041,-10.3366 -10.9074,-17.0932 -2.49312,-6.7566 -3.73968,-14.4712 -3.73968,-23.1438 0,-8.7735 1.40238,-16.5385 4.20713,-23.2951 2.80477,-6.7566 6.64833,-12.4543 11.53069,-17.0932 4.88235,-4.7397 10.59575,-8.3196 17.14019,-10.7399 6.64832,-2.4203 13.54513,-3.4333 21.19153,-3.2328 h 36.11285 v 38.7491 h -17.98742 v -18.7247 h -14.8532 z"
         style="font-style:normal;font-variant:normal;font-weight:bold;font-stretch:normal;font-family:Ubuntu;-inkscape-font-specification:'Ubuntu Bold';stroke-width:3.83816361"
         id="path856"
         inkscape:connector-curvature="0"
         sodipodi:nodetypes="ccsccccccccccscccssccccccccc" />
      <path
         d="m 585.67206,-1382.7834 q 0,7.7146 1.8152,13.9165 1.96647,6.202 5.44561,10.74 3.6304,4.3867 8.77348,6.807 5.14307,2.4203 11.79881,2.4203 6.50448,0 11.64755,-2.4203 5.29434,-2.4203 8.77348,-6.807 3.6304,-4.538 5.4456,-10.74 1.96647,-6.2019 1.96647,-13.9165 0,-7.7146 -1.96647,-13.9166 -1.8152,-6.3532 -5.4456,-10.7399 -3.47914,-4.538 -8.77348,-6.9583 -5.14307,-2.4203 -11.64755,-2.4203 -6.65574,0 -11.79881,2.5716 -5.14308,2.4202 -8.77348,6.9582 -3.47914,4.3868 -5.44561,10.74 -1.8152,6.2019 -1.8152,13.7653 z m 80.02017,0 q 0,13.4627 -4.08421,23.7489 -3.93294,10.1349 -10.89121,17.0931 -6.95828,6.807 -16.63936,10.2862 -9.52981,3.4791 -20.57229,3.4791 -10.73995,0 -20.26976,-3.4791 -9.52981,-3.4792 -16.63935,-10.2862 -7.10955,-6.9582 -11.19375,-17.0931 -4.08421,-10.2862 -4.08421,-23.7489 0,-13.4628 4.23548,-23.5977 4.23547,-10.2861 11.34501,-17.2444 7.26081,-6.9583 16.63936,-10.4374 9.52981,-3.4791 19.96722,-3.4791 10.73995,0 20.26976,3.4791 9.52981,3.4791 16.63936,10.4374 7.10954,6.9583 11.19374,17.2444 4.08421,10.1349 4.08421,23.5977 z"
         style="font-style:normal;font-variant:normal;font-weight:bold;font-stretch:normal;font-family:Ubuntu;-inkscape-font-specification:'Ubuntu Bold'"
         id="path858"
         inkscape:connector-curvature="0" />
      <path
         style="font-style:normal;font-variant:normal;font-weight:bold;font-stretch:normal;font-family:Ubuntu;-inkscape-font-specification:'Ubuntu Bold';stroke-width:14.2929306"
         d="m 4481.377,210.54883 -161.254,366.21289 h 213.7344 l -25.0722,-71.18945 h -83.7735 l 56.0274,-139.79102 106.9121,296.44141 h 95.4765 z"
         id="path860"
         inkscape:connector-curvature="0"
         transform="matrix(0.26458333,0,0,0.26458333,-463.39141,-1505.5067)"
         sodipodi:nodetypes="ccccccccc" />
      <path
         d="m 859.37109,-1350.5636 v 20.2698 h -70.03656 v -104.828 h 23.59763 v 84.5582 z"
         style="font-style:normal;font-variant:normal;font-weight:bold;font-stretch:normal;font-family:Ubuntu;-inkscape-font-specification:'Ubuntu Bold'"
         id="path862"
         inkscape:connector-curvature="0" />
      <path
         style="font-style:normal;font-variant:normal;font-weight:bold;font-stretch:normal;font-size:151.26686096px;line-height:1.25;font-family:Ubuntu;-inkscape-font-specification:'Ubuntu Bold';letter-spacing:0px;word-spacing:0px;display:inline;fill:#ff6151;fill-opacity:1;stroke:none;stroke-width:3.78167129"
         d="m 677.52445,-1348.0641 -7.79745,17.7705 h 24.50549 l 5.54434,-17.7705 z"
         id="path860-0"
         inkscape:connector-curvature="0"
         sodipodi:nodetypes="ccccc" />
    </g>
    <text
       xml:space="preserve"
       style="font-style:normal;font-weight:normal;font-size:29.36305809px;line-height:1.25;font-family:sans-serif;letter-spacing:0px;word-spacing:0px;fill:#7e251b;fill-opacity:1;stroke:none;stroke-width:0.73407644"
       x="110.7538"
       y="-1293.3751"
       id="text1208-3-4"><tspan
         sodipodi:role="line"
         id="tspan1206-7-4"
         x="110.7538"
         y="-1293.3751"
         style="font-style:normal;font-variant:normal;font-weight:normal;font-stretch:normal;font-family:Ubuntu;-inkscape-font-specification:Ubuntu;fill:#7e251b;fill-opacity:1;stroke-width:0.73407644">Automatic Generation, Optimization &amp; Artificial Learning</tspan></text>
  </g>
  <g
     inkscape:groupmode="layer"
     id="layer2"
     inkscape:label="Layer 2"
     transform="translate(152.45519,1497.4031)"
     style="display:inline">
    <circle
       transform="translate(-1.2500002e-6,9.7916663e-6)"
       style="display:inline;opacity:1;fill:#ff6151;fill-opacity:1;fill-rule:evenodd;stroke:none;stroke-width:0.30130664;stroke-linecap:round;stroke-miterlimit:4;stroke-dasharray:none;stroke-opacity:1"
       id="path815-9-1-4"
       cx="-323.90897"
       cy="-1366.0243"
       r="132.86786"
       inkscape:export-xdpi="95.583687"
       inkscape:export-ydpi="95.583687" />
    <path
       transform="translate(-1.2500002e-6,9.7916663e-6)"
       style="color:#000000;font-style:normal;font-variant:normal;font-weight:normal;font-stretch:normal;font-size:medium;line-height:normal;font-family:sans-serif;font-variant-ligatures:normal;font-variant-position:normal;font-variant-caps:normal;font-variant-numeric:normal;font-variant-alternates:normal;font-feature-settings:normal;text-indent:0;text-align:start;text-decoration:none;text-decoration-line:none;text-decoration-style:solid;text-decoration-color:#000000;letter-spacing:normal;word-spacing:normal;text-transform:none;writing-mode:lr-tb;direction:ltr;text-orientation:mixed;dominant-baseline:auto;baseline-shift:baseline;text-anchor:start;white-space:normal;shape-padding:0;clip-rule:nonzero;display:inline;overflow:visible;visibility:visible;opacity:1;isolation:auto;mix-blend-mode:normal;color-interpolation:sRGB;color-interpolation-filters:linearRGB;solid-color:#000000;solid-opacity:1;vector-effect:none;fill:#ff6151;fill-opacity:1;fill-rule:nonzero;stroke:none;stroke-width:22.23457336;stroke-linecap:butt;stroke-linejoin:miter;stroke-miterlimit:4;stroke-dasharray:none;stroke-dashoffset:0;stroke-opacity:1;color-rendering:auto;image-rendering:auto;shape-rendering:auto;text-rendering:auto;enable-background:accumulate"
       d="m -36.854047,-1490.7885 -83.627763,132.8977 h 65.875363 v -22.3391 h -26.09 l 32.5374,-52.5403 v 186.2958 h 22.2335 v -51.4254 l 99.9772,-18.9306 -40.37,-63.3995 h -53.80615 v 22.3391 h 43.01265 l 17.9304,26.8193 -66.7441,10.5344 v -112.2331 l 27.2290972,45.6119 H 29.320453 Z m -87.703563,139.9631 -21.283,33.8466 26.8947,5.2557 23.183535,-39.1023 z"
       id="path1343-3-7-5"
       inkscape:connector-curvature="0"
       sodipodi:nodetypes="ccccccccccccccccccccccccc"
       inkscape:export-filename="/home/apiad/ag-blueprint.png"
       inkscape:export-xdpi="96"
       inkscape:export-ydpi="96" />
    <path
       transform="translate(-1.2500002e-6,9.7916663e-6)"
       style="color:#000000;font-style:normal;font-variant:normal;font-weight:normal;font-stretch:normal;font-size:medium;line-height:normal;font-family:sans-serif;font-variant-ligatures:normal;font-variant-position:normal;font-variant-caps:normal;font-variant-numeric:normal;font-variant-alternates:normal;font-feature-settings:normal;text-indent:0;text-align:start;text-decoration:none;text-decoration-line:none;text-decoration-style:solid;text-decoration-color:#000000;letter-spacing:normal;word-spacing:normal;text-transform:none;writing-mode:lr-tb;direction:ltr;text-orientation:mixed;dominant-baseline:auto;baseline-shift:baseline;text-anchor:start;white-space:normal;shape-padding:0;clip-rule:nonzero;display:inline;overflow:visible;visibility:visible;opacity:1;isolation:auto;mix-blend-mode:normal;color-interpolation:sRGB;color-interpolation-filters:linearRGB;solid-color:#000000;solid-opacity:1;vector-effect:none;fill:#ffffff;fill-opacity:1;fill-rule:nonzero;stroke:none;stroke-width:22.23457336;stroke-linecap:butt;stroke-linejoin:miter;stroke-miterlimit:4;stroke-dasharray:none;stroke-dashoffset:0;stroke-opacity:1;color-rendering:auto;image-rendering:auto;shape-rendering:auto;text-rendering:auto;enable-background:accumulate"
       d="m -323.01105,-1490.5895 -83.62778,132.8977 h 65.87539 v -22.3391 h -26.09001 l 32.5374,-52.5403 v 186.2958 h 22.23351 v -51.4254 l 99.9772,-18.9306 -40.37,-63.3995 h -53.80615 v 22.3391 h 43.01265 l 17.9304,26.8193 -66.7441,10.5344 v -112.2331 l 27.22909,45.6119 h 28.01691 z m -87.70358,139.9631 -21.283,33.8466 26.8947,5.2557 23.18355,-39.1023 z"
       id="path1343-3-7-5-3"
       inkscape:connector-curvature="0"
       sodipodi:nodetypes="ccccccccccccccccccccccccc"
       inkscape:export-filename="/home/apiad/ag-blueprint.png"
       inkscape:export-xdpi="95.583687"
       inkscape:export-ydpi="95.583687" />
  </g>
</svg>
