<?xml version="1.0" encoding="UTF-8" standalone="no"?>
<!DOCTYPE svg PUBLIC "-//W3C//DTD SVG 1.1//EN"
 "http://www.w3.org/Graphics/SVG/1.1/DTD/svg11.dtd">
<!-- Generated by graphviz version 2.40.1 (20161225.0304)
 -->
<!-- Title: G Pages: 1 -->
<svg width="1458pt" height="404pt"
 viewBox="0.00 0.00 1458.14 404.00" xmlns="http://www.w3.org/2000/svg" xmlns:xlink="http://www.w3.org/1999/xlink">
<g id="graph0" class="graph" transform="scale(1 1) rotate(0) translate(4 400)">
<title>G</title>
<polygon fill="#ffffff" stroke="transparent" points="-4,4 -4,-400 1454.1367,-400 1454.1367,4 -4,4"/>
<!-- Chunktag -->
<g id="node1" class="node">
<title>Chunktag</title>
<ellipse fill="none" stroke="#000000" cx="145.1915" cy="-234" rx="56.59" ry="18"/>
<text text-anchor="middle" x="145.1915" y="-230.3" font-family="Times,serif" font-size="14.00" fill="#000000">Chunktag</text>
</g>
<!-- ColorImage -->
<g id="node2" class="node">
<title>ColorImage</title>
<ellipse fill="none" stroke="#000000" cx="664.1915" cy="-162" rx="65.7887" ry="18"/>
<text text-anchor="middle" x="664.1915" y="-158.3" font-family="Times,serif" font-size="14.00" fill="#000000">ColorImage</text>
</g>
<!-- Document -->
<g id="node3" class="node">
<title>Document</title>
<ellipse fill="none" stroke="#000000" cx="1240.1915" cy="-234" rx="58.4896" ry="18"/>
<text text-anchor="middle" x="1240.1915" y="-230.3" font-family="Times,serif" font-size="14.00" fill="#000000">Document</text>
</g>
<!-- Sentence -->
<g id="node15" class="node">
<title>Sentence</title>
<ellipse fill="none" stroke="#000000" cx="1396.1915" cy="-162" rx="53.8905" ry="18"/>
<text text-anchor="middle" x="1396.1915" y="-158.3" font-family="Times,serif" font-size="14.00" fill="#000000">Sentence</text>
</g>
<!-- Document&#45;&gt;Sentence -->
<g id="edge14" class="edge">
<title>Document&#45;&gt;Sentence</title>
<path fill="none" stroke="#000000" d="M1272.8942,-218.9064C1296.8454,-207.852 1329.5169,-192.7729 1355.2108,-180.9141"/>
<polygon fill="#000000" stroke="#000000" points="1356.7194,-184.0728 1364.3323,-176.7043 1353.7859,-177.717 1356.7194,-184.0728"/>
</g>
<!-- FeatureSet -->
<g id="node4" class="node">
<title>FeatureSet</title>
<ellipse fill="none" stroke="#000000" cx="264.1915" cy="-306" rx="62.2891" ry="18"/>
<text text-anchor="middle" x="264.1915" y="-302.3" font-family="Times,serif" font-size="14.00" fill="#000000">FeatureSet</text>
</g>
<!-- Label -->
<g id="node5" class="node">
<title>Label</title>
<ellipse fill="none" stroke="#000000" cx="381.1915" cy="-306" rx="36.2938" ry="18"/>
<text text-anchor="middle" x="381.1915" y="-302.3" font-family="Times,serif" font-size="14.00" fill="#000000">Label</text>
</g>
<!-- Label&#45;&gt;Chunktag -->
<g id="edge1" class="edge">
<title>Label&#45;&gt;Chunktag</title>
<path fill="none" stroke="#000000" d="M353.1293,-294.5257C347.2415,-292.2575 341.0429,-289.9713 335.1915,-288 309.8577,-279.4653 244.9087,-261.2971 197.9943,-248.3951"/>
<polygon fill="#000000" stroke="#000000" points="198.8476,-244.9999 188.2778,-245.7273 196.9942,-251.7501 198.8476,-244.9999"/>
</g>
<!-- Postag -->
<g id="node13" class="node">
<title>Postag</title>
<ellipse fill="none" stroke="#000000" cx="262.1915" cy="-234" rx="42.4939" ry="18"/>
<text text-anchor="middle" x="262.1915" y="-230.3" font-family="Times,serif" font-size="14.00" fill="#000000">Postag</text>
</g>
<!-- Label&#45;&gt;Postag -->
<g id="edge13" class="edge">
<title>Label&#45;&gt;Postag</title>
<path fill="none" stroke="#000000" d="M357.9646,-291.9468C340.1332,-281.158 315.2735,-266.1169 295.3505,-254.0626"/>
<polygon fill="#000000" stroke="#000000" points="296.9547,-250.9425 286.587,-248.7603 293.331,-256.9316 296.9547,-250.9425"/>
</g>
<!-- Sentiment -->
<g id="node16" class="node">
<title>Sentiment</title>
<ellipse fill="none" stroke="#000000" cx="381.1915" cy="-234" rx="59.2899" ry="18"/>
<text text-anchor="middle" x="381.1915" y="-230.3" font-family="Times,serif" font-size="14.00" fill="#000000">Sentiment</text>
</g>
<!-- Label&#45;&gt;Sentiment -->
<g id="edge15" class="edge">
<title>Label&#45;&gt;Sentiment</title>
<path fill="none" stroke="#000000" d="M381.1915,-287.8314C381.1915,-280.131 381.1915,-270.9743 381.1915,-262.4166"/>
<polygon fill="#000000" stroke="#000000" points="384.6916,-262.4132 381.1915,-252.4133 377.6916,-262.4133 384.6916,-262.4132"/>
</g>
<!-- Matrix -->
<g id="node6" class="node">
<title>Matrix</title>
<ellipse fill="none" stroke="#000000" cx="500.1915" cy="-234" rx="42.4939" ry="18"/>
<text text-anchor="middle" x="500.1915" y="-230.3" font-family="Times,serif" font-size="14.00" fill="#000000">Matrix</text>
</g>
<!-- MatrixCategorical -->
<g id="node7" class="node">
<title>MatrixCategorical</title>
<ellipse fill="none" stroke="#000000" cx="96.1915" cy="-162" rx="96.3833" ry="18"/>
<text text-anchor="middle" x="96.1915" y="-158.3" font-family="Times,serif" font-size="14.00" fill="#000000">MatrixCategorical</text>
</g>
<!-- Matrix&#45;&gt;MatrixCategorical -->
<g id="edge7" class="edge">
<title>Matrix&#45;&gt;MatrixCategorical</title>
<path fill="none" stroke="#000000" d="M468.9249,-221.8858C462.4694,-219.691 455.6642,-217.5958 449.1915,-216 341.0521,-189.3389 311.1997,-197.4108 201.1915,-180 193.2043,-178.7359 184.8827,-177.3785 176.5737,-175.9966"/>
<polygon fill="#000000" stroke="#000000" points="176.9091,-172.5041 166.4682,-174.3035 175.7523,-179.4079 176.9091,-172.5041"/>
</g>
<!-- MatrixContinuous -->
<g id="node8" class="node">
<title>MatrixContinuous</title>
<ellipse fill="none" stroke="#000000" cx="305.1915" cy="-162" rx="94.7833" ry="18"/>
<text text-anchor="middle" x="305.1915" y="-158.3" font-family="Times,serif" font-size="14.00" fill="#000000">MatrixContinuous</text>
</g>
<!-- Matrix&#45;&gt;MatrixContinuous -->
<g id="edge8" class="edge">
<title>Matrix&#45;&gt;MatrixContinuous</title>
<path fill="none" stroke="#000000" d="M467.9912,-222.1107C438.2288,-211.1215 393.4422,-194.5849 358.3729,-181.6362"/>
<polygon fill="#000000" stroke="#000000" points="359.3531,-178.2672 348.7598,-178.0868 356.9285,-184.8339 359.3531,-178.2672"/>
</g>
<!-- MatrixDiscrete -->
<g id="node11" class="node">
<title>MatrixDiscrete</title>
<ellipse fill="none" stroke="#000000" cx="499.1915" cy="-162" rx="81.4863" ry="18"/>
<text text-anchor="middle" x="499.1915" y="-158.3" font-family="Times,serif" font-size="14.00" fill="#000000">MatrixDiscrete</text>
</g>
<!-- Matrix&#45;&gt;MatrixDiscrete -->
<g id="edge11" class="edge">
<title>Matrix&#45;&gt;MatrixDiscrete</title>
<path fill="none" stroke="#000000" d="M499.9391,-215.8314C499.8322,-208.131 499.705,-198.9743 499.5861,-190.4166"/>
<polygon fill="#000000" stroke="#000000" points="503.0858,-190.3637 499.4472,-180.4133 496.0865,-190.4609 503.0858,-190.3637"/>
</g>
<!-- MatrixContinuousDense -->
<g id="node9" class="node">
<title>MatrixContinuousDense</title>
<ellipse fill="none" stroke="#000000" cx="170.1915" cy="-90" rx="124.2781" ry="18"/>
<text text-anchor="middle" x="170.1915" y="-86.3" font-family="Times,serif" font-size="14.00" fill="#000000">MatrixContinuousDense</text>
</g>
<!-- MatrixContinuous&#45;&gt;MatrixContinuousDense -->
<g id="edge9" class="edge">
<title>MatrixContinuous&#45;&gt;MatrixContinuousDense</title>
<path fill="none" stroke="#000000" d="M273.1983,-144.937C254.8897,-135.1724 231.7089,-122.8093 211.9757,-112.285"/>
<polygon fill="#000000" stroke="#000000" points="213.3633,-109.0584 202.8927,-107.4407 210.0692,-115.2348 213.3633,-109.0584"/>
</g>
<!-- MatrixContinuousSparse -->
<g id="node10" class="node">
<title>MatrixContinuousSparse</title>
<ellipse fill="none" stroke="#000000" cx="440.1915" cy="-90" rx="127.2775" ry="18"/>
<text text-anchor="middle" x="440.1915" y="-86.3" font-family="Times,serif" font-size="14.00" fill="#000000">MatrixContinuousSparse</text>
</g>
<!-- MatrixContinuous&#45;&gt;MatrixContinuousSparse -->
<g id="edge10" class="edge">
<title>MatrixContinuous&#45;&gt;MatrixContinuousSparse</title>
<path fill="none" stroke="#000000" d="M337.1846,-144.937C355.4932,-135.1724 378.674,-122.8093 398.4072,-112.285"/>
<polygon fill="#000000" stroke="#000000" points="400.3137,-115.2348 407.4902,-107.4407 397.0196,-109.0584 400.3137,-115.2348"/>
</g>
<!-- MonoImage -->
<g id="node12" class="node">
<title>MonoImage</title>
<ellipse fill="none" stroke="#000000" cx="74.1915" cy="-18" rx="65.7887" ry="18"/>
<text text-anchor="middle" x="74.1915" y="-14.3" font-family="Times,serif" font-size="14.00" fill="#000000">MonoImage</text>
</g>
<!-- MatrixContinuousDense&#45;&gt;MonoImage -->
<g id="edge12" class="edge">
<title>MatrixContinuousDense&#45;&gt;MonoImage</title>
<path fill="none" stroke="#000000" d="M146.4611,-72.2022C133.9543,-62.8221 118.4644,-51.2047 105.0367,-41.134"/>
<polygon fill="#000000" stroke="#000000" points="107.0878,-38.2973 96.9878,-35.0972 102.8878,-43.8973 107.0878,-38.2973"/>
</g>
<!-- SequenceEmbedding -->
<g id="node18" class="node">
<title>SequenceEmbedding</title>
<ellipse fill="none" stroke="#000000" cx="267.1915" cy="-18" rx="109.381" ry="18"/>
<text text-anchor="middle" x="267.1915" y="-14.3" font-family="Times,serif" font-size="14.00" fill="#000000">SequenceEmbedding</text>
</g>
<!-- MatrixContinuousDense&#45;&gt;SequenceEmbedding -->
<g id="edge17" class="edge">
<title>MatrixContinuousDense&#45;&gt;SequenceEmbedding</title>
<path fill="none" stroke="#000000" d="M194.169,-72.2022C206.6202,-62.9601 221.9977,-51.5459 235.425,-41.5792"/>
<polygon fill="#000000" stroke="#000000" points="237.5461,-44.3637 243.4897,-35.593 233.3739,-38.7429 237.5461,-44.3637"/>
</g>
<!-- SemanticType -->
<g id="node14" class="node">
<title>SemanticType</title>
<ellipse fill="none" stroke="#000000" cx="513.1915" cy="-378" rx="77.1866" ry="18"/>
<text text-anchor="middle" x="513.1915" y="-374.3" font-family="Times,serif" font-size="14.00" fill="#000000">SemanticType</text>
</g>
<!-- SemanticType&#45;&gt;FeatureSet -->
<g id="edge4" class="edge">
<title>SemanticType&#45;&gt;FeatureSet</title>
<path fill="none" stroke="#000000" d="M464.5907,-363.9468C422.5738,-351.7973 361.9069,-334.2551 318.3441,-321.6586"/>
<polygon fill="#000000" stroke="#000000" points="319.0711,-318.2255 308.4924,-318.8099 317.1266,-324.95 319.0711,-318.2255"/>
</g>
<!-- SemanticType&#45;&gt;Label -->
<g id="edge5" class="edge">
<title>SemanticType&#45;&gt;Label</title>
<path fill="none" stroke="#000000" d="M482.5762,-361.3008C462.2753,-350.2276 435.633,-335.6954 414.7545,-324.3071"/>
<polygon fill="#000000" stroke="#000000" points="416.3585,-321.1952 405.9035,-319.4793 413.0065,-327.3405 416.3585,-321.1952"/>
</g>
<!-- Seq -->
<g id="node17" class="node">
<title>Seq</title>
<ellipse fill="none" stroke="#000000" cx="469.1915" cy="-306" rx="28.6953" ry="18"/>
<text text-anchor="middle" x="469.1915" y="-302.3" font-family="Times,serif" font-size="14.00" fill="#000000">Seq</text>
</g>
<!-- SemanticType&#45;&gt;Seq -->
<g id="edge16" class="edge">
<title>SemanticType&#45;&gt;Seq</title>
<path fill="none" stroke="#000000" d="M502.0884,-359.8314C496.8408,-351.2444 490.4866,-340.8466 484.7673,-331.4878"/>
<polygon fill="#000000" stroke="#000000" points="487.7363,-329.634 479.5353,-322.9263 481.7634,-333.2842 487.7363,-329.634"/>
</g>
<!-- Synset -->
<g id="node20" class="node">
<title>Synset</title>
<ellipse fill="none" stroke="#000000" cx="558.1915" cy="-306" rx="42.4939" ry="18"/>
<text text-anchor="middle" x="558.1915" y="-302.3" font-family="Times,serif" font-size="14.00" fill="#000000">Synset</text>
</g>
<!-- SemanticType&#45;&gt;Synset -->
<g id="edge19" class="edge">
<title>SemanticType&#45;&gt;Synset</title>
<path fill="none" stroke="#000000" d="M524.5469,-359.8314C529.8348,-351.3707 536.2214,-341.1521 542.0031,-331.9014"/>
<polygon fill="#000000" stroke="#000000" points="544.9734,-333.7527 547.3054,-323.4177 539.0374,-330.0427 544.9734,-333.7527"/>
</g>
<!-- Tensor -->
<g id="node21" class="node">
<title>Tensor</title>
<ellipse fill="none" stroke="#000000" cx="662.1915" cy="-306" rx="42.4939" ry="18"/>
<text text-anchor="middle" x="662.1915" y="-302.3" font-family="Times,serif" font-size="14.00" fill="#000000">Tensor</text>
</g>
<!-- SemanticType&#45;&gt;Tensor -->
<g id="edge20" class="edge">
<title>SemanticType&#45;&gt;Tensor</title>
<path fill="none" stroke="#000000" d="M547.0019,-361.6621C570.1966,-350.4539 600.982,-335.5777 624.8912,-324.0243"/>
<polygon fill="#000000" stroke="#000000" points="626.5341,-327.1177 634.0152,-319.6154 623.4885,-320.8149 626.5341,-327.1177"/>
</g>
<!-- Text -->
<g id="node24" class="node">
<title>Text</title>
<ellipse fill="none" stroke="#000000" cx="1240.1915" cy="-306" rx="31.3957" ry="18"/>
<text text-anchor="middle" x="1240.1915" y="-302.3" font-family="Times,serif" font-size="14.00" fill="#000000">Text</text>
</g>
<!-- SemanticType&#45;&gt;Text -->
<g id="edge23" class="edge">
<title>SemanticType&#45;&gt;Text</title>
<path fill="none" stroke="#000000" d="M584.5555,-370.9323C734.9263,-356.04 1080.2569,-321.8395 1199.1139,-310.0682"/>
<polygon fill="#000000" stroke="#000000" points="1199.6388,-313.5334 1209.2451,-309.0648 1198.9488,-306.5675 1199.6388,-313.5334"/>
</g>
<!-- Word -->
<g id="node30" class="node">
<title>Word</title>
<ellipse fill="none" stroke="#000000" cx="1396.1915" cy="-90" rx="35.9954" ry="18"/>
<text text-anchor="middle" x="1396.1915" y="-86.3" font-family="Times,serif" font-size="14.00" fill="#000000">Word</text>
</g>
<!-- Sentence&#45;&gt;Word -->
<g id="edge29" class="edge">
<title>Sentence&#45;&gt;Word</title>
<path fill="none" stroke="#000000" d="M1396.1915,-143.8314C1396.1915,-136.131 1396.1915,-126.9743 1396.1915,-118.4166"/>
<polygon fill="#000000" stroke="#000000" points="1399.6916,-118.4132 1396.1915,-108.4133 1392.6916,-118.4133 1399.6916,-118.4132"/>
</g>
<!-- Stem -->
<g id="node19" class="node">
<title>Stem</title>
<ellipse fill="none" stroke="#000000" cx="1352.1915" cy="-234" rx="35.194" ry="18"/>
<text text-anchor="middle" x="1352.1915" y="-230.3" font-family="Times,serif" font-size="14.00" fill="#000000">Stem</text>
</g>
<!-- Tensor&#45;&gt;Matrix -->
<g id="edge6" class="edge">
<title>Tensor&#45;&gt;Matrix</title>
<path fill="none" stroke="#000000" d="M632.8545,-292.9613C606.5584,-281.2742 567.7947,-264.0459 538.9522,-251.227"/>
<polygon fill="#000000" stroke="#000000" points="540.1431,-247.9262 529.5835,-247.0631 537.3001,-254.3229 540.1431,-247.9262"/>
</g>
<!-- Tensor3 -->
<g id="node22" class="node">
<title>Tensor3</title>
<ellipse fill="none" stroke="#000000" cx="662.1915" cy="-234" rx="48.1917" ry="18"/>
<text text-anchor="middle" x="662.1915" y="-230.3" font-family="Times,serif" font-size="14.00" fill="#000000">Tensor3</text>
</g>
<!-- Tensor&#45;&gt;Tensor3 -->
<g id="edge21" class="edge">
<title>Tensor&#45;&gt;Tensor3</title>
<path fill="none" stroke="#000000" d="M662.1915,-287.8314C662.1915,-280.131 662.1915,-270.9743 662.1915,-262.4166"/>
<polygon fill="#000000" stroke="#000000" points="665.6916,-262.4132 662.1915,-252.4133 658.6916,-262.4133 665.6916,-262.4132"/>
</g>
<!-- Tensor4 -->
<g id="node23" class="node">
<title>Tensor4</title>
<ellipse fill="none" stroke="#000000" cx="776.1915" cy="-234" rx="48.1917" ry="18"/>
<text text-anchor="middle" x="776.1915" y="-230.3" font-family="Times,serif" font-size="14.00" fill="#000000">Tensor4</text>
</g>
<!-- Tensor&#45;&gt;Tensor4 -->
<g id="edge22" class="edge">
<title>Tensor&#45;&gt;Tensor4</title>
<path fill="none" stroke="#000000" d="M686.0896,-290.9064C702.5855,-280.488 724.7419,-266.4945 742.9552,-254.9913"/>
<polygon fill="#000000" stroke="#000000" points="744.9515,-257.8702 751.5374,-249.571 741.2135,-251.9517 744.9515,-257.8702"/>
</g>
<!-- Vector -->
<g id="node26" class="node">
<title>Vector</title>
<ellipse fill="none" stroke="#000000" cx="967.1915" cy="-234" rx="40.8928" ry="18"/>
<text text-anchor="middle" x="967.1915" y="-230.3" font-family="Times,serif" font-size="14.00" fill="#000000">Vector</text>
</g>
<!-- Tensor&#45;&gt;Vector -->
<g id="edge25" class="edge">
<title>Tensor&#45;&gt;Vector</title>
<path fill="none" stroke="#000000" d="M699.2855,-297.2434C754.963,-284.0998 860.0659,-259.2886 920.7593,-244.961"/>
<polygon fill="#000000" stroke="#000000" points="921.9005,-248.2879 930.8288,-242.584 920.2922,-241.4752 921.9005,-248.2879"/>
</g>
<!-- Tensor3&#45;&gt;ColorImage -->
<g id="edge2" class="edge">
<title>Tensor3&#45;&gt;ColorImage</title>
<path fill="none" stroke="#000000" d="M662.6961,-215.8314C662.91,-208.131 663.1644,-198.9743 663.4021,-190.4166"/>
<polygon fill="#000000" stroke="#000000" points="666.9009,-190.5066 663.68,-180.4133 659.9036,-190.3122 666.9009,-190.5066"/>
</g>
<!-- Text&#45;&gt;Document -->
<g id="edge3" class="edge">
<title>Text&#45;&gt;Document</title>
<path fill="none" stroke="#000000" d="M1240.1915,-287.8314C1240.1915,-280.131 1240.1915,-270.9743 1240.1915,-262.4166"/>
<polygon fill="#000000" stroke="#000000" points="1243.6916,-262.4132 1240.1915,-252.4133 1236.6916,-262.4133 1243.6916,-262.4132"/>
</g>
<!-- Text&#45;&gt;Stem -->
<g id="edge18" class="edge">
<title>Text&#45;&gt;Stem</title>
<path fill="none" stroke="#000000" d="M1261.2578,-292.4574C1278.2158,-281.5558 1302.2897,-266.0797 1321.4078,-253.7895"/>
<polygon fill="#000000" stroke="#000000" points="1323.551,-256.5726 1330.0701,-248.2209 1319.7657,-250.6843 1323.551,-256.5726"/>
</g>
<!-- TokenEmbedding -->
<g id="node25" class="node">
<title>TokenEmbedding</title>
<ellipse fill="none" stroke="#000000" cx="1050.1915" cy="-90" rx="92.0841" ry="18"/>
<text text-anchor="middle" x="1050.1915" y="-86.3" font-family="Times,serif" font-size="14.00" fill="#000000">TokenEmbedding</text>
</g>
<!-- VectorCategorical -->
<g id="node27" class="node">
<title>VectorCategorical</title>
<ellipse fill="none" stroke="#000000" cx="843.1915" cy="-162" rx="94.7833" ry="18"/>
<text text-anchor="middle" x="843.1915" y="-158.3" font-family="Times,serif" font-size="14.00" fill="#000000">VectorCategorical</text>
</g>
<!-- Vector&#45;&gt;VectorCategorical -->
<g id="edge26" class="edge">
<title>Vector&#45;&gt;VectorCategorical</title>
<path fill="none" stroke="#000000" d="M942.3962,-219.6028C924.9899,-209.4959 901.3753,-195.7842 881.5524,-184.2741"/>
<polygon fill="#000000" stroke="#000000" points="883.1527,-181.1561 872.7473,-179.1615 879.6377,-187.2096 883.1527,-181.1561"/>
</g>
<!-- VectorContinuous -->
<g id="node28" class="node">
<title>VectorContinuous</title>
<ellipse fill="none" stroke="#000000" cx="1050.1915" cy="-162" rx="94.4839" ry="18"/>
<text text-anchor="middle" x="1050.1915" y="-158.3" font-family="Times,serif" font-size="14.00" fill="#000000">VectorContinuous</text>
</g>
<!-- Vector&#45;&gt;VectorContinuous -->
<g id="edge27" class="edge">
<title>Vector&#45;&gt;VectorContinuous</title>
<path fill="none" stroke="#000000" d="M986.0254,-217.6621C996.5957,-208.4927 1009.9958,-196.8685 1021.8135,-186.617"/>
<polygon fill="#000000" stroke="#000000" points="1024.4275,-188.9829 1029.6879,-179.7862 1019.8405,-183.6951 1024.4275,-188.9829"/>
</g>
<!-- VectorDiscrete -->
<g id="node29" class="node">
<title>VectorDiscrete</title>
<ellipse fill="none" stroke="#000000" cx="1243.1915" cy="-162" rx="80.6858" ry="18"/>
<text text-anchor="middle" x="1243.1915" y="-158.3" font-family="Times,serif" font-size="14.00" fill="#000000">VectorDiscrete</text>
</g>
<!-- Vector&#45;&gt;VectorDiscrete -->
<g id="edge28" class="edge">
<title>Vector&#45;&gt;VectorDiscrete</title>
<path fill="none" stroke="#000000" d="M1002.4274,-224.808C1047.3009,-213.1019 1125.6187,-192.6712 1180.7198,-178.297"/>
<polygon fill="#000000" stroke="#000000" points="1181.9323,-181.5979 1190.7249,-175.6869 1180.1653,-174.8246 1181.9323,-181.5979"/>
</g>
<!-- VectorContinuous&#45;&gt;TokenEmbedding -->
<g id="edge24" class="edge">
<title>VectorContinuous&#45;&gt;TokenEmbedding</title>
<path fill="none" stroke="#000000" d="M1050.1915,-143.8314C1050.1915,-136.131 1050.1915,-126.9743 1050.1915,-118.4166"/>
<polygon fill="#000000" stroke="#000000" points="1053.6916,-118.4132 1050.1915,-108.4133 1046.6916,-118.4133 1053.6916,-118.4132"/>
</g>
</g>
</svg>
